<?xml version="1.0" encoding="UTF-8" standalone="no"?>
<!-- Created with Inkscape (http://www.inkscape.org/) -->

<svg
   version="1.1"
   id="svg1375"
   xml:space="preserve"
   width="593.70209"
   height="129.35281"
   viewBox="0 0 593.70209 129.35281"
   sodipodi:docname="harness_logo_4c.svg"
   inkscape:version="1.1.1 (3bf5ae0d25, 2021-09-20)"
   xmlns:inkscape="http://www.inkscape.org/namespaces/inkscape"
   xmlns:sodipodi="http://sodipodi.sourceforge.net/DTD/sodipodi-0.dtd"
   xmlns="http://www.w3.org/2000/svg"
   xmlns:svg="http://www.w3.org/2000/svg"><defs
     id="defs1379"><clipPath
       clipPathUnits="userSpaceOnUse"
       id="clipPath1389"><path
         d="M 0,612 H 792 V 0 H 0 Z"
         id="path1387" /></clipPath></defs><sodipodi:namedview
     id="namedview1377"
     pagecolor="#ffffff"
     bordercolor="#666666"
     borderopacity="1.0"
     inkscape:pageshadow="2"
     inkscape:pageopacity="0.0"
     inkscape:pagecheckerboard="0"
     showgrid="false"
     fit-margin-top="0"
     fit-margin-left="0"
     fit-margin-right="0"
     fit-margin-bottom="0"
     inkscape:zoom="0.97181373"
     inkscape:cx="296.86759"
     inkscape:cy="63.283733"
     inkscape:window-width="1920"
     inkscape:window-height="1001"
     inkscape:window-x="-7"
     inkscape:window-y="-7"
     inkscape:window-maximized="1"
     inkscape:current-layer="g1381" /><g
     id="g1381"
     inkscape:groupmode="layer"
     inkscape:label="harness_logo_4c"
     transform="matrix(1.3333333,0,0,-1.3333333,-231.63072,471.44281)"><g
       id="g1383"><g
         id="g1385"
         clip-path="url(#clipPath1389)"><g
           id="g1391"
           transform="translate(256.3472,303.1865)"><path
             d="m 0,0 c -0.819,-2.752 -2.705,-4.809 -2.862,-4.978 l -7.236,-7.235 -14.1,14.102 14.101,14.098 7.273,-7.273 C -0.88,6.771 1.198,4.022 0,0 m -36.004,-32.229 c -2.752,0.82 -4.809,2.706 -4.977,2.863 l -7.236,7.234 14.101,14.102 14.1,-14.101 -7.274,-7.273 c -1.944,-1.945 -4.691,-4.024 -8.714,-2.825 m -32.23,36.003 c 0.819,2.753 2.705,4.81 2.862,4.978 l 7.236,7.236 14.101,-14.099 -14.1,-14.102 -7.274,7.275 c -1.944,1.944 -4.022,4.691 -2.825,8.712 m 36.005,32.231 c 2.752,-0.819 4.809,-2.706 4.977,-2.862 l 7.236,-7.237 -14.1,-14.099 -14.101,14.099 7.273,7.275 c 1.944,1.944 4.693,4.022 8.715,2.824 M 7.095,18.633 -17.371,43.1 c -0.421,0.421 -4.286,4.171 -10.108,6.113 -8.353,2.785 -16.657,0.613 -23.384,-6.113 L -75.328,18.633 c -0.422,-0.421 -4.173,-4.284 -6.114,-10.108 -2.784,-8.351 -0.613,-16.657 6.114,-23.382 l 24.466,-24.465 c 0.421,-0.422 4.285,-4.174 10.108,-6.116 2.373,-0.791 4.742,-1.181 7.073,-1.181 5.87,0 11.494,2.48 16.309,7.297 l 24.466,24.465 c 0.421,0.42 4.173,4.285 6.114,10.107 2.785,8.353 0.613,16.656 -6.113,23.383"
             style="fill:#00ade4;fill-opacity:1;fill-rule:nonzero;stroke:none"
             id="path1393" /></g><g
           id="g1395"
           transform="translate(605.9756,307.1812)"><path
             d="m 0,0 h 11.924 c 0,3.807 -1.804,7.715 -4.611,10.721 -3.805,4.108 -10.119,6.112 -16.332,6.112 -6.51,0 -12.022,-1.904 -15.83,-5.21 -3.105,-2.706 -5.309,-6.413 -5.309,-11.724 0,-6.612 4.808,-12.423 11.924,-13.926 4.607,-1.002 9.818,-1.303 14.426,-2.004 3.206,-0.501 5.21,-2.505 5.21,-5.511 0,-5.711 -6.413,-6.613 -10.621,-6.613 -3.605,0 -5.91,0.702 -7.914,2.304 -1.288,1.045 -2.282,2.868 -2.638,4.738 h -11.804 c 0.414,-4.334 2.703,-8.119 5.425,-10.749 4.306,-4.109 10.218,-6.013 16.833,-6.013 7.113,0 13.626,1.805 17.835,6.013 2.705,2.705 4.506,6.412 4.506,11.422 0,8.215 -6.009,13.425 -14.225,14.729 -5.111,0.801 -6.413,0.901 -11.122,1.503 -2.806,0.4 -6.013,1.503 -6.013,5.21 0,2.705 1.805,4.608 4.009,5.511 1.903,0.8 3.605,0.8 5.41,0.8 2.605,0 5.311,-0.9 6.813,-2.404 C -0.901,3.606 0,2.004 0,0 m -66.355,1.002 c 0,2.705 1.802,4.608 4.006,5.511 1.906,0.8 3.609,0.8 5.411,0.8 2.606,0 5.311,-0.9 6.814,-2.404 1.202,-1.303 2.103,-2.905 2.103,-4.909 h 11.923 c 0,3.807 -1.802,7.715 -4.608,10.721 -3.808,4.108 -10.119,6.112 -16.332,6.112 -6.513,0 -12.024,-1.904 -15.83,-5.21 -3.108,-2.706 -5.312,-6.413 -5.312,-11.724 0,-6.612 4.81,-12.423 11.924,-13.926 4.61,-1.002 9.818,-1.303 14.429,-2.004 3.207,-0.501 5.211,-2.505 5.211,-5.511 0,-5.711 -6.413,-6.613 -10.621,-6.613 -3.609,0 -5.912,0.702 -7.916,2.304 -1.287,1.045 -2.284,2.868 -2.638,4.738 h -11.806 c 0.414,-4.334 2.704,-8.119 5.426,-10.749 4.309,-4.109 10.221,-6.013 16.833,-6.013 7.113,0 13.626,1.805 17.834,6.013 2.706,2.705 4.509,6.412 4.509,11.422 0,8.215 -6.011,13.425 -14.228,14.729 -5.109,0.801 -6.413,0.901 -11.122,1.503 -2.804,0.4 -6.01,1.503 -6.01,5.21 m -16.818,-11.923 c 0.199,6.512 -0.701,12.424 -4.51,18.135 -4.306,6.513 -11.321,9.619 -19.037,9.619 -7.113,0 -12.723,-2.605 -16.632,-6.613 -5.008,-5.111 -7.513,-12.526 -7.513,-20.841 0,-8.517 2.804,-15.831 8.014,-20.84 4.11,-3.908 9.32,-6.414 16.433,-6.414 6.612,0 13.125,2.104 17.533,7.314 2.005,2.406 4.11,6.513 4.409,9.62 h -12.023 c -0.501,-1.904 -1.402,-3.306 -2.505,-4.409 -1.804,-1.803 -4.009,-2.504 -7.614,-2.504 -3.406,0 -5.911,1.502 -7.716,3.206 -2.505,2.405 -3.906,6.211 -3.808,10.219 h 34.87 c 0,1.103 0.099,3.508 0.099,3.508 m -12.523,5.61 h -22.544 c 0.098,3.407 0.901,5.812 2.705,8.116 1.804,2.405 4.909,4.007 8.717,4.007 3.606,0 6.212,-1.202 7.915,-3.005 2.004,-2.204 3.105,-5.21 3.207,-9.118 m -53.649,-31.26 h 12.526 v 34.766 c 0,10.823 -6.513,18.638 -17.635,18.638 -6.012,0 -12.225,-2.506 -15.329,-8.017 l -0.904,6.713 h -10.519 v -52.1 h 12.523 v 21.241 c 0,4.409 -0.098,9.818 1.704,13.927 1.705,3.807 4.61,6.613 9.018,6.613 6.612,0 8.616,-3.707 8.616,-9.819 z m -39.547,40.979 c 0.658,0 1.337,-0.052 2.018,-0.129 v 11.827 c -0.538,0.035 -1.077,0.125 -1.615,0.125 -6.114,0 -12.324,-2.504 -14.731,-8.516 l -1.1,7.814 h -10.621 v -52.1 h 12.625 v 26.251 c 0,8.416 4.608,14.728 13.424,14.728 m -39.36,-41.781 c 3.005,0 4.106,0.501 6.21,1.402 v 9.219 c 0,0 -0.8,-0.2 -1.602,-0.2 -2.104,0 -2.906,0.9 -2.906,3.306 v 19.337 c 0,3.506 -0.2,7.214 -1.503,10.521 -3.006,7.814 -10.619,10.621 -19.538,10.621 -11.621,0 -20.941,-5.21 -21.641,-16.934 h 12.124 c 0.299,4.81 3.707,7.414 9.517,7.414 7.114,0 8.818,-3.305 8.818,-8.215 v -3.206 l -15.331,-1.102 c -9.918,-0.701 -17.634,-6.413 -17.634,-16.332 0,-8.518 6.413,-16.333 18.838,-16.333 7.414,0 13.425,3.607 15.831,7.815 0.401,-3.907 3.405,-7.313 8.817,-7.313 m -10.521,21.542 c 0,-7.715 -5.511,-11.923 -13.326,-11.923 -3.907,0 -7.415,2.504 -7.415,6.513 0,4.208 3.707,6.512 7.515,6.812 l 13.226,1.002 z m -50.991,-20.734 h 12.628 V -1.51 c 0,10.81 -6.566,18.79 -17.78,18.79 -5.456,0 -11.314,-2.424 -14.346,-6.868 v 25.963 h -12.628 v -72.94 h 12.628 v 27.68 c 0,6.466 3.234,14.548 10.81,14.548 6.667,0 8.688,-3.738 8.688,-9.8 z"
             style="fill:#231f20;fill-opacity:1;fill-rule:nonzero;stroke:none"
             id="path1397" /></g></g></g></g></svg>
