<?xml version="1.0" encoding="UTF-8" standalone="no"?>
<!-- Created with Inkscape (http://www.inkscape.org/) -->

<svg
   version="1.1"
   id="svg68265"
   xml:space="preserve"
   width="704.8667"
   height="294.95999"
   viewBox="0 0 704.8667 294.95999"
   sodipodi:docname="bmc_logo_RGB.svg"
   inkscape:version="1.1.1 (3bf5ae0d25, 2021-09-20)"
   xmlns:inkscape="http://www.inkscape.org/namespaces/inkscape"
   xmlns:sodipodi="http://sodipodi.sourceforge.net/DTD/sodipodi-0.dtd"
   xmlns="http://www.w3.org/2000/svg"
   xmlns:svg="http://www.w3.org/2000/svg"><defs
     id="defs68269" /><sodipodi:namedview
     id="namedview68267"
     pagecolor="#ffffff"
     bordercolor="#666666"
     borderopacity="1.0"
     inkscape:pageshadow="2"
     inkscape:pageopacity="0.0"
     inkscape:pagecheckerboard="0"
     showgrid="false"
     inkscape:zoom="1.6073961"
     inkscape:cx="352.43335"
     inkscape:cy="147.44343"
     inkscape:window-width="1920"
     inkscape:window-height="1010"
     inkscape:window-x="-6"
     inkscape:window-y="-6"
     inkscape:window-maximized="1"
     inkscape:current-layer="g68271" /><g
     id="g68271"
     inkscape:groupmode="layer"
     inkscape:label="ink_ext_XXXXXX"
     transform="matrix(1.3333333,0,0,-1.3333333,0,294.96)"><g
       id="g68273"
       transform="scale(0.1)"><path
         d="m 2124.18,739.211 c 30.14,-66.832 101.63,-112.242 181.37,-112.242 144.54,0 230.76,116.511 230.76,269.672 0,155.239 -86.22,271.889 -230.76,271.889 -77.59,0 -151.23,-47.54 -181.37,-112.23 z m 0,-323.68 h -269.6 V 1817.97 h 269.6 v -517.89 c 43.33,51.73 138.26,101.62 241.74,101.62 280.4,0 437.84,-228.91 437.84,-505.059 0,-276.082 -157.44,-502.692 -437.84,-502.692 -103.48,0 -198.41,49.742 -241.74,101.313 v -79.731"
         style="fill:#3b393d;fill-opacity:1;fill-rule:nonzero;stroke:none"
         id="path68275" /><path
         d="m 3976.39,1401.7 c 198.47,0 317.13,-138.18 317.13,-356.01 V 415.531 h -267.6 v 573.84 c 0,103.689 -45.32,172.659 -137.97,172.659 -68.97,0 -131.62,-43.03 -149.04,-125.2 V 415.531 h -269.59 v 573.84 c 0,103.689 -42.96,172.659 -135.76,172.659 -68.97,0 -133.83,-43.03 -151.31,-125.2 V 415.531 h -267.32 v 964.439 h 267.32 v -79.89 c 47.7,60.35 136.2,101.62 244.11,101.62 114.24,0 204.99,-52.02 258.76,-123.01 62.46,69 155.38,123.01 291.27,123.01"
         style="fill:#3b393d;fill-opacity:1;fill-rule:nonzero;stroke:none"
         id="path68277" /><path
         d="m 4863.63,1401.7 c 241.96,0 394.98,-142.47 422.9,-347.42 H 5023.6 c -15.33,73.26 -73.43,118.51 -159.97,118.51 -122.62,0 -198.16,-112.1 -198.16,-276.149 0,-161.68 75.54,-274.11 198.16,-274.11 86.54,0 144.64,45.559 159.97,118.617 h 262.93 c -27.92,-206.886 -180.94,-347.199 -422.9,-347.199 -273.8,0 -463.83,205.16 -463.83,502.692 0,299.959 190.03,505.059 463.83,505.059"
         style="fill:#3b393d;fill-opacity:1;fill-rule:nonzero;stroke:none"
         id="path68279" /><path
         d="m 217.367,1974.27 v -282.25 c 0,-47.53 40.063,-117.92 80.824,-142.25 l 538.68,-319.14 315.829,187.18 z M 836.871,979.281 297.48,659.5 C 256.578,635.23 216.52,564.852 216.52,517.16 V 237.531 l 935.54,554.707 z M 181.82,0 C 91.5391,0 0,69.8086 0,203.551 V 517.16 C 0,641.301 80.543,782.301 187.32,845.539 L 624.59,1104.95 187.816,1363.71 C 81.2461,1426.98 0.917969,1568.04 0.917969,1692.02 v 316.6 c 0,133.58 91.191431,203.54 181.465031,203.54 38.652,0 77.644,-11.5 115.808,-34.41 l 987.729,-587.43 c 68.76,-40.84 108.12,-103.96 108.12,-172.58 0,-68.9 -39.5,-131.81 -108.26,-172.72 l -236.83,-140.07 236.62,-140.071 c 68.97,-40.899 108.47,-103.828 108.47,-172.641 0,-68.687 -39.5,-131.75 -108.47,-172.457 L 297.48,34.082 C 259.328,11.3711 220.465,0 181.82,0"
         style="fill:#f0401e;fill-opacity:1;fill-rule:nonzero;stroke:none"
         id="path68281" /></g></g></svg>
