<?xml version="1.0" encoding="UTF-8" standalone="no"?>
<!-- Created with Inkscape (http://www.inkscape.org/) -->

<svg
   version="1.1"
   id="svg2"
   xml:space="preserve"
   width="500"
   height="82.520721"
   viewBox="0 0 500.00002 82.520721"
   sodipodi:docname="Thundra-Main-Purple.svg"
   inkscape:version="1.1.1 (3bf5ae0d25, 2021-09-20)"
   xmlns:inkscape="http://www.inkscape.org/namespaces/inkscape"
   xmlns:sodipodi="http://sodipodi.sourceforge.net/DTD/sodipodi-0.dtd"
   xmlns="http://www.w3.org/2000/svg"
   xmlns:svg="http://www.w3.org/2000/svg"><defs
     id="defs6"><clipPath
       clipPathUnits="userSpaceOnUse"
       id="clipPath16"><path
         d="M 0,170 H 1000 V 0 H 0 Z"
         id="path14" /></clipPath></defs><sodipodi:namedview
     id="namedview4"
     pagecolor="#ffffff"
     bordercolor="#666666"
     borderopacity="1.0"
     inkscape:pageshadow="2"
     inkscape:pageopacity="0.0"
     inkscape:pagecheckerboard="0"
     showgrid="false"
     fit-margin-top="0"
     fit-margin-left="0"
     fit-margin-right="0"
     fit-margin-bottom="0"
     inkscape:zoom="0.86175005"
     inkscape:cx="666.66663"
     inkscape:cy="107.91992"
     inkscape:window-width="1920"
     inkscape:window-height="1010"
     inkscape:window-x="-6"
     inkscape:window-y="-6"
     inkscape:window-maximized="1"
     inkscape:current-layer="g8" /><g
     id="g8"
     inkscape:groupmode="layer"
     inkscape:label="Thundra-Main-Purple (1)"
     transform="matrix(1.3333333,0,0,-1.3333333,0,220.34265)"><g
       id="g10"
       transform="matrix(0.3781307,0,0,0.3781307,0,102.76825)"><g
         id="g12"
         clip-path="url(#clipPath16)"><g
           id="g18"
           transform="translate(46.7104,1.582)"><path
             d="M 0,0 V 2.126 L 12.12,6.065 0.07,4.763 0.256,8.971 c 0,0 19.037,-1.105 25.351,2.351 6.313,3.456 44.786,26.247 44.786,26.247 0,0 -20.835,-0.747 -38.796,10.212 L 41.055,63.816 24.022,51.28 C 10.955,56.52 2.302,63.935 0.579,65.481 0.487,65.598 0.398,65.712 0.31,65.827 l 17.771,16.794 c 0,0 -14.26,-6.268 -24.163,-9.794 -0.34,0.261 -0.797,0.681 -1.334,1.213 5.027,3.119 12.029,7.405 12.029,7.405 l -16.825,-2.182 c -1.012,0.459 -4.241,3.657 -7.378,8.79 -3.139,5.134 -4.713,9.063 -4.713,9.063 l 39.215,13.319 -45.956,3.74 c 0,0 -0.792,0.396 -2.376,3.564 -1.584,3.168 -2.371,6.799 -2.371,6.799 l 36.443,4.701 -43.181,10.676 c 0,0 -3.396,5.617 -3.96,10.692 -0.792,7.128 0.792,13.068 0.792,13.068 0,0 33.698,-1.137 67.367,-12.498 33.67,-11.36 38.367,-32.646 38.367,-32.646 0.792,-27.815 7.517,-47.703 30.492,-64.549 22.974,-16.845 47.913,-11.774 58.609,-1.98 8.226,7.533 -1.98,11.88 -1.98,11.88 0,0 14.549,1.292 26.136,-0.792 13.072,-2.35 20.265,-9.459 20.265,-9.459 z"
             style="fill:#404090;fill-opacity:1;fill-rule:nonzero;stroke:none"
             id="path20" /></g><g
           id="g22"
           transform="translate(337.1606,120.147)"><path
             d="m 0,0 h -29.251 -24.473 -29.25 c -2.858,0 -5.174,-2.317 -5.174,-5.175 v -14.123 c 0,-2.858 2.316,-5.175 5.174,-5.175 h 26.17 c 1.701,0 3.08,-1.379 3.08,-3.08 V -98.9 c 0,-2.857 2.317,-5.174 5.175,-5.174 h 14.123 c 2.858,0 5.175,2.317 5.175,5.174 v 71.347 c 0,1.701 1.379,3.08 3.081,3.08 H 0 c 2.858,0 5.174,2.317 5.174,5.175 V -5.175 C 5.174,-2.317 2.858,0 0,0"
             style="fill:#404090;fill-opacity:1;fill-rule:nonzero;stroke:none"
             id="path24" /></g><g
           id="g26"
           transform="translate(438.3306,120.147)"><path
             d="m 0,0 h -14.123 c -2.858,0 -5.175,-2.317 -5.175,-5.175 v -31.409 c 0,-1.776 -1.44,-3.217 -3.217,-3.217 h -29.06 c -1.777,0 -3.217,1.441 -3.217,3.217 v 31.409 c 0,2.858 -2.317,5.175 -5.175,5.175 L -74.09,0 c -2.858,0 -5.175,-2.317 -5.175,-5.175 V -39.801 -64.273 -98.9 c 0,-2.857 2.317,-5.174 5.175,-5.174 h 14.123 c 2.858,0 5.175,2.317 5.175,5.174 v 31.409 c 0,1.777 1.44,3.218 3.217,3.218 h 29.06 c 1.777,0 3.217,-1.441 3.217,-3.218 V -98.9 c 0,-2.857 2.317,-5.174 5.174,-5.174 H 0 c 2.858,0 5.174,2.317 5.174,5.174 v 34.627 24.472 34.626 C 5.174,-2.317 2.858,0 0,0"
             style="fill:#404090;fill-opacity:1;fill-rule:nonzero;stroke:none"
             id="path28" /></g><g
           id="g30"
           transform="translate(540.9976,120.147)"><path
             d="m 0,0 h -14.124 c -2.857,0 -5.174,-2.044 -5.174,-4.566 v -69.963 c 0,-2.802 -2.271,-5.073 -5.072,-5.073 h -25.35 c -2.801,0 -5.072,2.271 -5.072,5.073 v 69.963 c 0,2.522 -2.317,4.566 -5.175,4.566 L -74.09,0 c -2.858,0 -5.175,-2.044 -5.175,-4.566 v -79.089 c 0,-11.277 9.142,-20.419 20.42,-20.419 h 43.6 c 11.278,0 20.42,9.142 20.42,20.419 V -4.566 C 5.175,-2.044 2.858,0 0,0"
             style="fill:#404090;fill-opacity:1;fill-rule:nonzero;stroke:none"
             id="path32" /></g><g
           id="g34"
           transform="translate(728.9722,40.5454)"><path
             d="m 0,0 h -26.882 c -1.428,0 -2.586,1.157 -2.586,2.585 v 49.958 c 0,1.428 1.158,2.586 2.586,2.586 H 0 c 3.328,0 6.026,-2.698 6.026,-6.026 V 6.026 C 6.026,2.698 3.328,0 0,0 M -53.94,74.438 V -2.929 c 0,-7.296 -1.063,-14.553 -3.154,-21.544 H 9.823 c 11.419,0 20.676,9.257 20.676,20.676 v 62.772 c 0,11.392 -9.235,20.627 -20.626,20.627 h -58.65 c -2.851,0 -5.163,-2.312 -5.163,-5.164"
             style="fill:#404090;fill-opacity:1;fill-rule:nonzero;stroke:none"
             id="path36" /></g><g
           id="g38"
           transform="translate(802.6162,95.6743)"><path
             d="m 0,0 h 26.883 c 3.328,0 6.026,-2.698 6.026,-6.026 v -21.229 c 0,-3.328 -2.698,-6.026 -6.026,-6.026 H 0 c -1.428,0 -2.585,1.157 -2.585,2.585 V -2.585 C -2.585,-1.158 -1.428,0 0,0 m 57.381,3.684 c 0,11.482 -9.307,20.789 -20.788,20.789 h -39.178 -19.29 c -2.862,0 -5.183,-2.321 -5.183,-5.184 V 0 -33.281 -57.754 -74.427 c 0,-2.858 2.317,-5.175 5.175,-5.175 H -7.76 c 2.858,0 5.175,2.317 5.175,5.175 v 13.219 c 0,1.908 1.546,3.454 3.454,3.454 h 11.614 c 2.325,0 4.443,-1.339 5.439,-3.44 l 7.327,-15.451 c 0.857,-1.805 2.677,-2.957 4.676,-2.957 H 44.64 c 3.761,0 6.266,3.885 4.714,7.31 l -5.141,11.35 c -0.677,1.494 0.415,3.188 2.056,3.188 v 0 c 6.137,0 11.112,4.975 11.112,11.112 z"
             style="fill:#404090;fill-opacity:1;fill-rule:nonzero;stroke:none"
             id="path40" /></g><g
           id="g42"
           transform="translate(900.5576,67.5767)"><path
             d="m 0,0 v 22.914 c 0,2.863 2.321,5.184 5.184,5.184 h 24.284 c 3.328,0 6.026,-2.698 6.026,-6.026 V 0.842 c 0,-3.328 -2.698,-6.026 -6.026,-6.026 H 5.184 C 2.321,-5.184 0,-2.863 0,0 m 0,52.57 h -3.654 c -11.498,0 -20.819,-9.32 -20.819,-20.819 V 28.098 -5.184 -29.656 -46.33 c 0,-2.857 2.317,-5.174 5.175,-5.174 h 14.123 c 2.858,0 5.175,2.317 5.175,5.174 v 13.337 c 0,1.843 1.494,3.337 3.336,3.337 h 28.822 c 1.842,0 3.336,-1.494 3.336,-3.337 V -46.33 c 0,-2.857 2.317,-5.174 5.174,-5.174 h 14.124 c 2.858,0 5.175,2.317 5.175,5.174 v 16.674 24.472 37.202 c 0,11.351 -9.202,20.552 -20.553,20.552 z"
             style="fill:#404090;fill-opacity:1;fill-rule:nonzero;stroke:none"
             id="path44" /></g><g
           id="g46"
           transform="translate(634.3823,114.9722)"><path
             d="m 0,0 v -51.143 c 0,-2.181 -2.812,-3.06 -4.054,-1.267 L -42.366,2.864 c -1.966,2.836 -5.212,4.51 -8.663,4.466 L -64.878,7.153 c -2.819,0 -5.104,-2.285 -5.104,-5.104 v -95.774 c 0,-2.858 2.316,-5.174 5.174,-5.174 h 14.123 c 2.858,0 5.175,2.316 5.175,5.174 v 52.876 c 0,2.177 2.802,3.059 4.05,1.275 l 38.364,-54.892 c 1.942,-2.778 5.118,-4.433 8.508,-4.433 h 13.957 c 2.819,0 5.104,2.285 5.104,5.103 V 0 c 0,2.858 -2.317,5.175 -5.175,5.175 H 5.175 C 2.317,5.175 0,2.858 0,0"
             style="fill:#404090;fill-opacity:1;fill-rule:nonzero;stroke:none"
             id="path48" /></g><g
           id="g50"
           transform="translate(973.7104,27.0386)"><path
             d="M 0,0 H -3.553 V 1.283 H 5.096 V 0 H 1.525 V -10.4 H 0 Z"
             style="fill:#404090;fill-opacity:1;fill-rule:nonzero;stroke:none"
             id="path52" /></g><g
           id="g54"
           transform="translate(989.9526,21.769)"><path
             d="M 0,0 C -0.086,1.629 -0.191,3.588 -0.173,5.044 H -0.225 C -0.624,3.675 -1.109,2.219 -1.699,0.607 L -3.761,-5.062 H -4.906 L -6.795,0.502 C -7.35,2.149 -7.818,3.658 -8.147,5.044 H -8.182 C -8.216,3.588 -8.303,1.629 -8.407,-0.122 l -0.312,-5.009 h -1.439 l 0.815,11.683 h 1.924 l 1.994,-5.651 c 0.485,-1.439 0.883,-2.721 1.178,-3.935 h 0.052 c 0.295,1.179 0.711,2.462 1.231,3.935 l 2.08,5.651 H 1.04 L 1.768,-5.131 H 0.294 Z"
             style="fill:#404090;fill-opacity:1;fill-rule:nonzero;stroke:none"
             id="path56" /></g></g></g></g></svg>
