<?xml version="1.0" encoding="UTF-8" standalone="no"?>
<!-- Created with Inkscape (http://www.inkscape.org/) -->

<svg
   version="1.1"
   id="svg1027"
   xml:space="preserve"
   width="469.70667"
   height="123.73333"
   viewBox="0 0 469.70667 123.73333"
   sodipodi:docname="Cribl_Logo_Trademarked.svg"
   inkscape:version="1.1.1 (3bf5ae0d25, 2021-09-20)"
   xmlns:inkscape="http://www.inkscape.org/namespaces/inkscape"
   xmlns:sodipodi="http://sodipodi.sourceforge.net/DTD/sodipodi-0.dtd"
   xmlns="http://www.w3.org/2000/svg"
   xmlns:svg="http://www.w3.org/2000/svg"><defs
     id="defs1031" /><sodipodi:namedview
     id="namedview1029"
     pagecolor="#ffffff"
     bordercolor="#666666"
     borderopacity="1.0"
     inkscape:pageshadow="2"
     inkscape:pageopacity="0.0"
     inkscape:pagecheckerboard="0"
     showgrid="false"
     inkscape:zoom="2.4121438"
     inkscape:cx="234.85333"
     inkscape:cy="61.978064"
     inkscape:window-width="1920"
     inkscape:window-height="1001"
     inkscape:window-x="-7"
     inkscape:window-y="-7"
     inkscape:window-maximized="1"
     inkscape:current-layer="g1033" /><g
     id="g1033"
     inkscape:groupmode="layer"
     inkscape:label="ink_ext_XXXXXX"
     transform="matrix(1.3333333,0,0,-1.3333333,0,123.73333)"><g
       id="g1035"
       transform="scale(0.1)"><path
         d="m 1278.34,799.629 c 44.1,0 81.35,-5.75 111.75,-17.238 30.38,-11.496 58.64,-27.961 84.8,-49.368 l -57.16,-68.039 c -19.53,16.379 -40.49,28.508 -62.85,36.375 -22.36,7.879 -46.13,11.817 -71.31,11.817 -32.47,0 -62.39,-8.199 -89.78,-24.563 -27.41,-16.383 -49.36,-42.992 -65.9,-79.843 -16.54,-36.844 -24.82,-85.981 -24.82,-147.403 0,-60.16 7.87,-108.668 23.63,-145.512 15.76,-36.851 37.32,-63.625 64.74,-80.316 27.39,-16.695 58.1,-25.035 92.13,-25.035 34.94,0 63.91,5.742 86.9,17.242 22.99,11.496 43.32,24.484 60.95,38.973 l 52.91,-67.551 c -21.73,-21.105 -49.29,-39.293 -82.66,-54.566 -33.39,-15.274 -74.03,-22.922 -121.89,-22.922 -55.12,0 -104.66,12.988 -148.59,38.984 -43.92,25.981 -78.58,64.164 -103.93,114.566 -25.37,50.387 -38.045,112.438 -38.045,186.137 0,73.063 13.085,134.719 39.215,184.957 26.15,50.239 61.09,88.352 104.9,114.336 43.76,25.981 92.1,38.969 145.01,38.969"
         style="fill:#100f0d;fill-opacity:1;fill-rule:nonzero;stroke:none"
         id="path1037" /><path
         d="m 1960.31,642.551 c -11.82,2.351 -25.13,3.543 -39.92,3.543 -43.46,0 -78.99,-10.949 -106.54,-32.84 -27.57,-21.891 -50.63,-53.785 -69.21,-95.66 l -19.38,115.742 h -154 v -75.117 h 73.22 V 210.031 h -73.22 v -75.593 h 279.69 v 75.593 h -100.63 v 185.192 c 15.11,49.761 35.82,88.191 62.11,115.281 25.23,25.984 55.16,39.16 89.54,40.211 V 449.551 h 75.59 l 17.94,183.785 c -11.65,3.773 -23.38,6.848 -35.19,9.215"
         style="fill:#100f0d;fill-opacity:1;fill-rule:nonzero;stroke:none"
         id="path1039" /><path
         d="m 2258,877.59 c 20.79,0 37.56,-6.317 50.31,-18.902 12.78,-12.602 19.14,-28.352 19.14,-47.243 0,-18.906 -6.36,-34.808 -19.14,-47.715 -12.75,-12.917 -29.52,-19.378 -50.31,-19.378 -20.16,0 -36.69,6.461 -49.61,19.378 -12.92,12.907 -19.35,28.809 -19.35,47.715 0,18.891 6.43,34.641 19.35,47.243 12.92,12.585 29.45,18.902 49.61,18.902 z m 73.7,-244.258 V 211.926 h 160.48 v -77.488 h -415.6 v 77.488 h 149.3 v 343.933 h -144.56 v 77.473 h 250.38"
         style="fill:#100f0d;fill-opacity:1;fill-rule:nonzero;stroke:none"
         id="path1041" /><path
         d="m 2805.08,202.469 c 35.89,0 63.69,14.652 83.38,43.937 19.68,29.297 29.54,75.274 29.54,137.949 0,42.532 -3.96,77.083 -11.83,103.708 -7.87,26.601 -19.45,46.066 -34.73,58.339 -15.27,12.286 -33.94,18.434 -55.96,18.434 -23.63,0 -44.42,-7.098 -62.36,-21.262 -17.97,-14.183 -33.24,-30.879 -45.85,-50.082 V 260.113 c 11.66,-17.953 25.76,-32.05 42.3,-42.285 16.54,-10.238 35.02,-15.359 55.51,-15.359 z m -97.81,371.336 c 17.32,22.679 37.57,40.468 60.71,53.383 23.17,12.921 48.58,19.378 76.32,19.378 43.75,0 79.28,-10.793 106.52,-32.367 27.25,-21.574 47.23,-51.969 60.01,-91.179 12.74,-39.215 19.13,-85.27 19.13,-138.192 0,-50.715 -7.57,-95.902 -22.68,-135.578 -15.13,-39.691 -37.39,-70.871 -66.85,-93.551 -29.46,-22.679 -65.75,-34.019 -108.9,-34.019 -55.76,0 -99.54,20.625 -131.35,61.894 l -5.66,-49.136 h -93.07 v 699.21 l 105.82,11.817 v -271.66"
         style="fill:#100f0d;fill-opacity:1;fill-rule:nonzero;stroke:none"
         id="path1043" /><path
         d="m 3288.39,833.648 v -563.14 c 0,-22.996 6.99,-39.301 21.03,-48.906 14.01,-9.606 32.19,-14.414 54.56,-14.414 14.47,0 28.17,1.582 41.08,4.738 12.92,3.144 25.52,7.078 37.81,11.801 l 26.93,-73.696 c -14.81,-7.554 -33,-14.172 -54.56,-19.84 -21.59,-5.668 -46.24,-8.511 -73.94,-8.511 -50.1,0 -89.07,14.097 -116.95,42.285 -27.85,28.183 -41.79,66.851 -41.79,115.988 v 475.742 h -125.83 v 77.953 h 231.66"
         style="fill:#100f0d;fill-opacity:1;fill-rule:nonzero;stroke:none"
         id="path1045" /><path
         d="m 0.00390625,391.836 v 45.449 H 792.539 L 424.918,234.449 0.00390625,391.836"
         style="fill:#54c6c1;fill-opacity:1;fill-rule:nonzero;stroke:none"
         id="path1047" /><path
         d="M 363.18,200.387 0.00390625,0 v 334.906 z"
         style="fill:#54c6c1;fill-opacity:1;fill-rule:nonzero;stroke:none"
         id="path1049" /><path
         d="M 0.00390625,536.133 V 490.684 H 792.539 L 424.918,693.52 0.00390625,536.133"
         style="fill:#54c6c1;fill-opacity:1;fill-rule:nonzero;stroke:none"
         id="path1051" /><path
         d="M 363.18,727.59 0.00390625,927.977 V 593.066 Z"
         style="fill:#54c6c1;fill-opacity:1;fill-rule:nonzero;stroke:none"
         id="path1053" /><path
         d="m 3455.85,876.691 h 12.91 l 20.45,-29.589 20.26,29.589 h 13.3 v -63.546 h -12.71 v 43.097 l -20.64,-29 -21.05,29 v -43.097 h -12.52 z m -50.43,-11.914 h -20.85 v 11.914 h 55.01 v -11.914 h -21.05 v -51.632 h -13.11 v 51.632"
         style="fill:#100f0d;fill-opacity:1;fill-rule:nonzero;stroke:none"
         id="path1055" /></g></g></svg>
