<?xml version="1.0" encoding="UTF-8" standalone="no"?>
<!-- Created with Inkscape (http://www.inkscape.org/) -->

<svg
   version="1.1"
   id="svg2"
   xml:space="preserve"
   width="1122.6"
   height="159.50667"
   viewBox="0 0 1122.6 159.50667"
   sodipodi:docname="Diamanti_Logo_Vector.svg"
   inkscape:version="1.1.1 (3bf5ae0d25, 2021-09-20)"
   xmlns:inkscape="http://www.inkscape.org/namespaces/inkscape"
   xmlns:sodipodi="http://sodipodi.sourceforge.net/DTD/sodipodi-0.dtd"
   xmlns="http://www.w3.org/2000/svg"
   xmlns:svg="http://www.w3.org/2000/svg"><defs
     id="defs6" /><sodipodi:namedview
     id="namedview4"
     pagecolor="#ffffff"
     bordercolor="#666666"
     borderopacity="1.0"
     inkscape:pageshadow="2"
     inkscape:pageopacity="0.0"
     inkscape:pagecheckerboard="0"
     showgrid="false"
     inkscape:zoom="0.98877608"
     inkscape:cx="560.79431"
     inkscape:cy="79.896755"
     inkscape:window-width="1920"
     inkscape:window-height="1010"
     inkscape:window-x="-6"
     inkscape:window-y="-6"
     inkscape:window-maximized="1"
     inkscape:current-layer="g8" /><g
     id="g8"
     inkscape:groupmode="layer"
     inkscape:label="ink_ext_XXXXXX"
     transform="matrix(1.3333333,0,0,-1.3333333,0,159.50667)"><g
       id="g10"
       transform="scale(0.1)"><path
         d="m 1799.86,504.246 h 179.64 c 180.94,0 279.24,54.399 300.54,166.281 8.22,43.254 2.39,76.129 -17.83,100.563 -32.43,39.207 -104.74,59.066 -214.92,59.066 h -185.42 z m 159.46,-192.59 h -422.2 l 135.45,712.074 h 416.42 c 185.64,0 315.67,-43.375 386.48,-128.925 49.86,-60.219 67.15,-139.766 49.98,-229.981 -32.49,-170.742 -198.28,-353.168 -566.13,-353.168"
         style="fill:#87ce26;fill-opacity:1;fill-rule:nonzero;stroke:none"
         id="path12" /><path
         d="m 2770.01,311.656 h -226.1 l 135.46,712.074 h 226.1 L 2770.01,311.656"
         style="fill:#87ce26;fill-opacity:1;fill-rule:nonzero;stroke:none"
         id="path14" /><path
         d="m 3287.07,631.41 h 213.81 l -63.09,199.695 h -9.14 z m 579.61,-319.754 h -261.45 l -52.53,152.43 h -381.35 l -111.51,-152.43 h -258.12 l 523.02,713.024 h 290.25 l 251.69,-713.024"
         style="fill:#87ce26;fill-opacity:1;fill-rule:nonzero;stroke:none"
         id="path16" /><path
         d="m 4997.66,311.656 h -224.17 l 81.5,428.375 -346.09,-428.375 h -118.32 l -182.31,432.801 -82.34,-432.801 h -223.19 l 135.46,712.074 h 304.22 l 169.44,-400.406 320.84,400.406 h 300.42 L 4997.66,311.656"
         style="fill:#87ce26;fill-opacity:1;fill-rule:nonzero;stroke:none"
         id="path18" /><path
         d="m 5517.83,631.41 h 213.82 l -63.1,199.695 h -9.14 z M 6097.45,311.656 H 5836 l -52.54,152.43 H 5402.11 L 5290.6,311.656 h -258.12 l 523.02,713.024 h 290.25 l 251.7,-713.024"
         style="fill:#87ce26;fill-opacity:1;fill-rule:nonzero;stroke:none"
         id="path20" /><path
         d="m 7031.37,311.656 h -242.41 l -344.5,450.817 -85.77,-450.817 h -225.15 l 135.45,712.074 h 272.55 l 320.77,-422.546 80.38,422.546 h 224.14 L 7031.37,311.656"
         style="fill:#87ce26;fill-opacity:1;fill-rule:nonzero;stroke:none"
         id="path22" /><path
         d="m 7658.42,311.656 h -227.08 l 98.64,518.5 h -332.95 l 36.81,193.574 h 893.98 L 8091,830.156 h -333.93 l -98.65,-518.5"
         style="fill:#87ce26;fill-opacity:1;fill-rule:nonzero;stroke:none"
         id="path24" /><path
         d="m 8283.99,311.656 h -226.1 l 135.45,712.074 h 226.11 L 8283.99,311.656"
         style="fill:#87ce26;fill-opacity:1;fill-rule:nonzero;stroke:none"
         id="path26" /><path
         d="M 713.766,0 0,884.719 251.402,1196.31 H 864.188 L 1108.1,897.602 710.035,405.754 592.363,551.598 867.188,892.012 776.215,1008.77 H 335.465 L 235.383,884.719 713.766,291.738 1192.19,884.746 942.66,1196.31 h 233.48 L 1427.54,884.719 713.766,0"
         style="fill:#87ce26;fill-opacity:1;fill-rule:nonzero;stroke:none"
         id="path28" /></g></g></svg>
