<?xml version="1.0" encoding="UTF-8" standalone="no"?>
<!-- Created with Inkscape (http://www.inkscape.org/) -->

<svg
   version="1.1"
   id="svg2"
   xml:space="preserve"
   width="1889.7638"
   height="482.58362"
   viewBox="0 0 1889.7637 482.58362"
   sodipodi:docname="Tetrate.svg"
   inkscape:version="1.1.1 (3bf5ae0d25, 2021-09-20)"
   xmlns:inkscape="http://www.inkscape.org/namespaces/inkscape"
   xmlns:sodipodi="http://sodipodi.sourceforge.net/DTD/sodipodi-0.dtd"
   xmlns="http://www.w3.org/2000/svg"
   xmlns:svg="http://www.w3.org/2000/svg"><defs
     id="defs6"><clipPath
       clipPathUnits="userSpaceOnUse"
       id="clipPath18"><path
         d="M 0,841.89 H 1190.551 V 0 H 0 Z"
         id="path16" /></clipPath></defs><sodipodi:namedview
     id="namedview4"
     pagecolor="#ffffff"
     bordercolor="#666666"
     borderopacity="1.0"
     inkscape:pageshadow="2"
     inkscape:pageopacity="0.0"
     inkscape:pagecheckerboard="0"
     showgrid="false"
     fit-margin-top="0"
     fit-margin-left="0"
     fit-margin-right="0"
     fit-margin-bottom="0"
     inkscape:zoom="0.67216832"
     inkscape:cx="769.89644"
     inkscape:cy="187.45305"
     inkscape:window-width="1920"
     inkscape:window-height="1010"
     inkscape:window-x="-6"
     inkscape:window-y="-6"
     inkscape:window-maximized="1"
     inkscape:current-layer="g8" /><g
     id="g8"
     inkscape:groupmode="layer"
     inkscape:label="tetrate"
     transform="matrix(1.3333333,0,0,-1.3333333,-378.56733,748.4032)"><g
       id="g1326"
       transform="matrix(1.4302347,0,0,1.4302347,-122.15461,-241.49177)"><g
         id="g1008"
         transform="matrix(0.88738182,0,0,0.88738182,-131.7378,-37.50284)"><g
           id="g20"
           transform="translate(591.6914,572.693)"><path
             d="m 0,0 c -14.252,0 -25.805,-11.553 -25.805,-25.805 0,-14.252 11.553,-25.804 25.805,-25.804 14.252,0 25.805,11.552 25.805,25.804 C 25.805,-11.553 14.252,0 0,0 M 19.543,-140.113 C 6.077,-121.591 4.957,-80.528 29.78,-48.578 l -0.004,-10e-4 c 5.277,6.553 8.437,14.881 8.437,23.949 0,21.105 -17.109,38.213 -38.213,38.213 -21.104,0 -38.214,-17.108 -38.214,-38.213 0,-9.068 3.161,-17.396 8.438,-23.949 l -0.005,10e-4 c 24.823,-31.95 23.703,-73.013 10.238,-91.535 -0.573,-0.657 -1.114,-1.342 -1.619,-2.054 l -0.003,-0.004 10e-4,0.001 c -2.998,-4.23 -4.761,-9.397 -4.761,-14.976 0,-14.318 11.607,-25.925 25.925,-25.925 14.317,0 25.925,11.607 25.925,25.925 0,5.579 -1.763,10.746 -4.762,14.976 l 0.001,-0.001 -0.003,0.004 c -0.505,0.711 -1.046,1.397 -1.618,2.054 M -96.864,42.024 c 0.7,0 1.393,-0.028 2.08,-0.081 31.737,-0.895 54.692,16.132 71.367,45.98 v -0.001 c 4.412,8.431 13.242,14.185 23.417,14.185 10.223,0 19.088,-5.808 23.479,-14.304 16.669,-29.776 39.609,-46.756 71.307,-45.86 0.686,0.053 1.378,0.081 2.077,0.081 14.587,0 26.412,-11.825 26.412,-26.412 C 123.275,1.025 111.45,-10.8 96.863,-10.8 86.14,-10.8 76.91,-4.409 72.772,4.771 L 72.768,4.764 C 59.409,32.265 29.996,48.799 0.145,49.283 L 0.146,49.284 0,49.283 -0.154,49.285 -0.152,49.283 C -30.003,48.799 -59.417,32.265 -72.775,4.764 v 0 c -4.14,-9.177 -13.368,-15.564 -24.089,-15.564 -14.587,0 -26.412,11.825 -26.412,26.412 0,14.587 11.825,26.412 26.412,26.412"
             style="fill:#000001;fill-opacity:1;fill-rule:evenodd;stroke:none"
             id="path22" /></g><g
           id="g24"
           transform="translate(591.6914,524.4991)"><path
             d="M 0,0 C 12.331,0 22.389,10.058 22.389,22.389 22.389,34.721 12.331,44.778 0,44.778 -12.332,44.778 -22.389,34.721 -22.389,22.389 -22.389,10.058 -12.332,0 0,0"
             style="fill:#f15622;fill-opacity:1;fill-rule:evenodd;stroke:none"
             id="path26" /></g></g><g
         id="g1002"
         transform="matrix(1.3207293,0,0,1.3207293,97.77081,73.97771)"><g
           id="g28"
           transform="translate(351.9746,179.2336)"><path
             d="m 0,0 c -4.777,0 -9.166,0.5 -13.166,1.5 -3.999,1 -7.471,2.666 -10.415,4.999 -2.944,2.333 -5.222,5.36 -6.833,9.083 -1.611,3.722 -2.417,8.305 -2.417,13.749 V 69.16 h -12.332 v 19.165 h 12.332 v 28.331 H -6.833 V 88.325 H 18.165 V 69.16 H -6.833 V 38.829 c 0,-6.666 1.583,-11.609 4.75,-14.832 3.166,-3.222 8.305,-4.832 15.415,-4.832 h 4.833 V 0 Z"
             style="fill:#000001;fill-opacity:1;fill-rule:evenodd;stroke:none"
             id="path30" /></g><g
           id="g32"
           transform="translate(440.0669,232.7277)"><path
             d="m 0,0 c 2.333,0 3.722,0.612 4.167,1.834 0.444,1.222 0.666,2.389 0.666,3.5 0,2.222 -0.583,4.083 -1.75,5.583 -1.166,1.499 -2.638,2.722 -4.416,3.666 -1.778,0.944 -3.75,1.611 -5.916,1.999 -2.167,0.39 -4.305,0.584 -6.416,0.584 -6.333,0 -11.027,-1.222 -14.083,-3.667 C -30.803,11.056 -32.331,6.556 -32.331,0 Z m -24.998,-53.494 c -7.11,0 -12.859,0.806 -17.248,2.416 -4.388,1.611 -7.805,4.166 -10.249,7.666 -2.444,3.5 -4.083,8.082 -4.917,13.749 -0.833,5.666 -1.25,12.554 -1.25,20.665 0,9.332 0.695,16.942 2.084,22.831 1.389,5.888 3.806,10.443 7.249,13.665 3.444,3.223 8.055,5.417 13.832,6.583 5.777,1.166 13.055,1.75 21.832,1.75 7.332,0 13.776,-0.417 19.331,-1.25 5.555,-0.833 10.25,-2.5 14.083,-5 3.833,-2.499 6.721,-6.083 8.666,-10.748 C 30.359,14.166 31.331,8 31.331,0.334 c 0,-2.556 -0.223,-4.944 -0.667,-7.166 -0.444,-2.223 -1.194,-4.167 -2.249,-5.833 -1.057,-1.666 -2.473,-2.972 -4.25,-3.916 -1.778,-0.944 -3.999,-1.417 -6.667,-1.417 h -49.829 c 0,-2.666 0.25,-5.055 0.751,-7.166 0.499,-2.11 1.416,-3.888 2.749,-5.333 1.333,-1.443 3.139,-2.527 5.416,-3.249 2.278,-0.723 5.195,-1.083 8.749,-1.083 h 42.997 v -18.665 z"
             style="fill:#000001;fill-opacity:1;fill-rule:evenodd;stroke:none"
             id="path34" /></g><g
           id="g36"
           transform="translate(528.0693,179.2336)"><path
             d="m 0,0 c -4.777,0 -9.166,0.5 -13.166,1.5 -3.999,1 -7.471,2.666 -10.415,4.999 -2.944,2.333 -5.222,5.36 -6.833,9.083 -1.611,3.722 -2.417,8.305 -2.417,13.749 V 69.16 h -12.332 v 19.165 h 12.332 v 28.331 H -6.833 V 88.325 H 18.165 V 69.16 H -6.833 V 38.829 c 0,-6.666 1.583,-11.609 4.75,-14.832 3.166,-3.222 8.305,-4.832 15.415,-4.832 h 4.833 V 0 Z"
             style="fill:#000001;fill-opacity:1;fill-rule:evenodd;stroke:none"
             id="path38" /></g><g
           id="g40"
           transform="translate(560.9756,232.5617)"><path
             d="m 0,0 c 0,6.443 0.833,11.916 2.5,16.415 1.667,4.5 4.167,8.11 7.5,10.833 3.333,2.722 7.443,4.693 12.332,5.916 4.889,1.222 10.61,1.833 17.165,1.833 H 56.995 V 15.832 H 46.663 c -7.666,0 -13.027,-2 -16.082,-5.999 C 27.526,5.833 25.998,0 25.998,-7.666 V -53.328 H 0 Z"
             style="fill:#000001;fill-opacity:1;fill-rule:evenodd;stroke:none"
             id="path42" /></g><g
           id="g44"
           transform="translate(658.8467,216.3966)"><path
             d="m 0,0 c -5.222,0 -7.833,-3.222 -7.833,-9.666 0,-2.889 0.611,-5.194 1.834,-6.916 1.222,-1.723 3.166,-2.583 5.833,-2.583 h 22.164 c 3.889,0 5.833,1.944 5.833,5.833 V 0 Z m 26.498,51.162 c 8.776,0 15.526,-2.583 20.247,-7.749 4.723,-5.166 7.083,-11.916 7.083,-20.249 v -43.662 c 0,-11.11 -5.555,-16.665 -16.664,-16.665 h -49.496 c -7.999,0 -13.638,2.306 -16.915,6.916 -3.277,4.61 -4.917,11.526 -4.917,20.748 0,8.332 1.667,14.998 5,19.998 3.333,4.999 8.943,7.499 16.832,7.499 h 40.163 v 3.833 c 0,7.11 -3.722,10.666 -11.166,10.666 h -44.662 v 18.665 z"
             style="fill:#000001;fill-opacity:1;fill-rule:evenodd;stroke:none"
             id="path46" /></g><g
           id="g48"
           transform="translate(772.8242,179.2336)"><path
             d="m 0,0 c -4.777,0 -9.166,0.5 -13.165,1.5 -4,1 -7.472,2.666 -10.416,4.999 -2.944,2.333 -5.222,5.36 -6.833,9.083 -1.611,3.722 -2.417,8.305 -2.417,13.749 V 69.16 h -12.331 v 19.165 h 12.331 v 28.331 H -6.833 V 88.325 H 18.165 V 69.16 H -6.833 V 38.829 c 0,-6.666 1.583,-11.609 4.75,-14.832 3.166,-3.222 8.305,-4.832 15.415,-4.832 h 4.833 V 0 Z"
             style="fill:#000001;fill-opacity:1;fill-rule:evenodd;stroke:none"
             id="path50" /></g><g
           id="g52"
           transform="translate(859.9404,232.7277)"><path
             d="m 0,0 c 2.332,0 3.722,0.612 4.166,1.834 0.444,1.222 0.666,2.389 0.666,3.5 0,2.222 -0.583,4.083 -1.749,5.583 -1.167,1.499 -2.639,2.722 -4.417,3.666 -1.777,0.944 -3.749,1.611 -5.916,1.999 -2.166,0.39 -4.305,0.584 -6.415,0.584 -6.334,0 -11.027,-1.222 -14.083,-3.667 C -30.804,11.056 -32.331,6.556 -32.331,0 Z m -24.998,-53.494 c -7.11,0 -12.86,0.806 -17.249,2.416 -4.388,1.611 -7.805,4.166 -10.248,7.666 -2.445,3.5 -4.084,8.082 -4.917,13.749 -0.833,5.666 -1.25,12.554 -1.25,20.665 0,9.332 0.694,16.942 2.083,22.831 1.389,5.888 3.806,10.443 7.25,13.665 3.444,3.223 8.055,5.417 13.832,6.583 5.777,1.166 13.054,1.75 21.832,1.75 7.332,0 13.775,-0.417 19.331,-1.25 5.555,-0.833 10.249,-2.5 14.082,-5 3.833,-2.499 6.722,-6.083 8.666,-10.748 C 30.358,14.166 31.33,8 31.33,0.334 c 0,-2.556 -0.223,-4.944 -0.667,-7.166 -0.443,-2.223 -1.194,-4.167 -2.249,-5.833 -1.056,-1.666 -2.473,-2.972 -4.25,-3.916 -1.778,-0.944 -3.999,-1.417 -6.666,-1.417 h -49.829 c 0,-2.666 0.25,-5.055 0.75,-7.166 0.5,-2.11 1.417,-3.888 2.75,-5.333 1.333,-1.443 3.139,-2.527 5.416,-3.249 2.277,-0.723 5.194,-1.083 8.749,-1.083 H 28.33 v -18.665 z"
             style="fill:#000001;fill-opacity:1;fill-rule:evenodd;stroke:none"
             id="path54" /></g></g></g></g></svg>
