<?xml version="1.0" encoding="UTF-8" standalone="no"?>
<!-- Created with Inkscape (http://www.inkscape.org/) -->

<svg
   version="1.1"
   id="svg824"
   xml:space="preserve"
   width="1396"
   height="332"
   viewBox="0 0 1396 332"
   sodipodi:docname="HAProxy logo - RGB.svg"
   inkscape:version="1.1.1 (3bf5ae0d25, 2021-09-20)"
   xmlns:inkscape="http://www.inkscape.org/namespaces/inkscape"
   xmlns:sodipodi="http://sodipodi.sourceforge.net/DTD/sodipodi-0.dtd"
   xmlns="http://www.w3.org/2000/svg"
   xmlns:svg="http://www.w3.org/2000/svg"><defs
     id="defs828" /><sodipodi:namedview
     id="namedview826"
     pagecolor="#ffffff"
     bordercolor="#666666"
     borderopacity="1.0"
     inkscape:pageshadow="2"
     inkscape:pageopacity="0.0"
     inkscape:pagecheckerboard="0"
     showgrid="false"
     inkscape:zoom="0.81160458"
     inkscape:cx="698"
     inkscape:cy="165.72109"
     inkscape:window-width="1920"
     inkscape:window-height="1001"
     inkscape:window-x="-7"
     inkscape:window-y="-7"
     inkscape:window-maximized="1"
     inkscape:current-layer="g830" /><g
     id="g830"
     inkscape:groupmode="layer"
     inkscape:label="ink_ext_XXXXXX"
     transform="matrix(1.3333333,0,0,-1.3333333,0,332)"><g
       id="g832"
       transform="scale(0.1)"><path
         d="m 3502.03,713.75 v 432 h -525 v -432 h -202.01 v 1069 h 202.01 v -450 h 525 v 450 h 199.99 v -1069 h -199.99"
         style="fill:#5899d4;fill-opacity:1;fill-rule:nonzero;stroke:none"
         id="path834" /><path
         d="m 4441.02,1559.76 -198,-455.01 h 397 z m 280,-642.998 h -559 l -92,-201.008 h -218 l 479,1067.996 h 220 l 479,-1068.996 h -220 l -89,202.008"
         style="fill:#3d6da5;fill-opacity:1;fill-rule:nonzero;stroke:none"
         id="path836" /><path
         d="m 5392.02,1214.75 h 302 c 258,0 256,379 0,379 h -303 z m 302,-185 h -303 V 715.754 h -201 V 1783.75 l 504,2 c 521.99,0 523,-756 0,-756"
         style="fill:#26405f;fill-opacity:1;fill-rule:nonzero;stroke:none"
         id="path838" /><path
         d="m 6450.02,1595.75 v -342 h 307 c 128,0 183,85 183,171 0,86 -56,171 -183,171 z m 744,-879.996 h -239 l -312,356.996 h -193 V 715.754 h -202 V 1785.75 l 507.99,-2 c 252.01,-2 385,-168.99 385,-354 0,-147 -66.99,-295 -270,-336 l 324.01,-364.996 -1,-13"
         style="fill:#26405f;fill-opacity:1;fill-rule:nonzero;stroke:none"
         id="path840" /><path
         d="m 7453.02,1238.75 c 5,-176 99,-363 351,-363 251.99,0 346.99,189 350,365 3,176 -98.01,382 -350,382 -252,0 -356,-204 -351,-384 z m 899,5 c -3,-275.996 -173,-553 -548,-553 -375,0 -550,270 -550,551 0,281 180,563.01 550,563.01 370,0 551,-282.01 548,-561.01"
         style="fill:#26405f;fill-opacity:1;fill-rule:nonzero;stroke:none"
         id="path842" /><path
         d="m 9106.01,1783.75 h 221.01 v -8.99 l -362,-519.01 372,-533.988 v -6.008 h -225 l -273,401.006 -274,-401.006 h -225 v 6.008 l 370.99,533.988 -360,519.01 v 8.99 h 221.01 l 267,-398 266.99,398"
         style="fill:#26405f;fill-opacity:1;fill-rule:nonzero;stroke:none"
         id="path844" /><path
         d="m 9942.02,1342.75 283.98,441 h 243 v -8.99 l -426,-617.99 V 715.754 h -201.99 v 441.016 l -410.99,617.99 v 8.99 h 240 l 272,-441"
         style="fill:#26405f;fill-opacity:1;fill-rule:nonzero;stroke:none"
         id="path846" /><path
         d="m 1231.26,1565.41 -257.002,291.02 7.535,6.66 257.007,-291.01 -7.54,-6.67"
         style="fill:#2a4a6c;fill-opacity:1;fill-rule:nonzero;stroke:none"
         id="path848" /><path
         d="m 426.117,1793.19 202.004,-291.99 -4.183,-2.88 -202.004,291.99 4.183,2.88"
         style="fill:#2a4a6c;fill-opacity:1;fill-rule:nonzero;stroke:none"
         id="path850" /><path
         d="m 1231.24,1572.06 256,292 7.57,-6.62 -255.99,-292.01 -7.58,6.63"
         style="fill:#2a4a6c;fill-opacity:1;fill-rule:nonzero;stroke:none"
         id="path852" /><path
         d="m 1539.77,1247.6 303,256.01 6.51,-7.7 -303,-256.01 -6.51,7.7"
         style="fill:#2a4a6c;fill-opacity:1;fill-rule:nonzero;stroke:none"
         id="path854" /><path
         d="m 1546.34,1247.54 303,-266.001 -6.63,-7.574 -303,265.995 6.63,7.58"
         style="fill:#2a4a6c;fill-opacity:1;fill-rule:nonzero;stroke:none"
         id="path856" /><path
         d="m 1488.28,640.379 -257,285 7.5,6.746 256.99,-285 -7.49,-6.746"
         style="fill:#2a4a6c;fill-opacity:1;fill-rule:nonzero;stroke:none"
         id="path858" /><path
         d="m 975.277,647.125 256.003,285 7.5,-6.746 -256.007,-285 -7.496,6.746"
         style="fill:#2a4a6c;fill-opacity:1;fill-rule:nonzero;stroke:none"
         id="path860" /><path
         d="m 622.715,993.539 291.996,255.001 6.629,-7.58 -291.996,-254.995 -6.629,7.574"
         style="fill:#2a4a6c;fill-opacity:1;fill-rule:nonzero;stroke:none"
         id="path862" /><path
         d="m 629.344,1503.55 291.996,-255.01 -6.629,-7.58 -291.996,255.01 6.629,7.58"
         style="fill:#2a4a6c;fill-opacity:1;fill-rule:nonzero;stroke:none"
         id="path864" /><path
         d="m 1235.58,1563.74 -608.998,-68.99 -1.105,10.02 609.003,68.99 1.1,-10.02"
         style="fill:#2a4a6c;fill-opacity:1;fill-rule:nonzero;stroke:none"
         id="path866" /><path
         d="m 1235.58,1573.76 611,-68.99 -1.11,-10.02 -610.99,68.99 1.1,10.02"
         style="fill:#2a4a6c;fill-opacity:1;fill-rule:nonzero;stroke:none"
         id="path868" /><path
         d="m 1537.99,1243.34 -51.99,617 10.06,0.82 52,-617 -10.07,-0.82"
         style="fill:#2a4a6c;fill-opacity:1;fill-rule:nonzero;stroke:none"
         id="path870" /><path
         d="m 1548.06,1243.34 -51,-600 -10.06,0.828 50.99,599.992 10.07,-0.82"
         style="fill:#2a4a6c;fill-opacity:1;fill-rule:nonzero;stroke:none"
         id="path872" /><path
         d="m 1846.42,972.719 -610.99,-49 -0.79,10.062 610.99,49 0.79,-10.062"
         style="fill:#2a4a6c;fill-opacity:1;fill-rule:nonzero;stroke:none"
         id="path874" /><path
         d="m 626.523,994.766 608.997,-61.004 -0.98,-10.024 -609.005,61.004 0.988,10.024"
         style="fill:#2a4a6c;fill-opacity:1;fill-rule:nonzero;stroke:none"
         id="path876" /><path
         d="m 974.012,643.258 -60.996,601.002 10.023,0.98 60.996,-600.994 -10.023,-0.988"
         style="fill:#2a4a6c;fill-opacity:1;fill-rule:nonzero;stroke:none"
         id="path878" /><path
         d="m 983.039,1859.29 -60,-615.01 -10.023,0.94 60,615.01 10.023,-0.94"
         style="fill:#2a4a6c;fill-opacity:1;fill-rule:nonzero;stroke:none"
         id="path880" /><path
         d="m 345.344,1423.2 280,79.01 1.371,-4.9 -279.996,-79.01 -1.375,4.9"
         style="fill:#2a4a6c;fill-opacity:1;fill-rule:nonzero;stroke:none"
         id="path882" /><path
         d="m 686.5,2069.82 293,-207.99 -2.945,-4.14 -293.004,207.99 2.949,4.14"
         style="fill:#2a4a6c;fill-opacity:1;fill-rule:nonzero;stroke:none"
         id="path884" /><path
         d="m 1047.53,2199.27 -67.003,-340 -5,0.98 67.003,340 5,-0.98"
         style="fill:#2a4a6c;fill-opacity:1;fill-rule:nonzero;stroke:none"
         id="path886" /><path
         d="m 1046.56,2201.78 446,-339.01 -3.07,-4.04 -445.99,339.01 3.06,4.04"
         style="fill:#2a4a6c;fill-opacity:1;fill-rule:nonzero;stroke:none"
         id="path888" /><path
         d="m 1426.53,2200.25 67,-339.01 -5,-0.98 -67,339.01 5,0.98"
         style="fill:#2a4a6c;fill-opacity:1;fill-rule:nonzero;stroke:none"
         id="path890" /><path
         d="m 1785.49,2065.67 -293,-207 -2.93,4.16 293,207 2.93,-4.16"
         style="fill:#2a4a6c;fill-opacity:1;fill-rule:nonzero;stroke:none"
         id="path892" /><path
         d="m 2045.71,1789.22 -554.99,69 0.62,5.06 555,-69 -0.63,-5.06"
         style="fill:#2a4a6c;fill-opacity:1;fill-rule:nonzero;stroke:none"
         id="path894" /><path
         d="m 1843.93,1501.19 200,291.99 4.2,-2.86 -200,-292 -4.2,2.87"
         style="fill:#2a4a6c;fill-opacity:1;fill-rule:nonzero;stroke:none"
         id="path896" /><path
         d="m 1846.7,1502.21 285,-79.01 -1.35,-4.9 -285,79.01 1.35,4.9"
         style="fill:#2a4a6c;fill-opacity:1;fill-rule:nonzero;stroke:none"
         id="path898" /><path
         d="m 1848.16,1501.14 278,-426 -4.27,-2.77 -278,426.01 4.27,2.76"
         style="fill:#2a4a6c;fill-opacity:1;fill-rule:nonzero;stroke:none"
         id="path900" /><path
         d="m 1425.57,2197.74 -446,-340 -3.09,4.04 446,340 3.09,-4.04"
         style="fill:#2a4a6c;fill-opacity:1;fill-rule:nonzero;stroke:none"
         id="path902" /><path
         d="m 1843.5,1499.49 -62,567.99 5.05,0.54 62,-567.99 -5.05,-0.54"
         style="fill:#2a4a6c;fill-opacity:1;fill-rule:nonzero;stroke:none"
         id="path904" /><path
         d="m 1845.2,980.152 278,95.998 1.66,-4.8 -278,-95.998 -1.66,4.8"
         style="fill:#2a4a6c;fill-opacity:1;fill-rule:nonzero;stroke:none"
         id="path906" /><path
         d="m 1843.89,979.125 285,443.005 4.28,-2.75 -285,-443.005 -4.28,2.75"
         style="fill:#2a4a6c;fill-opacity:1;fill-rule:nonzero;stroke:none"
         id="path908" /><path
         d="m 1848.07,979.266 200,-270.989 -4.09,-3.027 -200,270.988 4.09,3.028"
         style="fill:#2a4a6c;fill-opacity:1;fill-rule:nonzero;stroke:none"
         id="path910" /><path
         d="m 1848.55,977.473 -61,-547 -5.05,0.558 61,546.996 5.05,-0.554"
         style="fill:#2a4a6c;fill-opacity:1;fill-rule:nonzero;stroke:none"
         id="path912" /><path
         d="m 1493.52,645.813 293,-213 -2.99,-4.122 -292.99,213 2.98,4.122"
         style="fill:#2a4a6c;fill-opacity:1;fill-rule:nonzero;stroke:none"
         id="path914" /><path
         d="m 1491.75,646.281 554,63.012 0.55,-5.059 -554,-63.011 -0.55,5.058"
         style="fill:#2a4a6c;fill-opacity:1;fill-rule:nonzero;stroke:none"
         id="path916" /><path
         d="m 1494.53,643.273 -67.01,-345 -5,0.957 67.01,345 5,-0.957"
         style="fill:#2a4a6c;fill-opacity:1;fill-rule:nonzero;stroke:none"
         id="path918" /><path
         d="m 1493.58,641.738 -446,-345 -3.1,4.024 445.99,345.004 3.11,-4.028"
         style="fill:#2a4a6c;fill-opacity:1;fill-rule:nonzero;stroke:none"
         id="path920" /><path
         d="m 981.523,644.23 67.007,-345 -5,-0.957 -67.007,345 5,0.957"
         style="fill:#2a4a6c;fill-opacity:1;fill-rule:nonzero;stroke:none"
         id="path922" /><path
         d="m 980.578,645.766 446.002,-345.004 -3.11,-4.024 -445.997,345 3.105,4.028"
         style="fill:#2a4a6c;fill-opacity:1;fill-rule:nonzero;stroke:none"
         id="path924" /><path
         d="m 980.52,641.691 -292.997,-213 -2.988,4.122 292.996,213 2.989,-4.122"
         style="fill:#2a4a6c;fill-opacity:1;fill-rule:nonzero;stroke:none"
         id="path926" /><path
         d="m 978.754,641.223 -554.996,61 0.539,5.058 554.996,-61 -0.539,-5.058"
         style="fill:#2a4a6c;fill-opacity:1;fill-rule:nonzero;stroke:none"
         id="path928" /><path
         d="m 628.102,988.277 -202.004,-285 -4.145,2.95 202.004,285 4.145,-2.95"
         style="fill:#2a4a6c;fill-opacity:1;fill-rule:nonzero;stroke:none"
         id="path930" /><path
         d="m 628.559,990.023 60,-559.003 -5.059,-0.536 -60,559 5.059,0.539"
         style="fill:#2a4a6c;fill-opacity:1;fill-rule:nonzero;stroke:none"
         id="path932" /><path
         d="m 625.273,987.324 -281.003,87.996 1.511,4.86 281.004,-87.996 -1.512,-4.86"
         style="fill:#2a4a6c;fill-opacity:1;fill-rule:nonzero;stroke:none"
         id="path934" /><path
         d="m 628.148,1498.36 -281.003,-422.01 -4.239,2.81 281.004,422 4.238,-2.8"
         style="fill:#2a4a6c;fill-opacity:1;fill-rule:nonzero;stroke:none"
         id="path936" /><path
         d="m 623.898,988.367 -280,431.003 4.266,2.76 279.996,-430.993 -4.262,-2.77"
         style="fill:#2a4a6c;fill-opacity:1;fill-rule:nonzero;stroke:none"
         id="path938" /><path
         d="m 687.555,2067.49 -58.996,-567.99 -5.059,0.52 59,567.99 5.055,-0.52"
         style="fill:#2a4a6c;fill-opacity:1;fill-rule:nonzero;stroke:none"
         id="path940" /><path
         d="m 423.719,1794.28 554,68.01 0.617,-5.06 -554,-68.01 -0.617,5.06"
         style="fill:#2a4a6c;fill-opacity:1;fill-rule:nonzero;stroke:none"
         id="path942" /><path
         d="m 684.211,2066.04 -215,103 1.633,3.42 215,-103 -1.633,-3.42"
         style="fill:#2a4a6c;fill-opacity:1;fill-rule:nonzero;stroke:none"
         id="path944" /><path
         d="m 683.133,2067.63 -16,235.99 3.785,0.26 16.004,-236 -3.789,-0.25"
         style="fill:#2a4a6c;fill-opacity:1;fill-rule:nonzero;stroke:none"
         id="path946" /><path
         d="m 1044.52,2197.93 -376,104 1.011,3.64 376.009,-103.98 -1.02,-3.66"
         style="fill:#2a4a6c;fill-opacity:1;fill-rule:nonzero;stroke:none"
         id="path948" /><path
         d="m 1043.55,2198.58 -160.003,200 2.953,2.36 160.01,-200 -2.96,-2.36"
         style="fill:#2a4a6c;fill-opacity:1;fill-rule:nonzero;stroke:none"
         id="path950" /><path
         d="m 1043.2,2200.28 68,236.99 3.66,-1.04 -68,-236.99 -3.66,1.04"
         style="fill:#2a4a6c;fill-opacity:1;fill-rule:nonzero;stroke:none"
         id="path952" /><path
         d="m 683.398,2068.73 200,332.01 3.254,-1.96 -200,-332.01 -3.254,1.96"
         style="fill:#2a4a6c;fill-opacity:1;fill-rule:nonzero;stroke:none"
         id="path954" /><path
         d="m 1422.88,2198.25 -311,236.99 2.3,3.02 311,-236.99 -2.3,-3.02"
         style="fill:#2a4a6c;fill-opacity:1;fill-rule:nonzero;stroke:none"
         id="path956" /><path
         d="m 1422.2,2199.24 -70,245.99 3.65,1.04 70,-245.99 -3.65,-1.04"
         style="fill:#2a4a6c;fill-opacity:1;fill-rule:nonzero;stroke:none"
         id="path958" /><path
         d="m 1043.85,2201.25 309,245.99 2.35,-2.97 -308.99,-245.99 -2.36,2.97"
         style="fill:#2a4a6c;fill-opacity:1;fill-rule:nonzero;stroke:none"
         id="path960" /><path
         d="m 1422.55,2200.96 162,200 2.95,-2.4 -162,-200 -2.95,2.4"
         style="fill:#2a4a6c;fill-opacity:1;fill-rule:nonzero;stroke:none"
         id="path962" /><path
         d="m 1782.4,2066.78 -198,332.01 3.25,1.94 198,-332.01 -3.25,-1.94"
         style="fill:#2a4a6c;fill-opacity:1;fill-rule:nonzero;stroke:none"
         id="path964" /><path
         d="m 1782.14,2067.91 21,236 3.77,-0.32 -21,-236 -3.77,0.32"
         style="fill:#2a4a6c;fill-opacity:1;fill-rule:nonzero;stroke:none"
         id="path966" /><path
         d="m 1423.53,2201.59 381,103.98 0.99,-3.64 -381,-104 -0.99,3.66"
         style="fill:#2a4a6c;fill-opacity:1;fill-rule:nonzero;stroke:none"
         id="path968" /><path
         d="m 1783.16,2069.44 220,114 1.73,-3.38 -220,-113.99 -1.73,3.37"
         style="fill:#2a4a6c;fill-opacity:1;fill-rule:nonzero;stroke:none"
         id="path970" /><path
         d="m 1784.31,2069.63 384,-57.99 -0.57,-3.76 -384,57.99 0.57,3.76"
         style="fill:#2a4a6c;fill-opacity:1;fill-rule:nonzero;stroke:none"
         id="path972" /><path
         d="m 2044.37,1792.68 122,218.01 3.31,-1.86 -122,-218.01 -3.31,1.86"
         style="fill:#2a4a6c;fill-opacity:1;fill-rule:nonzero;stroke:none"
         id="path974" /><path
         d="m 2044.14,1791.55 -42,390 3.77,0.4 42,-390 -3.77,-0.4"
         style="fill:#2a4a6c;fill-opacity:1;fill-rule:nonzero;stroke:none"
         id="path976" /><path
         d="m 2045.87,1793.64 252,21 0.31,-3.78 -252,-21 -0.31,3.78"
         style="fill:#2a4a6c;fill-opacity:1;fill-rule:nonzero;stroke:none"
         id="path978" /><path
         d="m 2046.96,1793.4 346,-196.01 -1.87,-3.29 -346,196 1.87,3.3"
         style="fill:#2a4a6c;fill-opacity:1;fill-rule:nonzero;stroke:none"
         id="path980" /><path
         d="m 2129.29,1421.49 166.99,392 3.49,-1.48 -167,-392 -3.48,1.48"
         style="fill:#2a4a6c;fill-opacity:1;fill-rule:nonzero;stroke:none"
         id="path982" /><path
         d="m 2129.97,1422.32 261,175 2.11,-3.14 -261,-175 -2.11,3.14"
         style="fill:#2a4a6c;fill-opacity:1;fill-rule:nonzero;stroke:none"
         id="path984" /><path
         d="m 2131.4,1422.61 291,-59 -0.74,-3.72 -291,59 0.74,3.72"
         style="fill:#2a4a6c;fill-opacity:1;fill-rule:nonzero;stroke:none"
         id="path986" /><path
         d="m 2122.71,1075.12 298,287.99 2.63,-2.73 -298,-288 -2.63,2.74"
         style="fill:#2a4a6c;fill-opacity:1;fill-rule:nonzero;stroke:none"
         id="path988" /><path
         d="m 2123.68,1075.61 305,57.01 0.7,-3.73 -305,-57 -0.7,3.72"
         style="fill:#2a4a6c;fill-opacity:1;fill-rule:nonzero;stroke:none"
         id="path990" /><path
         d="m 2132.35,1422.11 298,-290 -2.65,-2.72 -297.99,290 2.64,2.72"
         style="fill:#2a4a6c;fill-opacity:1;fill-rule:nonzero;stroke:none"
         id="path992" /><path
         d="m 2125.08,1075.33 261,-173.994 -2.11,-3.164 -261,173.998 2.11,3.16"
         style="fill:#2a4a6c;fill-opacity:1;fill-rule:nonzero;stroke:none"
         id="path994" /><path
         d="m 2045.09,708.41 339,192.988 1.87,-3.293 -339,-192.988 -1.87,3.293"
         style="fill:#2a4a6c;fill-opacity:1;fill-rule:nonzero;stroke:none"
         id="path996" /><path
         d="m 2046.21,708.648 250,-25 -0.37,-3.769 -250,25 0.37,3.769"
         style="fill:#2a4a6c;fill-opacity:1;fill-rule:nonzero;stroke:none"
         id="path998" /><path
         d="m 2125.76,1074.51 172.01,-391.99 -3.48,-1.516 -172,391.996 3.47,1.51"
         style="fill:#2a4a6c;fill-opacity:1;fill-rule:nonzero;stroke:none"
         id="path1000" /><path
         d="m 2047.7,707.664 119,-221.012 -3.34,-1.8 -119,221.015 3.34,1.797"
         style="fill:#2a4a6c;fill-opacity:1;fill-rule:nonzero;stroke:none"
         id="path1002" /><path
         d="m 2047.91,706.547 -45,-386.012 -3.77,0.43 45,386.015 3.77,-0.433"
         style="fill:#2a4a6c;fill-opacity:1;fill-rule:nonzero;stroke:none"
         id="path1004" /><path
         d="m 2000.16,319.059 -216,110 1.73,3.386 216,-110.004 -1.73,-3.382"
         style="fill:#2a4a6c;fill-opacity:1;fill-rule:nonzero;stroke:none"
         id="path1006" /><path
         d="m 1786.92,430.879 17,-242 -3.79,-0.254 -17,242 3.79,0.254"
         style="fill:#2a4a6c;fill-opacity:1;fill-rule:nonzero;stroke:none"
         id="path1008" /><path
         d="m 1784.76,432.633 380,55 0.53,-3.758 -380,-55.004 -0.53,3.762"
         style="fill:#2a4a6c;fill-opacity:1;fill-rule:nonzero;stroke:none"
         id="path1010" /><path
         d="m 1786.66,429.789 -199,-336.9999 -3.27,1.9257 199,337.0002 3.27,-1.926"
         style="fill:#2a4a6c;fill-opacity:1;fill-rule:nonzero;stroke:none"
         id="path1012" /><path
         d="m 1426.52,299.926 161,-205.0002 -2.98,-2.3477 -161,204.9999 2.98,2.348"
         style="fill:#2a4a6c;fill-opacity:1;fill-rule:nonzero;stroke:none"
         id="path1014" /><path
         d="m 1425.55,300.57 377,-109.996 -1.05,-3.64 -377,109.996 1.05,3.64"
         style="fill:#2a4a6c;fill-opacity:1;fill-rule:nonzero;stroke:none"
         id="path1016" /><path
         d="m 1426.85,298.238 -71,-250.9997 -3.65,1.0273 71,251.0004 3.65,-1.028"
         style="fill:#2a4a6c;fill-opacity:1;fill-rule:nonzero;stroke:none"
         id="path1018" /><path
         d="m 1426.21,297.273 -310.99,-250.9996 -2.38,2.9532 311,251.0004 2.37,-2.954"
         style="fill:#2a4a6c;fill-opacity:1;fill-rule:nonzero;stroke:none"
         id="path1020" /><path
         d="m 1047.86,299.242 68,-250.9998 -3.66,-0.9805 -68,251.0003 3.66,0.98"
         style="fill:#2a4a6c;fill-opacity:1;fill-rule:nonzero;stroke:none"
         id="path1022" /><path
         d="m 1047.23,300.223 307.99,-251.0003 -2.39,-2.9414 -308,250.9997 2.4,2.942"
         style="fill:#2a4a6c;fill-opacity:1;fill-rule:nonzero;stroke:none"
         id="path1024" /><path
         d="M 1047.52,297.586 887.523,92.5859 l -2.984,2.3321 160.001,204.996 2.98,-2.328"
         style="fill:#2a4a6c;fill-opacity:1;fill-rule:nonzero;stroke:none"
         id="path1026" /><path
         d="m 687.664,431.715 200,-337.0002 -3.266,-1.9257 -200,336.9999 3.266,1.926"
         style="fill:#2a4a6c;fill-opacity:1;fill-rule:nonzero;stroke:none"
         id="path1028" /><path
         d="m 1046.58,296.941 -379.002,-116 -1.098,3.622 379,116 1.1,-3.622"
         style="fill:#2a4a6c;fill-opacity:1;fill-rule:nonzero;stroke:none"
         id="path1030" /><path
         d="m 687.922,430.609 -19,-248 -3.785,0.286 19,248 3.785,-0.286"
         style="fill:#2a4a6c;fill-opacity:1;fill-rule:nonzero;stroke:none"
         id="path1032" /><path
         d="m 686.938,429.086 -219,-118.988 -1.813,3.328 218.996,118.988 1.817,-3.328"
         style="fill:#2a4a6c;fill-opacity:1;fill-rule:nonzero;stroke:none"
         id="path1034" /><path
         d="m 425.91,704.953 43.004,-392.992 -3.769,-0.398 -43.004,392.988 3.769,0.402"
         style="fill:#2a4a6c;fill-opacity:1;fill-rule:nonzero;stroke:none"
         id="path1036" /><path
         d="m 685.777,428.871 -383.004,52 0.504,3.758 383.004,-51.996 -0.504,-3.762"
         style="fill:#2a4a6c;fill-opacity:1;fill-rule:nonzero;stroke:none"
         id="path1038" /><path
         d="m 425.691,703.844 -121,-222 -3.328,1.812 121,222.004 3.328,-1.816"
         style="fill:#2a4a6c;fill-opacity:1;fill-rule:nonzero;stroke:none"
         id="path1040" /><path
         d="m 424.203,702.867 -250,-24 -0.355,3.77 250,24 0.355,-3.77"
         style="fill:#2a4a6c;fill-opacity:1;fill-rule:nonzero;stroke:none"
         id="path1042" /><path
         d="m 423.105,703.098 -345.0034,192.996 1.8437,3.312 345.0037,-193 -1.844,-3.308"
         style="fill:#2a4a6c;fill-opacity:1;fill-rule:nonzero;stroke:none"
         id="path1044" /><path
         d="m 346.09,1076.18 -266.0041,-180 -2.125,3.144 266.0001,180.006 2.129,-3.15"
         style="fill:#2a4a6c;fill-opacity:1;fill-rule:nonzero;stroke:none"
         id="path1046" /><path
         d="m 344.699,1075.88 -301.9998,53 0.6524,3.75 302.0004,-53 -0.653,-3.75"
         style="fill:#2a4a6c;fill-opacity:1;fill-rule:nonzero;stroke:none"
         id="path1048" /><path
         d="m 346.77,1077 -171,-397 -3.489,1.5 171,397 3.489,-1.5"
         style="fill:#2a4a6c;fill-opacity:1;fill-rule:nonzero;stroke:none"
         id="path1050" /><path
         d="m 347.348,1419.38 -303.0082,-289.99 -2.6289,2.73 303.0041,289.99 2.633,-2.73"
         style="fill:#2a4a6c;fill-opacity:1;fill-rule:nonzero;stroke:none"
         id="path1052" /><path
         d="m 343.727,1076.38 -302.9965,283.99 2.5976,2.76 302.9959,-284 -2.597,-2.75"
         style="fill:#2a4a6c;fill-opacity:1;fill-rule:nonzero;stroke:none"
         id="path1054" /><path
         d="m 344.984,1419.17 -258.9996,172 2.0898,3.16 259.0038,-172 -2.094,-3.16"
         style="fill:#2a4a6c;fill-opacity:1;fill-rule:nonzero;stroke:none"
         id="path1056" /><path
         d="m 346.387,1418.89 -304.0003,-59 -0.7148,3.72 304.0041,59 0.711,-3.72"
         style="fill:#2a4a6c;fill-opacity:1;fill-rule:nonzero;stroke:none"
         id="path1058" /><path
         d="M 344.293,1419.99 173.289,1810 l 3.473,1.51 171.008,-390.01 -3.477,-1.51"
         style="fill:#2a4a6c;fill-opacity:1;fill-rule:nonzero;stroke:none"
         id="path1060" /><path
         d="m 423.887,1789.86 -249.004,19 0.285,3.78 249,-19 -0.281,-3.78"
         style="fill:#2a4a6c;fill-opacity:1;fill-rule:nonzero;stroke:none"
         id="path1062" /><path
         d="m 424.992,1790.12 -336.9998,-199 -1.9258,3.26 336.9966,199 1.929,-3.26"
         style="fill:#2a4a6c;fill-opacity:1;fill-rule:nonzero;stroke:none"
         id="path1064" /><path
         d="m 422.379,1790.82 -117.996,208 3.293,1.88 117.996,-208.01 -3.293,-1.87"
         style="fill:#2a4a6c;fill-opacity:1;fill-rule:nonzero;stroke:none"
         id="path1066" /><path
         d="m 422.141,1791.97 46,379.01 3.773,-0.45 -46.004,-379 -3.769,0.44"
         style="fill:#2a4a6c;fill-opacity:1;fill-rule:nonzero;stroke:none"
         id="path1068" /><path
         d="m 685.359,2065.89 -378.996,-67.99 -0.668,3.72 378.996,67.99 0.668,-3.72"
         style="fill:#2a4a6c;fill-opacity:1;fill-rule:nonzero;stroke:none"
         id="path1070" /><path
         d="m 1407.14,1099.34 2.06,294 294,-2.05 -2.06,-294 z m -319.45,-319.985 2.05,294.005 293.99,-2.05 -2.04,-294.009 z m -317.983,319.435 2.055,294 293.998,-2.05 -2.05,-294 z m 317.473,324.05 2.05,293.99 294,-2.05 -2.05,-293.99 -294,2.05"
         style="fill:#3d6da5;fill-opacity:1;fill-rule:nonzero;stroke:none"
         id="path1072" /><path
         d="m 524.207,882.621 2.047,204.979 204.984,-2.05 -2.054,-204.98 z m 351.813,-346.586 1.429,204.996 205.001,-1.429 -1.43,-205 z m 510.55,0.426 1.43,205.004 205,-1.418 -1.43,-205.004 z m 357.93,350.961 1.43,204.998 205,-1.43 -1.43,-204.998 z m 5.04,507.418 2.06,204.98 204.97,-2.05 -2.05,-204.98 z m -361.45,364.12 1.44,205 205,-1.43 -1.43,-205 z m -510.535,0.57 1.433,205 205.002,-1.43 -1.43,-205 z m -353.992,-362.04 1.429,205 205.004,-1.42 -1.433,-205.01 -205,1.43"
         style="fill:#4d76b9;fill-opacity:1;fill-rule:nonzero;stroke:none"
         id="path1074" /><path
         d="m 278.262,1353.71 0.937,134 132.996,-0.93 -0.937,-134 z m 0.312,-209.45 133.996,0.92 0.93,-133.98 -133.996,-0.95 z m 77.992,-371.014 134.004,0.934 0.934,-134.008 -134,-0.93 z m 262.008,-276 134,0.926 0.93,-134 -133.996,-0.942 z m 360.012,-132.016 134.004,0.942 0.93,-134 -133.993,-0.942 z m 378.654,-132.16 0.94,134 134,-0.937 -0.94,-134 z m 360.42,131.407 0.93,133.996 134.01,-0.93 -0.94,-134.008 z m 260.75,274.093 0.93,134 134,-0.933 -0.93,-133.996 z m 79.85,373.32 0.93,134.01 134,-0.94 -0.94,-133.99 z m -1.65,476.37 134,0.93 0.94,-134 -134,-0.93 z m -78,371.01 134,0.94 0.94,-134 -134.01,-0.94 z m -262,275.01 133.99,0.93 0.94,-134 -134,-0.93 z m -360.01,132 133.99,0.94 0.94,-134.01 -134,-0.93 z m -378.733,-134.34 0.93,134 134.003,-0.94 -0.93,-133.99 z m -359.422,-131.4 0.93,133.99 134.004,-0.93 -0.938,-134 z m -262.738,-275.1 0.938,134 134,-0.93 -0.938,-134 -134,0.93"
         style="fill:#5899d4;fill-opacity:1;fill-rule:nonzero;stroke:none"
         id="path1076" /><path
         d="m 631.785,2340.49 74,0.52 0.512,-74 -73.996,-0.52 z m 216.328,22 0.52,74 73.992,-0.52 -0.512,-74 z m 231.687,120 74,0.52 0.52,-74 -74.01,-0.52 z m 235.9,-72.95 0.51,73.9 h 14.15 l 59.85,-0.42 -0.51,-74 z m 233.29,-45.95 0.51,74.01 74.01,-0.52 -0.53,-74 z m 218.85,-96.19 0.52,74 74,-0.51 -0.52,-74 z m 199.47,-131.3 0.51,74 74.01,-0.52 -0.51,-74 z m 163.99,-166.3 0.52,74 73.98,-0.52 -0.5,-74 z m 129.52,-195.27 0.53,74 74,-0.52 -0.52,-74 z m 94.15,-218.18 0.51,74 74.01,-0.52 -0.53,-74 z m 37.65,-229.87 0.51,74 74,-0.52 -0.52,-73.99 z m 0.38,-231.6 0.51,74 73.99,-0.51 -0.5,-74.01 z m -37.91,-234.357 0.53,74 73.99,-0.523 -0.51,-73.996 z m -95.16,-217.851 0.51,74.004 74,-0.524 -0.52,-73.988 z m -128.27,-196.481 0.52,74.004 74,-0.515 -0.52,-74.008 z m -163.27,-161.988 0.51,74 73.99,-0.515 -0.5,-73.997 z m -200.58,-63.758 73.99,0.516 0.53,-74.004 -74.01,-0.523 z m -217.92,-163.902 0.52,74.004 74,-0.524 -0.52,-73.9957 z m -231.09,26.8984 74,0.5156 0.52,-74.00387 -73.19,-0.51172 h -0.81 z M 1081.31,10.5 l 0.52,73.9922 74,-0.5117 -0.52,-73.99612 z m -232.287,45.9414 0.516,74.0036 73.996,-0.523 -0.512,-73.9884 z m -216.89,88.1406 0.519,73.992 73.993,-0.511 -0.516,-74 z m -198.422,139.34 0.516,73.992 74.003,-0.523 -0.515,-73.989 z m -164.004,162.269 0.523,74.004 73.997,-0.515 -0.516,-74.008 z M 137.168,643.5 l 0.516,73.992 74,-0.519 -0.516,-73.993 z m -88.0899,217.113 0.5078,74.008 74.0041,-0.519 -0.52,-74 z m -43.68747,232.927 0.51562,74.01 73.99605,-0.51 -0.5117,-74.01 z m 0.62109,231.61 0.51562,74 73.99996,-0.52 -0.5234,-74 z m 43.91408,230.3 0.5156,74 73.9996,-0.51 -0.515,-74 z m 89.1372,218.9 0.515,74 74,-0.52 -0.515,-74 z m 131.285,196.44 0.515,74 74.004,-0.52 -0.515,-74 z m 162.289,165.02 0.523,74.01 73.996,-0.52 -0.515,-74 -74.004,0.51"
         style="fill:#5ea8d9;fill-opacity:1;fill-rule:nonzero;stroke:none"
         id="path1078" /></g></g></svg>
