<?xml version="1.0" encoding="UTF-8" standalone="no"?>
<!-- Created with Inkscape (http://www.inkscape.org/) -->

<svg
   version="1.1"
   id="svg9"
   xml:space="preserve"
   width="724.66669"
   height="155.94667"
   viewBox="0 0 724.66669 155.94667"
   sodipodi:docname="Accurics_logo_WIDE_HEX-vCS5.svg"
   inkscape:version="1.1.1 (3bf5ae0d25, 2021-09-20)"
   xmlns:inkscape="http://www.inkscape.org/namespaces/inkscape"
   xmlns:sodipodi="http://sodipodi.sourceforge.net/DTD/sodipodi-0.dtd"
   xmlns="http://www.w3.org/2000/svg"
   xmlns:svg="http://www.w3.org/2000/svg"><defs
     id="defs13" /><sodipodi:namedview
     id="namedview11"
     pagecolor="#ffffff"
     bordercolor="#666666"
     borderopacity="1.0"
     inkscape:pageshadow="2"
     inkscape:pageopacity="0.0"
     inkscape:pagecheckerboard="0"
     showgrid="false"
     inkscape:zoom="1.5634774"
     inkscape:cx="362.33334"
     inkscape:cy="78.031188"
     inkscape:window-width="1920"
     inkscape:window-height="1010"
     inkscape:window-x="-6"
     inkscape:window-y="-6"
     inkscape:window-maximized="1"
     inkscape:current-layer="g15" /><g
     id="g15"
     inkscape:groupmode="layer"
     inkscape:label="ink_ext_XXXXXX"
     transform="matrix(1.3333333,0,0,-1.3333333,0,155.94667)"><g
       id="g17"
       transform="scale(0.1)"><path
         d="m 2151.86,410.828 c 26.07,26.633 39.1,61.68 39.1,105.117 0,43.45 -13.03,78.485 -39.1,105.129 -26.06,26.637 -59.08,39.965 -99.04,39.965 -39.96,0 -72.84,-13.328 -98.61,-39.965 -25.77,-26.644 -38.66,-61.679 -38.66,-105.129 0,-43.437 12.89,-78.484 38.66,-105.117 25.77,-26.648 58.65,-39.969 98.61,-39.969 39.96,0 72.98,13.321 99.04,39.969 z m 145.96,337.09 V 283.984 h -103.39 v 59.95 c -17.96,-22.02 -40.1,-38.524 -66.46,-49.52 -26.36,-10.996 -55.47,-16.516 -87.32,-16.516 -45.17,0 -85.57,9.844 -121.19,29.543 -35.62,19.688 -63.42,47.481 -83.4,83.407 -19.99,35.898 -29.98,77.609 -29.98,125.097 0,47.493 9.99,89.055 29.98,124.672 19.98,35.621 47.78,63.278 83.4,82.977 35.62,19.679 76.02,29.535 121.19,29.535 30.11,0 57.78,-5.211 82.97,-15.641 25.21,-10.425 47.06,-25.773 65.61,-46.043 v 56.473 h 108.59"
         style="fill:#182f45;fill-opacity:1;fill-rule:nonzero;stroke:none"
         id="path19" /><path
         d="m 2488.94,308.309 c -38.22,20.265 -68.05,48.507 -89.48,84.707 -21.43,36.191 -32.15,77.168 -32.15,122.929 0,45.754 10.72,86.582 32.15,122.504 21.43,35.906 51.12,63.992 89.06,84.274 37.92,20.265 81.23,30.406 129.88,30.406 45.74,0 85.86,-9.274 120.32,-27.805 34.45,-18.539 60.38,-45.176 77.76,-79.926 l -83.4,-48.652 c -13.33,21.422 -29.98,37.496 -49.96,48.219 -19.98,10.715 -41.85,16.074 -65.59,16.074 -40.55,0 -74.15,-13.184 -100.78,-39.531 -26.65,-26.363 -39.96,-61.547 -39.96,-105.563 0,-44.023 13.16,-79.207 39.53,-105.554 26.35,-26.36 60.08,-39.532 101.21,-39.532 23.74,0 45.61,5.352 65.59,16.075 19.98,10.711 36.63,26.785 49.96,48.222 l 83.4,-48.652 c -17.96,-34.758 -44.17,-61.555 -78.62,-80.363 -34.47,-18.828 -74.29,-28.243 -119.46,-28.243 -48.09,0 -91.22,10.129 -129.46,30.411"
         style="fill:#182f45;fill-opacity:1;fill-rule:nonzero;stroke:none"
         id="path21" /><path
         d="m 2986.76,308.309 c -38.23,20.265 -68.06,48.507 -89.49,84.707 -21.43,36.191 -32.14,77.168 -32.14,122.929 0,45.754 10.71,86.582 32.14,122.504 21.43,35.906 51.12,63.992 89.06,84.274 37.93,20.265 81.23,30.406 129.88,30.406 45.74,0 85.86,-9.274 120.32,-27.805 34.46,-18.539 60.38,-45.176 77.77,-79.926 l -83.41,-48.652 c -13.33,21.422 -29.97,37.496 -49.95,48.219 -19.98,10.715 -41.86,16.074 -65.6,16.074 -40.55,0 -74.15,-13.184 -100.78,-39.531 -26.65,-26.363 -39.96,-61.547 -39.96,-105.563 0,-44.023 13.16,-79.207 39.53,-105.554 26.35,-26.36 60.08,-39.532 101.21,-39.532 23.74,0 45.62,5.352 65.6,16.075 19.98,10.711 36.62,26.785 49.95,48.222 l 83.41,-48.652 c -17.96,-34.758 -44.17,-61.555 -78.63,-80.363 -34.47,-18.828 -74.28,-28.243 -119.46,-28.243 -48.09,0 -91.22,10.129 -129.45,30.411"
         style="fill:#182f45;fill-opacity:1;fill-rule:nonzero;stroke:none"
         id="path23" /><path
         d="M 3857.27,747.918 V 283.984 H 3753.9 v 59.082 c -17.38,-20.859 -39.1,-36.925 -65.16,-48.222 -26.06,-11.289 -54.17,-16.946 -84.28,-16.946 -61.98,0 -110.77,17.227 -146.38,51.7 -35.63,34.453 -53.44,85.578 -53.44,153.34 v 264.98 h 108.6 V 497.703 c 0,-41.699 9.41,-72.84 28.23,-93.387 18.82,-20.566 45.62,-30.851 80.37,-30.851 38.79,0 69.63,12.012 92.52,36.055 22.88,24.035 34.32,58.644 34.32,103.82 v 234.578 h 108.59"
         style="fill:#182f45;fill-opacity:1;fill-rule:nonzero;stroke:none"
         id="path25" /><path
         d="M 4233.47,753.129 V 649.746 c -9.27,1.738 -17.68,2.602 -25.2,2.602 -42.28,0 -75.3,-12.309 -99.04,-36.918 -23.76,-24.629 -35.62,-60.098 -35.62,-106.426 v -225.02 h -108.6 v 463.934 h 103.39 v -67.77 c 31.27,48.657 86.29,72.981 165.07,72.981"
         style="fill:#182f45;fill-opacity:1;fill-rule:nonzero;stroke:none"
         id="path27" /><path
         d="m 4325.57,747.918 h 108.6 V 283.984 h -108.6 z m 5.21,95.133 c -13.33,12.445 -19.98,27.933 -19.98,46.48 0,18.528 6.65,34.02 19.98,46.481 13.31,12.445 29.82,18.676 49.52,18.676 19.68,0 36.19,-5.946 49.52,-17.809 13.31,-11.879 19.98,-26.797 19.98,-44.742 0,-19.117 -6.51,-35.184 -19.55,-48.215 -13.02,-13.035 -29.68,-19.555 -49.95,-19.555 -19.7,0 -36.21,6.223 -49.52,18.684"
         style="fill:#182f45;fill-opacity:1;fill-rule:nonzero;stroke:none"
         id="path29" /><path
         d="m 4660.05,308.309 c -38.23,20.265 -68.07,48.507 -89.49,84.707 -21.44,36.191 -32.14,77.168 -32.14,122.929 0,45.754 10.7,86.582 32.14,122.504 21.42,35.906 51.11,63.992 89.05,84.274 37.93,20.265 81.23,30.406 129.88,30.406 45.75,0 85.86,-9.274 120.33,-27.805 34.46,-18.539 60.38,-45.176 77.76,-79.926 l -83.41,-48.652 c -13.33,21.422 -29.97,37.496 -49.95,48.219 -19.98,10.715 -41.86,16.074 -65.6,16.074 -40.54,0 -74.14,-13.184 -100.78,-39.531 -26.64,-26.363 -39.96,-61.547 -39.96,-105.563 0,-44.023 13.16,-79.207 39.53,-105.554 26.35,-26.36 60.08,-39.532 101.21,-39.532 23.74,0 45.62,5.352 65.6,16.075 19.98,10.711 36.62,26.785 49.95,48.222 l 83.41,-48.652 c -17.96,-34.758 -44.17,-61.555 -78.63,-80.363 -34.47,-18.828 -74.28,-28.243 -119.46,-28.243 -48.07,0 -91.22,10.129 -129.44,30.411"
         style="fill:#182f45;fill-opacity:1;fill-rule:nonzero;stroke:none"
         id="path31" /><path
         d="m 5114.41,292.676 c -35.91,9.832 -64.59,22.285 -86.01,37.351 l 41.71,82.539 c 20.85,-13.906 45.89,-25.058 75.14,-33.445 29.24,-8.41 58.06,-12.598 86.45,-12.598 64.86,0 97.3,17.071 97.3,51.25 0,16.211 -8.25,27.508 -24.76,33.887 -16.51,6.367 -43,12.449 -79.49,18.242 -38.23,5.782 -69.37,12.45 -93.4,19.981 -24.04,7.527 -44.89,20.703 -62.55,39.531 -17.68,18.816 -26.5,45.027 -26.5,78.629 0,44.008 18.38,79.191 55.17,105.555 36.78,26.351 86.45,39.531 148.99,39.531 31.85,0 63.72,-3.621 95.57,-10.859 31.85,-7.25 57.91,-16.946 78.19,-29.106 l -41.7,-82.535 c -39.39,23.16 -83.7,34.75 -132.92,34.75 -31.86,0 -56.04,-4.774 -72.54,-14.328 -16.52,-9.563 -24.77,-22.16 -24.77,-37.793 0,-17.379 8.83,-29.695 26.5,-36.93 17.66,-7.246 45.03,-14.043 82.1,-20.41 37.06,-5.801 67.46,-12.461 91.22,-19.98 23.74,-7.54 44.16,-20.286 61.25,-38.235 17.08,-17.957 25.63,-43.437 25.63,-76.453 0,-43.437 -18.83,-78.184 -56.47,-104.25 -37.65,-26.062 -88.91,-39.102 -153.77,-39.102 -37.66,0 -74.44,4.934 -110.34,14.778"
         style="fill:#182f45;fill-opacity:1;fill-rule:nonzero;stroke:none"
         id="path33" /><path
         d="m 772.555,1169.6 c 111.453,0 212.39,-45.19 285.445,-118.27 66.74,-66.717 110.22,-156.732 117.24,-256.799 -41.04,-0.465 -81.73,-6.992 -120.95,-19.043 -10.39,-3.156 -20.65,-6.738 -30.78,-10.722 v 1.144 c 0,69.301 -28.096,132.067 -73.502,177.461 -45.399,45.402 -108.145,73.489 -177.453,73.489 -69.293,0 -132.063,-28.087 -177.457,-73.489 -45.407,-45.394 -73.5,-108.16 -73.5,-177.461 v -1.211 c -11.895,4.684 -24.024,8.844 -36.309,12.414 -37.613,11.012 -76.414,16.953 -115.398,17.418 7.019,100.067 50.48,190.082 117.238,256.799 73.031,73.08 173.969,118.27 285.426,118.27 v 0"
         style="fill:#53c5d7;fill-opacity:1;fill-rule:nonzero;stroke:none"
         id="path35" /><path
         d="M 1438.25,622.816 C 1372.22,688.836 1281,729.66 1180.3,729.66 c -50.02,0 -99.34,-10.562 -145.12,-30.402 h -0.28 C 989.527,679.531 948.121,650.547 913.652,613.605 l -392.98,-393.011 -0.051,0.051 -1.422,-1.536 -4.101,-4.089 0.078,-0.051 C 496.133,195.867 473.871,180.762 449.828,170.293 423.633,158.84 394.715,152.73 364.84,152.73 c -58.586,0 -111.621,23.774 -150,62.133 -38.379,38.348 -62.106,91.387 -62.106,149.989 0,58.566 23.727,111.64 62.106,149.992 38.379,38.359 91.414,62.148 150,62.148 29.851,0 58.605,-6.008 84.574,-17.258 l -0.055,-0.113 c 11.911,-5.152 23.34,-11.433 34.153,-18.734 6.547,55.742 46.465,101.32 99.203,116.297 -22.555,16.789 -46.879,30.921 -72.512,42.074 h -0.285 C 464.168,719.098 414.82,729.66 364.84,729.66 264.105,729.66 172.879,688.836 106.859,622.816 40.8242,556.785 0,465.559 0,364.852 0,264.102 40.8594,172.918 106.883,106.898 172.879,40.8711 264.105,0 364.84,0 c 50.402,0 100.012,10.6719 145.808,30.6719 41.614,18.1484 79.786,44.0273 112.247,76.5581 l 0.191,-0.171 402.214,402.269 -6.02,5.992 5.91,-5.527 c 20.1,21.527 44.15,38.355 70.56,49.828 l -0.06,0.113 c 25.96,11.25 54.72,17.258 84.61,17.258 58.55,0 111.61,-23.789 149.99,-62.148 38.35,-38.352 62.1,-91.426 62.1,-149.992 0,-58.602 -23.75,-111.641 -62.1,-149.989 -38.38,-38.359 -91.44,-62.133 -149.99,-62.133 -29.89,0 -58.8,6.11 -85.03,17.563 -26.17,11.426 -50.16,28.25 -70.26,49.773 l 0.13,0.168 -90.464,90.43 -107.961,-107.961 90.469,-90.433 0.05,0.05 C 950.746,77.3906 990.684,49.7617 1034.45,30.6719 1080.28,10.6719 1129.89,0 1180.3,0 c 100.72,0 191.92,40.8711 257.95,106.898 66.03,66.02 106.85,157.204 106.85,257.954 0,100.707 -40.82,191.933 -106.85,257.964"
         style="fill:#53c5d7;fill-opacity:1;fill-rule:nonzero;stroke:none"
         id="path37" /><path
         d="m 718.121,524.746 c 0,-54.055 -43.82,-97.871 -97.879,-97.871 -54.051,0 -97.875,43.816 -97.875,97.871 0,54.059 43.824,97.875 97.875,97.875 54.059,0 97.879,-43.816 97.879,-97.875"
         style="fill:#182f45;fill-opacity:1;fill-rule:nonzero;stroke:none"
         id="path39" /></g></g></svg>
