<?xml version="1.0" encoding="UTF-8" standalone="no"?>
<svg
   fill="none"
   viewBox="0 0 500 150.71819"
   version="1.1"
   id="svg34"
   sodipodi:docname="Buoyant_logo.svg"
   inkscape:version="1.1.1 (3bf5ae0d25, 2021-09-20)"
   width="500"
   height="150.71819"
   xmlns:inkscape="http://www.inkscape.org/namespaces/inkscape"
   xmlns:sodipodi="http://sodipodi.sourceforge.net/DTD/sodipodi-0.dtd"
   xmlns="http://www.w3.org/2000/svg"
   xmlns:svg="http://www.w3.org/2000/svg">
  <defs
     id="defs38" />
  <sodipodi:namedview
     id="namedview36"
     pagecolor="#ffffff"
     bordercolor="#666666"
     borderopacity="1.0"
     inkscape:pageshadow="2"
     inkscape:pageopacity="0.0"
     inkscape:pagecheckerboard="0"
     showgrid="false"
     inkscape:zoom="2.266"
     inkscape:cx="250"
     inkscape:cy="75.463372"
     inkscape:window-width="1920"
     inkscape:window-height="1010"
     inkscape:window-x="-6"
     inkscape:window-y="-6"
     inkscape:window-maximized="1"
     inkscape:current-layer="svg34"
     fit-margin-top="0"
     fit-margin-left="0"
     fit-margin-right="0"
     fit-margin-bottom="0" />
  <g
     id="g16606">
    <path
       d="M 0,50.212989 C 0,26.936006 16.05035,7.3168874 37.814837,1.5808078 28.571298,10.475919 22.268805,28.681784 22.268805,50.212989 c 0,21.531083 6.218486,39.736918 15.546032,48.631874 C 16.134387,93.191971 0,73.572913 0,50.212989 Z"
       fill="#64f9bf"
       id="path2"
       style="stroke-width:3.04705" />
    <path
       d="m 63.863175,98.844863 c 9.243539,-8.894956 15.546063,-27.100791 15.546063,-48.631874 0,-21.531205 -6.218425,-39.73707 -15.546063,-48.6321812 21.764488,5.7360796 37.814835,25.3551982 37.814835,48.6321812 0,23.359924 -16.050347,42.978982 -37.814835,48.631874 z"
       fill="#02a398"
       id="path4"
       style="stroke-width:3.04705" />
    <g
       fill="#01c1b4"
       id="g16"
       transform="scale(3.0470526)">
      <path
         d="m 16.6853,0 c 4.3298,0 7.9978,7.55731 7.9978,16.506 0,8.9488 -3.668,16.5061 -7.9978,16.5061 -4.3299,0 -7.9978,-7.5573 -7.9978,-16.5061 C 8.71508,7.55731 12.3554,0 16.6853,0 Z"
         id="path6" />
      <path
         d="m 23.3039,41.0332 v 5.402 c 0,1.6642 -1.379,3.0284 -3.0612,3.0284 H 13.155 c -1.6823,0 -3.0612,-1.3642 -3.0612,-3.0284 v -5.402 z"
         id="path8" />
      <path
         d="M 13.9003,40.1056 9.46019,32.903 C 8.68799,32.5756 7.94337,32.1936 7.25391,31.7571 l 5.12959,8.3485 z"
         id="path10" />
      <path
         d="m 17.4024,40.1057 v -5.7839 c -0.2207,0.0273 -0.4689,0.0545 -0.6895,0.0545 -0.2206,0 -0.4688,-0.0272 -0.6895,-0.0545 v 5.7839 z"
         id="path12" />
      <path
         d="M 23.6074,33.0118 19.25,40.1053 h 1.5168 l 5.0193,-8.1575 c -0.6894,0.4092 -1.4341,0.7639 -2.1787,1.064 z"
         id="path14" />
    </g>
    <g
       fill="#fff"
       id="g32"
       style="fill:#021444;fill-opacity:1"
       transform="scale(3.0470526)">
      <path
         d="m 58.4112,23.9267 c 0,0.1092 0.1379,0.2729 0.4413,0.4639 0.3034,0.1909 0.6067,0.4365 0.9652,0.7912 0.3586,0.3546 0.6619,0.7912 0.9653,1.3368 0.3033,0.5457 0.4412,1.255 0.4412,2.1008 0,0.8457 -0.1654,1.6097 -0.4688,2.2917 -0.3034,0.6821 -0.717,1.255 -1.2686,1.7461 -0.524,0.4638 -1.1583,0.8458 -1.8753,1.0913 -0.7171,0.2456 -1.5169,0.382 -2.3442,0.382 h -9.9007 c -0.2206,0 -0.4689,-0.0819 -0.7171,-0.2456 C 44.4013,33.7212 44.291,33.5303 44.291,33.2847 V 16.1239 c 0,-0.3547 0.1379,-0.6275 0.4413,-0.7912 0.2758,-0.1637 0.5791,-0.2455 0.9101,-0.2455 h 8.9078 c 0.7722,0 1.5169,0.1091 2.1787,0.3273 0.6895,0.2183 1.2687,0.5457 1.7651,0.9822 0.4964,0.4365 0.8825,0.9822 1.1858,1.6097 0.2758,0.6275 0.4413,1.3641 0.4413,2.1553 0,0.6003 -0.0827,1.1186 -0.2758,1.5279 -0.193,0.4092 -0.3861,0.7639 -0.6067,1.064 -0.2206,0.3001 -0.4137,0.5184 -0.6067,0.7093 -0.1931,0.191 -0.2207,0.3547 -0.2207,0.4638 z M 47.8487,22.1534 c 0,0.1637 0.0551,0.3001 0.193,0.3819 0.1103,0.1092 0.2758,0.1637 0.4413,0.1637 h 5.7363 c 0.6619,0 1.2134,-0.191 1.6823,-0.5729 0.4688,-0.382 0.717,-0.9003 0.717,-1.5824 0,-0.6821 -0.2482,-1.2004 -0.717,-1.5824 -0.4689,-0.3547 -1.0204,-0.5457 -1.6823,-0.5457 h -5.6536 c -0.1379,0 -0.3034,0.0546 -0.4413,0.1637 -0.1654,0.1092 -0.2206,0.2456 -0.2206,0.4093 v 3.1648 z m 0,8.0211 c 0,0.191 0.0551,0.3547 0.193,0.4638 0.1379,0.1091 0.3034,0.1637 0.4688,0.1637 h 6.3707 c 0.3585,0 0.6894,-0.0546 1.0204,-0.1637 0.3309,-0.1091 0.6343,-0.2456 0.8825,-0.4638 0.2482,-0.191 0.4688,-0.4365 0.6067,-0.7366 0.1655,-0.3002 0.2207,-0.6275 0.2207,-1.0095 0,-0.382 -0.0828,-0.7094 -0.2207,-1.0095 -0.1654,-0.3001 -0.3585,-0.5456 -0.6067,-0.7366 -0.2482,-0.191 -0.5516,-0.3547 -0.8825,-0.4638 -0.331,-0.1091 -0.6619,-0.1637 -1.048,-0.1637 h -6.3431 c -0.193,0 -0.3585,0.0546 -0.4964,0.1637 -0.1379,0.1091 -0.2206,0.2455 -0.2206,0.4638 v 3.4922 z"
         id="path18"
         style="fill:#021444;fill-opacity:1" />
      <path
         d="m 76.1721,19.2619 c 0.1655,0 0.3586,0 0.6068,-0.0273 0.2206,0 0.4688,0 0.6618,0.0546 0.2207,0.0273 0.3861,0.1091 0.524,0.2182 0.1379,0.1092 0.2207,0.3002 0.2207,0.5184 v 7.912 c 0,0.9549 -0.1655,1.8279 -0.524,2.6464 -0.3586,0.8185 -0.8274,1.5006 -1.4341,2.0735 -0.6067,0.5729 -1.3238,1.0367 -2.1236,1.3369 -0.8273,0.3273 -1.7098,0.491 -2.6751,0.491 -0.9652,0 -1.8477,-0.1637 -2.6751,-0.491 -0.8274,-0.3274 -1.5168,-0.764 -2.1236,-1.3369 -0.6067,-0.5729 -1.0755,-1.255 -1.434,-2.0735 -0.3586,-0.8185 -0.524,-1.6915 -0.524,-2.6464 0,-1.3369 0,-2.6464 0,-3.956 0,-1.3096 0,-2.6191 0.0276,-3.956 0,-0.2728 0.1103,-0.4911 0.3309,-0.6002 0.2206,-0.1091 0.4413,-0.191 0.6619,-0.191 h 0.6343 c 0.2482,0 0.4688,0.0273 0.717,0.0819 0.2207,0.0545 0.4137,0.1364 0.5792,0.2728 0.1654,0.1364 0.2206,0.3274 0.2206,0.6002 0,1.255 0,2.51 -0.0276,3.7377 0,1.255 -0.0275,2.4828 -0.0275,3.7378 0,0.5183 0.0827,0.9821 0.2482,1.446 0.1654,0.4638 0.4136,0.8457 0.7446,1.1731 0.3033,0.3274 0.6894,0.6002 1.1307,0.7912 0.4413,0.191 0.9101,0.3001 1.4617,0.3001 0.524,0 1.0204,-0.1091 1.434,-0.3001 0.4413,-0.191 0.7998,-0.4638 1.1308,-0.7912 0.3033,-0.3274 0.5515,-0.7366 0.7446,-1.1731 0.1655,-0.4639 0.2482,-0.9277 0.2482,-1.446 v -7.6392 c 0,-0.3001 0.1379,-0.5184 0.3861,-0.6275 0.3309,-0.0818 0.5791,-0.1364 0.8549,-0.1364 z"
         id="path20"
         style="fill:#021444;fill-opacity:1" />
      <path
         d="m 81.8262,26.7648 c 0,-0.9822 0.193,-1.9098 0.5515,-2.8374 0.3586,-0.9276 0.9101,-1.7461 1.5996,-2.4555 0.6895,-0.7093 1.5444,-1.3095 2.5648,-1.7461 1.0204,-0.4365 2.1787,-0.6548 3.4473,-0.6548 1.2686,0 2.4269,0.2183 3.4473,0.6548 1.0204,0.4366 1.8754,1.0368 2.5648,1.7461 0.6895,0.7094 1.2135,1.5279 1.5996,2.4555 0.3585,0.9276 0.5516,1.8825 0.5516,2.8374 0,0.9549 -0.1931,1.9098 -0.5516,2.8374 -0.3585,0.9276 -0.9101,1.7461 -1.5996,2.4554 -0.6894,0.7094 -1.5444,1.3096 -2.5648,1.7461 -1.0204,0.4365 -2.1787,0.6548 -3.4473,0.6548 -1.2686,0 -2.4269,-0.2183 -3.4473,-0.6548 -1.0204,-0.4365 -1.8753,-1.0367 -2.5648,-1.7461 -0.6895,-0.7093 -1.2135,-1.5278 -1.5996,-2.4554 -0.3585,-0.9004 -0.5515,-1.8553 -0.5515,-2.8374 z m 3.3646,0 c 0,0.6547 0.1103,1.2823 0.3585,1.8552 0.2206,0.5729 0.5791,1.064 0.9928,1.5005 0.4413,0.4366 0.9377,0.764 1.5168,1.0095 0.5792,0.2455 1.2411,0.382 1.9305,0.382 0.6895,0 1.3238,-0.1365 1.9305,-0.382 0.5792,-0.2455 1.1032,-0.6002 1.5168,-1.0095 0.4413,-0.4365 0.7722,-0.9276 0.9929,-1.5005 0.2482,-0.5729 0.3585,-1.2005 0.3585,-1.8552 0,-0.6548 -0.1103,-1.2823 -0.3585,-1.8553 -0.2482,-0.5729 -0.5792,-1.064 -0.9929,-1.5005 -0.4412,-0.4365 -0.9376,-0.7639 -1.5168,-1.0095 -0.5791,-0.2455 -1.241,-0.3819 -1.9305,-0.3819 -0.6894,0 -1.3237,0.1364 -1.9305,0.3819 -0.5791,0.2456 -1.1031,0.6003 -1.5168,1.0095 -0.4413,0.4365 -0.7722,0.9276 -0.9928,1.5005 -0.2207,0.573 -0.3585,1.2005 -0.3585,1.8553 z"
         id="path22"
         style="fill:#021444;fill-opacity:1" />
      <path
         d="m 112.218,34.4578 c 0,-0.191 -0.028,-0.4092 -0.11,-0.6002 -0.083,-0.191 -0.249,-0.3001 -0.497,-0.3001 -0.11,0 -0.22,0.0273 -0.358,0.0545 -0.138,0.0273 -0.249,0.0546 -0.331,0.1092 -0.524,0.3001 -1.021,0.5183 -1.49,0.6275 -0.468,0.1091 -1.02,0.191 -1.654,0.191 -0.938,0 -1.793,-0.1637 -2.537,-0.5184 -0.745,-0.3547 -1.379,-0.8185 -1.903,-1.4187 -0.524,-0.6002 -0.91,-1.2823 -1.186,-2.1008 -0.276,-0.7912 -0.386,-1.6369 -0.386,-2.5373 0,-1.3368 0,-2.6464 0.027,-3.9832 0,-1.3096 0.028,-2.6465 0.028,-3.9833 0,-0.2183 0.083,-0.382 0.22,-0.4911 0.166,-0.1091 0.331,-0.1637 0.524,-0.2183 0.193,-0.0545 0.414,-0.0818 0.635,-0.0818 h 0.524 c 0.22,0 0.496,0.0546 0.772,0.191 0.303,0.1091 0.441,0.3274 0.441,0.6002 v 8.0757 c 0,1.0913 0.304,1.937 0.91,2.5645 0.607,0.6275 1.462,0.9276 2.565,0.9276 1.214,0 2.151,-0.3546 2.758,-1.0367 0.634,-0.6821 0.938,-1.6097 0.938,-2.7555 v -7.8029 c 0.11,-0.2455 0.22,-0.4092 0.386,-0.5184 0.165,-0.1091 0.331,-0.1909 0.524,-0.2182 0.193,-0.0273 0.386,-0.0273 0.606,-0.0273 0.221,0 0.414,0.0273 0.635,0.0273 0.275,0 0.496,0.0545 0.717,0.1909 0.22,0.1092 0.331,0.3274 0.331,0.6003 v 13.6959 c 0,0.9276 -0.193,1.7734 -0.552,2.5645 -0.358,0.7912 -0.855,1.4733 -1.462,2.0463 -0.606,0.5729 -1.323,1.0367 -2.151,1.3368 -0.827,0.3274 -1.71,0.4911 -2.62,0.4911 -1.048,0 -1.985,-0.1364 -2.84,-0.4093 -0.855,-0.2728 -1.655,-0.7639 -2.427,-1.4732 -0.028,-0.1091 -0.083,-0.191 -0.083,-0.3001 -0.027,-0.0819 -0.027,-0.191 -0.027,-0.3001 0,-0.191 0.055,-0.382 0.165,-0.6003 0.11,-0.2182 0.221,-0.4092 0.386,-0.5729 0.166,-0.1637 0.359,-0.3001 0.552,-0.4365 0.193,-0.1091 0.413,-0.1637 0.606,-0.1637 0.193,0 0.414,0.0546 0.635,0.191 0.22,0.1364 0.441,0.2728 0.717,0.4365 0.276,0.1637 0.579,0.3001 0.91,0.4365 0.358,0.1364 0.744,0.191 1.213,0.191 0.717,0 1.379,-0.1637 2.041,-0.4638 0.634,-0.3001 1.131,-0.7912 1.489,-1.446 0.028,-0.0546 0.111,-0.191 0.193,-0.3819 0.138,-0.2183 0.166,-0.3274 0.166,-0.4093 z"
         id="path24"
         style="fill:#021444;fill-opacity:1" />
      <path
         d="m 131.605,33.3121 c -0.11,-0.191 -0.248,-0.2729 -0.441,-0.2729 -0.11,0 -0.276,0.0819 -0.524,0.2183 -0.248,0.1637 -0.579,0.3274 -0.993,0.5184 -0.386,0.1909 -0.855,0.3546 -1.351,0.5183 -0.496,0.1637 -1.048,0.2183 -1.627,0.2183 -1.103,0 -2.124,-0.191 -3.061,-0.6002 -0.938,-0.4093 -1.738,-0.9549 -2.427,-1.637 -0.69,-0.7093 -1.214,-1.5278 -1.6,-2.4554 -0.386,-0.9549 -0.579,-1.9644 -0.579,-3.0284 0,-1.0367 0.221,-2.0462 0.634,-2.9738 0.414,-0.9276 0.993,-1.7461 1.71,-2.4555 0.717,-0.7093 1.545,-1.255 2.482,-1.6915 0.938,-0.4092 1.958,-0.6275 3.006,-0.6275 0.579,0 1.131,0.0819 1.6,0.2183 0.469,0.1364 0.91,0.3001 1.268,0.4638 0.359,0.1637 0.662,0.3274 0.911,0.4638 0.248,0.1364 0.441,0.2182 0.551,0.2182 0.11,0 0.276,-0.0545 0.441,-0.1909 0,-0.3001 0.028,-0.5184 0.111,-0.6548 0.082,-0.1364 0.193,-0.2456 0.358,-0.3001 0.166,-0.0546 0.331,-0.0819 0.552,-0.0819 h 0.717 c 0.276,0 0.579,0.0273 0.855,0.0819 0.276,0.0545 0.469,0.2455 0.606,0.5183 v 13.9961 c 0,0.1091 -0.082,0.2182 -0.22,0.3274 -0.138,0.0818 -0.304,0.1637 -0.497,0.2455 -0.193,0.0818 -0.358,0.1091 -0.551,0.1637 -0.193,0.0273 -0.331,0.0546 -0.441,0.0546 -0.083,0 -0.193,-0.0273 -0.359,-0.0546 -0.165,-0.0273 -0.331,-0.0818 -0.496,-0.1091 -0.166,-0.0546 -0.304,-0.1092 -0.442,-0.191 -0.137,-0.0819 -0.193,-0.1637 -0.193,-0.2728 z m -8.99,-6.466 c 0,0.6547 0.11,1.2277 0.331,1.7733 0.22,0.5457 0.524,1.0095 0.91,1.3915 0.386,0.3819 0.855,0.7093 1.406,0.9276 0.552,0.2182 1.159,0.3274 1.793,0.3274 0.662,0 1.241,-0.1092 1.765,-0.3547 0.524,-0.2456 0.965,-0.573 1.324,-0.9822 0.358,-0.4092 0.634,-0.873 0.827,-1.4187 0.193,-0.5456 0.303,-1.1186 0.303,-1.7461 0,-0.6275 -0.082,-1.2004 -0.275,-1.7461 -0.193,-0.5456 -0.442,-1.0094 -0.8,-1.4187 -0.359,-0.4092 -0.8,-0.7093 -1.296,-0.9549 -0.524,-0.2182 -1.103,-0.3546 -1.765,-0.3546 -0.662,0 -1.269,0.1091 -1.793,0.3546 -0.552,0.2456 -1.02,0.5457 -1.434,0.9822 -0.386,0.4092 -0.717,0.9003 -0.91,1.446 -0.276,0.5184 -0.386,1.1186 -0.386,1.7734 z"
         id="path26"
         style="fill:#021444;fill-opacity:1" />
      <path
         d="m 139.492,20.0805 c 0,-0.191 0.083,-0.3547 0.221,-0.4638 0.166,-0.1091 0.331,-0.1637 0.524,-0.2183 0.193,-0.0545 0.414,-0.0818 0.634,-0.0818 0.221,0 0.386,-0.0273 0.524,-0.0273 0.359,0 0.607,0.0546 0.745,0.191 0.165,0.1091 0.276,0.2455 0.358,0.3819 0.083,0.1365 0.166,0.2729 0.249,0.382 0.082,0.1091 0.248,0.191 0.469,0.191 0.082,0 0.22,-0.0819 0.441,-0.2183 0.193,-0.1364 0.469,-0.3001 0.8,-0.4638 0.33,-0.1637 0.717,-0.3274 1.185,-0.4638 0.469,-0.1364 0.966,-0.2183 1.545,-0.2183 0.91,0 1.71,0.1637 2.427,0.4911 0.717,0.3274 1.324,0.7912 1.792,1.3369 0.497,0.5729 0.855,1.2277 1.131,1.9916 0.276,0.7639 0.386,1.5551 0.386,2.4009 v 8.2667 c 0,0.1909 -0.083,0.3546 -0.248,0.4638 -0.165,0.1091 -0.359,0.1909 -0.579,0.2182 -0.221,0.0273 -0.441,0.0546 -0.69,0.0819 -0.248,0 -0.413,0.0273 -0.524,0.0273 -0.22,0 -0.468,-0.0546 -0.744,-0.191 -0.276,-0.1092 -0.386,-0.3274 -0.386,-0.6002 v -7.9939 c 0,-0.4638 -0.083,-0.9003 -0.249,-1.3095 -0.165,-0.4093 -0.386,-0.764 -0.661,-1.0641 -0.276,-0.3001 -0.635,-0.5456 -1.021,-0.7366 -0.386,-0.191 -0.827,-0.2728 -1.324,-0.2728 -1.158,0 -2.096,0.3274 -2.785,0.9821 -0.69,0.6548 -1.048,1.5552 -1.048,2.7556 v 7.7483 c -0.221,0.3547 -0.524,0.5184 -0.855,0.5729 -0.331,0.0273 -0.689,0.0546 -1.076,0.0546 -0.275,0 -0.524,-0.0273 -0.744,-0.1091 -0.193,-0.0819 -0.386,-0.2729 -0.524,-0.5457 V 20.0805 Z"
         id="path28"
         style="fill:#021444;fill-opacity:1" />
      <path
         d="m 156.702,19.3163 c 0.165,0 0.331,0 0.469,0.0273 0.165,0 0.303,0 0.413,-0.0273 0.111,-0.0272 0.221,-0.0818 0.304,-0.1909 0.082,-0.0819 0.11,-0.2456 0.11,-0.4638 V 15.906 c 0.11,-0.191 0.248,-0.3547 0.441,-0.5184 0.193,-0.1637 0.386,-0.3274 0.607,-0.4638 0.221,-0.1364 0.441,-0.2455 0.69,-0.3274 0.22,-0.0818 0.441,-0.1091 0.661,-0.1091 0.166,0 0.331,0.0819 0.524,0.2183 0.193,0.1364 0.276,0.3001 0.276,0.4638 l 0.028,3.3012 c 0,0.2182 0.027,0.4365 0.083,0.6275 0.055,0.191 0.248,0.3001 0.523,0.3001 0.221,0 0.442,0 0.662,-0.0273 0.221,0 0.442,-0.0273 0.662,-0.0273 0.193,0 0.359,0.0819 0.469,0.2456 0.11,0.1637 0.193,0.3546 0.248,0.5729 0.055,0.2183 0.083,0.4365 0.083,0.6548 0,0.2183 0.028,0.3819 0.028,0.5184 0,0.3546 -0.083,0.5729 -0.221,0.7366 -0.138,0.1364 -0.303,0.2455 -0.524,0.2728 -0.193,0.0273 -0.441,0.0546 -0.662,0.0546 -0.248,0 -0.469,0 -0.662,0.0273 -0.193,0.0272 -0.386,0.0818 -0.524,0.1909 -0.138,0.1092 -0.22,0.3002 -0.22,0.573 l 0.027,5.0473 c 0,0.6275 0.083,1.1459 0.221,1.5278 0.165,0.382 0.331,0.7094 0.551,0.9276 0.221,0.2456 0.442,0.4093 0.69,0.5184 0.248,0.1091 0.469,0.2455 0.689,0.3547 0.221,0.1091 0.386,0.2455 0.524,0.3546 0.138,0.1365 0.221,0.3274 0.221,0.6003 0,0.1909 -0.028,0.3819 -0.11,0.6002 -0.083,0.2182 -0.193,0.4092 -0.331,0.6002 -0.138,0.191 -0.304,0.3547 -0.469,0.4911 -0.166,0.1364 -0.359,0.191 -0.552,0.191 -0.138,0 -0.276,-0.0273 -0.386,-0.0819 -0.662,-0.3274 -1.241,-0.6548 -1.765,-0.9822 -0.524,-0.3274 -0.965,-0.682 -1.324,-1.1185 -0.358,-0.4093 -0.662,-0.9004 -0.855,-1.446 -0.193,-0.5457 -0.303,-1.2005 -0.303,-1.9917 v -5.6475 c 0,-0.191 -0.028,-0.3547 -0.11,-0.5729 -0.083,-0.191 -0.221,-0.3001 -0.441,-0.3001 -0.387,0 -0.69,-0.0273 -0.883,-0.0819 -0.193,-0.0545 -0.359,-0.1637 -0.441,-0.3001 -0.083,-0.1364 -0.138,-0.3001 -0.166,-0.5456 0,-0.2456 -0.027,-0.5184 -0.027,-0.8458 0,-0.2183 0.055,-0.4911 0.165,-0.7639 0.138,-0.2456 0.331,-0.4093 0.607,-0.4093 z"
         id="path30"
         style="fill:#021444;fill-opacity:1" />
    </g>
  </g>
</svg>
