<?xml version="1.0" standalone="no"?>
<!-- Generator: Adobe Fireworks 10, Export SVG Extension by Aaron Beall (http://fireworks.abeall.com) . Version: 0.6.1  -->
<!DOCTYPE svg PUBLIC "-//W3C//DTD SVG 1.1//EN" "http://www.w3.org/Graphics/SVG/1.1/DTD/svg11.dtd">
<svg id="Untitled-Page%201" viewBox="0 0 296 52" style="background-color:#ffffff00" version="1.1"
	xmlns="http://www.w3.org/2000/svg" xmlns:xlink="http://www.w3.org/1999/xlink" xml:space="preserve"
	x="0px" y="0px" width="296px" height="52px"
>
	<g id="Layer%201">
		<path d="M 38.707 21.2632 L 38.707 35.1289 L 49.606 43.3467 L 49.606 15.8101 L 30.6831 0.936 L 30.6831 14.9551 L 38.707 21.2632 Z" fill="#f115ba"/>
		<path d="M 19.9224 0 L 0.0005 15.8101 L 0.0005 43.3477 L 10.8994 35.0498 L 10.8994 21.2627 L 19.9224 14.1021 L 19.9224 0 Z" fill="#f115ba"/>
		<path d="M 30.6826 32.3965 L 30.6826 36.6367 L 30.6826 46.1016 L 38.2827 51.8867 L 49.606 43.3477 L 38.707 35.1279 L 30.6826 29.0781 L 30.6826 32.3965 Z" fill="#d91b5b"/>
		<path d="M 19.9219 32.4971 L 10.8989 35.2422 L 19.9219 32.4971 ZM 10.8989 35.0498 L 0 43.3477 L 11.541 51.8867 L 19.9219 45.3809 L 19.9219 37.2861 L 19.9219 32.4971 L 19.9219 28.1797 L 10.8989 35.0498 Z" fill="#d91b5b"/>
		<path d="M 78.5176 15.7007 L 89.1289 38.4521 L 86.6729 38.4521 L 83.0938 30.9668 L 73.293 30.9668 L 69.7476 38.4521 L 67.2119 38.4521 L 77.9609 15.7007 L 78.5176 15.7007 ZM 78.231 20.5347 L 74.332 28.7705 L 82.1108 28.7705 L 78.231 20.5347 Z" fill="#1c1c1a"/>
		<g>
			<g>
				<path d="M 94.2969 34.2148 L 96.23 33.0547 C 97.5908 35.5596 99.1641 36.8125 100.9478 36.8125 C 101.7109 36.8125 102.4282 36.6348 103.0981 36.2793 C 103.7681 35.9238 104.2778 35.4463 104.6289 34.8486 C 104.98 34.251 105.1548 33.6172 105.1548 32.9453 C 105.1548 32.1836 104.897 31.4355 104.3818 30.7041 C 103.6699 29.6924 102.3711 28.4766 100.4839 27.0527 C 98.5869 25.6196 97.4058 24.5835 96.9419 23.9438 C 96.1382 22.8716 95.7358 21.7119 95.7358 20.4648 C 95.7358 19.4736 95.9731 18.5718 96.4468 17.7568 C 96.9209 16.9429 97.5889 16.3008 98.4502 15.8315 C 99.311 15.3628 100.2461 15.1279 101.2568 15.1279 C 102.3301 15.1279 103.332 15.3936 104.2661 15.9248 C 105.1992 16.4556 106.186 17.4326 107.228 18.856 L 105.3711 20.2627 C 104.5161 19.1289 103.7861 18.3818 103.1831 18.0195 C 102.5791 17.6587 101.9219 17.4795 101.2109 17.4795 C 100.293 17.4795 99.543 17.7568 98.96 18.3135 C 98.3779 18.8706 98.0859 19.5566 98.0859 20.3706 C 98.0859 20.8667 98.189 21.3457 98.396 21.8096 C 98.6021 22.2739 98.978 22.7788 99.5249 23.3257 C 99.8242 23.6147 100.8032 24.3716 102.4639 25.5986 C 104.4331 27.0527 105.7842 28.3477 106.5161 29.4814 C 107.248 30.6152 107.6138 31.7559 107.6138 32.8994 C 107.6138 34.5498 106.9878 35.9834 105.7349 37.2002 C 104.4819 38.417 102.959 39.0254 101.1641 39.0254 C 99.7832 39.0254 98.5298 38.6563 97.4058 37.9199 C 96.2822 37.1816 95.2451 35.9463 94.2969 34.2148 L 94.2969 34.2148 Z" fill="#1c1c1a"/>
				<path d="M 116.4019 15.7002 L 120.9341 15.7002 C 123.5327 15.7002 125.2861 15.8145 126.1929 16.04 C 127.4917 16.3604 128.5537 17.0171 129.3799 18.0122 C 130.2041 19.0083 130.6167 20.2583 130.6167 21.7632 C 130.6167 23.2793 130.2148 24.5303 129.4111 25.5142 C 128.606 26.499 127.4971 27.1611 126.085 27.501 C 125.0537 27.749 123.125 27.873 120.2998 27.873 L 118.6758 27.873 L 118.6758 38.4521 L 116.4019 38.4521 L 116.4019 15.7002 ZM 118.6758 17.9272 L 118.6758 25.646 L 122.5269 25.6924 C 124.084 25.6924 125.2241 25.5513 125.9458 25.2671 C 126.667 24.9844 127.2339 24.5273 127.647 23.8931 C 128.0601 23.2612 128.2661 22.5532 128.2661 21.771 C 128.2661 21.0103 128.0601 20.312 127.647 19.6792 C 127.2339 19.0474 126.6909 18.5962 126.0151 18.3291 C 125.3398 18.061 124.2339 17.9272 122.6978 17.9272 L 118.6758 17.9272 Z" fill="#1c1c1a"/>
				<path d="M 139.1724 15.7002 L 152.2119 15.7002 L 152.2119 17.9272 L 141.4463 17.9272 L 141.4463 25.0581 L 152.1191 25.0581 L 152.1191 27.2852 L 141.4463 27.2852 L 141.4463 36.2256 L 152.1191 36.2256 L 152.1191 38.4521 L 139.1724 38.4521 L 139.1724 15.7002 Z" fill="#1c1c1a"/>
				<path d="M 160.1484 38.4521 L 160.1484 15.7007 L 160.6436 15.7007 L 175.7871 33.1406 L 175.7871 15.7007 L 178.0303 15.7007 L 178.0303 38.4521 L 177.5186 38.4521 L 162.5 21.2236 L 162.5 38.4521 L 160.1484 38.4521 Z" fill="#1c1c1a"/>
				<path d="M 200.8604 38.4521 L 204.1172 15.7007 L 204.4873 15.7007 L 213.7373 34.3691 L 222.8975 15.7007 L 223.2617 15.7007 L 226.5361 38.4521 L 224.3057 38.4521 L 222.0576 22.1807 L 214.0127 38.4521 L 213.4316 38.4521 L 205.291 22.0576 L 203.0557 38.4521 L 200.8604 38.4521 Z" fill="#1c1c1a"/>
				<path d="M 235.8145 15.7002 L 248.8545 15.7002 L 248.8545 17.9272 L 238.0889 17.9272 L 238.0889 25.0581 L 248.7617 25.0581 L 248.7617 27.2852 L 238.0889 27.2852 L 238.0889 36.2256 L 248.7617 36.2256 L 248.7617 38.4521 L 235.8145 38.4521 L 235.8145 15.7002 Z" fill="#1c1c1a"/>
				<path d="M 257.0449 34.2148 L 258.9785 33.0547 C 260.3398 35.5596 261.9111 36.8125 263.6953 36.8125 C 264.459 36.8125 265.1758 36.6348 265.8457 36.2793 C 266.5156 35.9238 267.0254 35.4463 267.377 34.8486 C 267.7275 34.251 267.9023 33.6172 267.9023 32.9453 C 267.9023 32.1836 267.6455 31.4355 267.1299 30.7041 C 266.4189 29.6924 265.1182 28.4766 263.2314 27.0527 C 261.335 25.6196 260.1533 24.5835 259.6895 23.9438 C 258.8857 22.8716 258.4834 21.7119 258.4834 20.4648 C 258.4834 19.4736 258.7207 18.5718 259.1943 17.7568 C 259.6689 16.9429 260.3369 16.3008 261.1973 15.8315 C 262.0586 15.3628 262.9941 15.1279 264.0049 15.1279 C 265.0771 15.1279 266.0791 15.3936 267.0137 15.9248 C 267.9463 16.4556 268.9336 17.4326 269.9756 18.856 L 268.1182 20.2627 C 267.2637 19.1289 266.5342 18.3818 265.9307 18.0195 C 265.3271 17.6587 264.6699 17.4795 263.959 17.4795 C 263.041 17.4795 262.291 17.7568 261.709 18.3135 C 261.126 18.8706 260.834 19.5566 260.834 20.3706 C 260.834 20.8667 260.9365 21.3457 261.1436 21.8096 C 261.3496 22.2739 261.7256 22.7788 262.2725 23.3257 C 262.5713 23.6147 263.5508 24.3716 265.2119 25.5986 C 267.1807 27.0527 268.5313 28.3477 269.2637 29.4814 C 269.9951 30.6152 270.3623 31.7559 270.3623 32.8994 C 270.3623 34.5498 269.7354 35.9834 268.4824 37.2002 C 267.2295 38.417 265.707 39.0254 263.9121 39.0254 C 262.5303 39.0254 261.2773 38.6563 260.1533 37.9199 C 259.0293 37.1816 257.9922 35.9463 257.0449 34.2148 L 257.0449 34.2148 Z" fill="#1c1c1a"/>
				<path d="M 279.8848 15.7002 L 282.1572 15.7002 L 282.1572 25.2432 L 293.7432 25.2432 L 293.7432 15.7002 L 296.0176 15.7002 L 296.0176 38.4521 L 293.7432 38.4521 L 293.7432 27.4707 L 282.1572 27.4707 L 282.1572 38.4521 L 279.8848 38.4521 L 279.8848 15.7002 Z" fill="#1c1c1a"/>
			</g>
		</g>
		<path d="M 0 -0.0005 L 296.0166 -0.0005 L 296.0166 51.8867 L 0 51.8867 L 0 -0.0005 Z" fill="none"/>
	</g>
</svg>