<?xml version="1.0" encoding="UTF-8" standalone="no"?>
<!-- Created with Inkscape (http://www.inkscape.org/) -->

<svg
   version="1.1"
   id="svg2"
   xml:space="preserve"
   width="758.58533"
   height="173.94533"
   viewBox="0 0 758.58533 173.94533"
   sodipodi:docname="Aporeto.svg"
   inkscape:version="1.1.1 (3bf5ae0d25, 2021-09-20)"
   xmlns:inkscape="http://www.inkscape.org/namespaces/inkscape"
   xmlns:sodipodi="http://sodipodi.sourceforge.net/DTD/sodipodi-0.dtd"
   xmlns="http://www.w3.org/2000/svg"
   xmlns:svg="http://www.w3.org/2000/svg"><defs
     id="defs6"><clipPath
       clipPathUnits="userSpaceOnUse"
       id="clipPath16"><path
         d="M 0,1224 H 792 V 0 H 0 Z"
         id="path14" /></clipPath><linearGradient
       x1="0"
       y1="0"
       x2="1"
       y2="0"
       gradientUnits="userSpaceOnUse"
       gradientTransform="matrix(-40.127563,128.28247,128.28247,40.127579,239.56396,699.27881)"
       spreadMethod="pad"
       id="linearGradient60"><stop
         style="stop-opacity:1;stop-color:#5cc2cb"
         offset="0"
         id="stop54" /><stop
         style="stop-opacity:1;stop-color:#35a1b3"
         offset="0.20091295"
         id="stop56" /><stop
         style="stop-opacity:1;stop-color:#35a1b3"
         offset="1"
         id="stop58" /></linearGradient><linearGradient
       x1="0"
       y1="0"
       x2="1"
       y2="0"
       gradientUnits="userSpaceOnUse"
       gradientTransform="matrix(80.400391,0,0,-80.400391,120.95801,712.53613)"
       spreadMethod="pad"
       id="linearGradient82"><stop
         style="stop-opacity:1;stop-color:#5cc2cb"
         offset="0"
         id="stop76" /><stop
         style="stop-opacity:1;stop-color:#35a1b3"
         offset="0.20091295"
         id="stop78" /><stop
         style="stop-opacity:1;stop-color:#35a1b3"
         offset="1"
         id="stop80" /></linearGradient><linearGradient
       x1="0"
       y1="0"
       x2="1"
       y2="0"
       gradientUnits="userSpaceOnUse"
       gradientTransform="matrix(-53.204849,-92.153503,-92.153503,53.204864,172.16504,779.68652)"
       spreadMethod="pad"
       id="linearGradient104"><stop
         style="stop-opacity:1;stop-color:#1d6267"
         offset="0"
         id="stop98" /><stop
         style="stop-opacity:1;stop-color:#35a1b3"
         offset="0.95610521"
         id="stop100" /><stop
         style="stop-opacity:1;stop-color:#35a1b3"
         offset="1"
         id="stop102" /></linearGradient><linearGradient
       x1="0"
       y1="0"
       x2="1"
       y2="0"
       gradientUnits="userSpaceOnUse"
       gradientTransform="matrix(96.562195,-151.51393,-151.51393,-96.562195,195.74268,781.86865)"
       spreadMethod="pad"
       id="linearGradient126"><stop
         style="stop-opacity:1;stop-color:#1d6267"
         offset="0"
         id="stop120" /><stop
         style="stop-opacity:1;stop-color:#35a1b3"
         offset="0.20091295"
         id="stop122" /><stop
         style="stop-opacity:1;stop-color:#35a1b3"
         offset="1"
         id="stop124" /></linearGradient><linearGradient
       x1="0"
       y1="0"
       x2="1"
       y2="0"
       gradientUnits="userSpaceOnUse"
       gradientTransform="matrix(-66.784943,-27.132141,-27.132141,66.784958,197.4126,723.90625)"
       spreadMethod="pad"
       id="linearGradient148"><stop
         style="stop-opacity:1;stop-color:#1d6267"
         offset="0"
         id="stop142" /><stop
         style="stop-opacity:1;stop-color:#35a1b3"
         offset="0.46092083"
         id="stop144" /><stop
         style="stop-opacity:1;stop-color:#35a1b3"
         offset="1"
         id="stop146" /></linearGradient></defs><sodipodi:namedview
     id="namedview4"
     pagecolor="#ffffff"
     bordercolor="#666666"
     borderopacity="1.0"
     inkscape:pageshadow="2"
     inkscape:pageopacity="0.0"
     inkscape:pagecheckerboard="0"
     showgrid="false"
     fit-margin-top="0"
     fit-margin-left="0"
     fit-margin-right="0"
     fit-margin-bottom="0"
     inkscape:zoom="0.50490196"
     inkscape:cx="367.39806"
     inkscape:cy="281.24272"
     inkscape:window-width="1920"
     inkscape:window-height="1010"
     inkscape:window-x="-6"
     inkscape:window-y="-6"
     inkscape:window-maximized="1"
     inkscape:current-layer="g8" /><g
     id="g8"
     inkscape:groupmode="layer"
     inkscape:label="Aporeto"
     transform="matrix(1.3333333,0,0,-1.3333333,-161.27733,1097.3933)"><g
       id="g1006"><g
         id="g10"><g
           id="g12"
           clip-path="url(#clipPath16)"><g
             id="g18"
             transform="translate(611.499,761.0103)"><path
               d="m 0,0 c 0,-21.677 17.584,-39.313 39.201,-39.313 21.612,0 39.197,17.636 39.197,39.313 0,21.677 -17.585,39.312 -39.197,39.312 C 17.584,39.312 0,21.677 0,0 m 14.832,0 c 0,13.475 10.932,24.437 24.369,24.437 13.434,0 24.365,-10.962 24.365,-24.437 0,-13.476 -10.931,-24.438 -24.365,-24.438 -13.437,0 -24.369,10.962 -24.369,24.438"
               style="fill:#35a1b3;fill-opacity:1;fill-rule:nonzero;stroke:none"
               id="path20" /></g><g
             id="g22"
             transform="translate(577.667,820.6187)"><path
               d="M 0,0 V -20.749 H -12.988 V -35.624 H 0 v -21.399 l 0.186,-6.728 C 1.729,-80.31 13.551,-93.92 29.174,-98.071 l 0.004,15.737 c -8.453,3.839 -14.344,12.379 -14.344,22.273 v 24.437 h 14.221 v 14.875 H 14.834 V -8.467 L 5.979,0 Z"
               style="fill:#35a1b3;fill-opacity:1;fill-rule:nonzero;stroke:none"
               id="path24" /></g><g
             id="g26"
             transform="translate(512.2959,798.7134)"><path
               d="m 0,0 c -10.047,-2.955 -18.346,-9.657 -23.367,-18.872 -5.022,-9.215 -6.162,-19.839 -3.213,-29.914 5.008,-17.121 20.678,-28.25 37.633,-28.25 3.644,0 7.349,0.513 11.015,1.591 12.516,3.684 22.356,13.329 26.323,25.802 L 34.26,-45.121 C 31.791,-52.882 25.674,-58.882 17.893,-61.169 6.67,-64.484 -5.08,-59.254 -10.42,-49.296 l 57.242,16.837 3.032,0.867 c -0.286,1.352 -0.85,3.719 -1.207,4.935 C 45.703,-16.58 39.018,-8.259 29.83,-3.224 23.984,-0.022 17.57,1.609 11.088,1.609 7.383,1.609 3.656,1.076 0,0 m -10.35,-26.005 c 3.121,5.729 8.28,9.894 14.526,11.732 6.244,1.839 12.83,1.128 18.541,-2.004 2.703,-1.48 5.041,-3.431 6.965,-5.724 l -42.807,-12.592 c 0.383,2.972 1.301,5.88 2.775,8.588"
               style="fill:#35a1b3;fill-opacity:1;fill-rule:nonzero;stroke:none"
               id="path28" /></g><g
             id="g30"
             transform="translate(457.1924,791.7495)"><path
               d="m 0,0 -8.853,8.573 h -5.979 V -70.052 H 0 v 39.312 c 0,13.476 10.932,24.438 24.367,24.438 V 8.573 C 15.158,8.573 6.697,5.351 0,0"
               style="fill:#35a1b3;fill-opacity:1;fill-rule:nonzero;stroke:none"
               id="path32" /></g><g
             id="g34"
             transform="translate(353.8193,761.0103)"><path
               d="M 0,0 C 0,-21.677 17.586,-39.313 39.203,-39.313 60.816,-39.313 78.4,-21.677 78.4,0 78.4,21.677 60.816,39.311 39.203,39.311 17.586,39.311 0,21.677 0,0 m 14.834,0 c 0,13.475 10.932,24.437 24.369,24.437 13.436,0 24.365,-10.962 24.365,-24.437 0,-13.476 -10.929,-24.438 -24.365,-24.438 -13.437,0 -24.369,10.962 -24.369,24.438"
               style="fill:#35a1b3;fill-opacity:1;fill-rule:nonzero;stroke:none"
               id="path36" /></g><g
             id="g38"
             transform="translate(278.6436,788.1143)"><path
               d="m 0,0 -8.847,8.403 h -5.778 v -61.42 -31.176 H 0.233 v 29.742 c 7.129,-7.375 17.109,-11.966 28.136,-11.966 21.614,0 39.199,17.636 39.199,39.313 0,21.677 -17.585,39.312 -39.199,39.312 C 17.221,12.208 7.146,7.517 0,0 m 4.002,-27.104 c 0,13.475 10.932,24.437 24.367,24.437 13.436,0 24.366,-10.962 24.366,-24.437 0,-13.476 -10.93,-24.438 -24.366,-24.438 -13.435,0 -24.367,10.962 -24.367,24.438"
               style="fill:#35a1b3;fill-opacity:1;fill-rule:nonzero;stroke:none"
               id="path40" /></g></g></g><g
         id="g42"><g
           id="g44"><g
             id="g50"><g
               id="g52"><path
                 d="m 230,703.795 h 23.999 L 185,823.045 Z"
                 style="fill:url(#linearGradient60);stroke:none"
                 id="path62" /></g></g></g></g><g
         id="g64"><g
           id="g66"><g
             id="g72"><g
               id="g74"><path
                 d="m 120.958,711.292 11.371,-18.706 69.03,21.608 -10.678,18.293 z"
                 style="fill:url(#linearGradient82);stroke:none"
                 id="path84" /></g></g></g></g><g
         id="g86"><g
           id="g88"><g
             id="g94"><g
               id="g96"><path
                 d="m 120.958,711.292 28.76,8.957 35.282,60.546 v 42.25 z"
                 style="fill:url(#linearGradient104);stroke:none"
                 id="path106" /></g></g></g></g><g
         id="g108"><g
           id="g110"><g
             id="g116"><g
               id="g118"><path
                 d="m 185,780.795 45,-77 -45,119.25 z"
                 style="fill:url(#linearGradient126);stroke:none"
                 id="path128" /></g></g></g></g><g
         id="g130"><g
           id="g132"><g
             id="g138"><g
               id="g140"><path
                 d="m 132.329,692.586 69.03,21.608 -10.678,18.293 z"
                 style="fill:url(#linearGradient148);stroke:none"
                 id="path150" /></g></g></g></g></g></g></svg>
