<?xml version="1.0" encoding="UTF-8" standalone="no"?>
<!-- Created with Inkscape (http://www.inkscape.org/) -->

<svg
   version="1.1"
   id="svg2"
   xml:space="preserve"
   width="496"
   height="106.66667"
   viewBox="0 0 496 106.66667"
   sodipodi:docname="lightbend-full-color.svg"
   inkscape:version="1.1.1 (3bf5ae0d25, 2021-09-20)"
   xmlns:inkscape="http://www.inkscape.org/namespaces/inkscape"
   xmlns:sodipodi="http://sodipodi.sourceforge.net/DTD/sodipodi-0.dtd"
   xmlns="http://www.w3.org/2000/svg"
   xmlns:svg="http://www.w3.org/2000/svg"><defs
     id="defs6" /><sodipodi:namedview
     id="namedview4"
     pagecolor="#ffffff"
     bordercolor="#666666"
     borderopacity="1.0"
     inkscape:pageshadow="2"
     inkscape:pageopacity="0.0"
     inkscape:pagecheckerboard="0"
     showgrid="false"
     inkscape:zoom="2.2379032"
     inkscape:cx="247.77658"
     inkscape:cy="53.174775"
     inkscape:window-width="1920"
     inkscape:window-height="1010"
     inkscape:window-x="-6"
     inkscape:window-y="-6"
     inkscape:window-maximized="1"
     inkscape:current-layer="g8" /><g
     id="g8"
     inkscape:groupmode="layer"
     inkscape:label="ink_ext_XXXXXX"
     transform="matrix(1.3333333,0,0,-1.3333333,0,106.66667)"><g
       id="g10"
       transform="scale(0.1)"><path
         d="M 10,210 V 40 C 10,23.4297 23.4336,10 40,10 h 840 c 16.566,0 30,13.4297 30,30 V 210 C 764.063,169.387 613.383,150 460,150 306.617,150 155.938,169.387 10,210"
         style="fill:#f68519;fill-opacity:1;fill-rule:nonzero;stroke:none"
         id="path12" /><path
         d="M 880,790 H 40 C 23.5,790 10,776.504 10,760 V 295.313 270 c 145.742,-42.02 296.465,-70 450,-70 153.535,0 304.258,27.98 450,70 V 295.313 760 c 0,16.574 -13.434,30 -30,30"
         style="fill:#f68519;fill-opacity:1;fill-rule:nonzero;stroke:none"
         id="path14" /><path
         d="m 1072,599.199 c 0,11.887 9.72,21.602 21.06,21.602 11.88,0 21.6,-9.715 21.6,-21.602 V 279.531 h 136.01 c 10.8,0 19.44,-9.179 19.44,-19.98 0,-10.801 -8.64,-19.434 -19.44,-19.434 h -157.61 c -11.34,0 -21.06,9.719 -21.06,21.594 v 337.488"
         style="fill:#f68519;fill-opacity:1;fill-rule:nonzero;stroke:none"
         id="path16" /><path
         d="m 1354.09,500.93 c 0,11.336 9.17,21.05 20.51,21.05 11.88,0 21.06,-9.175 21.06,-21.05 V 258.477 c 0,-11.883 -8.64,-21.067 -20.52,-21.067 -11.88,0 -21.05,9.184 -21.05,21.067 z m -3.78,105.828 c 0,13.508 10.79,22.137 24.29,22.137 14.04,0 24.84,-8.629 24.84,-22.137 v -7.024 c 0,-12.957 -10.8,-22.136 -24.84,-22.136 -13.5,0 -24.29,9.179 -24.29,22.136 v 7.024"
         style="fill:#f68519;fill-opacity:1;fill-rule:nonzero;stroke:none"
         id="path18" /><path
         d="m 1726.67,392.93 v 1.074 c 0,57.246 -49.68,94.504 -102.6,94.504 -52.92,0 -96.66,-36.723 -96.66,-93.957 v -1.082 c 0,-56.156 44.82,-95.031 96.66,-95.031 52.92,0 102.6,38.332 102.6,94.492 z m -218.7,-207.356 c -6.48,3.242 -10.79,9.719 -10.79,17.278 0,9.191 9.18,18.359 18.89,18.359 3.78,0 6.48,-1.074 9.18,-2.695 29.16,-19.446 62.64,-30.235 98.82,-30.235 61.56,0 101.52,34.016 101.52,99.356 v 32.937 c -24.3,-32.398 -58.32,-58.863 -109.62,-58.863 -66.96,0 -131.21,50.223 -131.21,130.684 v 1.074 c 0,81.543 64.8,131.758 131.21,131.758 52.38,0 86.4,-25.918 109.08,-56.164 v 31.867 c 0,11.336 8.64,21.05 20.52,21.05 11.88,0 21.06,-9.714 21.06,-21.05 V 288.711 c 0,-43.191 -12.96,-76.133 -35.64,-98.809 -24.84,-24.843 -62.1,-37.265 -106.38,-37.265 -42.66,0 -81.54,11.34 -116.64,32.937"
         style="fill:#f68519;fill-opacity:1;fill-rule:nonzero;stroke:none"
         id="path20" /><path
         d="m 1862.21,615.938 c 0,11.335 9.18,21.066 20.51,21.066 11.88,0 21.07,-9.731 21.07,-21.066 V 470.684 c 18.35,30.246 47.51,54.543 95.58,54.543 67.49,0 106.91,-45.364 106.91,-111.782 V 258.477 c 0,-11.883 -9.18,-21.067 -20.52,-21.067 -11.88,0 -21.06,9.184 -21.06,21.067 v 144.707 c 0,51.843 -28.08,84.238 -77.21,84.238 -48.07,0 -83.7,-35.098 -83.7,-87.473 V 258.477 c 0,-11.883 -8.64,-21.067 -20.52,-21.067 -11.88,0 -21.06,9.184 -21.06,21.067 v 357.461"
         style="fill:#f68519;fill-opacity:1;fill-rule:nonzero;stroke:none"
         id="path22" /><path
         d="m 2204.57,314.094 v 168.472 h -22.69 c -9.71,0 -18.35,8.633 -18.35,18.364 0,10.254 8.64,18.355 18.35,18.355 h 22.69 v 65.883 c 0,11.336 8.63,21.055 20.52,21.055 11.34,0 21.05,-9.719 21.05,-21.055 v -65.883 h 72.37 c 10.25,0 18.89,-8.64 18.89,-18.355 0,-10.266 -8.64,-18.364 -18.89,-18.364 h -72.37 V 319.492 c 0,-34.023 18.9,-46.433 46.99,-46.433 14.58,0 22.13,3.777 25.38,3.777 9.71,0 17.81,-8.106 17.81,-17.82 0,-7.563 -4.86,-13.496 -11.88,-16.203 -11.88,-4.852 -24.84,-7.559 -41.04,-7.559 -44.82,0 -78.83,22.141 -78.83,78.84"
         style="fill:#f68519;fill-opacity:1;fill-rule:nonzero;stroke:none"
         id="path24" /><path
         d="m 2665.71,378.887 v 1.086 c 0,65.879 -45.36,107.996 -98.27,107.996 -51.83,0 -100.98,-43.739 -100.98,-107.461 v -1.074 c 0,-64.805 49.15,-107.996 100.98,-107.996 54,0 98.27,39.949 98.27,107.449 z M 2426.5,615.938 c 0,11.882 9.18,21.066 20.52,21.066 11.88,0 21.07,-9.184 21.07,-21.066 V 463.125 c 22.67,33.477 55.61,62.102 106.91,62.102 66.95,0 133.37,-52.922 133.37,-144.719 v -1.074 c 0,-91.258 -65.88,-145.254 -133.37,-145.254 -51.84,0 -85.32,28.078 -106.91,59.394 v -35.097 c 0,-11.336 -8.65,-21.067 -20.53,-21.067 -11.88,0 -21.06,9.731 -21.06,21.067 v 357.461"
         style="fill:#f68519;fill-opacity:1;fill-rule:nonzero;stroke:none"
         id="path26" /><path
         d="m 2984.31,395.09 c -4.33,50.762 -33.48,95.039 -89.1,95.039 -48.6,0 -85.32,-40.5 -90.72,-95.039 z m -82.62,-161.457 c -76.68,0 -139.32,58.855 -139.32,145.254 v 1.086 c 0,80.457 56.7,145.254 133.92,145.254 82.62,0 129.6,-67.5 129.6,-141.477 0,-11.34 -9.18,-19.441 -19.44,-19.441 h -201.96 c 5.94,-60.481 48.61,-94.496 98.28,-94.496 34.55,0 59.94,13.5 80.45,32.406 3.24,2.691 7.02,4.851 11.89,4.851 10.25,0 18.36,-8.093 18.36,-17.824 0,-4.851 -2.16,-9.715 -6.49,-13.492 -26.45,-25.383 -57.77,-42.121 -105.29,-42.121"
         style="fill:#f68519;fill-opacity:1;fill-rule:nonzero;stroke:none"
         id="path28" /><path
         d="m 3095.01,500.93 c 0,11.336 9.18,21.05 20.52,21.05 11.88,0 21.06,-9.175 21.06,-21.05 v -30.246 c 18.36,30.246 47.52,54.543 95.58,54.543 67.5,0 106.91,-45.364 106.91,-111.782 V 258.477 c 0,-11.883 -9.18,-21.067 -20.52,-21.067 -11.88,0 -21.06,9.184 -21.06,21.067 v 144.707 c 0,51.843 -28.08,84.238 -77.22,84.238 -48.05,0 -83.69,-35.098 -83.69,-87.473 V 258.477 c 0,-11.883 -8.64,-21.067 -20.52,-21.067 -11.88,0 -21.06,9.184 -21.06,21.067 V 500.93"
         style="fill:#f68519;fill-opacity:1;fill-rule:nonzero;stroke:none"
         id="path30" /><path
         d="m 3447.63,380.508 v -1.074 c 0,-65.879 45.9,-107.996 98.28,-107.996 51.83,0 100.97,43.738 100.97,107.996 v 1.074 c 0,64.258 -49.14,107.461 -100.97,107.461 -54.01,0 -98.28,-39.961 -98.28,-107.461 z m 239.21,-122.031 c 0,-11.883 -9.18,-21.067 -20.52,-21.067 -11.88,0 -21.06,9.184 -21.06,21.067 v 37.793 c -22.68,-33.477 -55.61,-62.09 -106.91,-62.09 -66.96,0 -133.38,52.91 -133.38,144.707 v 1.086 c 0,91.257 66.42,145.254 133.38,145.254 51.84,0 85.31,-28.079 106.91,-59.399 v 150.11 c 0,11.882 8.65,21.066 20.52,21.066 11.88,0 21.06,-9.184 21.06,-21.066 V 258.477"
         style="fill:#f68519;fill-opacity:1;fill-rule:nonzero;stroke:none"
         id="path32" /></g></g></svg>
