<?xml version="1.0" encoding="UTF-8" standalone="no"?>
<!-- Created with Inkscape (http://www.inkscape.org/) -->

<svg
   version="1.1"
   id="svg67799"
   xml:space="preserve"
   width="1425.2766"
   height="395.05466"
   viewBox="0 0 1425.2766 395.05465"
   sodipodi:docname="Armory_logo.svg"
   inkscape:version="1.1.1 (3bf5ae0d25, 2021-09-20)"
   xmlns:inkscape="http://www.inkscape.org/namespaces/inkscape"
   xmlns:sodipodi="http://sodipodi.sourceforge.net/DTD/sodipodi-0.dtd"
   xmlns="http://www.w3.org/2000/svg"
   xmlns:svg="http://www.w3.org/2000/svg"><defs
     id="defs67803"><clipPath
       clipPathUnits="userSpaceOnUse"
       id="clipPath67813"><path
         d="M 0,358 H 1151 V 0 H 0 Z"
         id="path67811" /></clipPath><clipPath
       clipPathUnits="userSpaceOnUse"
       id="clipPath67861"><path
         d="M 163.29,322.145 H 285.549 V 25.8555 H 163.29 Z"
         id="path67859" /></clipPath></defs><sodipodi:namedview
     id="namedview67801"
     pagecolor="#ffffff"
     bordercolor="#666666"
     borderopacity="1.0"
     inkscape:pageshadow="2"
     inkscape:pageopacity="0.0"
     inkscape:pagecheckerboard="0"
     showgrid="false"
     fit-margin-top="0"
     fit-margin-left="0"
     fit-margin-right="0"
     fit-margin-bottom="0"
     inkscape:zoom="0.73827103"
     inkscape:cx="713.15273"
     inkscape:cy="190.98677"
     inkscape:window-width="1920"
     inkscape:window-height="1010"
     inkscape:window-x="-6"
     inkscape:window-y="-6"
     inkscape:window-maximized="1"
     inkscape:current-layer="g67805" /><g
     id="g67805"
     inkscape:groupmode="layer"
     inkscape:label="Armory_logo"
     transform="matrix(1.3333333,0,0,-1.3333333,-54.695253,429.52759)"><g
       id="g67807"><g
         id="g67809"
         clip-path="url(#clipPath67813)"><g
           id="g67815"
           transform="translate(392.2012,183.2275)"><path
             d="m 0,0 c -3.418,1.596 -11.849,3.875 -23.243,3.875 -18.684,0 -27.115,-7.521 -27.115,-21.42 0,-15.95 9.57,-21.647 23.014,-21.647 14.356,0 27.344,9.114 27.344,19.14 z m 4.101,-45.8 -0.683,0.228 c -8.432,-10.709 -22.331,-17.089 -38.737,-17.089 -25.521,0 -42.383,14.127 -42.383,44.661 0,25.749 17.318,42.383 49.219,42.383 10.709,0 20.735,-1.823 28.483,-4.33 v 10.254 c 0,17.089 -8.203,23.925 -28.712,23.925 -14.81,0 -25.52,-2.278 -38.052,-7.747 l -2.506,23.926 c 13.443,5.924 28.709,8.887 45.799,8.887 38.282,0 52.181,-16.406 52.181,-53.32 V -60.383 H 6.607 Z"
             style="fill:#4e5859;fill-opacity:1;fill-rule:nonzero;stroke:none"
             id="path67817" /></g><g
           id="g67819"
           transform="translate(442.7881,122.8447)"><path
             d="m 0,0 v 136.263 l 23.242,1.367 2.506,-25.749 h 0.685 c 8.43,17.773 22.559,27.344 39.42,27.344 5.697,0 10.71,-0.684 14.355,-1.824 l -1.822,-29.394 c -4.33,1.367 -9.342,2.279 -14.357,2.279 -19.823,0 -35.09,-15.495 -35.09,-41.243 L 28.939,0 Z"
             style="fill:#4e5859;fill-opacity:1;fill-rule:nonzero;stroke:none"
             id="path67821" /></g><g
           id="g67823"
           transform="translate(694.123,122.8447)"><path
             d="m 0,0 v 89.095 c 0,16.406 -9.115,23.926 -24.152,23.926 -13.218,0 -23.244,-7.292 -23.244,-22.332 V 0 h -28.938 v 90.689 c 0,16.179 -9.57,22.559 -23.242,22.559 -9.799,0 -19.596,-5.013 -24.382,-12.532 V 0 h -28.938 v 136.49 l 20.735,1.367 5.015,-13.671 c 9.341,9.57 22.101,15.266 35.317,15.266 17.773,0 29.623,-6.38 36.687,-19.596 8.658,13.444 22.329,19.596 38.736,19.596 26.66,0 45.344,-16.406 45.344,-49.902 V 0 Z"
             style="fill:#4e5859;fill-opacity:1;fill-rule:nonzero;stroke:none"
             id="path67825" /></g><g
           id="g67827"
           transform="translate(803.9541,144.0352)"><path
             d="m 0,0 c 22.56,0 30.989,10.938 30.989,46.941 0,36.002 -8.429,46.94 -30.989,46.94 -22.786,0 -31.443,-10.938 -31.443,-46.94 C -31.443,10.938 -22.558,0 0,0 m 0,-24.381 c -42.381,0 -61.521,20.508 -61.521,71.322 0,50.585 19.14,71.549 61.521,71.549 42.611,0 60.841,-20.964 60.841,-71.549 0,-50.814 -18.23,-71.322 -60.841,-71.322"
             style="fill:#4e5859;fill-opacity:1;fill-rule:nonzero;stroke:none"
             id="path67829" /></g><g
           id="g67831"
           transform="translate(886.2148,122.8447)"><path
             d="m 0,0 v 136.263 l 23.242,1.367 2.506,-25.749 h 0.685 c 8.429,17.773 22.558,27.344 39.419,27.344 5.697,0 10.711,-0.684 14.356,-1.824 l -1.823,-29.394 c -4.33,1.367 -9.342,2.279 -14.356,2.279 -19.823,0 -35.09,-15.495 -35.09,-41.243 L 28.939,0 Z"
             style="fill:#4e5859;fill-opacity:1;fill-rule:nonzero;stroke:none"
             id="path67833" /></g><g
           id="g67835"
           transform="translate(1032.5049,122.6172)"><path
             d="m 0,0 0.684,2.051 -59.473,135.35 h 33.268 L 8.43,46.256 14.583,28.938 h 0.685 l 4.556,17.774 26.66,90.689 h 30.99 L 28.939,-0.229 C 18.913,-27.116 4.33,-37.143 -17.317,-37.143 c -7.977,0 -15.723,1.368 -22.331,4.33 l 2.505,21.192 c 5.015,-2.508 9.799,-3.419 14.812,-3.419 9.798,0 17.089,3.419 22.331,15.04"
             style="fill:#4e5859;fill-opacity:1;fill-rule:nonzero;stroke:none"
             id="path67837" /></g><g
           id="g67839"
           transform="translate(233.0156,261.0908)"><path
             d="m 0,0 -11.545,5.329 v 12.716 9.58 l -58.181,13.062 h -0.001 L -127.909,27.625 V 18.045 5.329 L -139.454,0 -171.049,-14.582 c -0.406,-3.897 -0.784,-8.911 -0.952,-14.768 -0.249,-8.627 -0.017,-19.135 1.299,-30.846 9.264,3.753 19.381,5.838 29.99,5.838 9.934,0 19.436,-1.827 28.209,-5.14 14.139,-5.341 26.373,-14.564 35.385,-26.384 2.429,0.254 4.894,0.389 7.39,0.389 13.093,0 25.336,-3.599 35.825,-9.841 2.594,-1.544 5.086,-3.243 7.451,-5.097 8.665,5.059 18.737,7.97 29.494,7.97 7.373,0 14.421,-1.374 20.919,-3.859 1.122,3.781 2.152,7.607 3.062,11.49 2.167,9.25 3.56,18.121 4.422,26.378 1.968,18.872 1.123,34.503 0.148,43.871 z"
             style="fill:#ffffff;fill-opacity:1;fill-rule:nonzero;stroke:none"
             id="path67841" /></g><g
           id="g67843"
           transform="translate(264.4604,202.6387)"><path
             d="m 0,0 c -0.861,-8.257 -2.255,-17.128 -4.422,-26.378 -0.91,-3.883 -1.939,-7.709 -3.061,-11.49 -6.499,2.485 -13.547,3.859 -20.92,3.859 -10.757,0 -20.829,-2.911 -29.494,-7.97 -2.365,1.854 -4.856,3.553 -7.451,5.097 -10.489,6.242 -22.732,9.841 -35.824,9.841 -2.497,0 -4.962,-0.135 -7.391,-0.389 -9.012,11.821 -21.246,21.043 -35.385,26.384 -8.773,3.314 -18.275,5.14 -28.209,5.14 -10.609,0 -20.726,-2.085 -29.989,-5.838 -1.316,11.711 -1.548,22.22 -1.3,30.847 0.168,5.856 0.546,10.87 0.952,14.767 l 31.595,14.582 11.545,5.329 v 12.716 9.58 l 58.182,13.062 h 0.002 L -42.99,86.077 V 76.497 63.781 L -31.445,58.452 0.148,43.871 C 1.124,34.503 1.968,18.872 0,0 m -23.117,76.497 v 25.486 l -78.053,17.523 -0.002,0.001 -78.055,-17.524 V 76.497 l -41.417,-19.116 c 0,0 -3.138,-15.076 -2.764,-38.27 0.151,-9.346 0.877,-20.012 2.604,-31.543 1.484,-9.9 3.709,-20.435 6.952,-31.323 11.992,-40.264 37.909,-85.296 91.68,-120.549 6.579,-4.313 13.56,-8.486 21,-12.48 l 10e-4,0.001 c 7.435,3.991 14.411,8.161 20.987,12.471 44.794,29.364 70.252,65.512 84.44,100.042 2.191,5.332 4.123,10.625 5.806,15.849 4.435,13.765 7.205,27.035 8.862,39.264 C 24.135,29.31 18.3,57.381 18.3,57.381 Z"
             style="fill:#0065a1;fill-opacity:1;fill-rule:nonzero;stroke:none"
             id="path67845" /></g><g
           id="g67847"
           transform="translate(120.5127,201.5928)"><path
             d="m 0,0 c 6.92,3.625 14.79,5.687 23.144,5.687 6.395,0 12.502,-1.215 18.123,-3.405 8.609,10.817 20.811,18.178 34.601,19.891 -9.3,5.345 -21.14,8.552 -34.041,8.552 -1.723,0 -3.426,-0.064 -5.108,-0.175 -9.807,11.126 -23.622,18.068 -38.942,18.068 -15.914,0 -30.212,-7.483 -40.072,-19.375 -3.375,0.961 -6.925,1.508 -10.609,1.508 -2.253,0 -4.447,-0.232 -6.595,-0.603 -0.248,-8.627 -0.016,-19.135 1.3,-30.846 9.263,3.753 19.381,5.838 29.99,5.838 C -18.275,5.14 -8.773,3.313 0,0"
             style="fill:#4bc1e1;fill-opacity:1;fill-rule:nonzero;stroke:none"
             id="path67849" /></g><g
           id="g67851"
           transform="translate(246.7935,204.9502)"><path
             d="m 0,0 c -1.409,0 -2.801,-0.052 -4.18,-0.134 -9.86,11.869 -24.144,19.336 -40.041,19.336 -2.094,0 -4.16,-0.134 -6.192,-0.387 -13.79,-1.712 -25.992,-9.074 -34.601,-19.89 -5.62,2.189 -11.728,3.404 -18.123,3.404 -8.354,0 -16.223,-2.061 -23.144,-5.686 14.139,-5.341 26.373,-14.564 35.385,-26.384 2.429,0.254 4.894,0.388 7.391,0.388 13.092,0 25.335,-3.598 35.824,-9.84 2.595,-1.544 5.086,-3.244 7.451,-5.097 8.665,5.059 18.737,7.97 29.494,7.97 7.373,0 14.421,-1.374 20.92,-3.86 1.122,3.782 2.151,7.608 3.061,11.491 2.167,9.25 3.561,18.121 4.422,26.377 C 12.179,-0.823 6.227,0 0,0"
             style="fill:#009abf;fill-opacity:1;fill-rule:nonzero;stroke:none"
             id="path67853" /></g><g
           id="g67855"><g
             id="g67857" /><g
             id="g67869"><g
               clip-path="url(#clipPath67861)"
               opacity="0.149994"
               id="g67867"><g
                 transform="translate(282.7607,260.0195)"
                 id="g67865"><path
                   d="m 0,0 -41.417,19.116 v 25.487 l -78.054,17.522 v -20.367 -253.119 -22.803 c 7.434,3.991 14.411,8.161 20.987,12.471 44.794,29.364 70.252,65.512 84.44,100.043 2.19,5.332 4.123,10.625 5.806,15.848 4.434,13.765 7.205,27.035 8.862,39.264 C 5.835,-28.071 0,0 0,0"
                   style="fill:#4e5859;fill-opacity:1;fill-rule:nonzero;stroke:none"
                   id="path67863" /></g></g></g></g></g></g></g></svg>
