<?xml version="1.0" encoding="UTF-8" standalone="no"?>
<!-- Created with Inkscape (http://www.inkscape.org/) -->

<svg
   version="1.1"
   id="svg2"
   xml:space="preserve"
   width="784.46075"
   height="272.37811"
   viewBox="0 0 784.46076 272.37811"
   sodipodi:docname="KubeCon+CloudNativeCon.svg"
   inkscape:version="1.1.1 (3bf5ae0d25, 2021-09-20)"
   xmlns:inkscape="http://www.inkscape.org/namespaces/inkscape"
   xmlns:sodipodi="http://sodipodi.sourceforge.net/DTD/sodipodi-0.dtd"
   xmlns="http://www.w3.org/2000/svg"
   xmlns:svg="http://www.w3.org/2000/svg"><defs
     id="defs6"><clipPath
       clipPathUnits="userSpaceOnUse"
       id="clipPath16"><path
         d="M 0,267.391 H 622.464 V 0 H 0 Z"
         id="path14" /></clipPath><clipPath
       clipPathUnits="userSpaceOnUse"
       id="clipPath120"><path
         d="m 236.057,59.899 h 1.013 v 203.453 h -1.013 z"
         id="path118" /></clipPath><clipPath
       clipPathUnits="userSpaceOnUse"
       id="clipPath130"><path
         d="m 236.057,59.9 h 1.013 v 203.452 h -1.013 z"
         id="path128" /></clipPath></defs><sodipodi:namedview
     id="namedview4"
     pagecolor="#ffffff"
     bordercolor="#666666"
     borderopacity="1.0"
     inkscape:pageshadow="2"
     inkscape:pageopacity="0.0"
     inkscape:pagecheckerboard="0"
     showgrid="false"
     fit-margin-top="0"
     fit-margin-left="0"
     fit-margin-right="0"
     fit-margin-bottom="0"
     inkscape:zoom="1.3964663"
     inkscape:cx="387.04838"
     inkscape:cy="173.6526"
     inkscape:window-width="1920"
     inkscape:window-height="1001"
     inkscape:window-x="-7"
     inkscape:window-y="-7"
     inkscape:window-maximized="1"
     inkscape:current-layer="g8" /><g
     id="g8"
     inkscape:groupmode="layer"
     inkscape:label="KubeCon+CloudNativeCon"
     transform="matrix(1.3333333,0,0,-1.3333333,-27.739733,352.24344)"><g
       id="g10"><g
         id="g12"
         clip-path="url(#clipPath16)"><g
           id="g18"
           transform="translate(37.8188,68.334)"><path
             d="m 0,0 c -0.582,0.943 -1.268,1.964 -2.059,3.06 -0.791,1.093 -1.649,2.189 -2.579,3.284 -0.928,1.095 -1.892,2.149 -2.891,3.162 -0.999,1.014 -1.996,1.906 -2.996,2.682 V 0 h -6.489 v 28.828 h 6.489 V 17.93 c 1.692,1.774 3.391,3.626 5.097,5.552 1.705,1.928 3.293,3.709 4.763,5.346 H 7.031 C 5.062,26.5 3.085,24.253 1.104,22.09 -0.88,19.925 -2.967,17.75 -5.158,15.56 -2.855,13.646 -0.63,11.371 1.519,8.735 3.668,6.102 5.727,3.189 7.696,0 Z M 28.618,0.749 C 27.563,0.443 26.205,0.159 24.541,-0.104 22.877,-0.367 21.13,-0.499 19.3,-0.499 c -1.859,0 -3.405,0.249 -4.639,0.748 -1.233,0.5 -2.212,1.2 -2.932,2.102 -0.723,0.901 -1.235,1.976 -1.54,3.224 -0.304,1.246 -0.457,2.62 -0.457,4.119 v 12.188 h 6.199 v -11.44 c 0,-1.998 0.263,-3.44 0.789,-4.327 0.527,-0.887 1.511,-1.33 2.954,-1.33 0.443,0 0.916,0.02 1.415,0.062 0.499,0.042 0.941,0.091 1.33,0.146 v 16.889 h 6.199 z M 48.79,11.107 c 0,3.996 -1.469,5.99 -4.41,5.99 -0.638,0 -1.268,-0.083 -1.892,-0.249 -0.624,-0.167 -1.13,-0.374 -1.518,-0.624 V 4.951 c 0.304,-0.055 0.693,-0.104 1.165,-0.146 0.47,-0.042 0.984,-0.062 1.539,-0.062 1.69,0 2.967,0.581 3.828,1.746 0.858,1.166 1.288,2.704 1.288,4.618 M 55.113,10.94 C 55.113,9.193 54.855,7.613 54.344,6.198 53.831,4.785 53.089,3.577 52.117,2.58 51.147,1.581 49.955,0.813 48.541,0.271 47.126,-0.271 45.518,-0.54 43.715,-0.54 c -0.748,0 -1.532,0.034 -2.35,0.103 -0.818,0.07 -1.623,0.161 -2.413,0.27 -0.79,0.111 -1.546,0.244 -2.266,0.396 -0.721,0.153 -1.36,0.312 -1.915,0.478 v 30.575 l 6.199,0.999 V 21.383 c 0.693,0.305 1.415,0.54 2.163,0.707 0.748,0.166 1.553,0.248 2.413,0.248 1.553,0 2.926,-0.27 4.117,-0.81 1.193,-0.542 2.192,-1.311 2.995,-2.308 0.805,-0.999 1.416,-2.199 1.832,-3.599 0.415,-1.401 0.623,-2.962 0.623,-4.681 m 4.074,-0.166 c 0,1.942 0.298,3.641 0.895,5.096 0.596,1.457 1.379,2.669 2.35,3.64 0.97,0.97 2.088,1.707 3.348,2.205 1.263,0.5 2.559,0.749 3.891,0.749 3.105,0 5.559,-0.95 7.362,-2.85 1.804,-1.899 2.704,-4.693 2.704,-8.382 0,-0.359 -0.013,-0.754 -0.042,-1.186 -0.027,-0.43 -0.054,-0.811 -0.083,-1.144 h -14.06 c 0.138,-1.276 0.736,-2.288 1.789,-3.037 1.054,-0.749 2.468,-1.122 4.243,-1.122 1.137,0 2.254,0.104 3.349,0.312 1.094,0.208 1.99,0.465 2.683,0.769 L 78.448,0.79 C 78.115,0.623 77.671,0.458 77.116,0.292 c -0.553,-0.167 -1.172,-0.313 -1.85,-0.438 -0.68,-0.125 -1.408,-0.228 -2.185,-0.311 -0.776,-0.083 -1.553,-0.125 -2.329,-0.125 -1.97,0 -3.683,0.292 -5.138,0.874 -1.456,0.581 -2.662,1.379 -3.619,2.393 -0.957,1.01 -1.664,2.211 -2.121,3.596 -0.459,1.387 -0.687,2.885 -0.687,4.493 m 14.559,2.372 c -0.026,0.526 -0.116,1.04 -0.268,1.539 -0.155,0.501 -0.39,0.943 -0.709,1.331 -0.319,0.389 -0.721,0.708 -1.206,0.957 -0.486,0.25 -1.088,0.374 -1.809,0.374 -0.693,0 -1.291,-0.118 -1.789,-0.354 -0.499,-0.235 -0.916,-0.547 -1.248,-0.934 -0.333,-0.39 -0.589,-0.841 -0.77,-1.354 -0.18,-0.513 -0.312,-1.033 -0.395,-1.559 z M 98.412,-0.582 c -4.686,0 -8.257,1.304 -10.712,3.909 -2.454,2.609 -3.68,6.31 -3.68,11.109 0,2.385 0.374,4.512 1.122,6.384 0.749,1.872 1.775,3.452 3.079,4.744 1.303,1.29 2.856,2.266 4.659,2.931 1.803,0.667 3.758,0.999 5.865,0.999 1.221,0 2.329,-0.091 3.328,-0.27 0.999,-0.181 1.871,-0.389 2.621,-0.622 0.749,-0.238 1.372,-0.481 1.871,-0.731 0.5,-0.249 0.861,-0.442 1.082,-0.581 l -1.872,-5.242 c -0.886,0.473 -1.921,0.873 -3.098,1.206 -1.18,0.333 -2.518,0.5 -4.015,0.5 -0.999,0 -1.976,-0.167 -2.933,-0.5 -0.958,-0.333 -1.802,-0.867 -2.537,-1.603 -0.736,-0.733 -1.325,-1.684 -1.768,-2.848 -0.444,-1.165 -0.666,-2.579 -0.666,-4.241 0,-1.333 0.145,-2.575 0.437,-3.726 0.291,-1.149 0.762,-2.142 1.414,-2.973 0.651,-0.832 1.505,-1.492 2.559,-1.976 1.054,-0.486 2.329,-0.729 3.827,-0.729 0.943,0 1.789,0.057 2.537,0.166 0.75,0.112 1.415,0.243 1.997,0.397 0.582,0.152 1.095,0.325 1.54,0.519 0.443,0.196 0.846,0.374 1.205,0.541 l 1.789,-5.2 c -0.915,-0.555 -2.204,-1.054 -3.869,-1.497 -1.664,-0.444 -3.59,-0.666 -5.782,-0.666 m 33.693,11.564 c 0,-1.719 -0.249,-3.294 -0.749,-4.722 -0.5,-1.426 -1.22,-2.648 -2.162,-3.659 -0.944,-1.014 -2.073,-1.796 -3.391,-2.352 -1.318,-0.555 -2.794,-0.831 -4.431,-0.831 -1.607,0 -3.071,0.276 -4.388,0.831 -1.317,0.556 -2.448,1.338 -3.39,2.352 -0.944,1.011 -1.679,2.233 -2.205,3.659 -0.527,1.428 -0.79,3.003 -0.79,4.722 0,1.72 0.269,3.289 0.81,4.703 0.541,1.412 1.29,2.619 2.246,3.617 0.958,0.999 2.095,1.775 3.411,2.331 1.319,0.555 2.754,0.831 4.306,0.831 1.581,0 3.03,-0.276 4.348,-0.831 1.317,-0.556 2.447,-1.332 3.39,-2.331 0.943,-0.998 1.678,-2.205 2.204,-3.617 0.528,-1.414 0.791,-2.983 0.791,-4.703 m -6.323,0 c 0,1.914 -0.382,3.418 -1.144,4.514 -0.763,1.095 -1.852,1.643 -3.266,1.643 -1.414,0 -2.509,-0.548 -3.285,-1.643 -0.777,-1.096 -1.165,-2.6 -1.165,-4.514 0,-1.914 0.388,-3.431 1.165,-4.554 0.776,-1.124 1.871,-1.685 3.285,-1.685 1.414,0 2.503,0.561 3.266,1.685 0.762,1.123 1.144,2.64 1.144,4.554 m 11.438,10.151 c 1.053,0.305 2.412,0.59 4.076,0.853 1.665,0.263 3.41,0.394 5.241,0.394 1.859,0 3.404,-0.241 4.639,-0.729 1.234,-0.484 2.212,-1.171 2.932,-2.057 0.721,-0.887 1.234,-1.942 1.539,-3.162 0.305,-1.221 0.458,-2.578 0.458,-4.076 V 0 h -6.199 v 11.605 c 0,1.999 -0.262,3.414 -0.79,4.246 -0.527,0.83 -1.512,1.246 -2.953,1.246 -0.444,0 -0.915,-0.02 -1.414,-0.061 -0.5,-0.043 -0.943,-0.092 -1.331,-0.147 V 0 h -6.198 z"
             style="fill:#4d595a;fill-opacity:1;fill-rule:nonzero;stroke:none"
             id="path20" /></g><g
           id="g22"
           transform="translate(166.2944,171.6729)"><path
             d="m 0,0 c -4.576,-5.738 -6.674,-8.368 -11.25,-14.106 -5.201,-6.523 -9.403,-11.792 -14.604,-18.315 -3.744,-4.693 -6.358,-4.837 -12.535,-4.837 h -20.934 -21.053 c -8.048,0 -8.575,0.022 -13.488,6.183 -4.865,6.1 -8.666,10.867 -13.532,16.969 -3.804,4.77 -4.78,5.993 -8.584,10.763 -5.919,7.424 -6.882,10.057 2.284,12.149 l 28.387,6.479 c 2.173,-6.033 6.407,-11.147 11.937,-14.421 l -1.251,-3.011 c -0.182,-0.437 -0.397,-0.666 -0.781,-0.934 -0.939,-0.65 -1.46,-1.012 -1.974,-2.08 -0.79,-1.637 -0.1,-3.608 1.537,-4.397 1.638,-0.788 3.609,-0.098 4.398,1.539 0.272,0.565 0.433,1.144 0.453,1.774 0.011,0.404 -0.049,0.796 -0.073,1.197 -0.023,0.373 0.023,0.639 0.205,0.969 l 1.62,2.938 c 3.165,-1.218 6.521,-1.834 9.915,-1.834 3.428,0 6.816,0.629 10.01,1.872 l 1.589,-2.882 c 0.228,-0.414 0.274,-0.726 0.243,-1.194 -0.077,-1.138 -0.121,-1.772 0.394,-2.84 0.789,-1.637 2.76,-2.327 4.398,-1.539 1.635,0.789 2.326,2.76 1.538,4.397 -0.273,0.566 -0.623,1.053 -1.105,1.46 -0.307,0.262 -0.652,0.46 -0.981,0.691 -0.306,0.216 -0.485,0.414 -0.629,0.763 l -1.316,3.165 c 5.488,3.278 9.684,8.368 11.845,14.368 L -2.023,8.138 C 4.056,6.751 3.61,4.525 0,0 m -78.544,16.829 9.57,2.185 c 0.563,-0.959 1.263,-1.827 2.078,-2.575 -0.087,-0.199 -0.172,-0.398 -0.257,-0.599 l -3.549,-8.547 c -3.516,2.311 -6.26,5.645 -7.842,9.536 m 28.872,2.185 9.57,-2.185 c -1.569,-3.857 -4.278,-7.167 -7.752,-9.478 l -3.808,9.168 c 0.776,0.731 1.448,1.57 1.99,2.495 m -7.765,-5.372 c -0.613,-0.104 -1.243,-0.16 -1.886,-0.16 -0.606,0 -1.199,0.049 -1.78,0.142 -0.109,-0.206 -0.219,-0.411 -0.333,-0.615 l -4.441,-8.056 c 2.113,-0.703 4.324,-1.058 6.554,-1.058 2.264,0 4.509,0.366 6.651,1.091 l -4.388,7.956 c -0.127,0.232 -0.252,0.466 -0.377,0.7 m 6.331,63.004 c 5.168,-2.489 8.942,-4.307 14.11,-6.794 7.22,-3.477 14.438,-6.953 21.658,-10.431 1.783,-7.812 3.567,-15.623 5.349,-23.435 1.061,-4.653 1.635,-7.162 2.698,-11.816 1.657,-7.27 1.494,-7.901 -6.006,-6.189 l -18.52,4.227 c 0.071,0.808 0.107,1.619 0.107,2.43 0,5.55 -1.647,10.925 -4.768,15.511 l 2.639,2.354 c 0.353,0.315 0.647,0.429 1.11,0.502 1.126,0.177 1.753,0.278 2.679,1.016 1.42,1.132 1.654,3.211 0.523,4.63 -1.13,1.418 -3.211,1.652 -4.629,0.521 -0.491,-0.391 -0.887,-0.842 -1.179,-1.401 -0.185,-0.36 -0.301,-0.738 -0.454,-1.111 -0.142,-0.346 -0.297,-0.565 -0.604,-0.784 l -2.998,-2.132 c -4.374,4.562 -10.138,7.474 -16.377,8.277 v 21.132 c 0,4.956 0.44,5.526 4.662,3.493 m 12.507,-52.891 -9.614,2.194 c -0.121,1.063 -0.391,2.081 -0.789,3.03 0.089,0.078 0.177,0.156 0.264,0.233 l 7.074,6.312 c 2.025,-3.278 3.083,-7.029 3.083,-10.886 0,-0.294 -0.006,-0.589 -0.018,-0.883 m -17.169,11.518 v 9.801 c 4.013,-0.694 7.727,-2.558 10.697,-5.367 l -7.731,-5.497 c -0.107,-0.077 -0.217,-0.155 -0.323,-0.233 -0.812,0.542 -1.7,0.98 -2.643,1.296 M -111.54,22.495 c 3.409,14.935 6.277,27.503 9.686,42.44 1.541,6.745 2.527,8.461 8.602,11.953 8.437,4.849 14.668,8.43 23.694,13.617 5.614,3.227 6.68,2.983 6.68,-3.89 V 52.021 c -6.269,-0.806 -12.057,-3.744 -16.433,-8.337 l -2.998,2.13 c -0.384,0.275 -0.56,0.537 -0.736,0.97 -0.424,1.06 -0.66,1.65 -1.587,2.388 -1.419,1.131 -3.498,0.897 -4.63,-0.521 -1.13,-1.419 -0.895,-3.498 0.523,-4.63 0.49,-0.391 1.018,-0.678 1.628,-0.836 0.392,-0.101 0.787,-0.129 1.183,-0.195 0.369,-0.062 0.617,-0.165 0.9,-0.416 l 2.806,-2.504 c -3.086,-4.57 -4.714,-9.914 -4.714,-15.432 0,-0.992 0.055,-1.981 0.161,-2.967 l -6.057,-1.294 c -0.374,0.026 -0.766,-0.005 -1.257,-0.118 -0.312,-0.071 -0.604,-0.187 -0.872,-0.338 -3.97,-0.849 -7.975,-1.707 -12.057,-2.586 -5.541,-1.194 -5.725,-0.111 -4.522,5.16 m 48.662,22.579 v -9.801 c -0.975,-0.326 -1.892,-0.785 -2.728,-1.353 -0.313,0.234 -0.627,0.465 -0.947,0.693 l -7.083,5.036 c 2.978,2.841 6.715,4.726 10.758,5.425 m -13.57,-21.196 -3.562,-0.761 c -0.037,0.506 -0.056,1.012 -0.056,1.521 0,3.826 1.043,7.544 3.035,10.803 l 6.976,-6.224 c 0.124,-0.11 0.25,-0.218 0.374,-0.327 -0.422,-1.033 -0.693,-2.143 -0.788,-3.303 -0.23,-0.061 -0.461,-0.124 -0.69,-0.191 z"
             style="fill:#0d717d;fill-opacity:1;fill-rule:evenodd;stroke:none"
             id="path24" /></g><g
           id="g26"
           transform="translate(166.2944,171.6729)"><path
             d="m 0,0 c -4.576,-5.738 -6.674,-8.368 -11.25,-14.106 -5.201,-6.523 -9.403,-11.792 -14.604,-18.315 -3.744,-4.693 -6.358,-4.837 -12.535,-4.837 h -20.934 v 34.283 c 3.428,0 6.816,0.629 10.01,1.872 l 1.589,-2.882 c 0.228,-0.414 0.274,-0.726 0.243,-1.194 -0.077,-1.138 -0.121,-1.772 0.394,-2.84 0.789,-1.637 2.76,-2.327 4.398,-1.539 1.635,0.789 2.326,2.76 1.538,4.397 -0.273,0.566 -0.623,1.053 -1.105,1.46 -0.307,0.262 -0.652,0.46 -0.981,0.691 -0.306,0.216 -0.485,0.414 -0.629,0.763 l -1.316,3.165 c 5.488,3.278 9.684,8.368 11.845,14.368 L -2.023,8.138 C 4.056,6.751 3.61,4.525 0,0 m -59.323,3.895 v 9.587 c 0.643,0 1.273,0.056 1.886,0.16 0.125,-0.234 0.25,-0.468 0.377,-0.7 l 4.388,-7.956 c -2.142,-0.725 -4.387,-1.091 -6.651,-1.091 m 9.651,15.119 9.57,-2.185 c -1.569,-3.857 -4.278,-7.167 -7.752,-9.478 l -3.808,9.168 c 0.776,0.731 1.448,1.57 1.99,2.495 m -1.434,57.632 c 5.168,-2.489 8.942,-4.307 14.11,-6.794 7.22,-3.477 14.438,-6.953 21.658,-10.431 1.783,-7.812 3.567,-15.623 5.349,-23.435 1.061,-4.653 1.635,-7.162 2.698,-11.816 1.657,-7.27 1.494,-7.901 -6.006,-6.189 l -18.52,4.227 c 0.071,0.808 0.107,1.619 0.107,2.43 0,5.55 -1.647,10.925 -4.768,15.511 l 2.639,2.354 c 0.353,0.315 0.647,0.429 1.11,0.502 1.126,0.177 1.753,0.278 2.679,1.016 1.42,1.132 1.654,3.211 0.523,4.63 -1.13,1.418 -3.211,1.652 -4.629,0.521 -0.491,-0.391 -0.887,-0.842 -1.179,-1.401 -0.185,-0.36 -0.301,-0.738 -0.454,-1.111 -0.142,-0.346 -0.297,-0.565 -0.604,-0.784 l -2.998,-2.132 c -4.374,4.562 -10.138,7.474 -16.377,8.277 v 21.132 c 0,4.956 0.44,5.526 4.662,3.493 m 12.507,-52.891 -9.614,2.194 c -0.121,1.063 -0.391,2.081 -0.789,3.03 0.089,0.078 0.177,0.156 0.264,0.233 l 7.074,6.312 c 2.025,-3.278 3.083,-7.029 3.083,-10.886 0,-0.294 -0.006,-0.589 -0.018,-0.883 m -17.169,11.518 v 9.801 c 4.013,-0.694 7.727,-2.558 10.697,-5.367 l -7.731,-5.497 c -0.107,-0.077 -0.217,-0.155 -0.323,-0.233 -0.812,0.542 -1.7,0.98 -2.643,1.296"
             style="fill:#009fad;fill-opacity:1;fill-rule:evenodd;stroke:none"
             id="path28" /></g><g
           id="g30"
           transform="translate(398.3115,172.8516)"><path
             d="m 0,0 h -16.629 v -38.795 h 38.792 v 16.628 H 0 Z"
             style="fill:#446ca9;fill-opacity:1;fill-rule:nonzero;stroke:none"
             id="path32" /></g><g
           id="g34"
           transform="translate(481.4365,172.7275)"><path
             d="m 0,0 v -22.043 h -22.045 l -0.121,0.121 V -38.671 H 16.625 V 0.124 h -16.75 z"
             style="fill:#446ca9;fill-opacity:1;fill-rule:nonzero;stroke:none"
             id="path36" /></g><g
           id="g38"
           transform="translate(381.6826,211.6392)"><path
             d="m 0,0 h 16.752 l -0.124,0.127 v 22.039 0.005 h 22.043 l 0.121,-0.124 v 16.75 H 0 Z"
             style="fill:#446ca9;fill-opacity:1;fill-rule:nonzero;stroke:none"
             id="path40" /></g><g
           id="g42"
           transform="translate(459.2695,250.436)"><path
             d="M 0,0 V -16.626 H 22.166 V -38.797 H 38.793 V 0 Z"
             style="fill:#446ca9;fill-opacity:1;fill-rule:nonzero;stroke:none"
             id="path44" /></g><g
           id="g46"
           transform="translate(457.2178,211.6392)"><path
             d="M 0,0 -22.17,22.171 H 2.053 V 38.797 H -36.743 V 22.047 L -14.695,0 Z"
             style="fill:#76c4d5;fill-opacity:1;fill-rule:nonzero;stroke:none"
             id="path48" /></g><g
           id="g50"
           transform="translate(437.2236,172.8516)"><path
             d="m 0,0 h -14.692 l 18.367,-18.371 3.8,-3.796 H -0.12 -16.75 v -16.628 h 38.796 v 16.749 l -11.025,11.025 z"
             style="fill:#76c4d5;fill-opacity:1;fill-rule:nonzero;stroke:none"
             id="path52" /></g><g
           id="g54"
           transform="translate(481.4365,211.6392)"><path
             d="m 0,0 v -16.625 -7.593 l -3.799,3.799 -18.367,18.366 v -14.695 l 11.02,-11.019 11.021,-11.021 h 16.75 V 0 Z"
             style="fill:#76c4d5;fill-opacity:1;fill-rule:nonzero;stroke:none"
             id="path56" /></g><g
           id="g58"
           transform="translate(420.4746,189.6021)"><path
             d="M 0,0 -22.039,22.037 H -38.793 V -16.75 h 16.63 V 7.469 L 0,-14.695 Z"
             style="fill:#76c4d5;fill-opacity:1;fill-rule:nonzero;stroke:none"
             id="path60" /></g><g
           id="g62"
           transform="translate(300.5513,91.7451)"><path
             d="m 0,0 -4.212,-4.988 c -1.88,2.29 -4.661,3.72 -7.196,3.72 -4.538,0 -7.973,-3.597 -7.973,-8.299 0,-4.785 3.435,-8.423 7.973,-8.423 2.413,0 5.193,1.308 7.196,3.352 l 4.252,-4.497 c -3.066,-3.147 -7.604,-5.233 -11.816,-5.233 -8.627,0 -15.046,6.338 -15.046,14.72 0,8.257 6.583,14.473 15.292,14.473 C -7.278,4.825 -2.862,2.944 0,0"
             style="fill:#221f1f;fill-opacity:1;fill-rule:nonzero;stroke:none"
             id="path64" /></g><path
           d="m 304.07,98.041 h 7.072 V 67.704 h -7.072 z"
           style="fill:#221f1f;fill-opacity:1;fill-rule:nonzero;stroke:none"
           id="path66" /><g
           id="g68"
           transform="translate(322.2656,78.6621)"><path
             d="m 0,0 c 0,-3.435 2.003,-5.725 4.947,-5.725 2.904,0 4.907,2.29 4.907,5.725 0,3.394 -2.003,5.724 -4.907,5.724 C 2.003,5.724 0,3.394 0,0 m 16.968,0.081 c 0,-6.787 -4.824,-11.284 -12.021,-11.284 -7.237,0 -12.061,4.497 -12.061,11.284 0,6.787 4.824,11.244 12.061,11.244 7.197,0 12.021,-4.457 12.021,-11.244"
             style="fill:#221f1f;fill-opacity:1;fill-rule:nonzero;stroke:none"
             id="path70" /></g><g
           id="g72"
           transform="translate(364.5029,67.7041)"><path
             d="m 0,0 h -7.072 v 3.639 c -1.514,-2.618 -3.967,-3.925 -7.157,-3.925 -4.783,0 -7.889,3.271 -7.889,8.423 v 13.9 h 7.072 V 10.14 c 0,-2.617 1.432,-4.211 3.681,-4.211 2.697,0.04 4.293,2.248 4.293,5.233 V 22.037 H 0 Z"
             style="fill:#221f1f;fill-opacity:1;fill-rule:nonzero;stroke:none"
             id="path74" /></g><g
           id="g76"
           transform="translate(385.2754,78.6621)"><path
             d="M 0,0 C 0,3.394 -1.963,5.724 -4.905,5.724 -7.851,5.724 -9.813,3.394 -9.854,0 -9.813,-3.394 -7.851,-5.766 -4.905,-5.766 -1.963,-5.766 0,-3.394 0,0 M 7.074,-10.958 H 0 v 2.902 c -1.554,-2.044 -3.802,-3.188 -6.624,-3.188 -6.214,0 -10.303,4.579 -10.303,11.407 0,6.746 4.048,11.202 10.14,11.202 2.903,0 5.233,-1.143 6.787,-3.188 v 11.202 h 7.074 z"
             style="fill:#221f1f;fill-opacity:1;fill-rule:nonzero;stroke:none"
             id="path78" /></g><g
           id="g80"
           transform="translate(418.2334,67.7041)"><path
             d="M 0,0 -13.166,17.622 V 0 h -6.827 v 28.62 h 6.418 L -0.368,10.958 V 28.62 H 6.419 V 0 Z"
             style="fill:#446ca9;fill-opacity:1;fill-rule:nonzero;stroke:none"
             id="path82" /></g><g
           id="g84"
           transform="translate(442.8916,75.1855)"><path
             d="m 0,0 v 1.964 h -4.457 c -2.126,0 -3.189,-0.736 -3.189,-2.372 0,-1.595 1.144,-2.616 3.108,-2.616 2.207,0 4.088,1.225 4.538,3.024 M 6.95,6.91 V -7.48 H 0.04 v 2.533 c -1.431,-1.88 -3.761,-2.862 -6.746,-2.862 -4.7,0 -7.564,2.862 -7.564,6.912 0,4.168 2.985,6.623 8.463,6.664 H 0 v 0.326 c 0,2.167 -1.432,3.475 -4.294,3.475 -1.84,0 -4.251,-0.654 -6.582,-1.839 l -2.004,4.66 c 3.436,1.595 6.542,2.494 10.223,2.494 6.051,0 9.566,-2.985 9.607,-7.973"
             style="fill:#446ca9;fill-opacity:1;fill-rule:nonzero;stroke:none"
             id="path86" /></g><g
           id="g88"
           transform="translate(468.8975,68.8906)"><path
             d="m 0,0 c -1.596,-0.941 -3.763,-1.514 -5.888,-1.514 -4.253,0 -7.319,2.412 -7.319,6.993 v 9.73 h -3.064 v 4.62 h 3.064 v 6.133 h 7.033 V 19.87 h 5.765 V 15.209 H -6.174 V 6.581 c 0,-1.717 0.736,-2.452 2.044,-2.411 0.735,0 1.677,0.286 2.739,0.735 z"
             style="fill:#446ca9;fill-opacity:1;fill-rule:nonzero;stroke:none"
             id="path90" /></g><path
           d="m 472.455,89.741 h 7.034 V 67.704 h -7.034 z m 7.279,6.338 c 0,-2.208 -1.554,-3.761 -3.721,-3.761 -2.166,0 -3.721,1.553 -3.721,3.761 0,2.167 1.555,3.721 3.721,3.721 2.167,0 3.721,-1.554 3.721,-3.721"
           style="fill:#446ca9;fill-opacity:1;fill-rule:nonzero;stroke:none"
           id="path92" /><g
           id="g94"
           transform="translate(490.4463,67.7041)"><path
             d="m 0,0 -8.299,22.037 h 7.278 L 3.722,6.46 8.505,22.037 h 7.032 L 7.236,0 Z"
             style="fill:#446ca9;fill-opacity:1;fill-rule:nonzero;stroke:none"
             id="path96" /></g><g
           id="g98"
           transform="translate(522.5039,80.624)"><path
             d="M 0,0 C 0,2.698 -1.717,4.456 -4.253,4.456 -6.706,4.456 -8.382,2.657 -8.831,0 Z M 6.786,-3.803 H -8.709 c 0.695,-2.616 2.575,-4.088 5.192,-4.088 1.922,0 3.803,0.777 5.276,2.249 l 3.72,-3.639 c -2.25,-2.452 -5.561,-3.884 -9.609,-3.884 -7.194,0 -11.692,4.497 -11.692,11.203 0,6.827 4.66,11.325 11.488,11.325 7.77,0 11.611,-5.11 11.12,-13.166"
             style="fill:#446ca9;fill-opacity:1;fill-rule:nonzero;stroke:none"
             id="path100" /></g><g
           id="g102"
           transform="translate(558.1191,91.7451)"><path
             d="m 0,0 -4.212,-4.988 c -1.88,2.29 -4.661,3.72 -7.194,3.72 -4.539,0 -7.975,-3.597 -7.975,-8.299 0,-4.785 3.436,-8.423 7.975,-8.423 2.411,0 5.191,1.308 7.194,3.352 l 4.252,-4.497 c -3.064,-3.147 -7.603,-5.233 -11.815,-5.233 -8.626,0 -15.046,6.338 -15.046,14.72 0,8.257 6.583,14.473 15.292,14.473 C -7.277,4.825 -2.861,2.944 0,0"
             style="fill:#221f1f;fill-opacity:1;fill-rule:nonzero;stroke:none"
             id="path104" /></g><g
           id="g106"
           transform="translate(565.8896,78.6621)"><path
             d="m 0,0 c 0,-3.435 2.003,-5.725 4.947,-5.725 2.905,0 4.907,2.29 4.907,5.725 0,3.394 -2.002,5.724 -4.907,5.724 C 2.003,5.724 0,3.394 0,0 m 16.969,0.081 c 0,-6.787 -4.824,-11.284 -12.022,-11.284 -7.237,0 -12.06,4.497 -12.06,11.284 0,6.787 4.823,11.244 12.06,11.244 7.198,0 12.022,-4.457 12.022,-11.244"
             style="fill:#221f1f;fill-opacity:1;fill-rule:nonzero;stroke:none"
             id="path108" /></g><g
           id="g110"
           transform="translate(609.1504,81.6055)"><path
             d="m 0,0 v -13.9 h -7.031 v 11.938 c 0,2.575 -1.514,4.17 -3.885,4.17 -2.575,0 -4.212,-1.84 -4.498,-4.456 V -13.9 h -7.073 V 8.136 h 7.073 V 4.538 c 1.554,2.576 4.09,3.884 7.358,3.925 C -3.188,8.463 0,5.151 0,0"
             style="fill:#221f1f;fill-opacity:1;fill-rule:nonzero;stroke:none"
             id="path112" /></g></g></g><g
       id="g114"><g
         id="g116"
         clip-path="url(#clipPath120)"><path
           d="m 236.057,59.899 h 1.014 v 203.454 h -1.014 z"
           style="fill:#939498;fill-opacity:1;fill-rule:nonzero;stroke:none"
           id="path122" /></g></g><g
       id="g124"><g
         id="g126"
         clip-path="url(#clipPath130)"><path
           d="m 237.071,59.899 h -1.014 v 203.454 h 1.014 z"
           style="fill:#939498;fill-opacity:1;fill-rule:nonzero;stroke:none"
           id="path132" /></g></g></g></svg>
