<?xml version="1.0" encoding="UTF-8" standalone="no"?>
<!-- Created with Inkscape (http://www.inkscape.org/) -->

<svg
   version="1.1"
   id="svg1678"
   xml:space="preserve"
   width="255.24506"
   height="102.28933"
   viewBox="0 0 255.24506 102.28933"
   sodipodi:docname="ebay_logo_rgb.svg"
   inkscape:version="1.1.1 (3bf5ae0d25, 2021-09-20)"
   xmlns:inkscape="http://www.inkscape.org/namespaces/inkscape"
   xmlns:sodipodi="http://sodipodi.sourceforge.net/DTD/sodipodi-0.dtd"
   xmlns="http://www.w3.org/2000/svg"
   xmlns:svg="http://www.w3.org/2000/svg"><defs
     id="defs1682" /><sodipodi:namedview
     id="namedview1680"
     pagecolor="#ffffff"
     bordercolor="#666666"
     borderopacity="1.0"
     inkscape:pageshadow="2"
     inkscape:pageopacity="0.0"
     inkscape:pagecheckerboard="0"
     showgrid="false"
     fit-margin-top="0"
     fit-margin-left="0"
     fit-margin-right="0"
     fit-margin-bottom="0"
     inkscape:zoom="1.0325521"
     inkscape:cx="151.5662"
     inkscape:cy="138.97604"
     inkscape:window-width="1920"
     inkscape:window-height="1001"
     inkscape:window-x="-7"
     inkscape:window-y="-7"
     inkscape:window-maximized="1"
     inkscape:current-layer="g1684" /><g
     id="g1684"
     inkscape:groupmode="layer"
     inkscape:label="ink_ext_XXXXXX"
     transform="matrix(1.3333333,0,0,-1.3333333,-65.210932,243.14266)"><g
       id="g2185"><path
         d="m 191.493,129.783 c 0,-2.792 0.081,-5.547 0.324,-8.029 h -8.922 c -0.239,2.043 -0.326,4.074 -0.326,6.042 -4.824,-5.929 -10.562,-7.634 -18.523,-7.634 -11.807,0 -18.129,6.24 -18.129,13.459 0,10.454 8.599,14.14 23.525,14.482 4.082,0.094 8.667,0.107 12.458,0.107 l -0.001,1.022 c 0,6.999 -4.488,9.877 -12.264,9.877 -5.774,0 -10.029,-2.39 -10.467,-6.519 h -10.079 c 1.066,10.294 11.881,12.898 21.39,12.898 11.392,0 21.014,-4.053 21.014,-16.103 z m -21.392,11.888 c -8.699,-0.285 -14.104,-1.854 -14.104,-7.585 0,-3.709 2.957,-7.729 10.465,-7.729 10.064,0 15.437,5.486 15.437,14.484 l 0.001,0.99 c -3.529,0 -7.88,-0.031 -11.799,-0.16"
         style="fill:#3665f3;fill-opacity:1;fill-rule:nonzero;stroke:none;stroke-width:0.1"
         id="path1690" /><path
         d="m 58.6777,140.397 c 0.5176,-8.707 6.5227,-13.857 14.7786,-13.857 5.7195,0 10.8082,2.331 12.5117,7.401 h 9.8941 c -1.9246,-10.288 -12.8555,-13.779 -22.2644,-13.779 -17.1075,0 -24.6895,9.421 -24.6895,22.127 0,13.987 7.8418,23.199 24.8457,23.199 13.5344,0 23.4512,-7.083 23.4512,-22.542 v -2.549 z m 28.4473,6.379 c -0.3723,8.974 -6.8484,12.333 -13.7715,12.333 -7.4648,0 -13.425,-3.778 -14.4687,-12.333 H 87.125"
         style="fill:#3665f3;fill-opacity:1;fill-rule:nonzero;stroke:none;stroke-width:0.1"
         id="path1692" /><path
         d="m 97.2043,182.357 h 9.5907 V 158.26 c 4.7,5.602 11.177,7.228 17.552,7.228 10.689,0 22.56,-7.213 22.56,-22.786 0,-13.041 -9.441,-22.54 -22.738,-22.54 -6.96,0 -13.512,2.497 -17.552,7.443 0,-1.976 -0.11,-3.967 -0.326,-5.851 h -9.4133 c 0.1633,3.045 0.3266,6.837 0.3266,9.906 z m 24.6087,-55.635 c 8.915,0 15.015,6.417 15.015,16.102 0,9.682 -6.1,16.1 -15.015,16.1 -8.866,0 -15.018,-6.418 -15.018,-16.1 0,-9.685 6.152,-16.102 15.018,-16.102"
         style="fill:#3665f3;fill-opacity:1;fill-rule:nonzero;stroke:none;stroke-width:0.1"
         id="path1694" /><path
         d="M 240.342,163.892 210.681,105.64 h -10.742 l 8.529,16.175 -22.322,42.077 h 11.222 l 16.426,-32.875 16.38,32.875 h 10.168"
         style="fill:#3665f3;fill-opacity:1;fill-rule:nonzero;stroke:none;stroke-width:0.1"
         id="path1696" /></g></g></svg>
