<?xml version="1.0" encoding="UTF-8" standalone="no"?>
<!-- Created with Inkscape (http://www.inkscape.org/) -->

<svg
   version="1.1"
   id="svg69931"
   xml:space="preserve"
   width="128.43335"
   height="36.908131"
   viewBox="0 0 128.43335 36.90813"
   sodipodi:docname="Circonus_light-background-sm-wordmark.svg"
   inkscape:version="1.1.1 (3bf5ae0d25, 2021-09-20)"
   xmlns:inkscape="http://www.inkscape.org/namespaces/inkscape"
   xmlns:sodipodi="http://sodipodi.sourceforge.net/DTD/sodipodi-0.dtd"
   xmlns="http://www.w3.org/2000/svg"
   xmlns:svg="http://www.w3.org/2000/svg"><defs
     id="defs69935"><clipPath
       clipPathUnits="userSpaceOnUse"
       id="clipPath69945"><path
         d="M 0,29.064 H 97.926 V 0 H 0 Z"
         id="path69943" /></clipPath></defs><sodipodi:namedview
     id="namedview69933"
     pagecolor="#ffffff"
     bordercolor="#666666"
     borderopacity="1.0"
     inkscape:pageshadow="2"
     inkscape:pageopacity="0.0"
     inkscape:pagecheckerboard="0"
     showgrid="false"
     fit-margin-top="0"
     fit-margin-left="0"
     fit-margin-right="0"
     fit-margin-bottom="0"
     inkscape:zoom="8.6774357"
     inkscape:cx="64.131849"
     inkscape:cy="18.66911"
     inkscape:window-width="1920"
     inkscape:window-height="1010"
     inkscape:window-x="-6"
     inkscape:window-y="-6"
     inkscape:window-maximized="1"
     inkscape:current-layer="g69937" /><g
     id="g69937"
     inkscape:groupmode="layer"
     inkscape:label="circonus-logo-for-light-background-sm-wordmark (2)"
     transform="matrix(1.3333333,0,0,-1.3333333,-1.1033215,38.035199)"><g
       id="g69939"><g
         id="g69941"
         clip-path="url(#clipPath69945)"><g
           id="g69947"
           transform="translate(36.4606,11.3815)"><path
             d="m 0,0 c 0.443,0.043 0.885,0.104 1.324,0.187 0.528,0.096 0.854,0.442 1.005,0.966 0.117,0.408 0.148,0.826 0.148,1.25 0,0.089 -0.047,0.101 -0.117,0.101 H 1.514 C 1.433,2.504 1.401,2.477 1.397,2.387 1.39,2.209 1.371,2.034 1.347,1.859 1.285,1.382 1.095,1.161 0.629,1.083 0.279,1.024 -0.076,0.991 -0.431,0.986 -1.075,0.979 -1.715,0.982 -2.36,1.014 c -0.31,0.014 -0.617,0.092 -0.92,0.155 -0.223,0.038 -0.398,0.214 -0.434,0.438 -0.074,0.365 -0.156,0.73 -0.175,1.099 -0.028,0.5 -0.028,1.002 0,1.502 0.019,0.345 0.085,0.691 0.151,1.036 0.054,0.283 0.233,0.446 0.512,0.52 0.575,0.152 1.161,0.152 1.744,0.175 0.306,0.012 0.617,-0.004 0.923,-0.023 C -0.174,5.896 0.214,5.877 0.594,5.83 1.079,5.776 1.277,5.559 1.343,5.065 1.367,4.891 1.382,4.712 1.394,4.538 1.397,4.448 1.429,4.421 1.51,4.421 h 0.846 c 0.082,0 0.124,0.027 0.117,0.117 C 2.442,4.872 2.438,5.213 2.38,5.543 2.279,6.114 2.011,6.556 1.417,6.708 L 1.176,6.77 C 0.528,6.913 -0.132,6.933 -0.792,6.952 -1.215,6.968 -1.642,6.94 -2.069,6.929 -2.563,6.913 -3.054,6.85 -3.536,6.739 -4.215,6.587 -4.662,6.187 -4.801,5.485 -4.897,5.021 -4.961,4.552 -4.992,4.08 c -0.027,-0.528 0,-1.056 0.02,-1.584 0.014,-0.448 0.094,-0.892 0.237,-1.316 0.139,-0.411 0.384,-0.73 0.796,-0.877 0.227,-0.084 0.46,-0.152 0.698,-0.202 0.676,-0.14 1.363,-0.144 2.05,-0.156 0.403,0.02 0.799,0.02 1.191,0.055 m 4.192,0.226 c 0,-0.175 0,-0.175 0.175,-0.175 0.252,0 0.505,0.008 0.757,-0.004 C 5.256,0.043 5.295,0.086 5.291,0.222 5.283,0.986 5.287,1.751 5.287,2.511 v 4.185 c 0,0.179 0,0.182 -0.183,0.182 C 4.852,6.878 4.6,6.871 4.348,6.882 4.22,6.886 4.185,6.843 4.185,6.715 4.188,5.632 4.188,4.549 4.188,3.462 4.188,2.375 4.192,1.305 4.192,0.226 m 4.134,3.26 c -0.136,0 -0.171,0.042 -0.171,0.175 0.006,0.675 0.006,1.35 0,2.026 0,0.136 0.039,0.174 0.171,0.174 1.409,-0.004 2.819,0 4.227,-0.007 0.203,-0.006 0.405,-0.033 0.602,-0.082 0.233,-0.054 0.388,-0.221 0.458,-0.45 C 13.751,4.898 13.75,4.441 13.609,4.018 13.512,3.727 13.298,3.563 13.003,3.521 12.875,3.501 12.746,3.491 12.615,3.49 H 10.527 C 9.797,3.49 9.064,3.494 8.326,3.486 M 14.172,3.04 c 0.255,0.164 0.438,0.419 0.513,0.713 0.159,0.595 0.156,1.221 -0.008,1.813 -0.156,0.552 -0.462,0.994 -1.013,1.184 -0.239,0.081 -0.49,0.123 -0.742,0.125 -1.898,0.011 -3.8,0.003 -5.698,0.007 -0.097,0 -0.14,-0.027 -0.14,-0.135 0.003,-2.187 0.003,-4.372 0,-6.557 0,-0.104 0.031,-0.139 0.136,-0.139 0.264,0.004 0.532,0.008 0.796,0 0.132,-0.004 0.171,0.031 0.171,0.171 -0.008,0.694 -0.004,1.385 -0.004,2.08 0,0.178 0,0.178 0.178,0.178 h 4.344 c 0.104,0.003 0.209,-0.007 0.31,-0.031 0.416,-0.108 0.726,-0.322 0.703,-0.869 -0.02,-0.462 0,-0.924 -0.008,-1.386 0,-0.104 0.031,-0.139 0.136,-0.139 0.268,0.004 0.539,0.004 0.807,0 0.101,0 0.14,0.027 0.14,0.135 -0.004,0.559 -0.004,1.119 -0.004,1.681 0.003,0.265 -0.092,0.521 -0.268,0.718 -0.128,0.14 -0.279,0.26 -0.431,0.396 z m 7.297,-3.017 c 0.4,0.023 0.794,0.099 1.173,0.229 0.337,0.121 0.566,0.353 0.706,0.684 0.194,0.465 0.229,0.962 0.236,1.459 0,0.093 -0.045,0.109 -0.124,0.109 C 23.181,2.5 22.906,2.5 22.626,2.504 22.518,2.508 22.494,2.465 22.482,2.356 22.465,2.102 22.429,1.849 22.374,1.6 22.3,1.309 22.094,1.13 21.799,1.095 21.415,1.048 21.031,0.998 20.646,0.99 20.007,0.979 19.37,0.988 18.733,1.018 18.43,1.032 18.127,1.106 17.825,1.173 17.606,1.214 17.434,1.382 17.386,1.6 17.328,1.816 17.266,2.038 17.25,2.259 17.215,2.771 17.192,3.288 17.2,3.8 c 0.008,0.403 0.043,0.805 0.105,1.203 0.081,0.548 0.252,0.73 0.779,0.804 0.529,0.074 1.025,0.105 1.541,0.132 0.299,0.016 0.599,-0.004 0.897,-0.02 0.389,-0.019 0.781,-0.038 1.169,-0.081 0.473,-0.05 0.671,-0.244 0.745,-0.706 0.03,-0.184 0.047,-0.369 0.05,-0.555 0.004,-0.121 0.039,-0.152 0.152,-0.152 0.276,0.008 0.547,0.004 0.822,0 0.098,0 0.136,0.035 0.128,0.132 C 23.562,4.86 23.562,5.17 23.503,5.469 23.329,6.381 22.983,6.618 22.269,6.777 21.628,6.917 20.977,6.944 20.328,6.956 19.773,6.968 19.218,6.933 18.663,6.909 18.221,6.89 17.782,6.814 17.359,6.684 16.835,6.525 16.509,6.18 16.346,5.652 16.183,5.124 16.121,4.479 16.097,3.882 16.085,3.505 16.093,3.128 16.121,2.752 c 0.024,-0.379 0.068,-0.758 0.131,-1.133 0.066,-0.365 0.183,-0.715 0.443,-0.994 0.26,-0.279 0.66,-0.399 1.036,-0.485 0.723,-0.163 1.456,-0.171 2.19,-0.187 0.516,0.016 1.032,0.039 1.548,0.07 m 4.883,5.031 c 0.017,0.083 0.038,0.165 0.066,0.244 0.067,0.253 0.233,0.404 0.482,0.454 0.248,0.051 0.547,0.117 0.823,0.133 0.61,0.034 1.223,0.058 1.836,0.054 C 30.172,5.935 30.886,5.916 31.539,5.76 31.814,5.694 32,5.543 32.054,5.264 32.125,4.926 32.194,4.584 32.209,4.243 32.245,3.494 32.26,2.745 32.136,1.999 32.109,1.855 32.072,1.714 32.024,1.576 31.958,1.374 31.826,1.223 31.616,1.184 31.27,1.118 30.925,1.048 30.576,1.018 30.145,0.979 29.71,0.963 29.275,0.971 28.751,0.975 28.227,1.006 27.704,1.04 27.455,1.056 27.207,1.106 26.958,1.149 26.632,1.203 26.442,1.413 26.379,1.735 26.32,2.026 26.276,2.32 26.248,2.616 c -0.024,0.28 -0.004,0.559 -0.004,0.839 -0.02,0 0.047,1.067 0.104,1.599 z m 4.542,-5.027 c 0.389,0.03 0.774,0.093 1.152,0.191 0.641,0.171 1.065,0.594 1.169,1.284 0.06,0.363 0.092,0.73 0.097,1.099 0,0.815 -0.02,1.634 -0.05,2.449 C 33.247,5.415 33.165,5.772 32.948,6.079 32.679,6.455 32.299,6.646 31.869,6.747 31.154,6.917 30.424,6.94 29.695,6.952 29.074,6.964 28.453,6.94 27.832,6.902 27.382,6.875 26.935,6.811 26.497,6.711 25.825,6.552 25.367,6.133 25.243,5.411 25.187,5.115 25.158,4.815 25.153,4.515 c 0,-0.963 -0.054,-1.926 0.07,-2.888 0.085,-0.66 0.415,-1.118 1.025,-1.356 0.485,-0.185 0.998,-0.232 1.505,-0.267 0.509,-0.035 0.983,-0.035 1.604,-0.051 0.427,0.016 0.982,0.027 1.537,0.074 M 41.607,1.153 C 41.573,1.184 41.534,1.211 41.502,1.242 L 40.85,1.918 36.208,6.77 c -0.062,0.072 -0.154,0.111 -0.249,0.108 -0.401,-0.005 -0.8,-0.005 -1.199,0 -0.109,0 -0.143,-0.031 -0.143,-0.143 0.002,-2.182 0.002,-4.363 0,-6.545 0,-0.116 0.042,-0.143 0.147,-0.139 0.244,0.004 0.486,0 0.73,0 0.244,0 0.202,0 0.202,0.201 v 5.279 c 0,0.063 0.008,0.125 0.015,0.225 0.074,-0.066 0.121,-0.104 0.16,-0.147 l 2.324,-2.43 2.873,-3.004 c 0.065,-0.071 0.124,-0.124 0.232,-0.124 0.435,0.005 0.87,0.005 1.305,0 0.104,0 0.136,0.039 0.132,0.139 -0.004,0.311 0,0.622 0,0.932 0,1.863 10e-4,3.725 0.004,5.586 0,0.135 -0.039,0.174 -0.171,0.17 -0.248,-0.011 -0.497,-0.003 -0.745,-0.003 -0.187,0 -0.187,0 -0.187,-0.191 V 1.339 1.168 Z m 10.352,3.016 c 0,0.85 0,1.696 0.004,2.546 0,0.12 -0.031,0.167 -0.155,0.163 -0.252,-0.007 -0.505,-0.003 -0.757,-0.003 -0.171,0 -0.171,0 -0.171,-0.175 V 2.353 C 50.884,2.152 50.875,1.953 50.853,1.755 50.802,1.39 50.667,1.138 50.263,1.087 49.933,1.044 49.599,0.99 49.269,0.99 48.292,0.982 47.313,0.939 46.338,1.063 c -0.411,0.055 -0.609,0.21 -0.69,0.586 -0.024,0.119 -0.036,0.238 -0.035,0.358 -0.003,1.568 -0.003,3.138 0,4.708 0,0.128 -0.035,0.171 -0.163,0.167 -0.252,-0.007 -0.504,-0.004 -0.757,-0.004 -0.179,0 -0.179,0 -0.179,-0.182 0,-1.588 -0.004,-3.175 0.004,-4.759 0.006,-0.26 0.033,-0.52 0.082,-0.777 0.101,-0.574 0.415,-0.95 1.005,-1.024 0.493,-0.062 0.99,-0.144 1.487,-0.156 1.091,-0.023 2.181,-0.057 3.268,0.079 0.297,0.042 0.59,0.106 0.878,0.189 0.232,0.063 0.395,0.237 0.5,0.454 0.141,0.298 0.214,0.622 0.214,0.951 0.007,0.839 0.004,1.681 0.004,2.52 z m 4.911,-4.22 c -0.447,0.016 -0.905,0.004 -1.359,0.055 -0.439,0.051 -0.875,0.13 -1.304,0.237 -0.579,0.14 -0.905,0.543 -1.001,1.129 -0.051,0.295 -0.059,0.598 -0.086,0.897 -0.008,0.097 0.031,0.132 0.129,0.132 0.279,-0.004 0.554,-0.008 0.834,0 0.112,0.004 0.135,-0.046 0.139,-0.147 0.006,-0.172 0.023,-0.344 0.051,-0.513 0.062,-0.373 0.283,-0.593 0.652,-0.64 0.368,-0.047 0.742,-0.093 1.11,-0.109 0.548,-0.019 1.094,-0.019 1.642,0 0.429,0.02 0.857,0.063 1.281,0.128 0.532,0.077 0.664,0.486 0.628,0.967 C 59.58,2.173 59.564,2.26 59.541,2.345 59.482,2.574 59.346,2.737 59.11,2.771 58.815,2.824 58.519,2.858 58.22,2.876 57.599,2.9 56.978,2.884 56.357,2.911 55.736,2.938 55.104,3 54.499,3.195 53.807,3.416 53.43,3.89 53.357,4.623 c -0.037,0.326 -0.028,0.655 0.027,0.978 0.113,0.617 0.458,1.017 1.056,1.138 0.468,0.094 0.94,0.156 1.417,0.186 0.582,0.035 1.164,0.043 1.746,0.027 0.583,-0.015 1.134,-0.066 1.685,-0.233 0.73,-0.221 1.045,-0.559 1.172,-1.463 0.024,-0.167 0.02,-0.338 0.032,-0.505 0.003,-0.081 -0.024,-0.12 -0.11,-0.12 h -0.845 c -0.086,0 -0.11,0.035 -0.117,0.117 C 59.413,4.91 59.393,5.072 59.362,5.232 59.295,5.535 59.117,5.745 58.806,5.799 58.522,5.855 58.234,5.892 57.945,5.908 57.292,5.931 56.641,5.94 55.989,5.935 55.689,5.934 55.39,5.907 55.096,5.854 54.77,5.792 54.505,5.609 54.452,5.244 54.374,4.72 54.494,4.223 55.134,4.076 55.46,4.004 55.792,3.959 56.125,3.944 56.664,3.917 57.204,3.936 57.739,3.909 58.275,3.882 58.916,3.824 59.501,3.75 60.087,3.676 60.468,3.292 60.608,2.69 60.71,2.263 60.719,1.817 60.635,1.386 60.496,0.699 60.068,0.295 59.413,0.163 58.992,0.084 58.566,0.029 58.139,0 57.716,-0.035 57.296,-0.035 56.87,-0.051"
             style="fill:#2c6393;fill-opacity:1;fill-rule:nonzero;stroke:none"
             id="path69949" /></g><g
           id="g69951"
           transform="translate(14.3653,28.4953)"><path
             d="m 0,0 c 0,0 9.748,0.638 13.428,-9.399 1.188,-3.73 1.657,-13.198 -8.321,-17.416 C 4.746,-26.982 0.777,-28.097 0.339,-27.35 -0.552,-26.216 -2.877,-11.03 0,0"
             style="fill:#83b741;fill-opacity:1;fill-rule:nonzero;stroke:none"
             id="path69953" /></g><g
           id="g69955"
           transform="translate(14.1749,28.4953)"><path
             d="m 0,0 c -3.08,0 -12.723,-2.315 -13.34,-13.665 -0.167,-4.189 2.433,-13.41 13.53,-13.985 C -0.493,-22.146 -2.709,-17.06 0,0"
             style="fill:#2c6393;fill-opacity:1;fill-rule:nonzero;stroke:none"
             id="path69957" /></g><g
           id="g69959"
           transform="translate(12.5064,28.3576)"><path
             d="m 0,0 c 0,0 -1.826,-1.983 -2.444,-7.686 -0.895,-6.564 -1.014,-7.917 -1.502,-9.952 0,0 -0.114,-0.563 -0.235,0 0,0 -0.547,2.422 -1.099,2.801 0,0 -0.662,0.769 -1.422,-0.951 0,0 -0.281,-0.739 -1.112,-0.897 0,0 -3.184,-0.582 -3.857,3.25 -0.006,-1.735 0.099,-2.024 0.099,-2.024 0,0 0.9,-2.288 3.742,-2.063 0,0 1.306,0.112 1.954,1.571 0,0 0.153,0.368 0.222,-0.009 0,0 0.707,-2.562 1.208,-3.063 0,0 0.453,-0.597 0.912,0.148 1.148,1.393 1.816,9.327 2.025,11.01 0.363,2.644 0.771,5.231 2.436,7.447 0.203,-1.001 -2.635,-16.425 0.672,-27.087 0,0 0.86,-0.028 1.634,0.041 0,0 0.507,1.08 0.537,7.705 0,0 0.165,5.312 0.783,6.196 0,0 0.107,-3.776 0.659,-5.783 0,0 0.442,-1.355 1.267,-0.383 0,0 0.324,0.534 0.374,0.896 0,0 4.182,1.633 5.515,2.847 1.789,1.487 3.272,4.751 2.995,6.473 0,0 -0.048,0.269 -0.474,1.253 0,0 0.814,-3.696 -2.433,-6.552 0,0 -1.45,-1.399 -5.683,-3.033 0,0 -0.718,-0.128 -0.749,-1.062 0,0 -0.129,-0.218 -0.19,0.061 -0.307,1.553 -0.363,3.165 -0.504,5.109 0,0 -0.216,2.343 -1.266,0.957 -0.047,-0.18 -1.287,-1.079 -1.174,-9.038 0,0 -0.067,-4.745 -0.378,-5.046 -0.184,-0.03 -1.427,2.897 -1.495,12.27 0.077,2.622 0.013,7.697 1.346,14.76 C 2.363,0.166 1.124,0.204 0,0"
             style="fill:#ffffff;fill-opacity:1;fill-rule:nonzero;stroke:none"
             id="path69961" /></g></g></g></g></svg>
