<?xml version="1.0" encoding="UTF-8" standalone="no"?>
<!-- Generator: Adobe Illustrator 22.1.0, SVG Export Plug-In . SVG Version: 6.00 Build 0)  -->

<svg
   version="1.1"
   id="Layer_1"
   x="0px"
   y="0px"
   viewBox="0 0 1076.6562 200"
   xml:space="preserve"
   sodipodi:docname="ArcadiaData-logo.svg"
   width="1076.6561"
   height="200"
   inkscape:version="1.1.1 (3bf5ae0d25, 2021-09-20)"
   xmlns:inkscape="http://www.inkscape.org/namespaces/inkscape"
   xmlns:sodipodi="http://sodipodi.sourceforge.net/DTD/sodipodi-0.dtd"
   xmlns="http://www.w3.org/2000/svg"
   xmlns:svg="http://www.w3.org/2000/svg"><defs
   id="defs86" /><sodipodi:namedview
   id="namedview84"
   pagecolor="#ffffff"
   bordercolor="#666666"
   borderopacity="1.0"
   inkscape:pageshadow="2"
   inkscape:pageopacity="0.0"
   inkscape:pagecheckerboard="0"
   showgrid="false"
   fit-margin-top="0"
   fit-margin-left="0"
   fit-margin-right="0"
   fit-margin-bottom="0"
   inkscape:zoom="0.77046318"
   inkscape:cx="474.38996"
   inkscape:cy="-36.341776"
   inkscape:window-width="1920"
   inkscape:window-height="1010"
   inkscape:window-x="-6"
   inkscape:window-y="-6"
   inkscape:window-maximized="1"
   inkscape:current-layer="Layer_1" />
<style
   type="text/css"
   id="style2">
	.st0{fill:#FFFFFF;}
</style>
<g
   id="g943"
   style="fill:#000000"
   transform="matrix(3.1545741,0,0,3.1545741,0,-0.63091482)"><g
     id="g81"
     style="fill:#000000">
	<g
   id="Artwork_1"
   style="fill:#000000">
		<g
   id="g30"
   style="fill:#000000">
			<path
   class="st0"
   d="m 94,43.8 -1.5,-4.3 h -10 L 81,43.8 h -5 l 9.4,-26.1 h 4.3 l 9.4,26.1 z M 87.5,25.2 84,35.4 h 7.1 z"
   id="path4"
   style="fill:#000000" />
			<g
   id="g28"
   style="fill:#000000">
				<path
   class="st0"
   d="M 104,43.8 V 17.7 h 10.6 c 2.7,0 4.9,0.8 6.5,2.3 1.7,1.5 2.5,3.5 2.5,6.1 0,1.9 -0.5,3.5 -1.5,4.8 -1,1.3 -2.3,2.3 -4,2.8 l 5.6,10.2 h -5.4 L 113,34.2 h -3.9 v 9.7 H 104 Z m 5.1,-14 h 5.1 c 2.9,0 4.3,-1.2 4.3,-3.7 0,-2.5 -1.4,-3.8 -4.3,-3.8 h -5.1 z"
   id="path6"
   style="fill:#000000" />
				<path
   class="st0"
   d="m 144.2,33.5 5.2,1.2 c -0.4,3 -1.5,5.4 -3.3,7.2 -1.8,1.7 -4.1,2.6 -7,2.6 -3.4,0 -6.1,-1.2 -8.2,-3.5 -2.1,-2.3 -3.2,-5.8 -3.2,-10.5 0,-4.1 1.1,-7.4 3.3,-9.7 2.2,-2.3 4.9,-3.5 8,-3.5 2.7,0 5,0.8 6.8,2.5 1.9,1.7 3,3.9 3.3,6.8 l -5,0.8 c -0.2,-1.6 -0.7,-2.9 -1.6,-3.9 -0.8,-1 -2,-1.5 -3.5,-1.5 -1.7,0 -3.2,0.7 -4.4,2.2 -1.2,1.5 -1.8,3.6 -1.8,6.3 0,3.2 0.6,5.5 1.7,7.1 1.2,1.5 2.6,2.3 4.4,2.3 3.2,-0.2 4.9,-2.3 5.3,-6.4"
   id="path8"
   style="fill:#000000" />
				<path
   class="st0"
   d="m 170.1,43.8 -1.5,-4.3 h -10 l -1.5,4.3 h -5 l 9.4,-26.1 h 4.3 l 9.4,26.1 z M 163.6,25.2 160,35.4 h 7.1 z"
   id="path10"
   style="fill:#000000" />
				<path
   class="st0"
   d="M 180.1,43.8 V 17.7 h 8.7 c 1.5,0 2.9,0.3 4.2,0.8 1.3,0.5 2.5,1.3 3.6,2.3 1.1,1 1.9,2.4 2.6,4.1 0.6,1.7 1,3.6 1,5.8 0,2.4 -0.3,4.5 -1,6.2 -0.6,1.8 -1.5,3.1 -2.6,4.1 -1.1,1 -2.3,1.7 -3.6,2.1 -1.3,0.4 -2.7,0.7 -4.3,0.7 z m 5,-4.6 h 3.5 c 0.9,0 1.7,-0.1 2.4,-0.3 0.7,-0.2 1.3,-0.6 1.9,-1.2 0.6,-0.6 1.1,-1.4 1.4,-2.6 0.3,-1.2 0.5,-2.6 0.5,-4.3 0,-2.9 -0.5,-5 -1.6,-6.4 -1.1,-1.3 -2.5,-2 -4.3,-2 h -3.7 z"
   id="path12"
   style="fill:#000000" />
				<rect
   x="205.5"
   y="17.700001"
   class="st0"
   width="5"
   height="26.1"
   id="rect14"
   style="fill:#000000" />
				<path
   class="st0"
   d="m 232.7,43.8 -1.5,-4.3 h -10 l -1.5,4.3 h -5 l 9.4,-26.1 h 4.3 l 9.4,26.1 z m -6.5,-18.6 -3.5,10.2 h 7.1 z"
   id="path16"
   style="fill:#000000" />
				<path
   class="st0"
   d="M 250.5,43.8 V 17.7 h 8.7 c 1.5,0 2.9,0.3 4.2,0.8 1.3,0.5 2.5,1.3 3.6,2.3 1.1,1 1.9,2.4 2.6,4.1 0.6,1.7 1,3.6 1,5.8 0,2.4 -0.3,4.5 -1,6.2 -0.6,1.8 -1.5,3.1 -2.6,4.1 -1.1,1 -2.3,1.7 -3.6,2.1 -1.3,0.4 -2.7,0.7 -4.3,0.7 z m 5.1,-4.6 h 3.5 c 0.9,0 1.7,-0.1 2.4,-0.3 0.7,-0.2 1.3,-0.6 1.9,-1.2 0.6,-0.6 1.1,-1.4 1.4,-2.6 0.3,-1.2 0.5,-2.6 0.5,-4.3 0,-2.9 -0.5,-5 -1.6,-6.4 -1.1,-1.3 -2.5,-2 -4.3,-2 h -3.7 z"
   id="path18"
   style="fill:#000000" />
				<path
   class="st0"
   d="m 290.3,43.8 -1.5,-4.3 h -10 l -1.5,4.3 h -5 l 9.4,-26.1 h 4.3 l 9.4,26.1 z m -6.5,-18.6 -3.5,10.2 h 7.1 z"
   id="path20"
   style="fill:#000000" />
				<polygon
   class="st0"
   points="294.7,17.7 315,17.7 315,22.4 307.4,22.4 307.4,43.8 302.3,43.8 302.3,22.4 294.7,22.4 "
   id="polygon22"
   style="fill:#000000" />
				<path
   class="st0"
   d="m 332.1,43.8 -1.5,-4.3 h -10 l -1.5,4.3 h -5 l 9.4,-26.1 h 4.3 l 9.4,26.1 z m -6.4,-18.6 -3.5,10.2 h 7.1 z"
   id="path24"
   style="fill:#000000" />
				<path
   class="st0"
   d="m 35.2,8.3 16.2,45 H 11.5 l 16.3,-45 c 0,0 7.4,0 7.4,0 z M 40.9,0.2 H 35.2 27.8 22.1 L 20.2,5.5 3.9,50.5 0,61.3 H 11.5 51.3 62.8 L 59,50.5 42.8,5.5 Z"
   id="path26"
   style="fill:#000000" />
			</g>
		</g>
	</g>
	<g
   id="g79"
   style="fill:#000000">
		<path
   class="st0"
   d="m 152.1,60.4 v -9.5 h 5.7 v 1 h -4.6 v 3.4 h 4.2 v 1 h -4.2 v 4.1 z"
   id="path33"
   style="fill:#000000" />
		<path
   class="st0"
   d="m 161.1,51.8 v -1.3 h 1.3 v 1.3 z m 0,8.6 v -7.2 h 1.1 v 7.2 z"
   id="path35"
   style="fill:#000000" />
		<path
   class="st0"
   d="m 166,60.4 v -7.2 h 1.1 v 0.7 0 c 0.2,-0.3 0.5,-0.5 0.9,-0.6 0.4,-0.2 0.8,-0.3 1.2,-0.3 0.8,0 1.4,0.2 1.9,0.7 0.5,0.5 0.7,1.1 0.7,2 v 4.7 h -1.1 V 56 c 0,-1.3 -0.6,-2 -1.7,-2 -0.6,0 -1,0.2 -1.4,0.5 -0.3,0.3 -0.5,0.8 -0.5,1.3 v 4.6 z"
   id="path37"
   style="fill:#000000" />
		<path
   class="st0"
   d="m 180.1,60.4 v -0.7 0 c -0.2,0.2 -0.5,0.4 -0.8,0.6 -0.4,0.2 -0.8,0.3 -1.3,0.3 -1,0 -1.7,-0.3 -2.3,-1 -0.6,-0.7 -0.8,-1.6 -0.8,-2.8 0,-1.2 0.3,-2.1 0.9,-2.8 0.6,-0.7 1.3,-1 2.2,-1 0.8,0 1.5,0.3 2,0.9 v 0 -3.4 h 1.1 v 9.9 z M 180,58.1 v -2.2 c 0,-0.5 -0.2,-0.9 -0.5,-1.2 -0.3,-0.4 -0.8,-0.6 -1.3,-0.6 -0.7,0 -1.3,0.2 -1.6,0.7 -0.4,0.5 -0.6,1.2 -0.6,2.1 0,0.9 0.2,1.6 0.6,2.1 0.4,0.5 0.9,0.7 1.6,0.7 0.5,0 1,-0.2 1.3,-0.5 0.4,-0.4 0.5,-0.7 0.5,-1.1 z"
   id="path39"
   style="fill:#000000" />
		<path
   class="st0"
   d="m 190,63.5 1.4,-3.8 -2.7,-6.4 h 1.2 l 2,5 v 0 l 1.8,-5 h 1.1 L 191,63.5 Z"
   id="path41"
   style="fill:#000000" />
		<path
   class="st0"
   d="m 200.4,60.6 c -1,0 -1.7,-0.3 -2.4,-1 -0.6,-0.7 -0.9,-1.6 -0.9,-2.8 0,-1.2 0.3,-2.1 1,-2.8 0.6,-0.7 1.4,-1 2.3,-1 0.9,0 1.7,0.3 2.3,1 0.6,0.7 0.9,1.6 0.9,2.8 0,1.2 -0.3,2.1 -0.9,2.8 -0.6,0.7 -1.4,1 -2.3,1 z m 0,-1 c 0.6,0 1.1,-0.2 1.5,-0.7 0.4,-0.5 0.6,-1.2 0.6,-2.1 0,-0.9 -0.2,-1.6 -0.6,-2.1 -0.4,-0.5 -0.9,-0.7 -1.5,-0.7 -0.6,0 -1.2,0.2 -1.6,0.7 -0.4,0.5 -0.6,1.2 -0.6,2.1 0,0.9 0.2,1.6 0.6,2.1 0.4,0.5 0.9,0.7 1.6,0.7 z"
   id="path43"
   style="fill:#000000" />
		<path
   class="st0"
   d="m 206.7,57.9 v -4.7 h 1.1 v 4.5 c 0,0.7 0.1,1.1 0.4,1.4 0.3,0.3 0.7,0.4 1.3,0.4 0.5,0 1,-0.2 1.3,-0.5 0.3,-0.3 0.4,-0.8 0.4,-1.4 v -4.5 h 1.1 v 7.2 h -1.1 v -0.7 0 c 0,0.1 -0.1,0.1 -0.2,0.2 -0.1,0.1 -0.3,0.2 -0.6,0.4 -0.3,0.2 -0.7,0.3 -1.1,0.3 -0.8,0 -1.4,-0.2 -1.9,-0.7 -0.5,-0.3 -0.7,-1 -0.7,-1.9 z"
   id="path45"
   style="fill:#000000" />
		<path
   class="st0"
   d="m 216,60.4 v -7.2 h 1.1 v 0.8 0 c 0.1,-0.3 0.4,-0.5 0.6,-0.7 0.3,-0.2 0.6,-0.2 0.9,-0.2 0.1,0 0.2,0 0.3,0 0.1,0 0.2,0 0.2,0.1 h 0.1 l -0.2,1.1 c -0.1,-0.1 -0.3,-0.1 -0.6,-0.1 -0.5,0 -0.8,0.2 -1,0.5 -0.2,0.3 -0.3,0.8 -0.3,1.5 v 4.3 z"
   id="path47"
   style="fill:#000000" />
		<path
   class="st0"
   d="m 226.8,51.8 v -1.3 h 1.3 v 1.3 z m 0.1,8.6 v -7.2 h 1.1 v 7.2 z"
   id="path49"
   style="fill:#000000" />
		<path
   class="st0"
   d="m 231.8,60.4 v -7.2 h 1.1 v 0.7 0 c 0.2,-0.3 0.5,-0.5 0.9,-0.6 0.4,-0.2 0.8,-0.3 1.2,-0.3 0.8,0 1.4,0.2 1.9,0.7 0.5,0.5 0.7,1.1 0.7,2 v 4.7 h -1.1 V 56 c 0,-1.3 -0.6,-2 -1.7,-2 -0.6,0 -1,0.2 -1.4,0.5 -0.3,0.3 -0.5,0.8 -0.5,1.3 v 4.6 z"
   id="path51"
   style="fill:#000000" />
		<path
   class="st0"
   d="m 240.6,58 1,-0.2 c 0.1,1.3 0.8,1.9 2,1.9 0.6,0 1,-0.1 1.3,-0.3 0.3,-0.2 0.4,-0.5 0.4,-0.8 0,-0.4 -0.1,-0.6 -0.4,-0.8 -0.3,-0.2 -0.8,-0.4 -1.7,-0.6 -0.9,-0.2 -1.5,-0.5 -1.9,-0.8 -0.4,-0.3 -0.5,-0.7 -0.5,-1.3 0,-0.5 0.2,-1 0.7,-1.4 0.4,-0.4 1.1,-0.6 1.8,-0.6 0.8,0 1.4,0.2 1.9,0.6 0.5,0.4 0.8,0.9 0.9,1.5 l -1,0.3 c -0.3,-0.9 -0.9,-1.4 -1.8,-1.4 -0.5,0 -0.8,0.1 -1.1,0.3 -0.3,0.2 -0.4,0.4 -0.4,0.7 0,0.3 0.1,0.5 0.4,0.7 0.2,0.1 0.8,0.3 1.7,0.6 0.9,0.3 1.6,0.6 1.9,0.9 0.3,0.3 0.5,0.8 0.5,1.4 0,0.6 -0.2,1.1 -0.7,1.5 -0.5,0.4 -1.1,0.6 -2.1,0.6 -1,0 -1.7,-0.2 -2.2,-0.7 -0.3,-0.7 -0.6,-1.3 -0.7,-2.1 z"
   id="path53"
   style="fill:#000000" />
		<path
   class="st0"
   d="m 249.5,51.8 v -1.3 h 1.3 v 1.3 z m 0.1,8.6 v -7.2 h 1.1 v 7.2 z"
   id="path55"
   style="fill:#000000" />
		<path
   class="st0"
   d="m 254.5,61.7 0.9,-0.5 c 0.2,0.4 0.4,0.8 0.7,1.1 0.3,0.3 0.7,0.4 1.2,0.4 0.6,0 1,-0.2 1.3,-0.5 0.3,-0.3 0.5,-0.8 0.5,-1.4 v -1 0 c -0.5,0.6 -1.1,0.8 -2,0.8 -1,0 -1.7,-0.3 -2.3,-1 -0.6,-0.7 -0.9,-1.6 -0.9,-2.8 0,-1.2 0.3,-2.1 0.9,-2.8 0.6,-0.7 1.4,-1 2.3,-1 0.9,0 1.5,0.3 2,0.9 v 0 -0.7 h 1.1 v 7.3 c 0,1 -0.3,1.8 -0.8,2.3 -0.5,0.5 -1.2,0.8 -2.1,0.8 -0.7,0 -1.3,-0.2 -1.8,-0.5 -0.4,-0.3 -0.8,-0.8 -1,-1.4 z m 4.7,-3.6 v -2.3 c 0,-0.4 -0.2,-0.8 -0.5,-1.2 -0.3,-0.4 -0.8,-0.5 -1.4,-0.5 -0.7,0 -1.3,0.2 -1.6,0.7 -0.4,0.5 -0.6,1.2 -0.6,2.1 0,0.9 0.2,1.6 0.6,2.1 0.4,0.5 0.9,0.7 1.6,0.7 0.5,0 1,-0.2 1.3,-0.5 0.4,-0.3 0.6,-0.7 0.6,-1.1 z"
   id="path57"
   style="fill:#000000" />
		<path
   class="st0"
   d="m 263.9,60.4 v -9.9 h 1.1 v 3.5 0 c 0.2,-0.3 0.5,-0.5 0.9,-0.7 0.4,-0.2 0.8,-0.3 1.2,-0.3 0.8,0 1.4,0.2 1.9,0.7 0.5,0.5 0.7,1.1 0.7,2 v 4.7 h -1.1 V 56 c 0,-1.3 -0.6,-2 -1.7,-2 -0.6,0 -1.1,0.2 -1.4,0.5 -0.3,0.3 -0.5,0.8 -0.5,1.3 v 4.5 h -1.1 z"
   id="path59"
   style="fill:#000000" />
		<path
   class="st0"
   d="m 273.6,58.3 v -4.1 h -1 v -1 h 1 v -1.8 h 1.1 v 1.8 h 1.8 v 1 h -1.8 v 4 c 0,0.4 0.1,0.7 0.2,0.9 0.1,0.2 0.4,0.3 0.7,0.3 h 0.5 v 1.1 h -0.6 c -0.7,0 -1.2,-0.2 -1.5,-0.5 -0.3,-0.4 -0.4,-1 -0.4,-1.7 z"
   id="path61"
   style="fill:#000000" />
		<path
   class="st0"
   d="m 278.9,58 1,-0.2 c 0.1,1.3 0.8,1.9 2,1.9 0.6,0 1,-0.1 1.3,-0.3 0.3,-0.2 0.4,-0.5 0.4,-0.8 0,-0.4 -0.1,-0.6 -0.4,-0.8 -0.3,-0.2 -0.8,-0.4 -1.7,-0.6 -0.9,-0.2 -1.5,-0.5 -1.9,-0.8 -0.4,-0.3 -0.5,-0.7 -0.5,-1.3 0,-0.5 0.2,-1 0.7,-1.4 0.4,-0.4 1.1,-0.6 1.8,-0.6 0.8,0 1.4,0.2 1.9,0.6 0.5,0.4 0.8,0.9 0.9,1.5 l -1,0.3 c -0.3,-0.9 -0.9,-1.4 -1.8,-1.4 -0.5,0 -0.8,0.1 -1.1,0.3 -0.3,0.2 -0.4,0.4 -0.4,0.7 0,0.3 0.1,0.5 0.4,0.7 0.2,0.1 0.8,0.3 1.7,0.6 0.9,0.3 1.6,0.6 1.9,0.9 0.3,0.3 0.5,0.8 0.5,1.4 0,0.6 -0.2,1.1 -0.7,1.5 -0.5,0.4 -1.1,0.6 -2.1,0.6 -1,0 -1.7,-0.2 -2.2,-0.7 -0.3,-0.7 -0.6,-1.3 -0.7,-2.1 z"
   id="path63"
   style="fill:#000000" />
		<path
   class="st0"
   d="M 293.6,60.4 292,53.2 h 1.1 l 1.2,5.4 v 0 l 1.9,-5.4 h 1 l 1.9,5.4 v 0 l 1.3,-5.4 h 1.1 l -1.7,7.2 h -1 l -2,-5.9 v 0 l -2,5.9 z"
   id="path65"
   style="fill:#000000" />
		<path
   class="st0"
   d="m 304.7,51.8 v -1.3 h 1.3 v 1.3 z m 0,8.6 v -7.2 h 1.1 v 7.2 z"
   id="path67"
   style="fill:#000000" />
		<path
   class="st0"
   d="m 309.9,58.3 v -4.1 h -1 v -1 h 1 v -1.8 h 1.1 v 1.8 h 1.8 v 1 H 311 v 4 c 0,0.4 0.1,0.7 0.2,0.9 0.1,0.2 0.4,0.3 0.7,0.3 h 0.5 v 1.1 h -0.6 c -0.7,0 -1.2,-0.2 -1.5,-0.5 -0.3,-0.4 -0.4,-1 -0.4,-1.7 z"
   id="path69"
   style="fill:#000000" />
		<path
   class="st0"
   d="m 315.9,60.4 v -9.9 h 1.1 v 3.5 0 c 0.2,-0.3 0.5,-0.5 0.9,-0.7 0.4,-0.2 0.8,-0.3 1.2,-0.3 0.8,0 1.4,0.2 1.9,0.7 0.5,0.5 0.7,1.1 0.7,2 v 4.7 h -1.1 V 56 c 0,-1.3 -0.6,-2 -1.7,-2 -0.6,0 -1.1,0.2 -1.4,0.5 -0.3,0.3 -0.5,0.8 -0.5,1.3 v 4.5 h -1.1 z"
   id="path71"
   style="fill:#000000" />
		<path
   class="st0"
   d="m 325.3,51.8 v -1.3 h 1.3 v 1.3 z m 0.1,8.6 v -7.2 h 1.1 v 7.2 z"
   id="path73"
   style="fill:#000000" />
		<path
   class="st0"
   d="m 330.3,60.4 v -7.2 h 1.1 v 0.7 0 c 0.2,-0.3 0.5,-0.5 0.9,-0.6 0.4,-0.2 0.8,-0.3 1.2,-0.3 0.8,0 1.4,0.2 1.9,0.7 0.5,0.5 0.7,1.1 0.7,2 v 4.7 H 335 V 56 c 0,-1.3 -0.6,-2 -1.7,-2 -0.6,0 -1,0.2 -1.4,0.5 -0.3,0.3 -0.5,0.8 -0.5,1.3 v 4.6 z"
   id="path75"
   style="fill:#000000" />
		<path
   class="st0"
   d="m 339.7,60.4 v -1.6 h 1.6 v 1.6 z"
   id="path77"
   style="fill:#000000" />
	</g>
</g></g>
</svg>
