<?xml version="1.0" encoding="UTF-8" standalone="no"?>
<svg
   id="Layer_1"
   data-name="Layer 1"
   viewBox="0 0 248.46594 39.321896"
   version="1.1"
   sodipodi:docname="Codefresh-lightBG-horizontal.svg"
   inkscape:version="1.1.1 (3bf5ae0d25, 2021-09-20)"
   width="248.46594"
   height="39.321896"
   xmlns:inkscape="http://www.inkscape.org/namespaces/inkscape"
   xmlns:sodipodi="http://sodipodi.sourceforge.net/DTD/sodipodi-0.dtd"
   xmlns="http://www.w3.org/2000/svg"
   xmlns:svg="http://www.w3.org/2000/svg"
   xmlns:rdf="http://www.w3.org/1999/02/22-rdf-syntax-ns#"
   xmlns:cc="http://creativecommons.org/ns#"
   xmlns:dc="http://purl.org/dc/elements/1.1/">
  <sodipodi:namedview
     id="namedview1480"
     pagecolor="#ffffff"
     bordercolor="#666666"
     borderopacity="1.0"
     inkscape:pageshadow="2"
     inkscape:pageopacity="0.0"
     inkscape:pagecheckerboard="0"
     showgrid="false"
     inkscape:zoom="1.1443585"
     inkscape:cx="238.12468"
     inkscape:cy="-2.1846301"
     inkscape:window-width="1920"
     inkscape:window-height="1001"
     inkscape:window-x="-7"
     inkscape:window-y="-7"
     inkscape:window-maximized="1"
     inkscape:current-layer="Layer_1"
     fit-margin-top="0"
     fit-margin-left="0"
     fit-margin-right="0"
     fit-margin-bottom="0" />
  <defs
     id="defs1449">
    <style
       id="style1447">.cls-1{fill:#2eb99b;}.cls-2{fill:#4e555d;}</style>
  </defs>
  <title
     id="title1451">Codefresh-lightBG-trans</title>
  <g
     id="g1802"
     transform="translate(-60.773112,-269.75405)">
    <g
       id="g1705"
       transform="matrix(0.24028046,0,0,0.24028046,55.599874,267.29838)">
      <path
         class="cls-1"
         d="m 154.82,58.35 c 0,0 26.31,26.65 18.57,71.19 C 199.7,119 209.91,101.37 213,83.73 c 0,0 9,-33.42 22.9,-47.35 -27.54,4.33 -30.33,-6.5 -81.09,22"
         id="path1453" />
      <path
         class="cls-1"
         d="m 160.08,139.44 h 0.07 c 0.62,-3.4 10.77,-38.1 -9.35,-66.27 C 117.06,35.76 66.31,30.5 66.31,30.5 c 9.9,19.19 10.22,37.14 21,73.66 13.11,37.85 61.5,40.4 65.07,40.54 3.25,5.14 10.69,12.08 27.76,15.66 l 1.9,-9 c -14.72,-3.09 -20.09,-8.76 -22,-11.89 M 112.65,92.53 c -3.92,-12.65 -14.79,-34 -27.7,-45.17 0,0 38.27,10.09 60.39,81.79 -20.8,-6.3 -29.69,-26.88 -32.7,-36.62"
         id="path1455" />
      <path
         class="cls-2"
         d="m 71.74,19.48 c -21.42,10.11 -30,34.79 -30,72.48 0,37 8.57,61.86 30,72.66 l -2.4,9.25 C 36.44,162.39 21.53,136.69 21.53,92.13 c 0,-44.9 14.91,-70.6 47.81,-81.91 z"
         id="path1457" />
      <path
         class="cls-2"
         d="m 230.24,10.22 c 32.9,11.31 47.81,37 47.81,81.91 0,44.55 -14.91,70.25 -47.81,81.73 l -2.57,-9.25 c 21.42,-10.8 30,-35.64 30,-72.66 0,-37.7 -8.57,-62.37 -30,-72.48 z"
         id="path1459" />
    </g>
    <g
       id="g1699"
       transform="matrix(0.66471669,0,0,0.66471669,120.68753,148.96339)">
      <path
         class="cls-2"
         d="m 40.58,226.64 a 30,30 0 0 1 -11.53,2 c -9.69,0 -14.35,-4.21 -12.85,-14.85 1.38,-10 5.21,-14.13 15.35,-14.13 a 32.26,32.26 0 0 1 11.69,2 l -1.39,6.15 -9,-0.05 c -4.1,0 -5.49,1.39 -6.15,6.37 -0.72,5.49 0.22,6.48 4.21,6.48 a 81.85,81.85 0 0 0 9,-0.44 z"
         id="path1461" />
      <path
         class="cls-2"
         d="m 76,214.62 c -1.5,10.36 -5.71,14 -16.24,14 -10.53,0 -15,-4 -13.47,-14.79 1.45,-10.47 5.65,-14.19 16.35,-14.19 10.7,0 14.91,4.1 13.35,15 m -19.23,0 c -0.77,5.65 -0.28,7 3.32,7 3.6,0 4.6,-1.5 5.49,-7.76 0.89,-5.76 0.28,-7.09 -3.1,-7.09 -3.66,0 -4.77,1.38 -5.71,7.87"
         id="path1463" />
      <path
         class="cls-2"
         d="m 108,228 h -7.92 l -0.11,-4.65 c -2.6,2.5 -6.43,5.32 -10.81,5.32 -6.43,0 -9.31,-4.55 -7.92,-15.07 1.5,-11.52 6,-13.91 12,-13.91 a 49.18,49.18 0 0 1 8.87,0.78 33.91,33.91 0 0 1 0.39,-5.65 l 0.94,-5.6 H 113.5 Z M 97.54,206.14 c -4.21,0 -5.21,0.89 -6,7.26 -0.66,5 -0.77,7 1.72,6.82 2.27,-0.05 4.16,-1.22 6.21,-2.88 l 1.5,-11.19 z"
         id="path1465" />
      <path
         class="cls-2"
         d="m 142.64,226.42 c -3.72,1.66 -8.53,2.22 -12.64,2.22 -11.74,0 -15,-5.15 -13.91,-14.79 1.28,-11.47 6.49,-14.18 16.4,-14.18 10.86,0 13.74,3.6 12.85,9.92 -0.77,5.15 -4.27,6.65 -11.52,7.2 l -7.48,0.55 c 0.11,2.94 1.55,3.49 4.66,3.49 2.44,0 7.65,-0.28 11,-0.67 z m -11,-14.85 c 2.49,-0.22 3.82,-0.61 4,-3 0.17,-1.83 -0.55,-2.16 -3.32,-2.11 -3.38,0.05 -4.49,1.05 -5.37,5.54 z"
         id="path1467" />
      <path
         class="cls-1"
         d="m 167,192.62 c -3.38,0 -4.76,0.77 -5.26,4.32 l -0.61,4 h 8.37 l -0.55,4.15 h -8.37 l -3.66,26 c -0.72,5 -3.6,7.92 -8.81,7.92 a 56.68,56.68 0 0 1 -6.71,-0.44 l 0.83,-4 h 4.15 c 3.33,0 4.71,-0.78 5.21,-4.32 l 3.54,-25.15 h -4.82 l 0.5,-3.88 4.93,-0.27 0.67,-4.82 c 0.72,-5 3.6,-7.87 8.87,-7.87 a 64.94,64.94 0 0 1 7.92,0.39 l -0.89,4 z"
         id="path1469" />
      <path
         class="cls-1"
         d="m 192.28,205.26 h -1.5 c -3,0 -6,2 -10.69,5.49 L 177.71,228 h -5.37 l 3.82,-27 h 4.1 l -0.28,6.21 c 4.32,-4.43 8.53,-6.93 12.19,-6.93 h 1.44 z"
         id="path1471" />
      <path
         class="cls-1"
         d="m 218.71,227.09 c -2.94,1.16 -7.92,1.55 -11.13,1.55 -9.37,0 -12.58,-4.82 -11.25,-14.91 1.44,-10.53 5.15,-13.52 15,-13.52 8.87,0 11,3.32 10.25,8.76 -0.75,5.44 -4,7.31 -10.58,7.81 l -9.37,0.83 c -0.05,5.43 2.49,6.53 6.81,6.53 3,0 6.87,-0.33 10,-0.66 z M 211,212.79 c 3.32,-0.22 4.76,-1.16 5.21,-4.27 0.5,-3.71 -1.38,-3.82 -5.71,-3.82 -5.48,0 -7.37,1.5 -8.53,8.92 z"
         id="path1473" />
      <path
         class="cls-1"
         d="m 233.56,214.57 c -3.88,-1.83 -5.7,-3.93 -5.21,-7.87 0.61,-5.15 4.32,-6.59 11.42,-6.48 a 89.9,89.9 0 0 1 11.58,0.94 l -0.66,3.82 c -3.44,-0.11 -6.65,-0.22 -10.75,-0.28 -4.43,0 -6.1,0.11 -6.38,2.38 -0.27,2.05 1,2.61 3.22,3.6 l 7.31,3.32 c 4.21,1.94 5.93,3.66 5.37,7.81 -0.83,6.15 -5.21,6.76 -12.8,6.76 a 68.58,68.58 0 0 1 -10.47,-0.78 l 0.61,-4 c 2.49,0.22 6,0.28 8.48,0.28 6.82,0 8.59,-0.55 8.92,-2.77 0.33,-2 -1,-2.33 -3.38,-3.43 z"
         id="path1475" />
      <path
         class="cls-1"
         d="m 265.92,199.83 a 58.83,58.83 0 0 1 -1.33,6.65 c 4.71,-4.16 8.64,-6.26 12.52,-6.26 4.49,0 7.15,2.6 6.43,7.59 L 280.66,228 h -5.32 l 2.6,-18.84 c 0.44,-3.38 -0.17,-4.38 -2.49,-4.38 -3.32,0 -6.54,2.27 -11.19,5.93 L 261.87,228 h -5.37 l 5.5,-38.81 h 5.32 z"
         id="path1477" />
    </g>
  </g>
  <metadata
     id="metadata1562">
    <rdf:RDF>
      <cc:Work
         rdf:about="">
        <dc:title>Codefresh-lightBG-trans</dc:title>
      </cc:Work>
    </rdf:RDF>
  </metadata>
</svg>
