<?xml version="1.0" encoding="UTF-8" standalone="no"?>
<!-- Created with Inkscape (http://www.inkscape.org/) -->

<svg
   version="1.1"
   id="svg2"
   xml:space="preserve"
   width="500.00003"
   height="196.24486"
   viewBox="0 0 500.00003 196.24486"
   sodipodi:docname="WSO2-logo.svg"
   inkscape:version="1.1.1 (3bf5ae0d25, 2021-09-20)"
   xmlns:inkscape="http://www.inkscape.org/namespaces/inkscape"
   xmlns:sodipodi="http://sodipodi.sourceforge.net/DTD/sodipodi-0.dtd"
   xmlns="http://www.w3.org/2000/svg"
   xmlns:svg="http://www.w3.org/2000/svg"><defs
     id="defs6"><clipPath
       clipPathUnits="userSpaceOnUse"
       id="clipPath24"><path
         d="M 0,508.018 H 507 V 0 H 0 Z"
         id="path22" /></clipPath><clipPath
       clipPathUnits="userSpaceOnUse"
       id="clipPath48"><path
         d="m 277.978,414.627 c 0,-21.919 17.865,-39.781 39.78,-39.781 v 0 c 21.907,0 39.78,17.862 39.78,39.781 v 0 c 0,21.911 -17.873,39.777 -39.78,39.777 v 0 c -21.915,0 -39.78,-17.866 -39.78,-39.777"
         id="path46" /></clipPath><clipPath
       clipPathUnits="userSpaceOnUse"
       id="clipPath60"><path
         d="M 0,508.018 H 507 V 0 H 0 Z"
         id="path58" /></clipPath><clipPath
       clipPathUnits="userSpaceOnUse"
       id="clipPath88"><path
         d="m 277.978,205.627 c 0,-21.92 17.865,-39.781 39.78,-39.781 v 0 c 21.907,0 39.78,17.861 39.78,39.781 v 0 c 0,21.911 -17.873,39.776 -39.78,39.776 v 0 c -21.915,0 -39.78,-17.865 -39.78,-39.776"
         id="path86" /></clipPath><clipPath
       clipPathUnits="userSpaceOnUse"
       id="clipPath100"><path
         d="M 0,508.018 H 507 V 0 H 0 Z"
         id="path98" /></clipPath><clipPath
       clipPathUnits="userSpaceOnUse"
       id="clipPath124"><path
         d="M 0,508.018 H 507 V 0 H 0 Z"
         id="path122" /></clipPath></defs><sodipodi:namedview
     id="namedview4"
     pagecolor="#ffffff"
     bordercolor="#666666"
     borderopacity="1.0"
     inkscape:pageshadow="2"
     inkscape:pageopacity="0.0"
     inkscape:pagecheckerboard="0"
     showgrid="false"
     fit-margin-top="0"
     fit-margin-left="0"
     fit-margin-right="0"
     fit-margin-bottom="0"
     inkscape:zoom="0.86019002"
     inkscape:cx="172.63627"
     inkscape:cy="38.363617"
     inkscape:window-width="1920"
     inkscape:window-height="1010"
     inkscape:window-x="-6"
     inkscape:window-y="-6"
     inkscape:window-maximized="1"
     inkscape:current-layer="g8" /><g
     id="g8"
     inkscape:groupmode="layer"
     inkscape:label="wso2-logo-cs5"
     transform="matrix(1.3333333,0,0,-1.3333333,-159.36294,344.89483)"><g
       id="g1548"
       transform="matrix(1.3220519,0,0,1.3220519,-28.11807,-349.57864)"><g
         id="g18"><g
           id="g20"
           clip-path="url(#clipPath24)"><g
             id="g26"
             transform="translate(367.0811,416.9204)"><path
               d="m 0,0 c 2.048,0.579 4.234,0.874 6.551,0.874 6.189,0 11.207,-2.002 15.034,-6.002 3.827,-3.993 5.754,-8.706 5.754,-14.141 0,-3.813 -0.921,-7.395 -2.755,-10.739 -1.825,-3.333 -5.393,-7.87 -10.678,-13.57 L -2.846,-61.666 h 31.09 V -68.17 H -17.49 l 25.736,27.791 c 5.216,5.596 8.607,9.742 10.187,12.439 1.573,2.691 2.362,5.549 2.362,8.525 0,3.797 -1.411,7.058 -4.242,9.788 -2.823,2.715 -6.282,4.089 -10.37,4.089 -2.348,0 -4.472,-0.426 -6.39,-1.274 0.168,1.638 0.245,3.295 0.245,4.975 C 0.038,-1.228 0.023,-0.61 0,0"
               style="fill:#231f20;fill-opacity:1;fill-rule:nonzero;stroke:none"
               id="path28" /></g><g
             id="g30"
             transform="translate(226.5371,455.0176)"><path
               d="M 0,0 H -3.337 -9.88 L -33.774,-61.131 -57.792,4.034 -83.259,-60.951 -104.975,0 h -9.887 l 31.213,-85.585 25.612,65.011 23.994,-65.19 30.706,77.268 z"
               style="fill:#f47b20;fill-opacity:1;fill-rule:nonzero;stroke:none"
               id="path32" /></g><g
             id="g34"
             transform="translate(264.7295,411.332)"><path
               d="m 0,0 c -3.98,3.252 -8.246,5.891 -12.795,7.932 l -2.324,1.096 -2.186,0.963 c -4.142,2.129 -7.556,4.112 -10.24,5.98 -2.678,1.871 -4.019,4.594 -4.019,8.173 0,3.578 1.365,6.481 4.08,8.718 2.722,2.24 6.037,3.356 9.933,3.356 2.516,0 4.672,-0.491 6.459,-1.466 1.787,-0.981 3.49,-2.569 5.117,-4.759 l 0.859,-1.339 c 0.245,-0.168 0.575,-0.571 0.973,-1.219 l 7.196,4.633 c -2.362,4.15 -5.301,7.295 -8.844,9.45 -3.529,2.152 -7.334,3.226 -11.383,3.226 -6.912,0 -12.565,-1.945 -16.953,-5.841 -4.388,-3.905 -6.582,-8.91 -6.582,-15.008 0,-5.769 1.986,-10.222 5.969,-13.344 3.98,-3.129 8.253,-5.711 12.803,-7.747 l 1.464,-0.733 1.465,-0.602 c 4.38,-2.201 8.115,-4.361 11.207,-6.47 3.092,-2.11 4.633,-5.24 4.633,-9.385 0,-4.714 -1.564,-8.626 -4.702,-11.752 -3.122,-3.137 -7.087,-4.698 -11.874,-4.698 -4.227,0 -7.717,1.303 -10.479,3.904 -2.769,2.597 -4.724,6.325 -5.852,11.207 l -8.783,-2.685 c 0.766,-3.295 1.886,-6.229 3.329,-8.779 1.48,-2.604 3.321,-4.821 5.515,-6.635 4.342,-3.621 9.85,-5.427 16.523,-5.427 7.064,0 13.071,2.423 18.034,7.256 4.955,4.829 7.44,10.747 7.44,17.735 C 5.983,-8.008 3.989,-3.252 0,0"
               style="fill:#f47b20;fill-opacity:1;fill-rule:nonzero;stroke:none"
               id="path36" /></g><g
             id="g38"
             transform="translate(317.7275,374.8076)"><path
               d="M 0,0 C 21.907,0 39.78,17.87 39.78,39.777 39.78,61.688 21.907,79.554 0,79.554 -21.916,79.554 -39.773,61.688 -39.773,39.777 -39.773,17.87 -21.916,0 0,0"
               style="fill:#f47b20;fill-opacity:1;fill-rule:evenodd;stroke:none"
               id="path40" /></g></g></g><g
         id="g42"><g
           id="g44"
           clip-path="url(#clipPath48)"><g
             id="g50"
             transform="translate(333.9678,392.4863)"><path
               d="m 0,0 -16.192,39.455 -11.302,-25.146 -30.61,0.06 0.009,5.409 27.105,-0.053 15.022,33.427 16.702,-40.697 6.693,12.037 17.886,0.046 0.014,-5.409 -14.715,-0.038 z"
               style="fill:#ffffff;fill-opacity:1;fill-rule:nonzero;stroke:none"
               id="path52" /></g></g></g><g
         id="g62"
         transform="translate(317.3281,460.0801)"><path
           d="M 0,0 H 0.599 V -8.58 H 0.422 c -6.482,0 -12.595,-1.672 -18.409,-5.051 -5.784,-3.371 -10.303,-7.931 -13.571,-13.635 -3.252,-5.711 -4.879,-12.093 -4.879,-19.104 0,-10.401 3.59,-19.181 10.817,-26.353 7.187,-7.141 15.894,-10.727 26.042,-10.727 h 0.177 v -8.511 c -12.911,0.023 -23.827,4.457 -32.746,13.328 -8.922,8.875 -13.395,19.644 -13.395,32.263 0,8.407 2.033,16.212 6.092,23.389 4.072,7.19 9.626,12.798 16.652,16.887 C -15.771,-2.025 -8.169,0 0,0 m 0.599,0 c 12.986,-0.127 23.879,-4.564 32.685,-13.271 8.928,-8.852 13.393,-19.748 13.393,-32.696 0,-12.81 -4.442,-23.688 -13.37,-32.601 C 24.409,-87.512 13.539,-91.961 0.714,-91.961 H 0.599 v 8.511 c 6.726,0.026 12.94,1.676 18.67,4.936 5.769,3.298 10.279,7.808 13.508,13.512 3.238,5.71 4.864,12.069 4.864,19.035 0,6.953 -1.626,13.239 -4.864,18.862 -3.229,5.607 -7.778,10.103 -13.653,13.474 -5.822,3.344 -12.006,5.032 -18.525,5.051 z"
           style="fill:#231f20;fill-opacity:1;fill-rule:nonzero;stroke:none"
           id="path64" /></g></g></g></svg>
