<?xml version="1.0" encoding="UTF-8" standalone="no"?>
<svg xmlns:inkscape="http://www.inkscape.org/namespaces/inkscape" xmlns:sodipodi="http://sodipodi.sourceforge.net/DTD/sodipodi-0.dtd" xmlns="http://www.w3.org/2000/svg" xmlns:svg="http://www.w3.org/2000/svg" width="1556.8721" height="500" viewBox="0 0 1556.8721 500" fill="none" version="1.1" id="svg109" sodipodi:docname="StepZen_logo.svg" inkscape:version="1.2.2 (b0a84865, 2022-12-01)">
  <defs id="defs113"></defs>
  <g id="g277" transform="matrix(2.7767235,0,0,2.7767235,-12.059949,-12.108347)">
    <path d="m 150.21,172.713 v -2.844 h -3.533 c -3.034,0 -4.401,0.936 -4.401,2.611 v 0.701 c 0,1.707 1.334,2.679 3.4,2.679 2.634,0 4.534,-1.373 4.534,-3.147 z m 3.133,5.021 c -1.966,0 -2.766,-1.205 -2.966,-2.812 h -0.167 c -0.734,2.109 -2.567,3.213 -4.967,3.213 -3.634,0 -5.767,-2.008 -5.767,-5.221 0,-3.246 2.333,-5.054 7.333,-5.054 h 3.401 v -1.706 c 0,-2.444 -1.333,-3.783 -4.067,-3.783 -2.067,0 -3.434,1.005 -4.367,2.578 l -1.6,-1.506 c 0.933,-1.842 3,-3.381 6.1,-3.381 4.134,0 6.601,2.176 6.601,5.824 v 9.505 h 1.966 v 2.343 z" fill="#000000" id="path59"></path>
    <path d="m 158.811,177.734 v -17.27 h 2.668 v 2.812 h 0.133 c 0.833,-1.941 2.3,-3.214 4.866,-3.214 3.534,0 5.767,2.41 5.767,6.594 v 11.078 h -2.666 v -10.609 c 0,-3.079 -1.334,-4.653 -3.9,-4.653 -2.134,0 -4.2,1.071 -4.2,3.28 v 11.982 z" fill="#000000" id="path61"></path>
    <path d="m 183.781,177.73 v -2.34 h 3.267 v -18.676 h -3.267 v -2.342 h 9.334 v 2.342 h -3.267 v 18.676 h 3.267 v 2.343 z" fill="#000000" id="path63"></path>
    <path d="m 201.183,175.257 h 6.9 c 2.401,0 3.867,-1.272 3.867,-3.615 v -1.138 c 0,-2.343 -1.466,-3.614 -3.867,-3.614 h -6.9 z m 0,-10.777 h 6.434 c 2.2,0 3.533,-1.172 3.533,-3.246 v -1.139 c 0,-2.075 -1.333,-3.246 -3.533,-3.246 h -6.434 z m -2.801,-10.107 h 9.567 c 3.834,0 6.201,2.375 6.201,6.023 0,3.482 -2.233,4.72 -3.767,4.953 v 0.202 c 1.667,0.1 4.567,1.539 4.567,5.422 0,3.848 -2.566,6.76 -6,6.76 h -10.568 z" fill="#000000" id="path65"></path>
    <path d="m 220.318,154.372 h 3.734 l 6.666,12.583 h 0.168 l 6.7,-12.583 h 3.6 v 23.361 h -2.733 v -19.68 h -0.168 l -1.966,3.915 -5.567,10.175 -5.567,-10.175 -1.967,-3.915 h -0.167 v 19.68 h -2.733 z" fill="#000000" id="path67"></path>
    <path d="m 253.087,166.187 c 0,-7.799 3.5,-12.217 9.367,-12.217 3.866,0 6.534,1.875 8,5.121 l -2.267,1.373 c -0.933,-2.41 -2.866,-3.983 -5.733,-3.983 -4,0 -6.367,3.18 -6.367,7.965 v 3.481 c 0,4.786 2.367,7.698 6.367,7.698 2.966,0 5,-1.674 5.934,-4.217 l 2.233,1.406 c -1.467,3.279 -4.301,5.321 -8.167,5.321 -5.867,0 -9.367,-4.15 -9.367,-11.948 z" fill="#000000" id="path69"></path>
    <path d="m 286.256,170.338 v -2.477 c 0,-3.648 -2.033,-5.422 -4.899,-5.422 -2.867,0 -4.9,1.774 -4.9,5.422 v 2.477 c 0,3.647 2.033,5.422 4.9,5.422 2.866,0 4.899,-1.775 4.899,-5.422 z m -12.666,-1.239 c 0,-5.489 3.166,-9.037 7.767,-9.037 4.6,0 7.767,3.548 7.767,9.037 0,5.489 -3.167,9.037 -7.767,9.037 -4.601,0 -7.767,-3.548 -7.767,-9.037 z" fill="#000000" id="path71"></path>
    <path d="m 293.692,177.734 v -17.27 h 2.667 v 2.812 h 0.132 c 0.768,-1.775 1.968,-3.214 4.634,-3.214 2.267,0 4.334,1.038 5.267,3.515 h 0.067 c 0.634,-1.874 2.3,-3.515 5.234,-3.515 3.499,0 5.599,2.41 5.599,6.594 v 11.078 h -2.667 v -10.609 c 0,-3.045 -1.166,-4.653 -3.766,-4.653 -2.1,0 -4.033,1.071 -4.033,3.28 v 11.982 h -2.668 v -10.609 c 0,-3.079 -1.166,-4.653 -3.7,-4.653 -2.1,0 -4.099,1.071 -4.099,3.28 v 11.982 z" fill="#000000" id="path73"></path>
    <path d="m 334.928,170.57 v -2.945 c 0,-3.078 -1.867,-5.154 -4.867,-5.154 -2.433,0 -4.433,1.406 -4.433,3.313 v 6.427 c 0,2.242 2,3.514 4.433,3.514 3,0 4.867,-2.075 4.867,-5.155 z m -11.967,-10.107 h 2.667 v 2.811 h 0.132 c 0.901,-2.175 2.667,-3.213 5.034,-3.213 4.301,0 7.001,3.514 7.001,9.037 0,5.522 -2.7,9.037 -7.001,9.037 -2.367,0 -4,-1.071 -5.034,-3.214 h -0.132 v 9.506 h -2.667 z" fill="#000000" id="path75"></path>
    <path d="m 351.831,172.713 v -2.844 h -3.533 c -3.034,0 -4.4,0.936 -4.4,2.611 v 0.701 c 0,1.707 1.333,2.679 3.401,2.679 2.632,0 4.532,-1.373 4.532,-3.147 z m 3.134,5.021 c -1.967,0 -2.768,-1.205 -2.967,-2.812 h -0.167 c -0.733,2.109 -2.566,3.213 -4.967,3.213 -3.633,0 -5.767,-2.008 -5.767,-5.221 0,-3.246 2.334,-5.054 7.335,-5.054 h 3.399 v -1.706 c 0,-2.444 -1.333,-3.783 -4.066,-3.783 -2.067,0 -3.434,1.005 -4.368,2.578 l -1.599,-1.506 c 0.932,-1.842 3,-3.381 6.099,-3.381 4.134,0 6.601,2.176 6.601,5.824 v 9.505 h 1.967 v 2.343 z" fill="#000000" id="path77"></path>
    <path d="m 360.433,177.734 v -17.27 h 2.667 v 2.812 h 0.133 c 0.833,-1.941 2.3,-3.214 4.867,-3.214 3.534,0 5.767,2.41 5.767,6.594 v 11.078 h -2.666 v -10.609 c 0,-3.079 -1.334,-4.653 -3.901,-4.653 -2.133,0 -4.2,1.071 -4.2,3.28 v 11.982 z" fill="#000000" id="path79"></path>
    <path d="m 389.868,160.464 h 2.633 L 384.8,181.75 c -0.766,2.076 -1.466,2.679 -4,2.679 h -1.367 v -2.343 h 2.7 l 1.301,-3.682 -6.434,-17.94 h 2.667 l 4.133,11.748 0.801,2.811 h 0.166 l 0.934,-2.811 z" fill="#000000" id="path81"></path>
    <path d="m 141.939,89.538 c 7.097,4.2751 16.222,7.6953 23.318,7.6953 9.571,0 14.761,-5.1705 14.761,-14.6576 0,-20.7244 -39.823,-11.1154 -39.823,-43.2405 0,-16.8967 10.017,-26.6683 27.292,-26.6683 9.45,0 17.56,2.6465 24.778,6.9623 l -4.419,10.6672 c -6.205,-3.5423 -12.816,-5.7814 -19.304,-5.7814 -9.003,0 -14.315,4.6011 -14.315,14.4948 0,21.009 39.823,12.7437 39.823,42.5068 0,15.8386 -8.273,27.5244 -28.752,27.5244 -7.949,0 -18.857,-3.258 -27.293,-8.428 z" fill="#1a3560" id="path83"></path>
    <path d="m 141.939,89.538 c 7.097,4.2751 16.222,7.6953 23.318,7.6953 9.571,0 14.761,-5.1705 14.761,-14.6576 0,-20.7244 -39.826,-11.1154 -39.826,-43.2405 0,-16.8967 10.02,-26.6683 27.295,-26.6683 9.45,0 17.56,2.6465 24.778,6.9623 l -4.419,10.6672 c -6.205,-3.5423 -12.816,-5.7814 -19.304,-5.7814 -9.003,0 -14.315,4.6011 -14.315,14.4948 0,21.009 39.823,12.7437 39.823,42.5068 0,15.8386 -8.273,27.5244 -28.752,27.5244 -7.949,0 -18.857,-3.258 -27.293,-8.428 z" fill="#1a3560" id="path85"></path>
    <path d="m 210.07,47.8044 -11.071,-0.6109 v -9.1607 h 11.354 l 1.339,-23.8194 h 11.071 v 23.8194 h 18.128 l -1.785,9.7716 h -16.384 v 35.5038 c 0,9.9353 2.798,14.373 9.003,14.373 3.529,0 6.204,-0.8956 9.57,-2.6467 l 2.515,10.2195 c -4.866,2.361 -8.719,3.869 -15.207,3.869 -13.869,0 -18.574,-10.0576 -18.574,-23.8197 V 47.8044 Z" fill="#1a3560" id="path87"></path>
    <path d="m 290.73,66.1671 c -0.608,-12.0107 -4.258,-18.6478 -12.085,-18.6478 -7.948,0 -13.139,6.5142 -14.153,18.6478 z M 278.361,36.5259 c 16.667,0 24.94,13.762 24.94,37.1737 l -0.73,1.6284 h -38.2 c 0.608,14.373 5.879,22.3536 17.68,22.3536 5.597,0 11.964,-2.0765 16.668,-5.0495 l 3.244,10.3829 c -6.326,3.868 -12.977,6.067 -21.25,6.067 -20.357,0 -29.806,-14.9436 -29.806,-36.1152 0,-22.9634 10.625,-36.4409 27.454,-36.4409 z" fill="#1a3560" id="path89"></path>
    <path d="m 342.069,97.6812 c 8.395,0 15.208,-8.4281 15.208,-25.0401 0,-16.4493 -5.759,-24.7148 -12.369,-24.7148 -7.665,0 -12.369,6.3516 -14.883,14.6576 v 29.7632 c 3.041,3.5828 7.3,5.3341 12.044,5.3341 z m -12.126,40.1468 -12.692,-0.001 V 38.0328 h 10.747 l 0.892,10.667 c 3.528,-7.4096 9.894,-12.1328 18.856,-12.1328 13.424,0 22.872,13.4765 22.872,35.6667 0,22.8008 -10.462,36.8473 -27.413,36.8473 -4.866,0 -9.733,-1.343 -13.262,-4.437 z" fill="#1a3560" id="path91"></path>
    <path d="m 380.838,103.626 38.2,-77.5638 H 383.19 l -0.284,-11.8481 h 53.692 v 4.6002 l -38.201,76.9941 h 39.215 v 11.8486 h -56.774 z" fill="#1a3560" id="path93"></path>
    <path d="m 380.838,103.626 38.2,-77.5638 H 383.19 l -0.284,-11.8465 53.692,-0.0016 v 4.6002 l -38.201,76.9941 h 39.215 v 11.8486 h -56.774 z" fill="#1a3560" id="path95"></path>
    <path d="m 380.838,103.626 38.2,-77.5638 H 383.19 l -0.284,-11.8465 53.692,-0.0016 v 4.6002 l -38.201,76.9943 h 39.215 v 11.8494 l -56.774,-0.001 z" fill="#1a3560" id="path97"></path>
    <path d="m 487.615,66.1671 c -0.608,-12.0107 -4.258,-18.6478 -12.084,-18.6478 -7.949,0 -13.14,6.5142 -14.154,18.6478 z M 475.206,36.5259 c 16.667,0 24.94,13.762 24.94,37.1737 l -0.73,1.6284 h -38.201 c 0.609,14.373 5.88,22.3536 17.681,22.3536 5.597,0 11.964,-2.0765 16.668,-5.0495 l 3.244,10.3829 c -6.326,3.868 -12.977,6.067 -21.25,6.067 -20.358,0 -29.807,-14.9436 -29.807,-36.1152 0.041,-22.9634 10.666,-36.4409 27.455,-36.4409 z" fill="#1a3560" id="path99"></path>
    <path d="m 514.136,38.0326 h 10.747 l 0.892,10.9527 c 3.852,-7.6951 11.071,-12.4183 19.182,-12.4183 13.707,0 20.073,10.0563 20.073,27.0759 V 107.616 H 552.337 V 65.7194 c 0,-12.2964 -3.69,-17.7524 -10.463,-17.7524 -7.218,0 -12.247,6.9623 -15.045,14.6585 v 44.9905 h -12.693 z" fill="#1a3560" id="path101"></path>
    <path d="m 48.9109,46.9086 c 0,-1.4656 0.2835,-2.8907 0.8514,-4.2342 0.5274,-1.303 1.3384,-2.4841 2.3121,-3.4609 1.0134,-1.0183 2.1493,-1.7918 3.4471,-2.3205 1.3383,-0.5702 2.7575,-0.8557 4.2175,-0.8557 h 4.3389 L 74.0948,25.981 H 59.7793 c -2.7981,0 -5.5556,0.5702 -8.1107,1.6284 -2.4742,1.059 -4.7043,2.5653 -6.6511,4.479 -1.9053,1.9131 -3.4064,4.153 -4.4603,6.677 -1.0954,2.606 -1.6219,5.3339 -1.6219,8.1432 v 14.373 L 48.9514,51.2244 v -4.3158 z" fill="#00b1c9" id="path103"></path>
    <path d="m 116.837,4.36066 v 5.37482 c 0,0.77352 -0.202,1.58752 -0.649,2.19842 -0.608,0.8956 -1.135,1.4251 -1.743,2.0358 -1.379,1.3844 -2.757,2.6467 -4.136,4.0311 -1.298,1.303 -2.596,2.6052 -3.853,3.8675 -1.217,1.2216 -2.393,2.4027 -3.609,3.6243 -0.73,0.7328 -1.46,1.4656 -2.19,2.1984 C 65.4975,62.9916 57.7107,70.8087 57.6704,70.8494 l -36.173,36.3596 h 41.2831 c 4.2175,0 8.2728,-0.815 12.1249,-2.443 1.8252,-0.774 3.609,-1.751 5.2722,-2.891 1.6623,-1.1 3.2031,-2.4026 4.6233,-3.8277 1.4192,-1.4249 2.6756,-2.9719 3.8115,-4.641 1.1359,-1.6697 2.1088,-3.4607 2.8792,-5.2932 1.6227,-3.8685 2.4334,-7.9393 2.4334,-12.1746 V 48.7407 l 10.016,-10.0563 v 37.2948 c 0,2.8104 -0.283,5.579 -0.851,8.306 -0.528,2.6468 -1.338,5.2528 -2.392,7.7774 -1.0147,2.4426 -2.3125,4.8046 -3.8128,7.003 -1.4597,2.1984 -3.1635,4.2344 -5.0284,6.1074 -1.8655,1.873 -3.8934,3.583 -6.083,5.049 -2.1898,1.506 -4.5424,2.768 -6.975,3.827 -2.4742,1.059 -5.0698,1.873 -7.7455,2.402 -2.7172,0.57 -5.5153,0.855 -8.2728,0.855 H 4.34323 v -5.375 c 0,-0.651 0.16194,-1.302 0.44549,-1.872 0.40599,-0.773 1.05479,-1.589 1.70379,-2.198 4.05539,-4.032 1.41921,-1.385 2.10854,-2.077 1.33834,-1.344 0,0.041 4.01505,-3.909 1.2572,-1.262 2.5137,-2.5247 3.7709,-3.787 1.1764,-1.1801 2.3526,-2.3612 3.4877,-3.5014 1.0953,-1.0989 2.1904,-2.1986 3.2444,-3.2568 l 3.0007,-3.0134 c 0.9332,-0.9363 1.8655,-1.8724 2.7981,-2.8093 l 2.5551,-2.5645 c 0,0 5.7996,-5.8229 6.4484,-6.4746 0.6077,-0.6107 1.1754,-1.1809 1.7839,-1.7909 0.5274,-0.5295 1.0547,-1.0591 1.5813,-1.5886 0.4869,-0.4879 0.9737,-0.9767 1.4192,-1.4248 l 1.2978,-1.3031 1.1359,-1.1395 c 0.3241,-0.326 0.649,-0.6514 0.9729,-0.9777 0.2843,-0.2846 0.5679,-0.5702 0.8523,-0.8549 0.243,-0.2439 0.486,-0.4888 0.7298,-0.7328 0.2025,-0.2032 0.4052,-0.4074 0.6491,-0.6514 0.1619,-0.1628 0.3644,-0.366 0.5265,-0.5295 0.1628,-0.1628 0.2844,-0.2847 0.4463,-0.4475 0.1214,-0.1227 0.2431,-0.2448 0.3655,-0.3667 0.0809,-0.0814 0.2025,-0.2032 0.2833,-0.2846 L 50.1679,64.1718 50.3307,64.009 51.263,63.0729 99.7239,14.4585 H 58.4408 c -4.2175,0 -8.2729,0.8142 -12.1249,2.4426 -1.8252,0.7735 -3.6101,1.7511 -5.2723,2.8907 -1.6624,1.0995 -3.2041,2.4025 -4.6233,3.8276 -1.4194,1.4249 -2.6766,2.9719 -3.8115,4.6418 -1.1358,1.6691 -2.1087,3.4609 -2.8791,5.2926 -1.6227,3.8683 -2.4337,7.9399 -2.4337,12.1743 V 72.9259 L 17.2799,82.9831 v -37.255 c 0,-2.8093 0.2835,-5.6188 0.8515,-8.306 0.5274,-2.6467 1.3381,-5.2527 2.3921,-7.7765 1.0142,-2.4434 2.312,-4.8046 3.8125,-7.0038 1.4597,-2.1986 3.1625,-4.2344 5.0282,-6.1068 1.8657,-1.8732 3.8934,-3.5836 6.0832,-5.0492 2.1897,-1.50654 4.5422,-2.76885 6.9751,-3.82703 2.474,-1.05902 5.0687,-1.87301 7.7454,-2.40251 2.717,-0.57021 5.5151,-0.8549 8.2729,-0.8549 h 58.3962 z" fill="#00b1c9" id="path105"></path>
    <path d="m 72.2694,74.7582 c 0,1.4656 -0.2835,2.8907 -0.8512,4.2342 -0.5274,1.303 -1.3384,2.4842 -2.3123,3.461 -1.0134,1.0183 -2.1491,1.7918 -3.4469,2.3204 -1.3383,0.5702 -2.7577,0.8558 -4.2175,0.8558 H 57.1432 L 47.127,95.6859 h 14.3145 c 2.7981,0 5.5559,-0.5702 8.1109,-1.6284 2.474,-1.059 4.7044,-2.5653 6.651,-4.479 1.9054,-1.9131 3.4065,-4.1531 4.4605,-6.677 1.0953,-2.6061 1.6227,-5.334 1.6227,-8.1433 V 60.3853 L 72.2694,70.4424 Z" fill="#00b1c9" id="path107"></path>
  </g>
</svg>
