<?xml version="1.0" encoding="UTF-8" standalone="no"?>
<!-- Created with Inkscape (http://www.inkscape.org/) -->

<svg
   version="1.1"
   id="svg2"
   xml:space="preserve"
   width="442.66666"
   height="220"
   viewBox="0 0 442.66666 220"
   sodipodi:docname="SAP.svg"
   inkscape:version="1.1.1 (3bf5ae0d25, 2021-09-20)"
   xmlns:inkscape="http://www.inkscape.org/namespaces/inkscape"
   xmlns:sodipodi="http://sodipodi.sourceforge.net/DTD/sodipodi-0.dtd"
   xmlns="http://www.w3.org/2000/svg"
   xmlns:svg="http://www.w3.org/2000/svg"><defs
     id="defs6"><linearGradient
       x1="0"
       y1="0"
       x2="1"
       y2="0"
       gradientUnits="userSpaceOnUse"
       gradientTransform="matrix(0,-165.00049,-165.00049,0,305.99951,480)"
       spreadMethod="pad"
       id="linearGradient26"><stop
         style="stop-opacity:1;stop-color:#27b5e9"
         offset="0"
         id="stop22" /><stop
         style="stop-opacity:1;stop-color:#2f60ad"
         offset="1"
         id="stop24" /></linearGradient><clipPath
       clipPathUnits="userSpaceOnUse"
       id="clipPath36"><path
         d="M 0,792 H 612 V 0 H 0 Z"
         id="path34" /></clipPath></defs><sodipodi:namedview
     id="namedview4"
     pagecolor="#ffffff"
     bordercolor="#666666"
     borderopacity="1.0"
     inkscape:pageshadow="2"
     inkscape:pageopacity="0.0"
     inkscape:pagecheckerboard="0"
     showgrid="false"
     inkscape:zoom="0.78030303"
     inkscape:cx="221.06796"
     inkscape:cy="111.49515"
     inkscape:window-width="1920"
     inkscape:window-height="1010"
     inkscape:window-x="-6"
     inkscape:window-y="-6"
     inkscape:window-maximized="1"
     inkscape:current-layer="g8"
     fit-margin-top="0"
     fit-margin-left="0"
     fit-margin-right="0"
     fit-margin-bottom="0" /><g
     id="g8"
     inkscape:groupmode="layer"
     inkscape:label="SAP"
     transform="matrix(1.3333333,0,0,-1.3333333,-186.66666,639.99998)"><g
       id="g10"><g
         id="g12"><g
           id="g18"><g
             id="g20"><path
               d="M 140,480 H 472 L 307.5,315 H 140 Z"
               style="fill:url(#linearGradient26);stroke:none"
               id="path28" /></g></g></g></g><g
       id="g30"><g
         id="g32"
         clip-path="url(#clipPath36)"><g
           id="g38"
           transform="translate(338.8535,400.6289)"><path
             d="M 0,0 H -7.201 V 26.329 H 0 c 9.599,0 17.236,-3.183 17.236,-13.013 C 17.236,3.187 9.599,0 0,0 m -77.412,-18.775 c -3.804,0 -7.385,0.676 -10.468,1.848 l 10.359,32.658 h 0.212 l 10.145,-32.752 c -3.046,-1.105 -6.53,-1.754 -10.248,-1.754 m 75.49,66.466 -32.662,0.008 v -77.656 l -28.539,77.656 h -28.291 l -24.369,-64.937 c -2.579,16.365 -19.521,22.032 -32.853,26.271 -8.815,2.821 -18.129,6.985 -18.046,11.578 0.06,3.766 5.014,7.27 14.783,6.741 6.567,-0.355 12.373,-0.877 23.891,-6.445 l 11.371,19.767 c -10.538,5.361 -25.086,8.736 -37.003,8.756 h -0.08 c -13.899,0 -25.489,-4.516 -32.666,-11.932 -5.001,-5.186 -7.699,-11.758 -7.82,-19.05 -0.177,-10.029 3.498,-17.132 11.227,-22.812 6.508,-4.773 14.851,-7.878 22.202,-10.167 9.064,-2.799 16.465,-5.239 16.375,-10.446 -0.039,-1.9 -0.77,-3.661 -2.136,-5.093 -2.267,-2.339 -5.733,-3.218 -10.527,-3.31 -9.266,-0.184 -16.124,1.263 -27.05,7.719 l -10.091,-20.035 c 10.91,-6.204 23.818,-9.837 36.975,-9.837 l 1.696,0.014 c 11.47,0.204 20.717,3.485 28.12,9.43 0.407,0.326 0.8,0.683 1.189,1.029 l -3.267,-8.759 h 29.661 l 4.984,15.146 c 5.214,-1.758 11.14,-2.756 17.436,-2.756 6.121,0 11.912,0.938 17.032,2.617 l 4.796,-15.007 h 48.383 v 31.368 H 3.352 c 25.509,0 40.613,12.986 40.613,34.764 0,24.251 -14.666,35.378 -45.887,35.378"
             style="fill:#ffffff;fill-opacity:1;fill-rule:evenodd;stroke:none"
             id="path40" /></g><g
           id="g42"
           transform="translate(354.248,326.415)"><path
             d="M 0,0 V 3.791 H 2.544 C 3.814,3.791 5.188,3.52 5.188,1.993 5.188,0.098 3.789,0 2.232,0 Z m 0,-1.582 h 2.141 l 3.231,-5.315 h 2.093 l -3.503,5.402 c 1.802,0.212 3.186,1.176 3.186,3.375 0,2.418 -1.431,3.491 -4.328,3.491 H -1.854 V -6.897 H 0 Z m 2.259,-9.833 c 5.79,0 10.751,4.518 10.751,10.672 0,6.114 -4.961,10.62 -10.751,10.62 -5.863,0 -10.812,-4.506 -10.812,-10.62 0,-6.154 4.949,-10.672 10.812,-10.672 m -8.671,10.672 c 0,5.041 3.803,8.857 8.671,8.857 4.804,0 8.612,-3.816 8.612,-8.857 0,-5.126 -3.808,-8.894 -8.612,-8.894 -4.868,0 -8.671,3.768 -8.671,8.894"
             style="fill:#2f60ad;fill-opacity:1;fill-rule:evenodd;stroke:none"
             id="path44" /></g></g></g></g></svg>
