<?xml version="1.0" encoding="UTF-8" standalone="no"?>
<!-- Created with Inkscape (http://www.inkscape.org/) -->

<svg
   version="1.1"
   id="svg2"
   xml:space="preserve"
   width="506.98904"
   height="142.52679"
   viewBox="0 0 506.98904 142.52679"
   sodipodi:docname="NavopsByUniva.svg"
   inkscape:version="1.1.1 (3bf5ae0d25, 2021-09-20)"
   xmlns:inkscape="http://www.inkscape.org/namespaces/inkscape"
   xmlns:sodipodi="http://sodipodi.sourceforge.net/DTD/sodipodi-0.dtd"
   xmlns="http://www.w3.org/2000/svg"
   xmlns:svg="http://www.w3.org/2000/svg"><defs
     id="defs6"><clipPath
       clipPathUnits="userSpaceOnUse"
       id="clipPath16"><path
         d="M 0,1224 H 792 V 0 H 0 Z"
         id="path14" /></clipPath></defs><sodipodi:namedview
     id="namedview4"
     pagecolor="#ffffff"
     bordercolor="#666666"
     borderopacity="1.0"
     inkscape:pageshadow="2"
     inkscape:pageopacity="0.0"
     inkscape:pagecheckerboard="0"
     showgrid="false"
     fit-margin-top="0"
     fit-margin-left="0"
     fit-margin-right="0"
     fit-margin-bottom="0"
     inkscape:zoom="0.50490196"
     inkscape:cx="254.50485"
     inkscape:cy="71.300971"
     inkscape:window-width="1920"
     inkscape:window-height="1010"
     inkscape:window-x="-6"
     inkscape:window-y="-6"
     inkscape:window-maximized="1"
     inkscape:current-layer="g8" /><g
     id="g8"
     inkscape:groupmode="layer"
     inkscape:label="NavopsByUniva"
     transform="matrix(1.3333333,0,0,-1.3333333,-273.29226,887.56211)"><g
       id="g10"><g
         id="g12"
         clip-path="url(#clipPath16)"><g
           id="g18"
           transform="translate(215.7422,656.1924)"><path
             d="m 0,0 h 0.269 c 4.446,6.061 14.403,9.427 22.214,9.427 17.506,0 25.713,-12.658 25.713,-27.472 V -55.616 H 37.423 v 35.684 c 0,10.237 -4.975,19.393 -17.5,19.393 C 5.109,-0.539 0,-14.275 0,-25.585 V -55.616 H -10.773 V 7.677 H 0 V 0"
             style="fill:#3f3b34;fill-opacity:1;fill-rule:evenodd;stroke:none"
             id="path20" /></g><g
           id="g22"
           transform="translate(280.7441,632.8965)"><path
             d="m 0,0 c 0,-12.39 7.272,-24.106 20.739,-24.106 13.87,0 21.142,11.177 21.142,23.971 0,12.657 -7.946,22.892 -21.276,22.892 C 8.08,22.757 0,11.85 0,0 M 52.117,-32.32 H 41.344 v 8.753 h -0.271 c -5.52,-7.003 -12.928,-10.505 -21.815,-10.505 -18.584,0 -30.3,15.756 -30.3,33.263 0,18.045 11.447,33.532 30.434,33.532 8.619,0 16.43,-4.039 21.681,-10.775 h 0.271 v 9.025 h 10.773 z"
             style="fill:#3f3b34;fill-opacity:1;fill-rule:evenodd;stroke:none"
             id="path24" /></g><g
           id="g26"
           transform="translate(448.2441,661.2676)"><path
             d="M 0,0 -4.076,-9.282 C 2.199,-13.466 6.02,-20.798 6.02,-29.046 c 0,-6.44 -2.276,-12.278 -6.208,-16.517 l 6.086,-8.288 c 6.688,6.054 10.895,14.797 10.895,24.671 C 16.793,-16.623 10.079,-5.748 0,0"
             style="fill:#a9b439;fill-opacity:1;fill-rule:evenodd;stroke:none"
             id="path28" /></g><g
           id="g30"
           transform="translate(409.3594,633.8906)"><path
             d="m 0,0 c 0.761,12.034 9.67,21.763 22.416,21.763 1.632,0 3.199,-0.164 4.697,-0.468 l 4.059,9.243 c -2.787,0.752 -5.711,1.191 -8.756,1.191 -18.379,0 -32.914,-14.625 -33.233,-32.92 L 0,0"
             style="fill:#775169;fill-opacity:1;fill-rule:evenodd;stroke:none"
             id="path32" /></g><g
           id="g34"
           transform="translate(441.2988,610.8252)"><path
             d="m 0,0 c -2.831,-1.298 -6.029,-2.035 -9.523,-2.035 -10.957,0 -19.081,7.098 -21.633,16.801 l -10.726,-1.182 c 3.433,-14.785 16.544,-25.585 32.359,-25.585 5.627,0 10.908,1.38 15.541,3.806 L 0,0"
             style="fill:#1b697c;fill-opacity:1;fill-rule:evenodd;stroke:none"
             id="path36" /></g><g
           id="g38"
           transform="translate(483.5664,632.8965)"><path
             d="m 0,0 c 0,-12.39 7.272,-24.106 20.74,-24.106 13.869,0 21.142,11.177 21.142,23.971 0,12.657 -7.945,22.892 -21.278,22.892 C 8.08,22.757 0,11.85 0,0 m 0.537,21.948 h 0.272 c 5.251,7.003 13.062,10.775 21.814,10.775 18.584,0 30.301,-16.026 30.301,-33.532 0,-18.045 -11.445,-33.263 -30.434,-33.263 -8.619,0 -16.564,3.771 -21.681,10.638 H 0.537 v -44.439 h -10.77 v 98.846 h 10.77 z"
             style="fill:#3f3b34;fill-opacity:1;fill-rule:evenodd;stroke:none"
             id="path40" /></g><g
           id="g42"
           transform="translate(369.937,621.3154)"><path
             d="m 0,0 18.855,42.554 h 12.12 L 0,-24.914 -31.107,42.554 h 12.254 z"
             style="fill:#3f3b34;fill-opacity:1;fill-rule:evenodd;stroke:none"
             id="path44" /></g><g
           id="g46"
           transform="translate(574.958,632.6836)"><path
             d="m 0,0 c -5.534,3.606 -22.983,6.902 -22.47,14.943 0.339,5.303 4.444,8.9 10.235,8.9 7.136,0 10.234,-3.831 12.927,-9.27 l 9.561,3.707 c -3.367,9.146 -11.715,14.708 -22.354,14.708 -11.714,0 -21.412,-7.91 -21.412,-18.91 0,-7.813 4.789,-12.111 9.879,-14.988 4.835,-2.735 21.876,-6.903 22.843,-14.903 0.638,-5.277 -4.442,-8.901 -10.233,-8.901 -7.138,0 -10.235,3.832 -12.929,9.271 l -9.56,-3.707 c 3.367,-9.147 11.715,-14.709 22.354,-14.709 11.715,0 21.412,7.91 21.412,18.91 C 10.253,-7.135 5.33,-3.473 0,0"
             style="fill:#3f3b34;fill-opacity:1;fill-rule:evenodd;stroke:none"
             id="path48" /></g><g
           id="g50"
           transform="translate(505.7305,570.5088)"><path
             d="m 0,0 c 0,2.127 -1.287,3.927 -3.554,3.927 -2.174,0 -3.459,-1.893 -3.459,-3.927 0,-2.056 1.239,-3.973 3.459,-3.973 C -1.263,-3.973 0,-2.15 0,0 m -9,14.818 h 2.104 V 3.646 h 0.045 c 0.868,1.309 2.175,2.151 3.812,2.151 3.156,0 5.142,-2.734 5.142,-5.726 0,-3.133 -1.87,-5.914 -5.236,-5.914 -1.543,0 -2.875,0.841 -3.718,2.08 H -6.896 V -5.469 H -9 Z"
             style="fill:#3f3b34;fill-opacity:1;fill-rule:evenodd;stroke:none"
             id="path52" /></g><g
           id="g54"
           transform="translate(508.1338,575.9775)"><path
             d="M 0,0 H 2.455 L 6.147,-6.94 9.584,0 h 2.36 L 3.087,-17.201 H 0.701 l 4.301,8.134 z"
             style="fill:#3f3b34;fill-opacity:1;fill-rule:evenodd;stroke:none"
             id="path56" /></g><g
           id="g58"
           transform="translate(530.0762,582.6631)"><path
             d="m 0,0 v -10.401 c 0,-2.875 0.865,-5.54 4.254,-5.54 3.391,0 4.254,2.665 4.254,5.54 V 0 h 2.197 v -11.149 c 0,-3.88 -2.406,-6.848 -6.451,-6.848 -4.043,0 -6.45,2.968 -6.45,6.848 L -2.196,0 H 0"
             style="fill:#3f3b34;fill-opacity:1;fill-rule:evenodd;stroke:none"
             id="path60" /></g><g
           id="g62"
           transform="translate(545.6875,574.5059)"><path
             d="m 0,0 h 0.047 c 0.652,1.169 1.963,1.8 3.295,1.8 3.086,0 3.881,-2.081 3.881,-4.745 V -9.466 H 5.117 v 6.264 c 0,1.87 -0.256,3.132 -2.406,3.132 C 0,-0.07 0,-2.454 0,-4.44 V -9.466 H -2.105 V 1.472 H 0 V 0"
             style="fill:#3f3b34;fill-opacity:1;fill-rule:evenodd;stroke:none"
             id="path64" /></g><path
           d="m 556.273,575.978 h 2.102 V 565.04 h -2.102 z m 2.5,5.002 c 0,-0.795 -0.654,-1.425 -1.449,-1.425 -0.795,0 -1.449,0.63 -1.449,1.425 0,0.819 0.654,1.472 1.449,1.472 0.795,0 1.449,-0.653 1.449,-1.472"
           style="fill:#3f3b34;fill-opacity:1;fill-rule:evenodd;stroke:none"
           id="path66" /><g
           id="g68"
           transform="translate(565.4785,569.1533)"><path
             d="M 0,0 3.156,6.824 H 5.518 L 0,-4.487 -5.492,6.824 h 2.361 z"
             style="fill:#3f3b34;fill-opacity:1;fill-rule:evenodd;stroke:none"
             id="path70" /></g><g
           id="g72"
           transform="translate(580.4121,570.5088)"><path
             d="m 0,0 c 0,2.127 -1.285,3.927 -3.553,3.927 -2.174,0 -3.461,-1.893 -3.461,-3.927 0,-2.056 1.241,-3.973 3.461,-3.973 C -1.264,-3.973 0,-2.15 0,0 m 1.986,-5.469 h -2.103 v 1.706 h -0.047 c -0.841,-1.239 -2.15,-2.08 -3.716,-2.08 -3.343,0 -5.235,2.781 -5.235,5.914 0,2.992 1.986,5.726 5.166,5.726 1.613,0 2.92,-0.842 3.785,-2.151 h 0.047 v 1.823 h 2.103 z"
             style="fill:#3f3b34;fill-opacity:1;fill-rule:evenodd;stroke:none"
             id="path74" /></g></g></g></g></svg>
