<?xml version="1.0" encoding="UTF-8" standalone="no"?>
<!-- Created with Inkscape (http://www.inkscape.org/) -->

<svg
   version="1.1"
   id="svg68459"
   xml:space="preserve"
   width="2560"
   height="1002.6227"
   viewBox="0 0 2560 1002.6227"
   sodipodi:docname="cast_logo_black.svg"
   inkscape:version="1.1.1 (3bf5ae0d25, 2021-09-20)"
   xmlns:inkscape="http://www.inkscape.org/namespaces/inkscape"
   xmlns:sodipodi="http://sodipodi.sourceforge.net/DTD/sodipodi-0.dtd"
   xmlns="http://www.w3.org/2000/svg"
   xmlns:svg="http://www.w3.org/2000/svg"><defs
     id="defs68463"><clipPath
       clipPathUnits="userSpaceOnUse"
       id="clipPath68473"><path
         d="M 0,751.967 H 1920 V 0 H 0 Z"
         id="path68471" /></clipPath></defs><sodipodi:namedview
     id="namedview68461"
     pagecolor="#ffffff"
     bordercolor="#666666"
     borderopacity="1.0"
     inkscape:pageshadow="2"
     inkscape:pageopacity="0.0"
     inkscape:pagecheckerboard="0"
     showgrid="false"
     inkscape:zoom="0.44257812"
     inkscape:cx="1280"
     inkscape:cy="501.60635"
     inkscape:window-width="1920"
     inkscape:window-height="1010"
     inkscape:window-x="-6"
     inkscape:window-y="-6"
     inkscape:window-maximized="1"
     inkscape:current-layer="g68465" /><g
     id="g68465"
     inkscape:groupmode="layer"
     inkscape:label="cast_logo_black"
     transform="matrix(1.3333333,0,0,-1.3333333,0,1002.6227)"><g
       id="g68467"><g
         id="g68469"
         clip-path="url(#clipPath68473)"><g
           id="g68475"
           transform="translate(477.4444,416.5695)"><path
             d="m 0,0 28.136,28.137 c 0.374,0.373 0.747,0.747 0.996,1.12 l 0.125,-0.125 z"
             style="fill:#000000;fill-opacity:1;fill-rule:nonzero;stroke:none"
             id="path68477" /></g><g
           id="g68479"
           transform="translate(569.8218,312.4894)"><path
             d="m 0,0 c 5.229,-12.823 7.719,-26.518 7.719,-39.964 0,-13.57 -2.49,-27.14 -7.719,-39.964 -5.229,-12.823 -13.072,-24.899 -23.406,-35.108 l -165.955,-166.329 c -10.333,-10.333 -22.41,-18.177 -35.109,-23.281 -12.823,-5.229 -26.393,-7.843 -39.964,-7.843 -13.57,0 -27.14,2.614 -39.963,7.843 -12.824,5.229 -24.9,13.072 -35.233,23.281 l -21.538,21.538 -175.915,175.915 c -9.711,9.711 -17.679,21.04 -23.406,33.739 -5.727,12.699 -9.333,26.767 -9.333,41.458 v 2.116 143.92 0.622 c 0.996,27.39 11.823,52.538 30.498,71.213 l 199.196,199.197 c 20.667,20.666 48.056,31.249 75.072,31.124 13.57,0 27.14,-2.49 39.964,-7.719 12.823,-5.229 24.9,-13.072 35.233,-23.405 L -22.783,241.277 c 10.333,-10.334 18.177,-22.285 23.281,-35.109 5.229,-12.823 7.843,-26.393 7.843,-39.963 0,-13.571 -2.614,-27.141 -7.719,-39.964 -5.228,-12.824 -13.072,-24.9 -23.405,-35.233 L -50.92,62.872 -92.502,21.289 -189.859,-76.068 c -10.333,-10.333 -22.41,-18.177 -35.109,-23.281 -12.823,-5.229 -26.518,-7.843 -39.964,-7.843 -13.445,0 -27.14,2.614 -39.964,7.843 -12.823,5.229 -24.899,13.072 -35.107,23.281 l -17.306,16.932 -46.189,46.188 c -10.333,10.334 -18.176,22.41 -23.405,35.233 -5.104,12.823 -7.719,26.394 -7.719,39.964 0,13.57 2.615,27.14 7.719,39.963 5.229,12.824 13.072,24.9 23.405,35.233 l 63.619,63.619 c 10.333,10.333 22.41,18.177 35.108,23.405 12.824,5.229 26.394,7.719 39.964,7.719 13.57,0 27.14,-2.49 39.964,-7.719 12.823,-5.229 24.9,-13.072 35.233,-23.281 l 62.622,-62.622 -41.458,-41.458 -62.622,62.498 c -4.731,4.731 -9.96,8.092 -15.811,10.458 -5.727,2.365 -11.828,3.486 -17.928,3.486 -6.1,0 -12.201,-1.121 -17.927,-3.486 -5.727,-2.366 -10.956,-5.727 -15.812,-10.458 L -362.04,95.863 c -4.731,-4.731 -8.092,-9.96 -10.458,-15.811 -2.365,-5.727 -3.485,-11.827 -3.485,-17.927 0,-6.101 1.245,-12.202 3.485,-17.928 2.366,-5.727 5.727,-10.956 10.458,-15.812 l 46.189,-46.188 17.181,-17.181 c 4.731,-4.731 9.96,-8.092 15.687,-10.458 5.726,-2.365 11.827,-3.486 17.927,-3.486 6.1,0 12.201,1.121 17.928,3.486 5.727,2.366 10.956,5.852 15.811,10.458 l 12.948,12.948 155.248,155.248 -0.124,0.125 c 4.233,4.482 7.346,9.337 9.462,14.691 2.366,5.727 3.486,11.827 3.486,17.928 0,6.1 -1.121,12.2 -3.486,17.927 -2.366,5.727 -5.727,10.956 -10.458,15.811 l -166.951,166.952 c -4.731,4.731 -10.085,8.092 -15.812,10.458 -5.726,2.365 -11.827,3.486 -18.052,3.486 -6.1,0 -12.201,-1.121 -17.927,-3.486 -5.727,-2.366 -10.956,-5.852 -15.687,-10.458 L -496.866,167.45 c -8.84,-8.84 -13.82,-20.045 -14.318,-31.498 V 135.827 -6.972 -8.715 c 0,-5.851 1.49,-11.578 4.104,-17.43 2.615,-5.727 6.475,-11.453 11.33,-16.309 l 175.915,-175.791 21.538,-21.538 c 4.731,-4.731 9.96,-8.217 15.687,-10.458 5.727,-2.365 11.827,-3.486 17.927,-3.486 6.101,0 12.202,1.246 17.928,3.486 5.727,2.366 10.956,5.727 15.812,10.458 l 165.955,165.956 c 4.731,4.731 8.092,9.96 10.458,15.811 2.365,5.727 3.486,11.828 3.486,17.928 0,6.1 -1.121,12.201 -3.486,17.927 -0.996,2.366 -2.116,4.607 -3.486,6.723 l 42.08,42.081 C -9.213,18.426 -3.859,9.462 0,0"
             style="fill:#000000;fill-opacity:1;fill-rule:nonzero;stroke:none"
             id="path68481" /></g><g
           id="g68483"
           transform="translate(1006.9337,319.4611)"><path
             d="m 0,0 c -3.984,-20.168 -10.956,-38.221 -21.414,-54.156 -10.209,-15.936 -22.783,-29.382 -37.474,-40.089 -14.566,-10.831 -30.751,-18.923 -48.305,-24.65 -17.803,-5.478 -35.731,-8.466 -54.281,-8.466 -25.398,0 -48.305,4.731 -68.847,13.944 -20.542,9.337 -37.972,22.036 -52.663,38.096 -14.69,16.185 -26.02,35.358 -33.988,57.518 -7.967,22.16 -11.951,46.189 -11.951,72.084 0,25.896 3.984,49.924 11.951,72.084 7.968,22.161 19.422,41.458 34.237,57.767 14.816,16.309 32.868,29.257 54.032,38.346 21.165,9.337 44.571,13.943 70.342,13.943 18.924,0 37.224,-2.863 54.654,-8.963 17.43,-5.976 32.992,-14.567 46.811,-25.522 13.82,-10.832 25.398,-24.153 34.86,-39.591 7.843,-12.823 13.57,-27.016 17.305,-42.702 h -75.197 c -4.606,14.192 -12.698,26.02 -24.65,35.482 -14.691,11.578 -32.619,17.429 -53.659,17.429 -12.076,0 -23.53,-2.241 -34.61,-6.723 -10.956,-4.606 -20.667,-11.578 -29.008,-21.414 -8.466,-9.586 -15.189,-21.662 -20.044,-36.353 -4.856,-14.69 -7.47,-32.245 -7.47,-53.036 0,-20.666 2.614,-38.345 7.47,-53.285 4.855,-14.815 11.578,-27.016 20.044,-36.851 8.466,-9.586 18.052,-16.808 28.759,-21.289 10.706,-4.606 21.662,-6.723 32.867,-6.723 9.462,0 18.799,1.12 27.888,3.237 9.088,2.116 17.429,5.851 25.273,10.831 7.594,5.229 14.442,11.827 20.044,19.671 5.478,7.967 9.586,17.803 12.201,29.381 z"
             style="fill:#000000;fill-opacity:1;fill-rule:nonzero;stroke:none"
             id="path68485" /></g><g
           id="g68487"
           transform="translate(1207.8732,355.0675)"><path
             d="m 0,0 c -19.422,-3.486 -35.357,-7.719 -47.808,-12.948 -12.45,-5.229 -21.663,-11.329 -27.513,-18.426 -5.852,-7.096 -8.715,-15.562 -8.715,-25.522 0,-15.063 5.85,-26.891 17.43,-35.481 11.578,-8.591 27.14,-12.948 46.561,-12.948 28.386,0 50.671,7.221 66.607,21.662 15.935,14.442 23.903,36.478 23.903,66.233 V 9.088 C 42.827,6.474 19.297,3.362 0,0 m -88.892,-155.373 c -15.686,4.98 -29.256,11.952 -40.711,21.04 -11.454,9.088 -20.293,19.92 -26.518,32.619 -6.225,12.698 -9.337,27.016 -9.337,42.951 0,21.538 6.225,39.466 18.675,53.659 12.449,14.192 29.381,25.896 50.671,34.859 21.289,9.088 46.063,15.936 74.324,20.667 28.262,4.731 58.266,8.839 90.137,12.325 v 6.474 c 0,14.691 -1.868,27.016 -5.852,37.1 -3.859,10.085 -9.213,18.053 -15.81,23.904 -6.724,5.851 -14.443,9.96 -23.282,12.574 -8.84,2.615 -17.927,3.86 -27.513,3.86 -19.422,0 -35.607,-5.229 -48.804,-15.563 -13.196,-10.333 -20.168,-26.02 -21.04,-47.184 h -75.57 c 1.245,17.678 5.851,33.863 13.57,48.429 7.719,14.691 18.053,27.265 31,37.847 12.948,10.583 28.137,18.675 45.566,24.527 17.43,5.851 36.727,8.715 57.767,8.715 20.667,0 40.089,-2.615 58.14,-7.72 18.053,-5.229 33.864,-13.57 47.185,-25.148 13.321,-11.578 23.655,-27.016 31,-46.188 7.346,-19.173 10.832,-42.579 10.334,-70.093 0,-4.357 -0.125,-9.96 -0.374,-16.807 -0.249,-6.848 -0.373,-14.442 -0.373,-22.659 0,-8.216 -0.125,-16.682 -0.374,-25.522 -0.249,-8.839 -0.373,-17.18 -0.373,-24.899 0,-21.912 0.871,-43.574 2.614,-64.988 1.743,-21.289 4.358,-39.342 7.719,-53.907 H 83.413 c -1.245,7.345 -2.49,13.943 -3.61,20.043 -1.121,5.977 -1.992,15.065 -2.864,27.141 -11.205,-18.924 -26.642,-32.992 -46.189,-41.956 -19.546,-9.088 -42.329,-13.57 -68.1,-13.57 -18.425,0 -35.855,2.49 -51.542,7.47"
             style="fill:#000000;fill-opacity:1;fill-rule:nonzero;stroke:none"
             id="path68489" /></g><g
           id="g68491"
           transform="translate(1602.2814,487.1598)"><path
             d="m 0,0 c -13.57,6.723 -30.004,9.96 -49.425,9.96 -16.807,0 -31.747,-3.486 -44.944,-10.334 -13.072,-6.847 -19.671,-16.184 -19.671,-27.763 0,-11.578 3.984,-20.666 11.952,-27.14 7.968,-6.474 19.546,-11.205 34.61,-14.193 l 49.053,-9.711 c 17.678,-3.486 33.988,-7.594 49.052,-12.325 15.064,-4.731 28.261,-11.08 39.466,-19.048 11.205,-7.968 19.92,-17.803 26.144,-29.382 6.225,-11.578 9.337,-25.895 9.337,-42.578 0,-18.052 -3.983,-34.112 -11.951,-48.18 -7.968,-13.944 -18.675,-25.771 -32.245,-35.233 -13.57,-9.462 -29.133,-16.683 -46.812,-21.663 -17.678,-4.98 -36.353,-7.47 -56.272,-7.47 -21.538,0 -40.96,2.864 -58.515,8.715 -17.429,5.851 -32.618,13.819 -45.565,23.904 -12.948,10.084 -23.406,22.16 -31.374,36.229 -7.968,13.943 -13.072,29.132 -15.189,45.566 h 74.949 c 3.485,-18.053 11.578,-31.996 24.525,-41.707 12.948,-9.711 30.751,-14.566 53.658,-14.566 20.294,0 36.977,3.983 50.049,11.951 13.072,7.968 19.67,19.049 19.67,33.241 0,14.193 -5.727,24.9 -17.181,31.996 -11.453,7.097 -25.77,12.326 -42.951,15.812 l -52.289,10.333 c -14.691,2.988 -28.261,6.972 -41.084,11.952 -12.699,4.979 -23.779,11.453 -33.241,19.421 -9.462,7.968 -16.932,17.679 -22.285,29.008 -5.354,11.454 -8.093,25.149 -8.093,41.084 0,15.562 3.859,29.382 11.579,41.707 7.719,12.326 18.052,22.783 31,31.622 12.947,8.84 27.887,15.563 44.943,20.293 17.056,4.731 34.984,7.097 53.908,7.097 16.807,0 33.116,-1.992 49.052,-6.1 C 19.796,58.389 34.237,52.04 47.186,43.45 60.133,34.859 71.089,24.028 80.177,11.08 89.266,-1.868 95.49,-16.932 98.852,-34.113 H 26.519 C 22.41,-17.928 13.57,-6.723 0,0"
             style="fill:#000000;fill-opacity:1;fill-rule:nonzero;stroke:none"
             id="path68493" /></g><g
           id="g68495"
           transform="translate(1850.2814,484.172)"><path
             d="m 0,0 v -211.896 h 69.719 v -71.71 h -89.265 c -31.747,0 -57.393,25.771 -57.393,57.394 V 0 h -50.048 v 65.361 h 50.048 V 137.22 H 0 V 65.361 H 69.719 L 69.719,0 Z"
             style="fill:#000000;fill-opacity:1;fill-rule:nonzero;stroke:none"
             id="path68497" /></g></g></g></g></svg>
