<?xml version="1.0" encoding="UTF-8" standalone="no"?>
<!-- Created with Inkscape (http://www.inkscape.org/) -->

<svg
   version="1.1"
   id="svg2"
   xml:space="preserve"
   width="696.88757"
   height="106.41573"
   viewBox="0 0 696.88757 106.41573"
   sodipodi:docname="Blue_Medora_Logo_18_RGB.svg"
   inkscape:version="1.1.1 (3bf5ae0d25, 2021-09-20)"
   xmlns:inkscape="http://www.inkscape.org/namespaces/inkscape"
   xmlns:sodipodi="http://sodipodi.sourceforge.net/DTD/sodipodi-0.dtd"
   xmlns="http://www.w3.org/2000/svg"
   xmlns:svg="http://www.w3.org/2000/svg"><defs
     id="defs6" /><sodipodi:namedview
     id="namedview4"
     pagecolor="#ffffff"
     bordercolor="#666666"
     borderopacity="1.0"
     inkscape:pageshadow="2"
     inkscape:pageopacity="0.0"
     inkscape:pagecheckerboard="0"
     showgrid="false"
     fit-margin-top="0"
     fit-margin-left="0"
     fit-margin-right="0"
     fit-margin-bottom="0"
     inkscape:zoom="1.3602941"
     inkscape:cx="345.88108"
     inkscape:cy="67.632432"
     inkscape:window-width="1920"
     inkscape:window-height="1010"
     inkscape:window-x="-6"
     inkscape:window-y="-6"
     inkscape:window-maximized="1"
     inkscape:current-layer="g8" /><g
     id="g8"
     inkscape:groupmode="layer"
     inkscape:label="ink_ext_XXXXXX"
     transform="matrix(1.3333333,0,0,-1.3333333,-61.748398,199.12933)"><g
       id="g10"
       transform="scale(0.1)"><path
         d="m 811.938,843.961 c -12.727,-23.281 -30.043,-41.563 -51.973,-54.82 -21.93,-13.262 -46.442,-19.891 -73.512,-19.891 -27.074,0 -51.566,6.629 -73.492,19.891 -21.938,13.257 -39.129,31.539 -51.574,54.82 -12.461,23.277 -18.684,49.258 -18.684,77.969 0,28.699 6.223,54.539 18.684,77.574 12.445,22.986 29.636,41.136 51.574,54.406 21.926,13.26 46.418,19.89 73.492,19.89 27.07,0 51.582,-6.63 73.512,-19.89 21.93,-13.27 39.246,-31.42 51.973,-54.406 12.714,-23.035 19.085,-48.875 19.085,-77.574 0,-28.711 -6.371,-54.692 -19.085,-77.969 z m -3.247,273.699 c -31.675,19.49 -67.003,29.23 -105.988,29.23 -31.41,0 -60.64,-6.48 -87.715,-19.47 -27.082,-12.99 -50.082,-31.15 -69.031,-54.43 v 195.64 c 0,12.43 -3.801,22.44 -11.367,30.04 -7.594,7.58 -17.602,11.37 -30.055,11.37 -11.914,0 -21.801,-3.79 -29.64,-11.37 -7.852,-7.6 -11.782,-17.61 -11.782,-30.04 v -346.7 c 0,-42.239 9.875,-80.539 29.641,-114.918 19.766,-34.391 46.566,-61.461 80.41,-81.223 33.828,-19.769 71.594,-29.629 113.289,-29.629 41.692,0 79.731,9.86 114.113,29.629 34.379,19.762 61.325,46.832 80.813,81.223 19.488,34.379 29.234,72.679 29.234,114.918 0,42.242 -9.07,80.55 -27.199,114.92 -18.148,34.37 -43.047,61.33 -74.723,80.81"
         style="fill:#65bdec;fill-opacity:1;fill-rule:nonzero;stroke:none"
         id="path12" /><path
         d="m 1135.58,780.621 h -20.31 c -11.92,0 -21.66,6.5 -29.24,19.488 -7.58,13 -11.36,29.5 -11.36,49.551 v 419.78 c 0,11.9 -3.8,21.63 -11.38,29.23 -7.58,7.58 -17.34,11.37 -29.23,11.37 -11.93,0 -21.67,-3.79 -29.24,-11.37 -7.593,-7.6 -11.375,-17.33 -11.375,-29.23 V 849.66 c 0,-28.719 5.141,-54.558 15.435,-77.558 10.28,-23.024 24.77,-40.911 43.44,-53.614 18.69,-12.726 39.66,-19.097 62.95,-19.097 h 1.62 c 16.24,0 29.51,3.789 39.79,11.379 10.29,7.558 15.44,17.32 15.44,29.23 0,11.91 -3.38,21.672 -10.15,29.25 -6.77,7.57 -15.57,11.371 -26.39,11.371"
         style="fill:#65bdec;fill-opacity:1;fill-rule:nonzero;stroke:none"
         id="path14" /><path
         d="m 1586.54,1144.46 c -11.91,0 -21.79,-3.78 -29.64,-11.37 -7.86,-7.6 -11.78,-17.59 -11.78,-30.04 V 874.02 c 0,-19.508 -5.27,-37.09 -15.83,-52.801 -10.56,-15.707 -25.17,-28.16 -43.86,-37.34 -18.68,-9.219 -39.39,-13.82 -62.13,-13.82 -38.98,0 -70.25,11.222 -93.81,33.691 -23.55,22.48 -35.32,55.641 -35.32,99.5 v 199.8 c 0,11.9 -3.94,21.79 -11.78,29.63 -7.85,7.85 -17.74,11.78 -29.65,11.78 -11.91,0 -21.8,-3.93 -29.63,-11.78 -7.86,-7.84 -11.78,-17.73 -11.78,-29.63 v -199.8 c 0,-43.859 8.38,-81.359 25.17,-112.488 16.78,-31.133 40.06,-54.813 69.85,-71.063 29.77,-16.25 63.35,-24.347 100.71,-24.347 27.07,0 52.51,4.73 76.34,14.207 23.82,9.441 44.39,22.839 61.72,40.203 v -8.953 c 0,-11.911 3.92,-21.809 11.78,-29.629 7.85,-7.871 17.73,-11.789 29.64,-11.789 12.45,0 22.47,3.918 30.06,11.789 7.57,7.82 11.37,17.718 11.37,29.629 v 362.241 c 0,12.45 -3.8,22.44 -11.37,30.04 -7.59,7.59 -17.61,11.37 -30.06,11.37"
         style="fill:#65bdec;fill-opacity:1;fill-rule:nonzero;stroke:none"
         id="path16" /><path
         d="m 1783.09,957.66 c 6.49,36.278 22.05,65.23 46.7,86.9 24.62,21.67 56.7,32.5 96.24,32.5 35.73,0 64.68,-10.83 86.89,-32.5 22.2,-21.67 35.74,-50.622 40.61,-86.9 z m 250.95,161.62 c -30.33,18.4 -66.33,27.61 -108.01,27.61 -42.24,0 -80,-9.62 -113.31,-28.82 -33.29,-19.24 -59.28,-46.04 -77.95,-80.39 -18.69,-34.4 -28.03,-73.239 -28.03,-116.559 0,-43.32 9.88,-82.031 29.64,-116.152 19.76,-34.09 47.24,-60.778 82.44,-79.989 35.19,-19.218 74.98,-28.82 119.39,-28.82 24.9,0 51.02,4.59 78.37,13.801 27.34,9.199 50.22,21.109 68.63,35.738 8.65,6.492 12.99,14.61 12.99,24.36 0,10.269 -4.87,19.48 -14.62,27.621 -5.96,5.398 -14.08,8.121 -24.36,8.121 -10.29,0 -19.23,-2.992 -26.8,-8.93 -11.37,-8.68 -25.87,-16 -43.45,-21.941 -17.6,-5.969 -34.52,-8.942 -50.76,-8.942 -41.16,0 -75.94,11.641 -104.36,34.934 -28.43,23.269 -45.63,53.867 -51.57,91.769 h 308.61 c 10.83,0 19.76,3.368 26.8,10.149 7.04,6.769 10.56,15.289 10.56,25.59 0,42.761 -8.12,80.66 -24.36,113.7 -16.24,33.01 -39.53,58.75 -69.85,77.15"
         style="fill:#65bdec;fill-opacity:1;fill-rule:nonzero;stroke:none"
         id="path18" /><path
         d="m 2672.39,1147.7 c -29.79,0 -56.85,-5.67 -81.21,-17.05 -24.37,-11.37 -44.67,-27.08 -60.92,-47.11 -14.08,20.59 -32.08,36.42 -54.01,47.52 -21.92,11.1 -46.69,16.64 -74.31,16.64 -22.74,0 -43.85,-3.91 -63.35,-11.76 -19.49,-7.85 -36.28,-18.81 -50.35,-32.89 -0.55,11.9 -4.61,21.52 -12.19,28.82 -7.58,7.33 -17.32,10.97 -29.23,10.97 -11.92,0 -21.81,-3.8 -29.64,-11.38 -7.86,-7.59 -11.78,-17.59 -11.78,-30.03 V 740 c 0,-11.91 3.92,-21.809 11.78,-29.629 7.83,-7.871 17.72,-11.781 29.64,-11.781 12.45,0 22.46,3.91 30.06,11.781 7.56,7.82 11.36,17.719 11.36,29.629 v 229.031 c 0,30.321 9.06,55.229 27.21,74.719 18.13,19.51 41.55,29.24 70.25,29.24 27.62,0 49.67,-8.52 66.19,-25.58 16.5,-17.06 24.78,-42.1 24.78,-75.121 V 740 c 0,-11.91 3.91,-21.809 11.76,-29.629 7.85,-7.871 17.73,-11.781 29.66,-11.781 12.44,0 22.46,3.91 30.04,11.781 7.58,7.82 11.37,17.719 11.37,29.629 v 229.031 c 0,30.321 9.06,55.229 27.2,74.719 18.14,19.51 41.29,29.24 69.45,29.24 27.61,0 49.67,-8.52 66.19,-25.58 16.51,-17.06 24.77,-42.1 24.77,-75.121 V 740 c 0,-11.91 3.93,-21.809 11.78,-29.629 7.84,-7.871 17.73,-11.781 29.64,-11.781 12.45,0 22.46,3.91 30.05,11.781 7.57,7.82 11.37,17.719 11.37,29.629 v 232.289 c 0,55.231 -14.5,98.261 -43.45,129.141 -28.97,30.84 -67,46.27 -114.11,46.27"
         style="fill:#254e8a;fill-opacity:1;fill-rule:nonzero;stroke:none"
         id="path20" /><path
         d="m 2982.08,957.66 c 6.5,36.278 22.06,65.23 46.71,86.9 24.63,21.67 56.71,32.5 96.24,32.5 35.73,0 64.69,-10.83 86.89,-32.5 22.2,-21.67 35.75,-50.622 40.61,-86.9 z m 250.96,161.62 c -30.33,18.4 -66.32,27.61 -108.01,27.61 -42.24,0 -80,-9.62 -113.3,-28.82 -33.3,-19.24 -59.28,-46.04 -77.97,-80.39 -18.68,-34.4 -28.02,-73.239 -28.02,-116.559 0,-43.32 9.88,-82.031 29.64,-116.152 19.77,-34.09 47.24,-60.778 82.44,-79.989 35.19,-19.218 74.98,-28.82 119.39,-28.82 24.9,0 51.02,4.59 78.38,13.801 27.32,9.199 50.21,21.109 68.62,35.738 8.65,6.492 12.99,14.61 12.99,24.36 0,10.269 -4.87,19.48 -14.61,27.621 -5.97,5.398 -14.09,8.121 -24.37,8.121 -10.29,0 -19.23,-2.992 -26.79,-8.93 -11.38,-8.68 -25.87,-16 -43.46,-21.941 -17.6,-5.969 -34.52,-8.942 -50.76,-8.942 -41.16,0 -75.94,11.641 -104.36,34.934 -28.43,23.269 -45.63,53.867 -51.58,91.769 h 308.62 c 10.83,0 19.77,3.368 26.8,10.149 7.04,6.769 10.57,15.289 10.57,25.59 0,42.761 -8.13,80.66 -24.37,113.7 -16.25,33.01 -39.53,58.75 -69.85,77.15"
         style="fill:#254e8a;fill-opacity:1;fill-rule:nonzero;stroke:none"
         id="path22" /><path
         d="m 3747.14,843.961 c -12.46,-23.281 -29.64,-41.563 -51.57,-54.82 -21.93,-13.262 -46.43,-19.891 -73.5,-19.891 -27.08,0 -51.58,6.629 -73.51,19.891 -21.93,13.257 -39.25,31.539 -51.97,54.82 -12.73,23.277 -19.09,49.258 -19.09,77.969 0,28.699 6.36,54.539 19.09,77.574 12.72,22.986 30.04,41.136 51.97,54.406 21.93,13.26 46.43,19.89 73.51,19.89 27.07,0 51.57,-6.63 73.5,-19.89 21.93,-13.27 39.11,-31.42 51.57,-54.406 12.45,-23.035 18.68,-48.875 18.68,-77.574 0,-28.711 -6.23,-54.692 -18.68,-77.969 z m 56.85,466.079 c -11.91,0 -21.8,-3.79 -29.63,-11.37 -7.87,-7.6 -11.79,-17.61 -11.79,-30.04 v -195.64 c -18.96,23.28 -41.96,41.44 -69.03,54.43 -27.08,12.99 -56.32,19.47 -87.72,19.47 -38.98,0 -74.31,-9.74 -105.99,-29.23 -31.67,-19.48 -56.58,-46.44 -74.71,-80.81 -18.15,-34.37 -27.21,-72.678 -27.21,-114.92 0,-42.239 9.75,-80.539 29.24,-114.918 19.49,-34.391 46.42,-61.461 80.81,-81.223 34.37,-19.769 72.4,-29.629 114.11,-29.629 41.68,0 79.45,9.86 113.29,29.629 33.84,19.762 60.64,46.832 80.41,81.223 19.76,34.379 29.64,72.679 29.64,114.918 v 346.7 c 0,12.43 -3.8,22.44 -11.38,30.04 -7.57,7.58 -17.59,11.37 -30.04,11.37"
         style="fill:#254e8a;fill-opacity:1;fill-rule:nonzero;stroke:none"
         id="path24" /><path
         d="m 4268.91,842.73 c -12.19,-23.011 -29.24,-41 -51.18,-54 -21.92,-12.992 -46.69,-19.48 -74.3,-19.48 -27.62,0 -52.39,6.488 -74.32,19.48 -21.93,13 -39.12,30.989 -51.57,54 -12.46,23.02 -18.68,49.141 -18.68,78.391 0,29.238 6.22,55.5 18.68,78.785 12.45,23.254 29.64,41.414 51.57,54.414 21.93,12.99 46.7,19.48 74.32,19.48 27.61,0 52.38,-6.49 74.3,-19.48 21.94,-13 38.99,-31.16 51.18,-54.414 12.17,-23.285 18.27,-49.547 18.27,-78.785 0,-29.25 -6.1,-55.371 -18.27,-78.391 z m -10.56,275.34 c -33.85,19.2 -72.16,28.82 -114.92,28.82 -43.33,0 -82.03,-9.62 -116.14,-28.82 -34.12,-19.24 -60.65,-45.89 -79.59,-79.99 -18.96,-34.12 -28.43,-73.1 -28.43,-116.959 0,-43.32 9.47,-82.031 28.43,-116.152 18.94,-34.09 45.47,-60.778 79.59,-79.989 34.11,-19.218 72.81,-28.82 116.14,-28.82 43.31,0 81.88,9.602 115.73,28.82 33.83,19.211 60.22,45.899 79.18,79.989 18.95,34.121 28.43,72.832 28.43,116.152 0,43.859 -9.62,82.839 -28.83,116.959 -19.23,34.1 -45.77,60.75 -79.59,79.99"
         style="fill:#254e8a;fill-opacity:1;fill-rule:nonzero;stroke:none"
         id="path26" /><path
         d="m 4729.04,1135.52 c -16.24,8.67 -38.72,13 -67.41,13 -27.08,0 -52.52,-5.41 -76.34,-16.25 -23.83,-10.82 -43.85,-25.71 -60.09,-44.66 v 15.44 c 0,27.07 -13.55,40.6 -40.62,40.6 -12.99,0 -23.02,-3.53 -30.05,-10.56 -7.04,-7.04 -10.56,-17.04 -10.56,-30.04 V 740 c 0,-13.539 3.52,-23.691 10.56,-30.441 7.03,-6.789 17.06,-10.168 30.05,-10.168 13.53,0 23.68,3.519 30.45,10.57 6.77,7.019 10.17,17.039 10.17,30.039 v 237.16 c 0,30.31 11.89,54.41 35.73,72.28 23.82,17.87 55.21,26.81 94.21,26.81 13.52,0 31.12,-1.93 52.78,-5.7 5.41,-1.08 9.47,-1.62 12.19,-1.62 16.77,0 27.61,8.65 32.48,25.99 0.54,1.61 0.82,4.33 0.82,8.13 0,13 -8.13,23.81 -24.37,32.47"
         style="fill:#254e8a;fill-opacity:1;fill-rule:nonzero;stroke:none"
         id="path28" /><path
         d="m 5114.6,843.539 c -12.46,-23.008 -29.64,-41.141 -51.56,-54.398 -21.94,-13.262 -46.44,-19.891 -73.51,-19.891 -27.08,0 -51.57,6.629 -73.5,19.891 -21.93,13.257 -39.26,31.39 -51.98,54.398 -12.73,23.02 -19.08,48.871 -19.08,77.582 0,28.68 6.35,54.688 19.08,77.961 12.72,23.278 30.05,41.558 51.98,54.828 21.93,13.26 46.42,19.89 73.5,19.89 27.07,0 51.57,-6.63 73.51,-19.89 21.92,-13.27 39.1,-31.55 51.56,-54.828 12.45,-23.273 18.68,-49.281 18.68,-77.961 0,-28.711 -6.23,-54.562 -18.68,-77.582 z m -11.78,273.721 c -33.84,19.74 -71.61,29.63 -113.29,29.63 -41.7,0 -79.73,-9.89 -114.1,-29.63 -34.39,-19.78 -61.33,-46.85 -80.82,-81.22 -19.49,-34.4 -29.24,-72.681 -29.24,-114.919 0,-42.242 9.06,-80.543 27.21,-114.922 18.14,-34.39 43.05,-61.328 74.72,-80.808 31.67,-19.493 67.01,-29.231 105.98,-29.231 31.4,0 60.65,6.481 87.72,19.469 27.07,12.992 50.07,31.141 69.04,54.43 V 740 c 0,-11.91 3.92,-21.809 11.78,-29.629 7.83,-7.871 17.72,-11.781 29.64,-11.781 11.9,0 21.78,3.91 29.63,11.781 7.86,7.82 11.78,17.719 11.78,29.629 v 181.121 c 0,42.238 -9.88,80.519 -29.64,114.919 -19.77,34.37 -46.57,61.44 -80.41,81.22"
         style="fill:#254e8a;fill-opacity:1;fill-rule:nonzero;stroke:none"
         id="path30" /><path
         d="m 5403.23,1225.48 c 0,43.95 -35.74,79.69 -79.69,79.69 -43.93,0 -79.67,-35.74 -79.67,-79.69 0,-43.94 35.74,-79.68 79.67,-79.68 43.95,0 79.69,35.74 79.69,79.68"
         style="fill:#65bdec;fill-opacity:1;fill-rule:nonzero;stroke:none"
         id="path32" /><path
         d="m 5612.24,1304.95 c 0,0 -4.55,0.33 -6.8,0.47 -54.95,3.46 -98.52,48.56 -99.71,104.09 0.05,1.16 0.18,2.3 0.18,3.47 0,44.38 -36.11,80.49 -80.49,80.49 -44.38,0 -80.48,-36.11 -80.48,-80.49 0,-44.02 35.55,-79.86 79.44,-80.43 3.05,-0.21 6.28,-0.42 7.75,-0.54 55.03,-4.39 98.32,-50.43 98.32,-106.59 0,-57.57 -45.53,-104.42 -102.53,-106.74 -0.6,-0.02 -2.45,-0.14 -2.73,-0.14 -43.55,-0.47 -78.83,-36.04 -78.83,-79.69 0,-43.94 35.74,-79.678 79.68,-79.678 43.74,0 79.35,35.402 79.68,79.058 0,0.21 0.04,1.32 0.04,1.52 0.32,56.61 44.79,102.68 100.71,105.74 1.15,0.06 5.52,0.33 6.48,0.36 42.62,1.51 76.82,36.65 76.82,79.63 0,43.21 -34.61,78.3 -77.53,79.47"
         style="fill:#254e8a;fill-opacity:1;fill-rule:nonzero;stroke:none"
         id="path34" /></g></g></svg>
