<?xml version="1.0" encoding="UTF-8" standalone="no"?>
<svg
   viewBox="0 0 599.98927 132.57007"
   version="1.1"
   id="svg4"
   sodipodi:docname="sentry-logo-dark.svg"
   width="599.98926"
   height="132.57007"
   inkscape:version="1.1.1 (3bf5ae0d25, 2021-09-20)"
   xmlns:inkscape="http://www.inkscape.org/namespaces/inkscape"
   xmlns:sodipodi="http://sodipodi.sourceforge.net/DTD/sodipodi-0.dtd"
   xmlns="http://www.w3.org/2000/svg"
   xmlns:svg="http://www.w3.org/2000/svg">
  <defs
     id="defs8" />
  <sodipodi:namedview
     id="namedview6"
     pagecolor="#ffffff"
     bordercolor="#666666"
     borderopacity="1.0"
     inkscape:pageshadow="2"
     inkscape:pageopacity="0.0"
     inkscape:pagecheckerboard="0"
     showgrid="false"
     fit-margin-top="0"
     fit-margin-left="0"
     fit-margin-right="0"
     fit-margin-bottom="0"
     inkscape:zoom="1.4753664"
     inkscape:cx="299.92549"
     inkscape:cy="66.424176"
     inkscape:window-width="1920"
     inkscape:window-height="1010"
     inkscape:window-x="-6"
     inkscape:window-y="-6"
     inkscape:window-maximized="1"
     inkscape:current-layer="svg4" />
  <path
     d="m 371.97927,85.200067 -44.49,-57.43 h -11.07 v 77.000003 h 11.22 V 45.770067 l 45.74,59.000003 h 9.82 V 27.770067 h -11.22 z m -112,-14.27 h 39.84 v -10 h -39.88 v -23.18 h 45 v -10 h -56.45 v 77.000003 h 57 V 94.750067 h -45.55 z m -46.84,-9.78 c -15.57,-3.72 -19.83,-6.69 -19.83,-13.84 0,-6.46 5.71,-10.81 14.22,-10.81 7.09,0 14.07,2.51 21.3,7.67 l 6.06,-8.54 c -8,-6.13 -16.65,-9 -27.13,-9 -15.25,0 -25.89,9 -25.89,21.92 0,13.84 9,18.63 25.5,22.63 14.51,3.35 18.93,6.5 18.93,13.5 0,7 -6,11.38 -15.35,11.38 -9.07,0 -16.81,-3 -25,-9.82 l -6.79,8.08 a 47.82,47.82 0 0 0 31.41,11.600003 c 16.49,0 27.14,-8.870003 27.14,-22.600003 -0.02,-11.65 -6.91,-17.88 -24.61,-22.17 z m 373.9,-33.37 -23.19,36.31 -23,-36.31 h -13.43 l 30.51,46.54 v 30.470003 h 11.56 V 73.970067 l 30.5,-46.19 z m -194.75,10.42 h 25.23 v 66.580003 h 11.57 V 38.200067 h 25.23 v -10.43 h -62 z m 115.53,36.52 c 11.64,-3.21 18,-11.37 18,-23 0,-14.78 -10.84,-24 -28.28,-24 h -34.12 v 77.000003 h 11.45 V 77.060067 h 19.42 l 19.54,27.720003 h 13.37 l -21.1,-29.580003 z m -33,-7.52 v -29.23 h 21.6 c 11.27,0 17.74,5.31 17.74,14.56 0,8.91 -6.92,14.67 -17.62,14.67 z M 86.319265,6.8700672 a 13.75,13.75 0 0 0 -23.81,0 l -19.6,33.9499998 5,2.87 a 96.14,96.14 0 0 1 47.83,77.400003 h -13.76 a 82.4,82.4 0 0 0 -41,-65.540003 l -5,-2.86 -18.26,31.75 5,2.87 a 46.35,46.35 0 0 1 22.46,33.780003 h -31.43 a 2.27,2.27 0 0 1 -2,-3.41 l 8.76,-15.17 a 31.87,31.87 0 0 0 -10,-5.710003 L 1.8392654,111.94007 a 13.75,13.75 0 0 0 11.9099996,20.62 h 43.25 v -5.73 a 57.16,57.16 0 0 0 -23.74,-46.390003 l 6.88,-11.92 a 70.93,70.93 0 0 1 30.56,58.260003 v 5.74 h 36.650005 v -5.73 A 107.62,107.62 0 0 0 58.509265,36.740067 l 13.91,-24.13 a 2.27,2.27 0 0 1 3.93,0 L 137.00927,117.68007 a 2.27,2.27 0 0 1 -2,3.41 h -14.19 c 0.18,3.83 0.2,7.66 0,11.48 h 14.24 a 13.75,13.75 0 0 0 11.91,-20.62 z"
     fill="#362d59"
     id="path2" />
</svg>
