<?xml version="1.0" encoding="UTF-8"?>
<svg xmlns="http://www.w3.org/2000/svg" xmlns:xlink="http://www.w3.org/1999/xlink" width="123px" height="60px" viewBox="0 0 123 60" version="1.1">
  <title>Equinix</title>
  <g id="Page-1" stroke="none" stroke-width="1" fill="none" fill-rule="evenodd">
    <g id="logo-footer">
      <g id="Group-12">
        <path d="M49.5114027,54.011232 C49.5114027,56.270112 48.0304751,57.763392 45.8316516,57.763392 C43.695543,57.763392 42.3638009,56.253792 42.3638009,54.011232 L42.3638009,46.436832 L40.5536199,46.436832 L40.5536199,54.096672 C40.5536199,57.544512 43.0180317,59.423232 45.8192986,59.423232 C49.958009,59.423232 51.3049548,56.567712 51.3049548,54.096672 L51.3049548,46.436832 L49.5114027,46.436832 L49.5114027,54.011232 Z" id="Fill-2" fill="#000000"></path>
        <polygon id="Fill-4" fill="#000000" points="61.3835294 59.0472 63.1813575 59.0472 63.1813575 46.39968 61.3835294 46.39968"></polygon>
        <polygon id="Fill-6" fill="#000000" points="84.633095 46.405296 84.633095 56.312976 75.749905 46.405296 73.9729819 46.405296 73.9729819 59.049936 75.7717602 59.049936 75.7717602 49.060656 84.6687285 59.049936 86.4237964 59.049936 86.4237964 46.405296"></polygon>
        <polygon id="Fill-7" fill="#000000" points="97.3229864 59.0472 99.1165385 59.0472 99.1165385 46.39968 97.3229864 46.39968"></polygon>
        <polygon id="Fill-8" fill="#000000" points="119.582701 46.38744 115.445416 50.93352 111.421208 46.38744 109.07605 46.38744 114.104172 52.19064 107.81605 59.046 110.110371 59.046 115.269624 53.41848 120.18657 59.046 122.677588 59.046 116.586163 52.18776 121.800529 46.38744"></polygon>
        <path d="M29.5749434,52.717008 C29.5749434,54.505488 29.0024321,55.669008 27.9586086,56.662608 L26.9865271,55.524048 L24.902681,55.521168 L26.6088122,57.499248 C26.1911878,57.701808 25.4400339,57.866928 24.8551697,57.8708642 C22.1741063,57.887568 20.0446493,55.701648 20.0446493,52.732368 L20.0417986,52.686768 C20.0417986,49.660368 22.0401244,47.523408 24.7340158,47.510448 C27.4288575,47.487888 29.5749434,49.660368 29.5749434,52.668048 L29.5749434,52.717008 Z M24.7748756,45.890928 C21.0442873,45.914928 18.1693778,48.766608 18.1693778,52.747728 L18.1693778,52.796688 C18.1693778,56.747568 21.1146041,59.533488 24.8166855,59.509488 C25.767862,59.501328 26.8924548,59.251248 27.7386312,58.812528 L28.7563235,60.000048 L30.845871,59.994288 L29.0594457,57.927888 C30.522319,56.799408 31.4416629,54.945648 31.4416629,52.651248 L31.4416629,52.602768 C31.4416629,48.672528 28.48931,45.862128 24.7748756,45.890928 L24.7748756,45.890928 Z" id="Fill-9" fill="#000000"></path>
        <polygon id="Fill-1" fill="#000000" points="0 46 0 59 11 59 11 57.32578 1.80034877 57.32578 1.80034877 53.0936005 7.75909149 53.0936005 7.75909149 51.3853336 1.80034877 51.3853336 1.80034877 47.7018523 10.6851261 47.7018523 10.6851261 46"></polygon>
        <polygon id="Fill-10" fill="#ED1C24" points="62.2809706 0.079632 57.1825317 1.873392 57.1825317 28.902192 53.7821471 27.706512 53.7821471 3.076272 43.5838439 6.673872 43.5838439 24.108912 40.18631 22.908912 40.18631 7.870992 36.7830747 9.073872 36.7830747 25.349712 46.9828032 28.945392 46.9828032 9.111312 50.3846131 7.914192 50.3846131 30.145392 60.5829163 33.741552 60.5829163 4.315632 62.2809706 3.716112 63.9804502 4.315632 63.9804502 33.741552 74.1844548 30.145392 74.1844548 7.914192 77.5777127 9.111312 77.5777127 28.945392 87.7760158 25.349712 87.7760158 9.073872 84.3770566 7.870992 84.3770566 22.908912 80.9790475 24.108912 80.9790475 6.673872 70.7797941 3.076272 70.7797941 27.706512 67.3784593 28.902192 67.3784593 1.873392"></polygon>
        <path d="M93.7938937,20.990352 L93.7938937,20.100432 L94.4647534,20.100432 C94.7963824,20.100432 95.0111335,20.262672 95.0111335,20.544912 C95.0111335,20.811312 94.8172873,20.990352 94.4647534,20.990352 L93.7938937,20.990352 Z M93.0208846,22.642992 L93.7938937,22.642992 L93.7938937,21.630192 L94.2875362,21.630192 L94.9750249,22.642992 L95.9067217,22.642992 L95.0966538,21.487632 C95.521405,21.345072 95.8021968,21.008592 95.8021968,20.494512 C95.8021968,19.765392 95.2543914,19.424112 94.5160656,19.424112 L93.0208846,19.424112 L93.0208846,22.642992 Z M94.2875362,23.869872 C92.7400928,23.869872 91.5789163,22.627632 91.5789163,21.113232 L91.5789163,21.097872 C91.5789163,19.586352 92.7552964,18.323472 94.2875362,18.323472 C95.8349796,18.323472 96.9980566,19.566672 96.9980566,21.078672 L96.9980566,21.097872 C96.9980566,22.606992 95.8188258,23.869872 94.2875362,23.869872 L94.2875362,23.869872 Z M94.2875362,24.210672 C95.9955679,24.210672 97.3505905,22.784112 97.3505905,21.097872 L97.3505905,21.078672 C97.3505905,19.389552 96.0121968,17.982672 94.2875362,17.982672 C92.5799796,17.982672 91.2263824,19.407792 91.2263824,21.097872 L91.2263824,21.113232 C91.2263824,22.802352 92.5619253,24.210672 94.2875362,24.210672 L94.2875362,24.210672 Z" id="Fill-11" fill="#ED1D24"></path>
      </g>
    </g>
  </g>
</svg>
