<?xml version="1.0" encoding="UTF-8"?>
<svg id="a" xmlns="http://www.w3.org/2000/svg" viewBox="0 0 121.55 39.97">
  <defs>
    <style>
      .torq-name path {
        fill:#000;
      }
      .torq-mark path,
      .torq-mark rect {
        fill:#00a6c1;
      }
    </style>
  </defs>
  <g class="torq-name">
    <path class="torq-t" d="M6.31,11.13h7.23V5.59H6.31V0H0V24.59c0,4.03,2.51,6.64,6.39,6.64h7.22v-5.78H6.31V11.13Z"/>
    <path class="torq-o" d="M35.29,6.74c-2.07-1.15-4.41-1.73-6.96-1.73s-4.89,.58-6.96,1.73c-2.07,1.15-3.72,2.77-4.9,4.8-1.18,2.03-1.78,4.34-1.78,6.87s.6,4.81,1.78,6.84c1.18,2.03,2.83,3.65,4.9,4.81,2.07,1.16,4.41,1.74,6.96,1.74s4.89-.59,6.96-1.74c2.07-1.16,3.72-2.78,4.9-4.81,1.18-2.03,1.78-4.33,1.78-6.84s-.6-4.82-1.78-6.86c-1.18-2.04-2.83-3.66-4.9-4.81Zm.26,11.67c0,2.16-.68,3.95-2.03,5.33-1.35,1.37-3.09,2.07-5.19,2.07s-3.84-.7-5.19-2.07c-1.35-1.38-2.03-3.17-2.03-5.33s.68-3.95,2.03-5.33c1.35-1.37,3.09-2.07,5.19-2.07s3.84,.7,5.19,2.07c1.35,1.38,2.03,3.17,2.03,5.33Z"/>
    <path class="torq-r" d="M44.95,11.28V31.26h6.31V11.22h7.34V5.48h-7.69c-3.83,0-5.95,3.43-5.95,5.8Z"/>
    <path class="torq-q" d="M80.86,5.58v2.12c-2.13-1.67-4.83-2.67-7.89-2.71-1.8,.02-3.52,.35-5.1,1.01-1.62,.67-3.16,1.69-4.31,2.86-1.12,1.14-2.04,2.57-2.72,4.27-.7,1.74-1.06,3.52-1.06,5.31s.37,3.68,1.07,5.41c.62,1.54,1.53,2.91,2.78,4.19,1.12,1.15,2.59,2.13,4.25,2.82,1.56,.65,3.29,.97,5.29,.97,2.82,0,5.02-.67,7.31-2.23l.03,10.38h6.35V5.58h-5.99Zm-2.16,18.09c-1.5,1.51-3.04,2.15-5.17,2.15-2.24,0-3.93-.66-5.34-2.09-1.46-1.48-2.12-3.11-2.12-5.29s.72-3.88,2.2-5.39c1.39-1.41,3.02-2.04,5.27-2.04,2.05,0,3.69,.68,5.15,2.14,1.46,1.46,2.11,3.08,2.11,5.27s-.65,3.79-2.1,5.26Z"/>
  </g>
  <g class="torq-mark">
    <path class="torq-mark-top" d="M121.55,7.67c0-1.25-1.38-2.4-2.8-2.4h-12.47v5.87h15.26v-3.48Z"/>
    <rect class="torq-mark-middle" x="93.89" y="15.4" width="27.66" height="5.88"/>
    <path class="torq-mark-bottom" d="M93.91,25.52v3.39c0,1.28,1.38,2.48,2.81,2.48h12.72v-5.88h-15.53Z"/>
  </g>
</svg>