<?xml version="1.0" encoding="UTF-8" standalone="no"?>
<!-- Created with Inkscape (http://www.inkscape.org/) -->

<svg
   version="1.1"
   id="svg2"
   xml:space="preserve"
   width="497.14786"
   height="135.03479"
   viewBox="0 0 497.14786 135.03479"
   sodipodi:docname="Qovery_logo.svg"
   inkscape:version="1.1.1 (3bf5ae0d25, 2021-09-20)"
   xmlns:inkscape="http://www.inkscape.org/namespaces/inkscape"
   xmlns:sodipodi="http://sodipodi.sourceforge.net/DTD/sodipodi-0.dtd"
   xmlns="http://www.w3.org/2000/svg"
   xmlns:svg="http://www.w3.org/2000/svg"><defs
     id="defs6"><linearGradient
       x1="0"
       y1="0"
       x2="1"
       y2="0"
       gradientUnits="userSpaceOnUse"
       gradientTransform="matrix(0,-40.969383,-40.969383,0,129.66817,126.29276)"
       spreadMethod="pad"
       id="linearGradient56"><stop
         style="stop-opacity:1;stop-color:#7366ff"
         offset="0"
         id="stop50" /><stop
         style="stop-opacity:1;stop-color:#7366ff"
         offset="0.25"
         id="stop52" /><stop
         style="stop-opacity:1;stop-color:#5219ff"
         offset="1"
         id="stop54" /></linearGradient><linearGradient
       x1="0"
       y1="0"
       x2="1"
       y2="0"
       gradientUnits="userSpaceOnUse"
       gradientTransform="matrix(43.855198,0,0,-43.855198,94.18853,72.664772)"
       spreadMethod="pad"
       id="linearGradient76"><stop
         style="stop-opacity:1;stop-color:#7366ff"
         offset="0"
         id="stop72" /><stop
         style="stop-opacity:1;stop-color:#a299ff"
         offset="1"
         id="stop74" /></linearGradient><clipPath
       clipPathUnits="userSpaceOnUse"
       id="clipPath86"><path
         d="M 0,201.943 H 473.528 V 0 H 0 Z"
         id="path84" /></clipPath></defs><sodipodi:namedview
     id="namedview4"
     pagecolor="#ffffff"
     bordercolor="#666666"
     borderopacity="1.0"
     inkscape:pageshadow="2"
     inkscape:pageopacity="0.0"
     inkscape:pagecheckerboard="0"
     showgrid="false"
     fit-margin-top="0"
     fit-margin-left="0"
     fit-margin-right="0"
     fit-margin-bottom="0"
     inkscape:zoom="1.7422412"
     inkscape:cx="248.24347"
     inkscape:cy="67.728853"
     inkscape:window-width="1920"
     inkscape:window-height="1010"
     inkscape:window-x="-6"
     inkscape:window-y="-6"
     inkscape:window-maximized="1"
     inkscape:current-layer="g8" /><g
     id="g8"
     inkscape:groupmode="layer"
     inkscape:label="Qovery_logos"
     transform="matrix(1.3333333,0,0,-1.3333333,-67.111332,202.14546)"><g
       id="g10"
       transform="translate(138.0391,94.9868)"><path
         d="m 0,0 -3.384,-21.286 20.131,-7.72 -0.003,19.341 z"
         style="fill:#a299ff;fill-opacity:1;fill-rule:nonzero;stroke:none"
         id="path12" /></g><g
       id="g14"
       transform="translate(50.3335,75.6533)"><path
         d="M 0,0 V 50.64 L 16.751,45.328 V 9.671 l 27.104,-15.648 2.025,-7.72 -2.025,-11.623 z"
         style="fill:#7366ff;fill-opacity:1;fill-rule:nonzero;stroke:none"
         id="path16" /></g><g
       id="g18"
       transform="translate(94.1929,132.2671)"><path
         d="m 0,0 -27.108,-15.646 -16.751,9.672 43.849,25.316 43.856,-25.316 -9.253,-7.373 -7.489,-2.302 z"
         style="fill:#7366ff;fill-opacity:1;fill-rule:nonzero;stroke:none"
         id="path20" /></g><g
       id="g22"
       transform="translate(154.7906,65.9873)"><path
         d="M 0,0 -16.751,-9.678 -33.493,0 v 19.336 z"
         style="fill:#5219ff;fill-opacity:1;fill-rule:nonzero;stroke:none"
         id="path24" /></g><g
       id="g26"
       transform="translate(94.1929,120.2646)"><path
         d="m 0,0 -0.01,-19.338 16.757,-9.668 -0.003,19.341 z"
         style="fill:#a299ff;fill-opacity:1;fill-rule:nonzero;stroke:none"
         id="path28" /></g><g
       id="g30"
       transform="translate(94.1831,100.9268)"><path
         d="m 0,0 -16.746,-9.668 16.749,-9.673 16.753,9.673 z"
         style="fill:#5219ff;fill-opacity:1;fill-rule:nonzero;stroke:none"
         id="path32" /></g><g
       id="g34"
       transform="translate(94.1929,120.2646)"><path
         d="m 0,0 -16.754,-9.673 -10e-4,-19.333 16.745,9.668 z"
         style="fill:#7366ff;fill-opacity:1;fill-rule:nonzero;stroke:none"
         id="path36" /></g><g
       id="g38"><g
         id="g40"><g
           id="g46"><g
             id="g48"><path
               d="M 138.039,126.293 V 94.987 l -16.742,-9.664 v 31.295 z"
               style="fill:url(#linearGradient56);stroke:none"
               id="path58" /></g></g></g></g><g
       id="g60"><g
         id="g62"><g
           id="g68"><g
             id="g70"><path
               d="M 138.043,94.996 94.189,69.676 V 50.333 l 43.85,25.322 z"
               style="fill:url(#linearGradient76);stroke:none"
               id="path78" /></g></g></g></g><g
       id="g80"><g
         id="g82"
         clip-path="url(#clipPath86)"><g
           id="g88"
           transform="translate(256.5703,81.1011)"><path
             d="m 0,0 c 3.388,0 6.238,1.155 8.548,3.465 2.31,2.311 3.466,5.238 3.466,8.703 0,3.466 -1.156,6.393 -3.466,8.704 -2.31,2.31 -5.16,3.465 -8.548,3.465 -3.389,0 -6.239,-1.155 -8.549,-3.465 -2.31,-2.311 -3.466,-5.238 -3.466,-8.704 0,-3.465 1.156,-6.392 3.466,-8.703 C -6.239,1.155 -3.389,0 0,0 m -14.402,-2.233 c -3.928,3.928 -5.931,8.702 -5.931,14.401 0,5.7 2.003,10.475 5.931,14.403 3.927,3.928 8.779,5.853 14.402,5.853 5.698,0 10.474,-1.925 14.401,-5.853 3.928,-3.928 5.931,-8.703 5.931,-14.403 0,-5.699 -2.003,-10.473 -5.931,-14.401 C 10.474,-6.162 5.698,-8.087 0,-8.087 c -5.623,0 -10.475,1.925 -14.402,5.854"
             style="fill:#131326;fill-opacity:1;fill-rule:nonzero;stroke:none"
             id="path90" /></g><g
           id="g92"
           transform="translate(307.6231,112.5234)"><path
             d="M 0,0 H 9.087 L -5.931,-38.508 h -9.627 L -30.575,0 h 9.088 l 10.782,-29.266 z"
             style="fill:#131326;fill-opacity:1;fill-rule:nonzero;stroke:none"
             id="path94" /></g><g
           id="g96"
           transform="translate(348.1636,96.5044)"><path
             d="m 0,0 c -1.155,6.238 -5.545,9.473 -11.013,9.473 -6.161,0 -10.474,-3.62 -11.63,-9.473 z m -22.565,-6.778 c 1.232,-5.853 5.93,-9.088 12.322,-9.088 4.39,0 7.702,1.618 9.935,4.776 l 6.855,-4.005 c -3.774,-5.622 -9.396,-8.395 -16.867,-8.395 -6.239,0 -11.321,1.925 -15.172,5.699 -3.851,3.852 -5.776,8.703 -5.776,14.556 0,5.777 1.925,10.551 5.699,14.402 3.774,3.928 8.703,5.854 14.633,5.854 5.622,0 10.243,-2.003 13.862,-5.931 3.621,-3.927 5.469,-8.779 5.469,-14.402 0,-0.847 -0.078,-2.002 -0.309,-3.466 z"
             style="fill:#131326;fill-opacity:1;fill-rule:nonzero;stroke:none"
             id="path98" /></g><g
           id="g100"
           transform="translate(370.3487,106.0542)"><path
             d="M 0,0 C 2.079,4.775 6.084,6.469 11.86,6.469 V -1.724 C 8.692,-1.724 5.93,-2.387 3.542,-4.159 1.155,-5.853 0,-8.702 0,-12.631 V -32.039 H -8.318 V 6.469 H 0 Z"
             style="fill:#131326;fill-opacity:1;fill-rule:nonzero;stroke:none"
             id="path102" /></g><g
           id="g104"
           transform="translate(414.3384,112.5234)"><path
             d="M 0,0 H 8.856 L -5.931,-39.74 c -3.696,-9.935 -9.935,-14.71 -18.792,-14.171 v 7.779 c 5.238,-0.308 8.164,2.233 10.244,7.548 l 0.385,0.769 L -30.422,0 h 9.089 l 11.475,-27.957 z"
             style="fill:#131326;fill-opacity:1;fill-rule:nonzero;stroke:none"
             id="path106" /></g><g
           id="g108"
           transform="translate(203.003,81.6401)"><path
             d="m 0,0 c -5.314,0 -9.858,1.849 -13.555,5.545 -3.696,3.697 -5.546,8.318 -5.546,13.786 0,5.468 1.85,10.089 5.546,13.786 3.697,3.696 8.241,5.545 13.555,5.545 5.313,0 9.858,-1.849 13.555,-5.545 3.696,-3.697 5.545,-8.318 5.545,-13.786 0,-4.352 -1.259,-8.24 -3.709,-11.606 L 0,16.611 V 7.004 L 8.606,2.036 C 8.284,1.865 8.086,1.771 8.086,1.771 5.544,0.616 2.849,0 0,0 m 30.5,-0.999 -7.519,4.341 c 3.298,4.654 4.975,9.997 4.975,15.989 0,7.778 -2.695,14.402 -8.164,19.794 C 14.325,44.592 7.778,47.288 0,47.288 c -7.779,0 -14.325,-2.696 -19.793,-8.163 -5.469,-5.392 -8.164,-12.016 -8.164,-19.794 0,-7.779 2.695,-14.402 8.164,-19.871 5.468,-5.39 12.014,-8.086 19.793,-8.086 5.083,0 9.858,1.31 14.401,3.928 0,0 1.273,0.698 2.684,1.842 L 30.5,-10.597 Z"
             style="fill:#131326;fill-opacity:1;fill-rule:nonzero;stroke:none"
             id="path110" /></g></g></g></g></svg>
