<?xml version="1.0" encoding="UTF-8" standalone="no"?>
<!-- Created with Inkscape (http://www.inkscape.org/) -->

<svg
   version="1.1"
   id="svg69046"
   xml:space="preserve"
   width="624.37549"
   height="132.71759"
   viewBox="0 0 624.37549 132.71759"
   sodipodi:docname="Logo_Color_Large.svg"
   inkscape:version="1.1.1 (3bf5ae0d25, 2021-09-20)"
   xmlns:inkscape="http://www.inkscape.org/namespaces/inkscape"
   xmlns:sodipodi="http://sodipodi.sourceforge.net/DTD/sodipodi-0.dtd"
   xmlns="http://www.w3.org/2000/svg"
   xmlns:svg="http://www.w3.org/2000/svg"><defs
     id="defs69050"><clipPath
       clipPathUnits="userSpaceOnUse"
       id="clipPath69060"><path
         d="M 0,158.449 H 573.394 V 0 H 0 Z"
         id="path69058" /></clipPath><radialGradient
       fx="0"
       fy="0"
       cx="0"
       cy="0"
       r="1"
       gradientUnits="userSpaceOnUse"
       gradientTransform="matrix(58.580917,11.557444,11.557433,-58.580921,75.530998,85.727165)"
       spreadMethod="pad"
       id="radialGradient69120"><stop
         style="stop-opacity:1;stop-color:#c40047"
         offset="0"
         id="stop69114" /><stop
         style="stop-opacity:1;stop-color:#ff0070"
         offset="0.887341"
         id="stop69116" /><stop
         style="stop-opacity:1;stop-color:#ff0070"
         offset="1"
         id="stop69118" /></radialGradient><clipPath
       clipPathUnits="userSpaceOnUse"
       id="clipPath69130"><path
         d="M 0,158.449 H 573.394 V 0 H 0 Z"
         id="path69128" /></clipPath><clipPath
       clipPathUnits="userSpaceOnUse"
       id="clipPath69146"><path
         d="M 52.6518,81.7046 H 129.898 V 41.2367 H 52.6518 Z"
         id="path69144" /></clipPath><clipPath
       clipPathUnits="userSpaceOnUse"
       id="clipPath69150"><path
         d="m 108.513,67.4 c 0.078,-2.008 -0.432,-4.059 -1.608,-5.878 -3.027,-4.687 -9.301,-6.031 -13.985,-2.995 -1.616,1.047 -2.828,2.478 -3.606,4.093 C 67.7,64.104 52.933,89.051 52.664,79.554 52.135,60.888 68.686,41.296 91.342,41.237 c 22.654,-0.059 38.506,18.968 38.556,38.116 0.019,7.038 -8.284,-4.791 -21.385,-11.953"
         id="path69148" /></clipPath><linearGradient
       x1="0"
       y1="0"
       x2="1"
       y2="0"
       gradientUnits="userSpaceOnUse"
       gradientTransform="matrix(49.507866,-7.1429286,-7.1429381,-49.507866,63.049107,67.968597)"
       spreadMethod="pad"
       id="linearGradient69164"><stop
         style="stop-opacity:0;stop-color:#ffffff"
         offset="0"
         id="stop69156" /><stop
         style="stop-opacity:0;stop-color:#ffffff"
         offset="0.20960356"
         id="stop69158" /><stop
         style="stop-opacity:1;stop-color:#ffffff"
         offset="0.995283"
         id="stop69160" /><stop
         style="stop-opacity:1;stop-color:#ffffff"
         offset="1"
         id="stop69162" /></linearGradient><mask
       maskUnits="userSpaceOnUse"
       x="0"
       y="0"
       width="1"
       height="1"
       id="mask69166"><g
         id="g69176"><g
           id="g69174"><g
             id="g69172"><g
               id="g69170"><path
                 d="M -32768,32767 H 32767 V -32768 H -32768 Z"
                 style="fill:url(#linearGradient69164);stroke:none"
                 id="path69168" /></g></g></g></g></mask><linearGradient
       x1="0"
       y1="0"
       x2="1"
       y2="0"
       gradientUnits="userSpaceOnUse"
       gradientTransform="matrix(49.507866,-7.1429286,-7.1429381,-49.507866,63.049107,67.968597)"
       spreadMethod="pad"
       id="linearGradient69186"><stop
         style="stop-opacity:1;stop-color:#d02685"
         offset="0"
         id="stop69178" /><stop
         style="stop-opacity:1;stop-color:#d02685"
         offset="0.20960356"
         id="stop69180" /><stop
         style="stop-opacity:1;stop-color:#b81e47"
         offset="0.995283"
         id="stop69182" /><stop
         style="stop-opacity:1;stop-color:#b81e47"
         offset="1"
         id="stop69184" /></linearGradient><clipPath
       clipPathUnits="userSpaceOnUse"
       id="clipPath69216"><path
         d="m 87.149,117.517 c -9.773,-1.26 -18.897,-6.874 -24.234,-13.067 v 0 C 57.344,98.432 55.185,92.902 55.094,92.62 v 0 c 34.997,21.38 42.036,0.4 56.978,-4.593 v 0 l 2.998,3.981 c -4.807,4.707 -6.023,12.23 -2.478,18.307 v 0 c 0.209,0.359 0.455,0.678 0.69,1.012 v 0 c -5.937,4.045 -13.624,6.553 -21.223,6.553 v 0 c -1.647,0 -3.29,-0.118 -4.91,-0.363"
         id="path69214" /></clipPath><linearGradient
       x1="0"
       y1="0"
       x2="1"
       y2="0"
       gradientUnits="userSpaceOnUse"
       gradientTransform="matrix(83.581627,-13.329969,-13.329985,-83.581627,71.631477,105.78618)"
       spreadMethod="pad"
       id="linearGradient69236"><stop
         style="stop-opacity:0;stop-color:#ffffff"
         offset="0"
         id="stop69226" /><stop
         style="stop-opacity:0;stop-color:#ffffff"
         offset="0.00606061"
         id="stop69228" /><stop
         style="stop-opacity:0;stop-color:#ffffff"
         offset="0.08313837"
         id="stop69230" /><stop
         style="stop-opacity:1;stop-color:#ffffff"
         offset="0.608227"
         id="stop69232" /><stop
         style="stop-opacity:1;stop-color:#ffffff"
         offset="1"
         id="stop69234" /></linearGradient><mask
       maskUnits="userSpaceOnUse"
       x="0"
       y="0"
       width="1"
       height="1"
       id="mask69238"><g
         id="g69248"><g
           id="g69246"><g
             id="g69244"><g
               id="g69242"><path
                 d="M -32768,32767 H 32767 V -32768 H -32768 Z"
                 style="fill:url(#linearGradient69236);stroke:none"
                 id="path69240" /></g></g></g></g></mask><linearGradient
       x1="0"
       y1="0"
       x2="1"
       y2="0"
       gradientUnits="userSpaceOnUse"
       gradientTransform="matrix(83.581627,-13.329969,-13.329985,-83.581627,71.631477,105.78618)"
       spreadMethod="pad"
       id="linearGradient69264"><stop
         style="stop-opacity:1;stop-color:#d31c5b"
         offset="0"
         id="stop69254" /><stop
         style="stop-opacity:1;stop-color:#d31c5b"
         offset="0.00606061"
         id="stop69256" /><stop
         style="stop-opacity:1;stop-color:#d31c5b"
         offset="0.08313837"
         id="stop69258" /><stop
         style="stop-opacity:1;stop-color:#f1f5f3"
         offset="0.608227"
         id="stop69260" /><stop
         style="stop-opacity:1;stop-color:#f1f5f3"
         offset="1"
         id="stop69262" /></linearGradient><clipPath
       clipPathUnits="userSpaceOnUse"
       id="clipPath69274"><path
         d="m 116.232,87.09 c 2.338,-0.239 4.908,-0.064 7.784,0.696 v 0 c -2,0.207 -3.991,0.822 -5.85,1.877 v 0 z"
         id="path69272" /></clipPath><linearGradient
       x1="0"
       y1="0"
       x2="1"
       y2="0"
       gradientUnits="userSpaceOnUse"
       gradientTransform="matrix(60.279579,31.947546,31.947535,-60.279575,72.921997,63.194702)"
       spreadMethod="pad"
       id="linearGradient69296"><stop
         style="stop-opacity:0;stop-color:#ffffff"
         offset="0"
         id="stop69284" /><stop
         style="stop-opacity:0;stop-color:#ffffff"
         offset="0.00606061"
         id="stop69286" /><stop
         style="stop-opacity:0;stop-color:#ffffff"
         offset="0.18642387"
         id="stop69288" /><stop
         style="stop-opacity:1;stop-color:#ffffff"
         offset="0.515152"
         id="stop69290" /><stop
         style="stop-opacity:1;stop-color:#ffffff"
         offset="0.82921951"
         id="stop69292" /><stop
         style="stop-opacity:1;stop-color:#ffffff"
         offset="1"
         id="stop69294" /></linearGradient><mask
       maskUnits="userSpaceOnUse"
       x="0"
       y="0"
       width="1"
       height="1"
       id="mask69298"><g
         id="g69308"><g
           id="g69306"><g
             id="g69304"><g
               id="g69302"><path
                 d="M -32768,32767 H 32767 V -32768 H -32768 Z"
                 style="fill:url(#linearGradient69296);stroke:none"
                 id="path69300" /></g></g></g></g></mask><linearGradient
       x1="0"
       y1="0"
       x2="1"
       y2="0"
       gradientUnits="userSpaceOnUse"
       gradientTransform="matrix(60.279579,31.947546,31.947535,-60.279575,72.921997,63.194702)"
       spreadMethod="pad"
       id="linearGradient69326"><stop
         style="stop-opacity:1;stop-color:#d31c5b"
         offset="0"
         id="stop69314" /><stop
         style="stop-opacity:1;stop-color:#d31c5b"
         offset="0.00606061"
         id="stop69316" /><stop
         style="stop-opacity:1;stop-color:#d31c5b"
         offset="0.18642387"
         id="stop69318" /><stop
         style="stop-opacity:1;stop-color:#ed3b70"
         offset="0.515152"
         id="stop69320" /><stop
         style="stop-opacity:1;stop-color:#edc6d7"
         offset="0.82921951"
         id="stop69322" /><stop
         style="stop-opacity:1;stop-color:#edc6d7"
         offset="1"
         id="stop69324" /></linearGradient><clipPath
       clipPathUnits="userSpaceOnUse"
       id="clipPath69336"><path
         d="M 50.967,79.689 C 50.908,57.035 69.225,38.621 91.881,38.561 v 0 l 1.038,19.963 c -4.444,2.878 -5.873,8.645 -3.443,13.233 v 0 l -9.73,7.323 -3.02,-4.014 -11.132,8.378 8.377,11.133 11.132,-8.379 -3.02,-4.014 9.836,-7.402 c 3.069,2.567 7.454,3.128 11.114,1.245 v 0 l 12.037,15.979 c -4.807,4.707 -6.023,12.23 -2.478,18.307 v 0 c 0.697,1.198 1.544,2.25 2.489,3.174 v 0 c -6.549,4.47 -14.46,7.093 -22.987,7.116 v 0 c -0.036,0 -0.074,0 -0.11,0 v 0 C 69.379,120.604 51.026,102.308 50.967,79.689"
         id="path69334" /></clipPath><linearGradient
       x1="0"
       y1="0"
       x2="1"
       y2="0"
       gradientUnits="userSpaceOnUse"
       gradientTransform="matrix(23.000168,-57.1898,-57.189804,-23.000177,68.650101,128.29076)"
       spreadMethod="pad"
       id="linearGradient69354"><stop
         style="stop-opacity:0.8;stop-color:#ffffff"
         offset="0"
         id="stop69346" /><stop
         style="stop-opacity:0.8;stop-color:#ffffff"
         offset="0.06382024"
         id="stop69348" /><stop
         style="stop-opacity:0;stop-color:#ffffff"
         offset="0.986078"
         id="stop69350" /><stop
         style="stop-opacity:0;stop-color:#ffffff"
         offset="1"
         id="stop69352" /></linearGradient><mask
       maskUnits="userSpaceOnUse"
       x="0"
       y="0"
       width="1"
       height="1"
       id="mask69356"><g
         id="g69366"><g
           id="g69364"><g
             id="g69362"><g
               id="g69360"><path
                 d="M -32768,32767 H 32767 V -32768 H -32768 Z"
                 style="fill:url(#linearGradient69354);stroke:none"
                 id="path69358" /></g></g></g></g></mask><linearGradient
       x1="0"
       y1="0"
       x2="1"
       y2="0"
       gradientUnits="userSpaceOnUse"
       gradientTransform="matrix(23.000168,-57.1898,-57.189804,-23.000177,68.650101,128.29076)"
       spreadMethod="pad"
       id="linearGradient69380"><stop
         style="stop-opacity:1;stop-color:#ffffff"
         offset="0"
         id="stop69372" /><stop
         style="stop-opacity:1;stop-color:#ffffff"
         offset="0.06382024"
         id="stop69374" /><stop
         style="stop-opacity:1;stop-color:#ff93ff"
         offset="0.986078"
         id="stop69376" /><stop
         style="stop-opacity:1;stop-color:#ff93ff"
         offset="1"
         id="stop69378" /></linearGradient><clipPath
       clipPathUnits="userSpaceOnUse"
       id="clipPath69390"><path
         d="M 0,158.449 H 573.394 V 0 H 0 Z"
         id="path69388" /></clipPath></defs><sodipodi:namedview
     id="namedview69048"
     pagecolor="#ffffff"
     bordercolor="#666666"
     borderopacity="1.0"
     inkscape:pageshadow="2"
     inkscape:pageopacity="0.0"
     inkscape:pagecheckerboard="0"
     showgrid="false"
     fit-margin-top="0"
     fit-margin-left="0"
     fit-margin-right="0"
     fit-margin-bottom="0"
     inkscape:zoom="1.4819653"
     inkscape:cx="314.10992"
     inkscape:cy="78.949218"
     inkscape:window-width="1920"
     inkscape:window-height="1010"
     inkscape:window-x="-6"
     inkscape:window-y="-6"
     inkscape:window-maximized="1"
     inkscape:current-layer="g69052" /><g
     id="g69052"
     inkscape:groupmode="layer"
     inkscape:label="Logo_Color_Large."
     transform="matrix(1.3333333,0,0,-1.3333333,-67.955809,184.13207)"><g
       id="g69054"><g
         id="g69056"
         clip-path="url(#clipPath69060)"><g
           id="g69062"
           transform="translate(158.6708,70.8076)"><path
             d="M 0,0 V 0.095 C 0.025,9.718 7.296,17.581 17.698,17.554 24.081,17.538 27.893,15.401 31.027,12.3 L 26.277,6.846 C 23.672,9.222 21.013,10.682 17.633,10.691 11.926,10.705 7.802,5.975 7.786,0.172 V 0.074 c -0.015,-5.798 3.988,-10.647 9.791,-10.662 3.865,-0.01 6.24,1.535 8.902,3.945 l 4.729,-4.801 C 27.714,-15.162 23.845,-17.467 17.312,-17.45 7.348,-17.424 -0.025,-9.719 0,0"
             style="fill:#000000;fill-opacity:1;fill-rule:nonzero;stroke:none"
             id="path69064" /></g><g
           id="g69066"
           transform="translate(195.891,87.7327)"><path
             d="m 0,0 7.448,-0.019 -0.035,-13.395 13.739,-0.036 0.035,13.395 7.446,-0.02 -0.088,-33.851 -7.447,0.02 0.036,13.587 -13.739,0.035 -0.035,-13.586 -7.448,0.019 z"
             style="fill:#000000;fill-opacity:1;fill-rule:nonzero;stroke:none"
             id="path69068" /></g><g
           id="g69070"
           transform="translate(233.5439,87.6345)"><path
             d="m 0,0 25.531,-0.067 -0.017,-6.627 -18.138,0.048 -0.018,-6.867 15.958,-0.041 -0.018,-6.623 -15.957,0.042 -0.019,-7.109 18.375,-0.048 -0.017,-6.626 -25.768,0.067 z"
             style="fill:#000000;fill-opacity:1;fill-rule:nonzero;stroke:none"
             id="path69072" /></g><g
           id="g69074"
           transform="translate(264.3965,70.532)"><path
             d="M 0,0 V 0.095 C 0.025,9.718 7.3,17.581 17.692,17.554 24.072,17.538 27.895,15.401 31.025,12.3 L 26.273,6.846 C 23.669,9.222 21.008,10.682 17.624,10.691 11.92,10.705 7.799,5.975 7.784,0.172 V 0.074 c -0.015,-5.798 3.981,-10.647 9.785,-10.662 3.869,-0.01 6.239,1.535 8.912,3.945 l 4.723,-4.801 C 27.712,-15.162 23.841,-17.467 17.312,-17.45 7.355,-17.424 -0.025,-9.719 0,0"
             style="fill:#000000;fill-opacity:1;fill-rule:nonzero;stroke:none"
             id="path69076" /></g><g
           id="g69078"
           transform="translate(301.1919,87.4581)"><path
             d="m 0,0 7.45,-0.019 -0.039,-14.8 13.766,14.764 8.998,-0.024 -13.824,-14.324 14.368,-19.528 -8.949,0.023 -10.457,14.44 -3.925,-4.055 -0.027,-10.347 -7.449,0.019 z"
             style="fill:#000000;fill-opacity:1;fill-rule:nonzero;stroke:none"
             id="path69080" /></g><g
           id="g69082"
           transform="translate(361.7587,70.2302)"><path
             d="m 0,0 c 3.721,-0.01 5.9,2.209 5.907,5.109 l 0.001,0.096 c 0.008,3.336 -2.305,5.133 -6.026,5.143 L -5.874,10.363 -5.901,0.015 Z M -13.296,17.105 0.524,17.069 C 8.598,17.048 13.472,12.245 13.454,5.329 V 5.237 C 13.434,-2.599 7.335,-6.643 -0.265,-6.623 l -5.653,0.015 -0.027,-10.158 -7.439,0.02 z"
             style="fill:#d91572;fill-opacity:1;fill-rule:nonzero;stroke:none"
             id="path69084" /></g><g
           id="g69086"
           transform="translate(408.2288,70.157)"><path
             d="M 0,0 V 0.095 C 0.015,5.9 -4.236,10.748 -10.227,10.763 -16.223,10.779 -20.395,6.049 -20.41,0.246 V 0.148 C -20.425,-5.651 -16.184,-10.5 -10.185,-10.516 -4.182,-10.532 -0.015,-5.8 0,0 m -28.196,0.074 v 0.094 c 0.025,9.623 7.638,17.486 18.084,17.459 C 0.326,17.6 7.807,9.795 7.782,0.172 L 7.781,0.074 C 7.756,-9.547 0.146,-17.405 -10.3,-17.378 c -10.441,0.027 -17.921,7.827 -17.896,17.452"
             style="fill:#d91572;fill-opacity:1;fill-rule:nonzero;stroke:none"
             id="path69088" /></g><g
           id="g69090"
           transform="translate(423.3041,87.1398)"><path
             d="M 0,0 7.442,-0.019 7.354,-33.87 -0.088,-33.851 Z"
             style="fill:#d91572;fill-opacity:1;fill-rule:nonzero;stroke:none"
             id="path69092" /></g><g
           id="g69094"
           transform="translate(440.1019,87.096)"><path
             d="m 0,0 6.868,-0.018 15.806,-20.88 0.054,20.839 7.348,-0.019 -0.089,-33.851 -6.329,0.016 -16.343,21.563 -0.056,-21.52 -7.347,0.019 z"
             style="fill:#d91572;fill-opacity:1;fill-rule:nonzero;stroke:none"
             id="path69096" /></g><g
           id="g69098"
           transform="translate(487.0543,80.1055)"><path
             d="M 0,0 -10.298,0.027 -10.28,6.895 17.768,6.822 17.75,-0.046 7.46,-0.019 7.389,-27.002 -0.07,-26.983 Z"
             style="fill:#d91572;fill-opacity:1;fill-rule:nonzero;stroke:none"
             id="path69100" /></g></g></g><g
       id="g69102"><g
         id="g69104"><g
           id="g69110"><g
             id="g69112"><path
               d="M 50.967,79.689 C 50.908,57.035 69.225,38.621 91.881,38.561 v 0 c 22.655,-0.058 41.068,18.26 41.127,40.914 v 0 c 0.009,3.313 -0.386,6.531 -1.119,9.618 v 0 c -4.256,-1.955 -9.351,-1.911 -13.72,0.569 v 0 L 106.082,73.617 c 1.509,-1.756 2.343,-3.96 2.43,-6.219 v 0 c 0.078,-2.009 -0.432,-4.06 -1.607,-5.878 v 0 c -3.028,-4.687 -9.302,-6.031 -13.986,-2.996 v 0 c -1.616,1.047 -2.828,2.478 -3.606,4.094 v 0 c -1.361,2.825 -1.383,6.219 0.163,9.139 v 0 l -9.73,7.323 -3.02,-4.014 -11.132,8.378 8.377,11.133 11.132,-8.379 -3.02,-4.014 9.836,-7.402 c 3.069,2.567 7.454,3.128 11.114,1.245 v 0 l 12.037,15.979 c -4.807,4.707 -6.023,12.23 -2.478,18.307 v 0 c 0.697,1.198 1.544,2.25 2.489,3.174 v 0 c -6.549,4.47 -14.46,7.093 -22.987,7.116 v 0 c -0.036,0 -0.074,0 -0.11,0 v 0 C 69.379,120.604 51.026,102.308 50.967,79.689"
               style="fill:url(#radialGradient69120);stroke:none"
               id="path69122" /></g></g></g></g><g
       id="g69124"><g
         id="g69126"
         clip-path="url(#clipPath69130)"><g
           id="g69132"
           transform="translate(115.0809,113.4875)"><path
             d="M 0,0 V 0 C 0.003,-0.002 0.005,-0.004 0.008,-0.006 0.005,-0.004 0.003,-0.002 0,0"
             style="fill:#ffffff;fill-opacity:1;fill-rule:nonzero;stroke:none"
             id="path69134" /></g><g
           id="g69136"
           transform="translate(131.8888,89.0932)"><path
             d="M 0,0 C 0,0 0,0 0,0 0,0 0,0 0,0"
             style="fill:#ffffff;fill-opacity:1;fill-rule:nonzero;stroke:none"
             id="path69138" /></g><g
           id="g69140"><g
             id="g69142" /><g
             id="g69204"><g
               clip-path="url(#clipPath69146)"
               opacity="0.850006"
               id="g69202"><g
                 id="g69200"><g
                   clip-path="url(#clipPath69150)"
                   id="g69198"><g
                     id="g69196"><g
                       id="g69188" /><g
                       mask="url(#mask69166)"
                       id="g69194"><g
                         id="g69192"><path
                           d="m 108.513,67.4 c 0.078,-2.008 -0.432,-4.059 -1.608,-5.878 -3.027,-4.687 -9.301,-6.031 -13.985,-2.995 -1.616,1.047 -2.828,2.478 -3.606,4.093 C 67.7,64.104 52.933,89.051 52.664,79.554 52.135,60.888 68.686,41.296 91.342,41.237 c 22.654,-0.059 38.506,18.968 38.556,38.116 0.019,7.038 -8.284,-4.791 -21.385,-11.953"
                           style="fill:url(#linearGradient69186);stroke:none"
                           id="path69190" /></g></g></g></g></g></g></g></g><g
           id="g69206"
           transform="translate(152.6248,113.1044)"><path
             d="m 0,0 c -5.319,-6.612 -14.998,-7.668 -21.606,-2.346 -6.611,5.327 -7.663,14.989 -2.342,21.609 5.32,6.608 14.989,7.66 21.605,2.332 C 4.273,16.29 5.314,6.605 0,0"
             style="fill:#000000;fill-opacity:1;fill-rule:nonzero;stroke:none"
             id="path69208" /></g></g></g><g
       id="g69210"><g
         id="g69212"
         clip-path="url(#clipPath69216)"><g
           id="g69218"><g
             id="g69220" /><g
             id="g69250"
             mask="url(#mask69238)"><g
               id="g69252"><path
                 d="m 87.149,117.517 c -9.773,-1.26 -18.897,-6.874 -24.234,-13.067 v 0 C 57.344,98.432 55.185,92.902 55.094,92.62 v 0 c 34.997,21.38 42.036,0.4 56.978,-4.593 v 0 l 2.998,3.981 c -4.807,4.707 -6.023,12.23 -2.478,18.307 v 0 c 0.209,0.359 0.455,0.678 0.69,1.012 v 0 c -5.937,4.045 -13.624,6.553 -21.223,6.553 v 0 c -1.647,0 -3.29,-0.118 -4.91,-0.363"
                 style="fill:url(#linearGradient69264);stroke:none"
                 id="path69266" /></g></g></g></g></g><g
       id="g69268"><g
         id="g69270"
         clip-path="url(#clipPath69274)"><g
           id="g69276"><g
             id="g69278" /><g
             id="g69310"
             mask="url(#mask69298)"><g
               id="g69312"><path
                 d="m 116.232,87.09 c 2.338,-0.239 4.908,-0.064 7.784,0.696 v 0 c -2,0.207 -3.991,0.822 -5.85,1.877 v 0 z"
                 style="fill:url(#linearGradient69326);stroke:none"
                 id="path69328" /></g></g></g></g></g><g
       id="g69330"><g
         id="g69332"
         clip-path="url(#clipPath69336)"><g
           id="g69338"><g
             id="g69340" /><g
             id="g69368"
             mask="url(#mask69356)"><g
               id="g69370"><path
                 d="M 50.967,79.689 C 50.908,57.035 69.225,38.621 91.881,38.561 v 0 l 1.038,19.963 c -4.444,2.878 -5.873,8.645 -3.443,13.233 v 0 l -9.73,7.323 -3.02,-4.014 -11.132,8.378 8.377,11.133 11.132,-8.379 -3.02,-4.014 9.836,-7.402 c 3.069,2.567 7.454,3.128 11.114,1.245 v 0 l 12.037,15.979 c -4.807,4.707 -6.023,12.23 -2.478,18.307 v 0 c 0.697,1.198 1.544,2.25 2.489,3.174 v 0 c -6.549,4.47 -14.46,7.093 -22.987,7.116 v 0 c -0.036,0 -0.074,0 -0.11,0 v 0 C 69.379,120.604 51.026,102.308 50.967,79.689"
                 style="fill:url(#linearGradient69380);stroke:none"
                 id="path69382" /></g></g></g></g></g><g
       id="g69384"><g
         id="g69386"
         clip-path="url(#clipPath69390)"><g
           id="g69392"
           transform="translate(511.8814,82.2289)"><path
             d="M 0,0 -0.829,0.002 -0.819,3.92 -2.303,3.924 -2.301,4.686 1.496,4.676 1.495,3.914 0.01,3.918 Z"
             style="fill:#d91572;fill-opacity:1;fill-rule:nonzero;stroke:none"
             id="path69394" /></g><g
           id="g69396"
           transform="translate(516.9455,83.3656)"><path
             d="m 0,0 h -0.027 l -1.458,2.197 -0.009,-3.343 -0.815,0.002 0.012,4.68 0.876,-0.002 1.418,-2.217 1.43,2.209 0.876,-0.002 -0.013,-4.68 -0.815,0.002 0.009,3.356 z"
             style="fill:#d91572;fill-opacity:1;fill-rule:nonzero;stroke:none"
             id="path69398" /></g></g></g></g></svg>
