<svg width="689" height="441" viewBox="0 0 689 441" fill="none" xmlns="http://www.w3.org/2000/svg">
<path d="M261.48 128.173C254.98 105.873 234.38 89.6733 210.08 89.6733C190.28 89.6733 173.08 100.373 163.78 116.273C162.28 116.073 160.68 115.973 159.08 115.973C136.78 115.973 118.68 134.073 118.68 156.373C118.68 178.673 136.78 196.773 159.08 196.773C167.88 196.773 200.08 196.773 210.08 196.773C220.68 196.773 252.68 196.773 261.28 196.773C280.18 196.773 295.58 181.373 295.58 162.473C295.58 143.673 280.38 128.273 261.48 128.173Z" fill="#001F2C"/>
<path d="M261.48 117.373C254.98 95.0733 234.38 78.8733 210.08 78.8733C190.28 78.8733 173.08 89.5733 163.78 105.473C162.28 105.273 160.68 105.173 159.08 105.173C136.78 105.173 118.68 123.273 118.68 145.573C118.68 167.873 136.78 185.973 159.08 185.973C167.88 185.973 200.08 185.973 210.08 185.973C220.68 185.973 252.68 185.973 261.28 185.973C280.18 185.973 295.58 170.573 295.58 151.673C295.58 132.873 280.38 117.573 261.48 117.373Z" fill="white" stroke="#001E2B" stroke-width="0.5" stroke-miterlimit="10"/>
<path d="M347.68 391.673C437.537 391.673 510.38 318.83 510.38 228.973C510.38 139.117 437.537 66.2734 347.68 66.2734C257.824 66.2734 184.98 139.117 184.98 228.973C184.98 318.83 257.824 391.673 347.68 391.673Z" fill="#001F2C"/>
<path d="M347.68 375.473C437.537 375.473 510.38 302.63 510.38 212.773C510.38 122.917 437.537 50.0735 347.68 50.0735C257.824 50.0735 184.98 122.917 184.98 212.773C184.98 302.63 257.824 375.473 347.68 375.473Z" fill="white" stroke="#231F20" stroke-width="0.5" stroke-miterlimit="10"/>
<path d="M280.18 329.773L295.48 303.273L308.48 280.673C285.08 267.073 269.28 241.773 269.28 212.773C269.28 169.473 304.38 134.373 347.68 134.373C390.98 134.373 426.08 169.473 426.08 212.773C426.08 241.773 410.28 267.173 386.88 280.673L399.88 303.273L415.18 329.773C455.48 306.473 482.68 262.773 482.68 212.873C482.68 138.273 422.28 77.8733 347.68 77.8733C273.08 77.8733 212.68 138.273 212.68 212.873C212.68 262.773 239.88 306.373 280.18 329.773Z" fill="#B45AF2" stroke="#231F20" stroke-width="0.5" stroke-miterlimit="10"/>
<path d="M358.48 261.873C385.598 261.873 407.58 239.891 407.58 212.773C407.58 185.656 385.598 163.673 358.48 163.673C331.363 163.673 309.38 185.656 309.38 212.773C309.38 239.891 331.363 261.873 358.48 261.873Z" fill="#001F2C"/>
<path d="M492.281 247.473L428.181 239.373L364.081 231.373L365.581 223.473L366.981 215.673L429.681 231.573L492.281 247.473Z" fill="#001F2C"/>
<path d="M404.88 378.773C404.98 377.773 404.98 376.873 404.98 375.873C404.98 350.373 384.28 329.673 358.78 329.673C338.68 329.673 321.58 342.473 315.18 360.473C303.28 361.073 293.18 368.473 288.68 378.773C278.28 380.473 270.38 389.473 270.38 400.273C270.38 412.273 280.18 422.073 292.18 422.073C296.28 422.073 394.58 422.073 401.28 422.073C413.28 422.073 423.08 412.273 423.08 400.273C423.18 389.373 415.28 380.473 404.88 378.773Z" fill="#001F2C"/>
<path d="M404.88 366.473C404.98 365.473 404.98 364.573 404.98 363.573C404.98 338.073 384.28 317.373 358.78 317.373C338.68 317.373 321.58 330.173 315.18 348.173C303.28 348.773 293.18 356.173 288.68 366.473C278.28 368.173 270.38 377.173 270.38 387.973C270.38 399.973 280.18 409.773 292.18 409.773C296.28 409.773 394.58 409.773 401.28 409.773C413.28 409.773 423.08 399.973 423.08 387.973C423.18 377.173 415.28 368.173 404.88 366.473Z" fill="white" stroke="#001E2B" stroke-width="0.5" stroke-miterlimit="10"/>
<path d="M117.18 273.573C117.48 273.673 117.88 273.673 118.18 273.673" stroke="#001E2B" stroke-width="0.5" stroke-miterlimit="10"/>
<path d="M120.18 273.873C132.58 274.173 143.28 264.373 145.18 246.773C147.08 226.973 157.48 218.073 167.68 217.973" stroke="#001E2B" stroke-width="0.5" stroke-miterlimit="10" stroke-dasharray="2.04 2.04"/>
<path d="M168.58 217.973C168.88 217.973 169.28 217.973 169.58 218.073" stroke="#001E2B" stroke-width="0.5" stroke-miterlimit="10"/>
<path d="M406.38 50.7735L397.18 41.6735L401.28 27.5735L410.68 36.2735L406.38 50.7735Z" fill="#00222F" stroke="#001E2B" stroke-width="0.5" stroke-miterlimit="10" stroke-linejoin="round"/>
<path d="M406.38 50.7735L419.08 48.0735L423.18 34.0735L410.68 36.2735L406.38 50.7735Z" fill="white" stroke="#001E2B" stroke-width="0.5" stroke-miterlimit="10" stroke-linejoin="round"/>
<path d="M413.78 25.4734L401.28 27.5734L410.68 36.2734L423.18 34.0734L413.78 25.4734Z" fill="white" stroke="#001E2B" stroke-width="0.5" stroke-miterlimit="10" stroke-linejoin="round"/>
<path d="M105.08 268.873L111.38 279.773L117.68 290.773H105.08H92.3804L98.7804 279.773L105.08 268.873Z" fill="white" stroke="#001E2B" stroke-width="0.5" stroke-miterlimit="10"/>
<path d="M105.08 283.073L92.3804 290.773H117.68L105.08 283.073Z" fill="#001E2B"/>
<path d="M105.081 283.073V268.873" stroke="#001E2B" stroke-width="0.5" stroke-miterlimit="10"/>
<path d="M493.08 239.173L441.28 233.373L389.38 227.673L390.88 219.873L392.38 211.973L442.68 225.573L493.08 239.173Z" fill="#00ED64" stroke="#231F20" stroke-width="0.5" stroke-miterlimit="10"/>
<path d="M493.08 239.173L393.48 220.373" stroke="#231F20" stroke-width="0.5" stroke-miterlimit="10"/>
<path d="M269.28 212.773C269.28 169.473 304.38 134.373 347.68 134.373C390.98 134.373 426.08 169.473 426.08 212.773H482.68C482.68 138.173 422.28 77.7734 347.68 77.7734C273.08 77.7734 212.68 138.173 212.68 212.773C212.68 262.773 239.78 306.373 280.18 329.673L295.48 303.173L308.48 280.573C285.08 267.173 269.28 241.873 269.28 212.773Z" fill="#F2C5EE" stroke="#231F20" stroke-width="0.5" stroke-miterlimit="10"/>
<path d="M347.681 261.873C374.798 261.873 396.781 239.891 396.781 212.773C396.781 185.656 374.798 163.673 347.681 163.673C320.563 163.673 298.581 185.656 298.581 212.773C298.581 239.891 320.563 261.873 347.681 261.873Z" fill="#00ED64" stroke="#231F20" stroke-width="0.5" stroke-miterlimit="10"/>
<path d="M347.681 249.873C368.17 249.873 384.781 233.263 384.781 212.773C384.781 192.284 368.17 175.673 347.681 175.673C327.191 175.673 310.581 192.284 310.581 212.773C310.581 233.263 327.191 249.873 347.681 249.873Z" fill="white" stroke="#231F20" stroke-width="0.5" stroke-miterlimit="10"/>
<path d="M351.48 239.173V234.473C347.88 234.073 344.88 232.773 342.68 230.473C340.38 228.173 339.28 225.173 339.28 221.473H348.28C348.28 223.673 349.38 225.073 351.48 225.673V216.673L349.38 215.973C342.68 213.473 339.28 209.273 339.28 203.373C339.28 199.773 340.38 196.873 342.48 194.573C344.68 192.373 347.68 191.073 351.48 190.873V186.373H354.68V190.973C358.08 191.473 360.78 192.873 362.88 195.173C364.98 197.473 365.98 200.173 365.98 203.073H356.98C356.68 201.573 355.88 200.473 354.68 199.873V208.073L356.88 208.873C360.28 210.173 362.78 211.773 364.48 213.873C366.18 215.973 367.08 218.673 367.08 222.173C367.08 225.773 365.98 228.673 363.78 230.873C361.58 233.073 358.58 234.173 354.58 234.373V238.973H351.48V239.173ZM348.18 203.273C348.18 204.773 349.28 206.073 351.48 206.973V199.673C350.48 199.873 349.68 200.273 349.08 200.873C348.48 201.573 348.18 202.273 348.18 203.273ZM358.08 222.373C358.08 220.673 356.88 219.273 354.58 218.073V225.973C355.58 225.773 356.38 225.473 357.08 224.773C357.78 224.073 358.08 223.273 358.08 222.373Z" fill="#001F2C"/>
<path d="M346.08 239.173V234.473C342.48 234.073 339.48 232.773 337.28 230.473C334.98 228.173 333.88 225.173 333.88 221.473H342.88C342.88 223.673 343.98 225.073 346.08 225.673V216.673L343.98 215.973C337.28 213.473 333.88 209.273 333.88 203.373C333.88 199.773 334.98 196.873 337.08 194.573C339.28 192.373 342.28 191.073 346.08 190.873V186.373H349.28V190.973C352.68 191.473 355.38 192.873 357.48 195.173C359.58 197.473 360.58 200.173 360.58 203.073H351.58C351.28 201.573 350.48 200.473 349.28 199.873V208.073L351.48 208.873C354.88 210.173 357.38 211.773 359.08 213.873C360.78 215.973 361.68 218.673 361.68 222.173C361.68 225.773 360.58 228.673 358.38 230.873C356.18 233.073 353.18 234.173 349.18 234.373V238.973H346.08V239.173ZM342.78 203.273C342.78 204.773 343.88 206.073 346.08 206.973V199.673C345.08 199.873 344.28 200.273 343.68 200.873C343.08 201.573 342.78 202.273 342.78 203.273ZM352.68 222.373C352.68 220.673 351.48 219.273 349.18 218.073V225.973C350.18 225.773 350.98 225.473 351.68 224.773C352.38 224.073 352.68 223.273 352.68 222.373Z" fill="#00ED64" stroke="#231F20" stroke-width="0.5" stroke-miterlimit="10"/>
<path d="M515.68 379.773C522.529 379.773 528.08 374.222 528.08 367.373C528.08 360.525 522.529 354.973 515.68 354.973C508.832 354.973 503.28 360.525 503.28 367.373C503.28 374.222 508.832 379.773 515.68 379.773Z" fill="white" stroke="#001E2B" stroke-width="0.5" stroke-miterlimit="10"/>
<path d="M508.68 377.573C510.68 378.973 513.08 379.773 515.68 379.773C522.48 379.773 528.08 374.273 528.08 367.373C528.08 364.773 527.28 362.373 525.88 360.373C521.48 367.373 515.58 373.273 508.68 377.573Z" fill="#001E2B" stroke="#001E2B" stroke-width="0.5" stroke-miterlimit="10"/>
<path d="M430.38 44.3733C448.88 53.3733 466.18 65.5733 481.48 80.8733C543.98 143.373 553.88 238.673 510.98 311.573" stroke="#001E2B" stroke-width="0.5" stroke-miterlimit="10" stroke-dasharray="2 2"/>
<path d="M467.38 42.4734C477.48 49.4734 486.98 57.4734 495.98 66.4734C555.68 126.173 571.98 212.673 545.08 287.073" stroke="#001E2B" stroke-width="0.5" stroke-miterlimit="10" stroke-dasharray="2 2"/>
<path d="M347.68 70.3733V95.8733" stroke="#231F20" stroke-width="0.5" stroke-miterlimit="10"/>
<path d="M406.28 314.173L418.98 336.173" stroke="#231F20" stroke-width="0.5" stroke-miterlimit="10"/>
<path d="M276.48 89.4734L289.18 111.473" stroke="#231F20" stroke-width="0.5" stroke-miterlimit="10"/>
<path d="M449.08 271.273L471.08 283.973" stroke="#231F20" stroke-width="0.5" stroke-miterlimit="10"/>
<path d="M224.38 141.573L246.38 154.273" stroke="#231F20" stroke-width="0.5" stroke-miterlimit="10"/>
<path d="M464.68 212.773H490.18" stroke="#231F20" stroke-width="0.5" stroke-miterlimit="10"/>
<path d="M205.28 212.773H230.78" stroke="#231F20" stroke-width="0.5" stroke-miterlimit="10"/>
<path d="M449.08 154.273L471.08 141.573" stroke="#231F20" stroke-width="0.5" stroke-miterlimit="10"/>
<path d="M224.38 283.973L246.38 271.273" stroke="#231F20" stroke-width="0.5" stroke-miterlimit="10"/>
<path d="M406.28 111.473L418.98 89.4734" stroke="#231F20" stroke-width="0.5" stroke-miterlimit="10"/>
<path d="M276.48 336.173L289.18 314.173" stroke="#231F20" stroke-width="0.5" stroke-miterlimit="10"/>
</svg>
