<?xml version="1.0" encoding="UTF-8" standalone="no"?>
<!-- Generator: Adobe Illustrator 26.0.2, SVG Export Plug-In . SVG Version: 6.00 Build 0)  -->

<svg
   version="1.1"
   id="Layer_2"
   x="0px"
   y="0px"
   width="500"
   height="87.950806"
   viewBox="0 0 500.00001 87.950804"
   enable-background="new 0 0 1626.647 482.549"
   xml:space="preserve"
   sodipodi:docname="Squadcast_logo.svg"
   inkscape:version="1.1.1 (3bf5ae0d25, 2021-09-20)"
   xmlns:inkscape="http://www.inkscape.org/namespaces/inkscape"
   xmlns:sodipodi="http://sodipodi.sourceforge.net/DTD/sodipodi-0.dtd"
   xmlns="http://www.w3.org/2000/svg"
   xmlns:svg="http://www.w3.org/2000/svg"><defs
   id="defs111" /><sodipodi:namedview
   id="namedview109"
   pagecolor="#ffffff"
   bordercolor="#666666"
   borderopacity="1.0"
   inkscape:pageshadow="2"
   inkscape:pageopacity="0.0"
   inkscape:pagecheckerboard="0"
   showgrid="false"
   fit-margin-top="0"
   fit-margin-left="0"
   fit-margin-right="0"
   fit-margin-bottom="0"
   inkscape:zoom="0.65041771"
   inkscape:cx="686.48192"
   inkscape:cy="121.46041"
   inkscape:window-width="1920"
   inkscape:window-height="1010"
   inkscape:window-x="-6"
   inkscape:window-y="-6"
   inkscape:window-maximized="1"
   inkscape:current-layer="Layer_2" />
<desc
   id="desc2">Created with Sketch.</desc>
















<g
   id="g985"
   transform="matrix(0.36452561,0,0,0.36452561,-46.47711,-43.975376)"><g
     id="g59">
	<g
   id="g40">
		<g
   id="g6">
			<path
   fill="#010495"
   d="m 488.126,240.271 c -6.273,-3.713 -12.789,-6.722 -19.553,-9.034 -4.126,-1.485 -8.291,-3.175 -12.499,-5.074 -4.208,-1.895 -6.23,-4.083 -6.064,-6.559 0,-2.804 1.319,-5.236 3.96,-7.301 2.638,-2.062 6.021,-3.094 10.147,-3.094 5.607,0 10.89,0.742 15.84,2.228 4.95,1.484 10.31,3.465 16.087,5.939 l 9.652,-21.532 c -3.96,-2.804 -8.5,-5.112 -13.612,-6.93 -5.116,-1.813 -10.109,-3.218 -14.974,-4.208 -4.869,-0.989 -9.034,-1.484 -12.499,-1.484 -14.521,0 -25.987,3.217 -34.402,9.652 -8.415,6.435 -12.623,15.43 -12.623,26.978 0,6.601 2.061,12.294 6.188,17.077 4.123,4.788 9.281,8.829 15.469,12.128 6.188,3.303 12.333,6.024 18.438,8.167 4.618,1.156 8.497,2.518 11.633,4.084 3.132,1.57 5.483,3.341 7.054,5.321 1.566,1.979 2.351,4.126 2.351,6.435 0,2.312 -1.114,4.208 -3.341,5.692 -2.228,1.485 -4.826,2.642 -7.796,3.466 -2.97,0.827 -5.859,1.237 -8.663,1.237 -3.136,0 -6.354,-0.329 -9.652,-0.99 -3.303,-0.657 -6.768,-1.647 -10.395,-2.97 -3.631,-1.319 -7.425,-2.638 -11.385,-3.96 l -9.405,21.532 c 3.793,2.808 8.206,5.159 13.241,7.054 5.031,1.898 10.147,3.256 15.345,4.084 5.198,0.823 9.444,1.237 12.747,1.237 16.335,0 28.749,-3.256 37.249,-9.776 8.496,-6.516 12.746,-15.716 12.746,-27.596 0,-7.259 -1.98,-13.446 -5.94,-18.563 -3.96,-5.112 -9.076,-9.528 -15.344,-13.24 z"
   id="path4" />
		</g>
		<g
   id="g10">
			<path
   fill="#010495"
   d="m 617.353,197.119 c -0.942,-0.811 -1.938,-1.608 -3.003,-2.388 -4.621,-3.38 -9.695,-6.146 -15.221,-8.292 -5.53,-2.142 -10.852,-3.217 -15.964,-3.217 -12.87,0 -23.884,2.684 -33.041,8.043 -9.158,5.364 -16.173,12.789 -21.038,22.275 -4.869,9.49 -7.301,20.585 -7.301,33.289 0,12.707 2.39,23.721 7.178,33.041 4.784,9.324 11.756,16.582 20.914,21.78 9.157,5.197 19.838,7.796 32.051,7.796 5.94,0 11.424,-0.909 16.458,-2.723 3.659,-1.319 7.164,-3.081 10.519,-5.274 v 59.229 l 32.174,-10.68 v -163.56 h -16.83 z m -17.977,80.895 c -5.035,2.642 -10.356,3.96 -15.964,3.96 -5.777,0 -10.809,-1.523 -15.098,-4.578 -4.292,-3.052 -7.591,-7.217 -9.9,-12.499 -2.312,-5.279 -3.465,-11.3 -3.465,-18.067 0,-7.093 1.071,-13.322 3.217,-18.687 2.143,-5.36 5.403,-9.61 9.776,-12.746 4.37,-3.133 9.529,-4.703 15.469,-4.703 5.607,0 10.929,1.199 15.964,3.589 3.04,1.447 6.217,3.643 9.529,6.564 v 51.021 c -3.311,2.498 -6.488,4.552 -9.528,6.146 z"
   id="path8" />
		</g>
		<g
   id="g14">
			<path
   fill="#010495"
   d="m 1116.888,215.397 c 4.702,-3.133 10.105,-4.703 16.211,-4.703 5.607,0 10.891,0.704 15.841,2.104 4.949,1.403 10.31,3.426 16.087,6.063 l 9.157,-23.018 c -3.96,-2.804 -8.538,-5.112 -13.735,-6.93 -5.198,-1.813 -10.314,-3.218 -15.346,-4.208 -5.035,-0.989 -9.281,-1.484 -12.746,-1.484 -12.707,0 -23.845,2.599 -33.412,7.796 -9.571,5.197 -16.997,12.541 -22.275,22.027 -5.282,9.49 -7.92,20.666 -7.92,33.536 0,12.708 2.638,23.803 7.92,33.289 5.278,9.49 12.661,16.791 22.151,21.903 9.486,5.113 20.747,7.673 33.784,7.673 3.465,0 7.672,-0.414 12.622,-1.237 4.95,-0.828 10.104,-2.186 15.469,-4.084 5.36,-1.895 9.857,-4.246 13.488,-7.054 l -9.157,-23.265 c -5.777,2.641 -11.223,4.663 -16.335,6.063 -5.116,1.403 -10.313,2.104 -15.593,2.104 -5.939,0 -11.304,-1.523 -16.087,-4.578 -4.788,-3.052 -8.5,-7.217 -11.138,-12.499 -2.642,-5.279 -3.96,-11.385 -3.96,-18.315 0.162,-6.93 1.523,-13.074 4.084,-18.438 2.556,-5.359 6.188,-9.609 10.89,-12.745 z"
   id="path12" />
		</g>
		<g
   id="g18">
			<path
   fill="#010495"
   d="m 1381.091,240.271 c -6.272,-3.713 -12.789,-6.722 -19.553,-9.034 -4.126,-1.485 -8.291,-3.175 -12.499,-5.074 -4.207,-1.895 -6.229,-4.083 -6.063,-6.559 0,-2.804 1.318,-5.236 3.96,-7.301 2.638,-2.062 6.021,-3.094 10.147,-3.094 5.607,0 10.891,0.742 15.84,2.228 4.95,1.484 10.311,3.465 16.088,5.939 l 9.652,-21.532 c -3.96,-2.804 -8.5,-5.112 -13.612,-6.93 -5.116,-1.813 -10.109,-3.218 -14.974,-4.208 -4.869,-0.989 -9.034,-1.484 -12.499,-1.484 -14.521,0 -25.987,3.217 -34.402,9.652 -8.415,6.435 -12.623,15.43 -12.623,26.978 0,6.601 2.062,12.294 6.188,17.077 4.123,4.788 9.281,8.829 15.469,12.128 6.188,3.303 12.333,6.024 18.439,8.167 4.617,1.156 8.496,2.518 11.632,4.084 3.133,1.57 5.484,3.341 7.054,5.321 1.566,1.979 2.352,4.126 2.352,6.435 0,2.312 -1.113,4.208 -3.341,5.692 -2.228,1.485 -4.826,2.642 -7.797,3.466 -2.97,0.827 -5.858,1.237 -8.662,1.237 -3.137,0 -6.354,-0.329 -9.652,-0.99 -3.303,-0.657 -6.768,-1.647 -10.396,-2.97 -3.631,-1.319 -7.425,-2.638 -11.385,-3.96 l -9.405,21.532 c 3.794,2.808 8.206,5.159 13.241,7.054 5.031,1.898 10.147,3.256 15.346,4.084 5.197,0.823 9.443,1.237 12.746,1.237 16.335,0 28.748,-3.256 37.249,-9.776 8.496,-6.516 12.746,-15.716 12.746,-27.596 0,-7.259 -1.98,-13.446 -5.94,-18.563 -3.962,-5.112 -9.078,-9.528 -15.346,-13.24 z"
   id="path16" />
		</g>
		<g
   id="g22">
			<path
   fill="#010495"
   d="m 1489.742,280.737 c -2.312,0.99 -4.54,1.732 -6.683,2.228 -2.146,0.495 -4.292,0.742 -6.435,0.742 -5.777,0 -10.147,-1.979 -13.117,-5.939 -2.971,-3.96 -4.455,-9.072 -4.455,-15.346 v -51.728 h 21.779 v -24.255 h -21.779 v -54.697 l -31.928,10.68 v 44.017 h -16.088 l -0.247,24.255 h 16.335 v 55.421 c 0,9.242 1.98,17.077 5.94,23.512 3.96,6.436 9.443,11.347 16.458,14.727 7.012,3.38 15.55,5.074 25.616,5.074 2.476,0 5.236,-0.372 8.292,-1.114 3.051,-0.742 5.979,-1.651 8.786,-2.723 2.804,-1.075 5.112,-2.266 6.93,-3.589 z"
   id="path20" />
		</g>
		<g
   id="g26">
			<path
   fill="#010495"
   d="M 782.648,300.338 V 186.439 H 750.72 v 83.16 c -2.97,1.98 -6.106,4.045 -9.405,6.188 -3.303,2.146 -6.93,3.96 -10.89,5.445 -3.96,1.485 -8.005,2.228 -12.128,2.228 -5.282,0 -9.49,-1.98 -12.622,-5.94 -3.136,-3.96 -4.703,-9.733 -4.703,-17.325 L 700.97,186.44 h -32.175 l 0.002,75.24 c 0,9.243 1.152,16.534 3.465,23.874 2.309,7.344 6.435,13.16 12.375,17.448 5.94,4.289 14.355,6.436 25.245,6.436 4.289,0 9.034,-0.704 14.231,-2.104 5.197,-1.404 10.558,-3.299 16.088,-5.693 5.525,-2.39 10.929,-4.402 16.211,-8.033 l 7.786,12.87 z"
   id="path24" />
		</g>
		<g
   id="g30">
			<path
   fill="#010495"
   d="m 901.445,204.63 c -4.788,-6.683 -11.138,-11.919 -19.058,-15.716 -7.92,-3.794 -16.668,-5.692 -26.235,-5.692 -3.303,0 -7.796,0.495 -13.488,1.484 -5.693,0.99 -11.262,2.271 -16.707,3.837 -5.444,1.569 -9.737,3.426 -12.87,5.568 l 8.663,26.73 c 4.455,-1.98 9.981,-3.794 16.582,-5.445 6.598,-1.647 12.704,-2.476 18.315,-2.476 5.939,0 10.6,1.694 13.983,5.074 3.38,3.384 5.155,8.044 5.321,13.983 v 0.248 h -23.513 c -13.531,0.166 -24.502,3.507 -32.917,10.023 -8.415,6.521 -12.623,15.964 -12.623,28.339 0,11.551 3.547,20.914 10.643,28.091 7.093,7.178 17.982,10.767 32.67,10.767 6.103,0 11.795,-1.485 17.078,-4.455 5.278,-2.97 10.147,-6.764 14.603,-11.385 l 8.057,12.87 18.673,-6.176 v -72.777 c 0,-8.575 -2.394,-16.209 -7.177,-22.892 z M 876.2,272.074 c -4.127,3.96 -8.5,6.93 -13.118,8.909 -4.621,1.98 -9.157,2.971 -13.612,2.971 -2.808,0 -5.321,-0.657 -7.549,-1.98 -2.228,-1.318 -4.045,-2.97 -5.444,-4.95 -1.404,-1.979 -2.104,-4.122 -2.104,-6.435 0,-4.289 1.524,-8.168 4.579,-11.633 3.051,-3.465 7.383,-5.197 12.994,-5.197 H 876.2 Z"
   id="path28" />
		</g>
		<g
   id="g34">
			<path
   fill="#010495"
   d="m 1046.477,131.742 -32.175,10.68 v 48.735 c -3.084,-1.811 -6.343,-3.384 -9.776,-4.718 -5.53,-2.142 -10.852,-3.217 -15.964,-3.217 -12.87,0 -23.884,2.684 -33.041,8.043 -9.157,5.364 -16.173,12.789 -21.038,22.275 -4.868,9.49 -7.301,20.585 -7.301,33.289 0,12.707 2.39,23.721 7.178,33.041 4.783,9.324 11.756,16.582 20.913,21.78 9.158,5.197 19.839,7.796 32.052,7.796 5.939,0 11.424,-0.909 16.459,-2.723 5.031,-1.813 9.776,-4.455 14.23,-7.92 1.401,-1.09 2.747,-2.246 4.066,-3.434 l 11.907,11.107 12.49,-6.144 z m -32.175,140.125 c -3.312,2.499 -6.49,4.553 -9.529,6.147 -5.034,2.642 -10.355,3.96 -15.963,3.96 -5.778,0 -10.81,-1.523 -15.098,-4.578 -4.293,-3.052 -7.592,-7.217 -9.9,-12.499 -2.312,-5.279 -3.465,-11.3 -3.465,-18.067 0,-7.093 1.071,-13.322 3.218,-18.687 2.143,-5.36 5.402,-9.61 9.776,-12.746 4.369,-3.133 9.528,-4.703 15.469,-4.703 5.607,0 10.929,1.199 15.963,3.589 3.04,1.447 6.218,3.643 9.529,6.564 z"
   id="path32" />
		</g>
		<g
   id="g38">
			<path
   fill="#010495"
   d="m 1291.745,227.524 c 0,-8.577 -2.394,-16.211 -7.177,-22.894 -4.788,-6.683 -11.138,-11.919 -19.058,-15.716 -7.92,-3.794 -16.668,-5.692 -26.235,-5.692 -3.303,0 -7.796,0.495 -13.488,1.484 -5.693,0.99 -11.262,2.271 -16.707,3.837 -5.444,1.569 -9.737,3.426 -12.87,5.568 l 8.663,26.73 c 4.455,-1.98 9.981,-3.794 16.582,-5.445 6.598,-1.647 12.704,-2.476 18.315,-2.476 5.939,0 10.6,1.694 13.983,5.074 3.38,3.384 5.155,8.044 5.321,13.983 v 0.248 h -23.513 c -13.531,0.166 -24.502,3.507 -32.917,10.023 -8.415,6.521 -12.623,15.964 -12.623,28.339 0,11.551 3.547,20.914 10.643,28.091 7.093,7.178 17.982,10.767 32.67,10.767 6.103,0 11.795,-1.485 17.078,-4.455 5.278,-2.97 10.147,-6.764 14.603,-11.385 l 8.065,12.87 18.673,-6.198 z m -32.422,44.55 c -4.127,3.96 -8.5,6.93 -13.118,8.909 -4.621,1.98 -9.157,2.971 -13.612,2.971 -2.808,0 -5.321,-0.657 -7.549,-1.98 -2.228,-1.318 -4.045,-2.97 -5.444,-4.95 -1.404,-1.979 -2.104,-4.122 -2.104,-6.435 0,-4.289 1.524,-8.168 4.579,-11.633 3.051,-3.465 7.383,-5.197 12.994,-5.197 h 24.255 v 18.315 z"
   id="path36" />
		</g>
	</g>
	<g
   id="Group-Copy_1_">
		
			<linearGradient
   id="Combined-Shape-Copy-6_00000085232145183531741060000007523084863883321987_"
   gradientUnits="userSpaceOnUse"
   x1="5063.5449"
   y1="-2188.4482"
   x2="5064.1333"
   y2="-2189.3889"
   gradientTransform="matrix(212.3111,0,0,191.6929,-1074901.5,419816.94)">
			<stop
   offset="0"
   style="stop-color:#1F92FF"
   id="stop42" />
			<stop
   offset="0.202"
   style="stop-color:#1B7FF1"
   id="stop44" />
			<stop
   offset="1"
   style="stop-color:#000395"
   id="stop46" />
		</linearGradient>
		
			<path
   id="Combined-Shape-Copy-6_1_"
   fill-rule="evenodd"
   clip-rule="evenodd"
   fill="url(#Combined-Shape-Copy-6_00000085232145183531741060000007523084863883321987_)"
   d="m 277.456,123.219 c 4.196,0.709 8.687,1.655 13.533,3.014 31.439,8.687 63.469,38.353 36.758,32.443 -40.717,-12.351 -67.31,12.115 -80.547,40.894 -0.355,0.768 -0.709,1.536 -1.064,2.305 -15.779,43.672 -23.697,118.487 -78.893,107.436 -55.845,-17.788 -42.312,-99.281 -22.634,-129.833 21.215,-32.798 45.622,-50.94 82.261,-56.791 20.27,-3.25 37.053,-2.305 50.586,0.532 z"
   style="fill:url(#Combined-Shape-Copy-6_00000085232145183531741060000007523084863883321987_)" />
		
			<linearGradient
   id="Combined-Shape-Copy-7_00000079476838638454042460000007370074462985075090_"
   gradientUnits="userSpaceOnUse"
   x1="5110.1953"
   y1="-2195.7532"
   x2="5110.9561"
   y2="-2196.6206"
   gradientTransform="matrix(-212.3111,0,0,-191.6929,1085334.1,-420714.28)">
			<stop
   offset="0"
   style="stop-color:#1F92FF"
   id="stop50" />
			<stop
   offset="0.202"
   style="stop-color:#1B7FF1"
   id="stop52" />
			<stop
   offset="1"
   style="stop-color:#000395"
   id="stop54" />
		</linearGradient>
		
			<path
   id="Combined-Shape-Copy-7_1_"
   fill-rule="evenodd"
   clip-rule="evenodd"
   fill="url(#Combined-Shape-Copy-7_00000079476838638454042460000007370074462985075090_)"
   d="m 232.544,359.306 c -4.196,-0.709 -8.687,-1.655 -13.533,-3.014 -31.439,-8.687 -63.469,-38.353 -36.757,-32.444 40.717,12.351 67.31,-12.115 80.547,-40.894 0.355,-0.768 0.709,-1.536 1.064,-2.305 15.779,-43.672 23.697,-118.487 78.893,-107.436 55.845,17.788 42.312,99.281 22.634,129.833 -21.215,32.798 -45.622,50.94 -82.261,56.791 -20.33,3.31 -37.114,2.306 -50.587,-0.531 z"
   style="fill:url(#Combined-Shape-Copy-7_00000079476838638454042460000007370074462985075090_)" />
	</g>
</g><g
     id="Group-Copy_00000072255167610751553330000001747729719308005507_">
	
		<linearGradient
   id="Combined-Shape-Copy-6_00000163777622176519268080000016606486582116304256_"
   gradientUnits="userSpaceOnUse"
   x1="5063.5449"
   y1="-2188.4482"
   x2="5064.1333"
   y2="-2189.3889"
   gradientTransform="matrix(212.3111,0,0,191.6929,-1074901.5,419816.94)">
		<stop
   offset="0"
   style="stop-color:#1F92FF"
   id="stop61" />
		<stop
   offset="0.202"
   style="stop-color:#1B7FF1"
   id="stop63" />
		<stop
   offset="1"
   style="stop-color:#000395"
   id="stop65" />
	</linearGradient>
	
		<path
   id="Combined-Shape-Copy-6_00000171698245188342059170000005156947815790572704_"
   fill-rule="evenodd"
   clip-rule="evenodd"
   fill="url(#Combined-Shape-Copy-6_00000163777622176519268080000016606486582116304256_)"
   d="m 277.456,123.219 c 4.196,0.709 8.687,1.655 13.533,3.014 31.439,8.687 63.469,38.353 36.758,32.443 -40.717,-12.351 -67.31,12.115 -80.547,40.894 -0.355,0.768 -0.709,1.536 -1.064,2.305 -15.779,43.672 -23.697,118.487 -78.893,107.436 -55.845,-17.788 -42.312,-99.281 -22.634,-129.833 21.215,-32.798 45.622,-50.94 82.261,-56.791 20.27,-3.25 37.053,-2.305 50.586,0.532 z"
   style="fill:url(#Combined-Shape-Copy-6_00000163777622176519268080000016606486582116304256_)" />
	
		<linearGradient
   id="Combined-Shape-Copy-7_00000054235300887280825280000010867118429449519795_"
   gradientUnits="userSpaceOnUse"
   x1="5110.1953"
   y1="-2195.7532"
   x2="5110.9561"
   y2="-2196.6206"
   gradientTransform="matrix(-212.3111,0,0,-191.6929,1085334.1,-420714.28)">
		<stop
   offset="0"
   style="stop-color:#1F92FF"
   id="stop69" />
		<stop
   offset="0.202"
   style="stop-color:#1B7FF1"
   id="stop71" />
		<stop
   offset="1"
   style="stop-color:#000395"
   id="stop73" />
	</linearGradient>
	
		<path
   id="Combined-Shape-Copy-7_00000003827094498483330140000011200707192881548966_"
   fill-rule="evenodd"
   clip-rule="evenodd"
   fill="url(#Combined-Shape-Copy-7_00000054235300887280825280000010867118429449519795_)"
   d="m 232.544,359.306 c -4.196,-0.709 -8.687,-1.655 -13.533,-3.014 -31.439,-8.687 -63.469,-38.353 -36.757,-32.444 40.717,12.351 67.31,-12.115 80.547,-40.894 0.355,-0.768 0.709,-1.536 1.064,-2.305 15.779,-43.672 23.697,-118.487 78.893,-107.436 55.845,17.788 42.312,99.281 22.634,129.833 -21.215,32.798 -45.622,50.94 -82.261,56.791 -20.33,3.31 -37.114,2.306 -50.587,-0.531 z"
   style="fill:url(#Combined-Shape-Copy-7_00000054235300887280825280000010867118429449519795_)" />
</g><g
     id="g78">
</g><g
     id="g80">
</g><g
     id="g82">
</g><g
     id="g84">
</g><g
     id="g86">
</g><g
     id="g88">
</g><g
     id="g90">
</g><g
     id="g92">
</g><g
     id="g94">
</g><g
     id="g96">
</g><g
     id="g98">
</g><g
     id="g100">
</g><g
     id="g102">
</g><g
     id="g104">
</g><g
     id="g106">
</g></g>
</svg>
