<?xml version="1.0" encoding="UTF-8" standalone="no"?>
<!-- Created with Inkscape (http://www.inkscape.org/) -->

<svg
   version="1.1"
   id="svg2"
   xml:space="preserve"
   width="423.35773"
   height="75.590935"
   viewBox="0 0 423.35772 75.590935"
   sodipodi:docname="Ondat_logo_final_white_background.svg"
   inkscape:version="1.1.1 (3bf5ae0d25, 2021-09-20)"
   xmlns:inkscape="http://www.inkscape.org/namespaces/inkscape"
   xmlns:sodipodi="http://sodipodi.sourceforge.net/DTD/sodipodi-0.dtd"
   xmlns="http://www.w3.org/2000/svg"
   xmlns:svg="http://www.w3.org/2000/svg"><defs
     id="defs6"><clipPath
       clipPathUnits="userSpaceOnUse"
       id="clipPath18"><path
         d="M 0,297.638 H 841.89 V 0 H 0 Z"
         id="path16" /></clipPath></defs><sodipodi:namedview
     id="namedview4"
     pagecolor="#ffffff"
     bordercolor="#666666"
     borderopacity="1.0"
     inkscape:pageshadow="2"
     inkscape:pageopacity="0.0"
     inkscape:pagecheckerboard="0"
     showgrid="false"
     inkscape:zoom="0.75528366"
     inkscape:cx="269.43519"
     inkscape:cy="54.284241"
     inkscape:window-width="1920"
     inkscape:window-height="1010"
     inkscape:window-x="-6"
     inkscape:window-y="-6"
     inkscape:window-maximized="1"
     inkscape:current-layer="g8"
     fit-margin-top="0"
     fit-margin-left="0"
     fit-margin-right="0"
     fit-margin-bottom="0" /><g
     id="g8"
     inkscape:groupmode="layer"
     inkscape:label="Ondat_logo_final_white_background"
     transform="matrix(1.3333333,0,0,-1.3333333,-349.58106,236.22066)"><g
       id="g12"><g
         id="g14"
         clip-path="url(#clipPath18)"><g
           id="g20"
           transform="translate(403.1377,152.1368)"><path
             d="m 0,0 c 0,6.043 -2.014,8.633 -8.993,8.633 -6.979,0 -9.136,-2.59 -9.136,-8.633 v -6.187 c 0,-5.971 2.014,-8.562 9.136,-8.562 6.979,0 8.993,2.52 8.993,8.562 z M -25.54,-6.187 V 0 c 0,10.072 5.395,15.54 16.547,15.54 C 2.446,15.54 7.41,10.359 7.41,0 v -6.187 c 0,-10 -5.395,-15.54 -16.403,-15.54 -11.511,0 -16.547,5.179 -16.547,15.54"
             style="fill:#1239b8;fill-opacity:1;fill-rule:nonzero;stroke:none"
             id="path22" /></g><g
           id="g24"
           transform="translate(425.0059,134.4385)"><path
             d="m 0,0 c 0,-2.59 -0.647,-3.237 -3.237,-3.237 h -0.936 c -2.59,0 -3.237,0.647 -3.237,3.237 v 19.281 c 0,9.281 5.252,13.957 15.683,13.957 10.936,0 15.612,-4.676 15.612,-13.957 L 23.885,0 c 0,-2.59 -0.648,-3.237 -3.238,-3.237 h -0.935 c -2.59,0 -3.237,0.647 -3.237,3.237 v 19.281 c 0,4.892 -1.799,7.05 -8.202,7.05 C 1.87,26.331 0,24.173 0,19.281 Z"
             style="fill:#1239b8;fill-opacity:1;fill-rule:nonzero;stroke:none"
             id="path26" /></g><g
           id="g28"
           transform="translate(460.3994,145.3028)"><path
             d="m 0,0 c 0,-7.698 2.734,-11.152 11.367,-11.152 8.634,0 11.366,3.454 11.366,11.152 v 7.05 c 0,7.697 -2.732,11.151 -11.366,11.151 C 2.734,18.201 0,14.747 0,7.05 Z m 26.619,0 c 0,-9.856 -5.107,-14.749 -15.252,-14.749 -10.72,0 -15.179,5.181 -15.179,14.749 v 6.979 c 0,9.568 4.171,14.819 14.819,14.819 5.972,0 9.929,-1.943 11.726,-5.755 v 12.733 c 0,1.368 0.361,1.728 1.728,1.728 h 0.433 c 1.365,0 1.725,-0.36 1.725,-1.728 z"
             style="fill:#017efa;fill-opacity:1;fill-rule:nonzero;stroke:none"
             id="path30" /></g><g
           id="g32"
           transform="translate(498.5273,145.3028)"><path
             d="m 0,0 c 0,-7.698 2.734,-11.152 11.367,-11.152 8.632,0 11.366,3.454 11.366,11.152 v 7.05 c 0,7.697 -2.734,11.151 -11.366,11.151 C 2.734,18.201 0,14.747 0,7.05 Z m 26.618,-13.022 c 0,-1.368 -0.359,-1.727 -1.726,-1.727 h -0.431 c -1.367,0 -1.728,0.359 -1.728,1.727 v 4.028 c -1.797,-3.812 -5.754,-5.755 -11.726,-5.755 -10.648,0 -14.82,5.252 -14.82,14.82 v 7.051 c 0,9.568 4.316,14.676 15.18,14.676 10.145,0 15.251,-4.892 15.251,-14.676 z"
             style="fill:#017efa;fill-opacity:1;fill-rule:nonzero;stroke:none"
             id="path34" /></g><g
           id="g36"
           transform="translate(531.1865,164.5108)"><path
             d="M 0,0 C 0,0.936 0.216,1.223 1.295,1.439 L 5.899,1.943 6.619,10 c 0.215,1.079 0.503,1.296 1.439,1.296 h 0.36 c 1.079,0 1.295,-0.36 1.295,-1.296 V 1.943 h 12.878 c 1.366,0 1.654,-0.432 1.654,-1.655 V 0 c 0,-1.223 -0.288,-1.655 -1.654,-1.655 H 9.713 v -19.857 c 0,-6.402 2.59,-8.775 7.409,-8.775 2.52,0 4.749,0.286 6.764,0.862 1.079,0.361 1.654,-0.143 1.654,-1.367 v -0.288 c 0,-1.222 -0.432,-1.653 -1.654,-2.013 -2.015,-0.576 -4.244,-0.864 -6.691,-0.864 -7.555,0 -11.296,4.173 -11.296,12.445 V -1.655 H 1.295 C 0.359,-1.655 0,-1.295 0,-0.359 Z"
             style="fill:#017efa;fill-opacity:1;fill-rule:nonzero;stroke:none"
             id="path38" /></g><g
           id="g40"
           transform="translate(579.7041,160.3438)"><path
             d="m 0,0 c 0,-0.489 -0.122,-0.611 -0.611,-0.611 h -0.193 c -0.489,0 -0.611,0.122 -0.611,0.611 V 5.049 L -2.777,0.157 c -0.123,-0.471 -0.35,-0.663 -0.857,-0.663 -0.436,0 -0.733,0.227 -0.855,0.663 L -5.904,5.049 V 0 c 0,-0.489 -0.122,-0.611 -0.612,-0.611 h -0.192 c -0.489,0 -0.611,0.122 -0.611,0.611 v 5.328 c 0,0.647 0.261,0.926 0.908,0.926 h 0.559 c 0.612,0 1.013,-0.385 1.206,-1.136 l 1.03,-3.913 1.1,4.141 c 0.14,0.716 0.507,0.908 1.345,0.908 h 0.263 C -0.297,6.254 0,5.939 0,5.328 Z m -8.507,5.521 c 0,-0.437 -0.105,-0.542 -0.542,-0.542 h -1.59 V 0 c 0,-0.489 -0.122,-0.611 -0.611,-0.611 h -0.191 c -0.49,0 -0.612,0.122 -0.612,0.611 v 4.979 h -1.59 c -0.436,0 -0.542,0.105 -0.542,0.542 v 0.191 c 0,0.436 0.106,0.542 0.542,0.542 h 4.594 c 0.437,0 0.542,-0.106 0.542,-0.542 z"
             style="fill:#017efa;fill-opacity:1;fill-rule:nonzero;stroke:none"
             id="path42" /></g><g
           id="g44"
           transform="translate(262.186,158.6475)"><path
             d="m 0,0 v -19.657 l 24.008,9.828 z"
             style="fill:#017efa;fill-opacity:1;fill-rule:nonzero;stroke:none"
             id="path46" /></g><g
           id="g48"
           transform="translate(286.1938,148.8184)"><path
             d="M 0,0 21.222,8.689 V 28.347 L -24.008,9.829 Z"
             style="fill:#1239b8;fill-opacity:1;fill-rule:nonzero;stroke:none"
             id="path50" /></g><g
           id="g52"
           transform="translate(262.186,138.9903)"><path
             d="M 0,0 45.23,-18.518 V 1.14 L 24.008,9.828 Z"
             style="fill:#0bbbef;fill-opacity:1;fill-rule:nonzero;stroke:none"
             id="path54" /></g><g
           id="g56"
           transform="translate(333.0488,148.8184)"><path
             d="M 0,0 24.008,-9.828 V 9.829 Z"
             style="fill:#017efa;fill-opacity:1;fill-rule:nonzero;stroke:none"
             id="path58" /></g><g
           id="g60"
           transform="translate(357.0566,158.6475)"><path
             d="M 0,0 -45.23,18.518 V -1.14 l 21.222,-8.689 z"
             style="fill:#0bbbef;fill-opacity:1;fill-rule:nonzero;stroke:none"
             id="path62" /></g><g
           id="g64"
           transform="translate(311.8262,140.1299)"><path
             d="M 0,0 V -19.657 L 45.23,-1.14 21.223,8.688 Z"
             style="fill:#1239b8;fill-opacity:1;fill-rule:nonzero;stroke:none"
             id="path66" /></g></g></g></g></svg>
