<?xml version="1.0" encoding="UTF-8" standalone="no"?>
<!-- Created with Inkscape (http://www.inkscape.org/) -->

<svg
   version="1.1"
   id="svg2"
   xml:space="preserve"
   width="1304.6327"
   height="167.78"
   viewBox="0 0 1304.6327 167.78"
   sodipodi:docname="Stormforge-logo_black.svg"
   inkscape:version="1.1.1 (3bf5ae0d25, 2021-09-20)"
   xmlns:inkscape="http://www.inkscape.org/namespaces/inkscape"
   xmlns:sodipodi="http://sodipodi.sourceforge.net/DTD/sodipodi-0.dtd"
   xmlns="http://www.w3.org/2000/svg"
   xmlns:svg="http://www.w3.org/2000/svg"><defs
     id="defs6" /><sodipodi:namedview
     id="namedview4"
     pagecolor="#ffffff"
     bordercolor="#666666"
     borderopacity="1.0"
     inkscape:pageshadow="2"
     inkscape:pageopacity="0.0"
     inkscape:pagecheckerboard="0"
     showgrid="false"
     fit-margin-top="0"
     fit-margin-left="0"
     fit-margin-right="0"
     fit-margin-bottom="0"
     inkscape:zoom="0.77083333"
     inkscape:cx="671.35135"
     inkscape:cy="72.648649"
     inkscape:window-width="1920"
     inkscape:window-height="1010"
     inkscape:window-x="-6"
     inkscape:window-y="-6"
     inkscape:window-maximized="1"
     inkscape:current-layer="g8" /><g
     id="g8"
     inkscape:groupmode="layer"
     inkscape:label="ink_ext_XXXXXX"
     transform="matrix(1.3333333,0,0,-1.3333333,-48.473999,210.11066)"><g
       id="g10"
       transform="scale(0.1)"><path
         d="m 9808.23,1189.72 c -36.75,0 -71.01,-10.76 -102.81,-32.27 -31.79,-21.5 -52.65,-51.99 -62.49,-91.4 h 323.89 c -10.72,41.2 -30.4,72.12 -59.13,92.75 -28.66,20.6 -61.76,30.92 -99.46,30.92 z m 340.07,-188.16 v -60.478 h -510.69 c 8.89,-47.5 28.87,-85.352 59.79,-113.562 30.92,-28.219 66.94,-42.329 108.21,-42.329 76.12,0 131.68,29.571 166.61,88.7 l 158.58,-33.621 c -28.7,-68.098 -71.2,-119.61 -127.7,-154.54 -56.4,-34.96 -122.25,-52.421 -197.49,-52.421 -96.83,0 -178.35,33.14 -244.63,99.453 -66.35,66.277 -99.46,151.41 -99.46,255.347 0,103.941 33.4,189.281 100.11,256.041 66.72,66.71 148.97,100.11 246.6,100.11 91.44,0 170.04,-32.05 235.87,-96.1 65.9,-64.06 100.6,-146.27 104.2,-246.6"
         style="fill:#100f0d;fill-opacity:1;fill-rule:nonzero;stroke:none"
         id="path12" /><path
         d="m 8965.9,787.852 c 50.16,0 94.49,18.597 133.06,55.777 38.5,37.191 57.76,85.351 57.76,144.48 0,59.131 -19.26,107.511 -57.76,145.141 -38.57,37.66 -82.9,56.47 -133.06,56.47 -54.69,0 -99.68,-18.38 -135.11,-55.12 -35.37,-36.75 -53.08,-85.57 -53.08,-146.491 0,-60.918 17.71,-109.519 53.08,-145.828 35.43,-36.269 80.42,-54.429 135.11,-54.429 z M 9334.11,1324.1 V 637.352 c 0,-100.321 -35.14,-178.75 -105.5,-235.211 -70.37,-56.442 -161.07,-84.661 -272.12,-84.661 -155.88,0 -264.75,49.29 -326.58,147.829 l 143.78,122.32 c 27.78,-34.957 54.62,-59.828 80.65,-74.59 25.95,-14.809 60.01,-22.199 102.15,-22.199 59.14,0 107.26,14.801 144.45,44.359 37.19,29.571 55.78,72.59 55.78,129.02 v 47.043 c -56.44,-51.961 -130.37,-77.953 -221.74,-77.953 -88.73,0 -165.8,33.621 -231.21,100.8 -65.4,67.192 -98.07,151.852 -98.07,254 0,102.161 32.96,187.031 98.8,254.691 65.84,67.63 142.62,101.46 230.48,101.46 91.37,0 165.3,-25.99 221.74,-77.94 v 57.78 h 177.39"
         style="fill:#100f0d;fill-opacity:1;fill-rule:nonzero;stroke:none"
         id="path14" /><path
         d="m 8507.56,1333.51 c 20.57,0 36.24,-1.79 47.03,-5.37 l -9.4,-170.69 h -39.02 c -159.46,0 -239.23,-95.88 -239.23,-287.61 V 653.469 h -177.4 V 1324.1 h 177.4 v -122.28 c 60.96,87.79 141.17,131.69 240.62,131.69"
         style="fill:#100f0d;fill-opacity:1;fill-rule:nonzero;stroke:none"
         id="path16" /><path
         d="m 7620.11,787.852 c 49.29,0 93.19,18.597 131.76,55.777 38.5,37.191 57.75,85.351 57.75,144.48 0,59.131 -19.25,107.291 -57.75,144.481 -38.57,37.19 -82.47,55.78 -131.76,55.78 -51.04,0 -96.03,-18.37 -135.03,-55.12 -38.94,-36.75 -58.48,-85.13 -58.48,-145.141 0,-60.039 19.54,-108.418 58.48,-145.14 39,-36.739 83.99,-55.117 135.03,-55.117 z m 0,552.398 c 100.41,0 185.71,-32.96 256.08,-98.8 70.28,-65.84 105.5,-150.31 105.5,-253.341 0,-103.027 -35.22,-187.461 -105.5,-253.339 -70.37,-65.84 -155.67,-98.758 -256.08,-98.758 -102.08,0 -188.56,32.918 -259.36,98.758 -70.79,65.878 -106.16,150.312 -106.16,253.339 0,103.031 35.37,187.501 106.16,253.341 70.8,65.84 157.28,98.8 259.36,98.8"
         style="fill:#100f0d;fill-opacity:1;fill-rule:nonzero;stroke:none"
         id="path18" /><path
         d="m 6807.48,1388.64 v -220.42 h 336.89 v -165.3 H 6807.48 V 653.48 h -182.79 v 900.46 h 671.97 v -165.3 h -489.18"
         style="fill:#100f0d;fill-opacity:1;fill-rule:nonzero;stroke:none"
         id="path20" /><path
         d="m 6184.65,1344.26 c 71.67,0 133.06,-25.34 184.1,-75.94 51.11,-50.61 76.64,-115.79 76.64,-195.52 V 653.469 H 6269.3 v 383.021 c 0,43.89 -12.54,79.07 -37.63,105.51 -25.08,26.43 -56.44,39.66 -94.05,39.66 -48.42,0 -86.48,-17.28 -114.26,-51.77 -27.78,-34.49 -41.63,-85.78 -41.63,-153.878 V 653.469 h -177.4 v 383.021 c 0,43.89 -12.54,79.07 -37.63,105.51 -25.08,26.43 -56.44,39.66 -94.06,39.66 -48.41,0 -86.04,-17.06 -112.94,-51.07 -26.84,-34.09 -40.32,-85.57 -40.32,-154.578 V 653.469 H 5341.97 V 1324.1 h 177.41 v -55.08 c 50.16,50.16 116.95,75.24 200.29,75.24 96.76,0 170.18,-36.75 220.35,-110.21 59.13,73.46 140.72,110.21 244.63,110.21"
         style="fill:#100f0d;fill-opacity:1;fill-rule:nonzero;stroke:none"
         id="path22" /><path
         d="m 5183.46,1333.51 c 20.56,0 36.24,-1.79 47.03,-5.37 l -9.41,-170.69 h -39.01 c -159.46,0 -239.23,-95.88 -239.23,-287.61 V 653.469 h -177.4 V 1324.1 h 177.4 v -122.28 c 60.96,87.79 141.16,131.69 240.62,131.69"
         style="fill:#100f0d;fill-opacity:1;fill-rule:nonzero;stroke:none"
         id="path24" /><path
         d="m 4299.02,787.852 c 49.29,0 93.19,18.597 131.76,55.777 38.5,37.191 57.75,85.351 57.75,144.48 0,59.131 -19.25,107.291 -57.75,144.481 -38.57,37.19 -82.47,55.78 -131.76,55.78 -51.04,0 -96.02,-18.37 -135.04,-55.12 -38.93,-36.75 -58.47,-85.13 -58.47,-145.141 0,-60.039 19.54,-108.418 58.47,-145.14 39.02,-36.739 84,-55.117 135.04,-55.117 z m 0,552.398 c 100.4,0 185.72,-32.96 256.08,-98.8 70.29,-65.84 105.51,-150.31 105.51,-253.341 0,-103.027 -35.22,-187.461 -105.51,-253.339 -70.36,-65.84 -155.68,-98.758 -256.08,-98.758 -102.08,0 -188.55,32.918 -259.35,98.758 -70.8,65.878 -106.16,150.312 -106.16,253.339 0,103.031 35.36,187.501 106.16,253.341 70.8,65.84 157.27,98.8 259.35,98.8"
         style="fill:#100f0d;fill-opacity:1;fill-rule:nonzero;stroke:none"
         id="path26" /><path
         d="m 3849.52,830.871 51.05,-147.832 c -61.84,-33.141 -120.1,-49.73 -174.71,-49.73 -82.46,0 -146.99,22.16 -193.52,66.531 -46.59,44.34 -69.92,111.308 -69.92,200.922 v 278.198 145.14 250 h 177.4 v -250 h 219.11 V 1178.96 H 3639.82 V 914.211 c 0,-77.07 32.74,-115.609 98.15,-115.609 34.04,0 71.23,10.757 111.55,32.269"
         style="fill:#100f0d;fill-opacity:1;fill-rule:nonzero;stroke:none"
         id="path28" /><path
         d="m 2979,1574.1 c 91.37,0 169.31,-23.34 233.84,-69.89 64.46,-46.59 105.22,-109.78 122.28,-189.51 l -182.8,-37.62 c -6.27,42.11 -25.95,75.94 -59.13,101.46 -33.17,25.56 -72.55,38.32 -118.27,38.32 -43.89,0 -79.26,-10.76 -106.16,-32.27 -26.9,-21.51 -40.32,-47.94 -40.32,-79.29 0,-49.29 30.04,-79.77 90.05,-91.4 L 3112,1174.93 c 74.38,-16.11 132.41,-45.9 174.04,-89.36 41.71,-43.49 62.5,-99.679 62.5,-168.679 0,-86.922 -32.67,-155.903 -98.07,-206.969 -65.41,-51.082 -151.89,-76.602 -259.43,-76.602 -99.46,0 -184.33,23.039 -254.61,69.231 -70.38,46.121 -110.91,112.219 -121.7,198.219 l 192.2,38.968 c 23.33,-97.668 90.48,-146.476 201.61,-146.476 51.04,0 90.48,10.75 118.27,32.258 27.78,21.468 41.63,48.82 41.63,81.96 0,26.899 -7.81,47.942 -23.48,63.18 -15.67,15.231 -42.8,26.871 -81.3,34.92 l -190.89,36.32 c -157.64,33.14 -236.53,119.14 -236.53,258.04 0,81.52 30.91,147.58 92.74,198.22 61.84,50.6 145.18,75.94 250.02,75.94"
         style="fill:#100f0d;fill-opacity:1;fill-rule:nonzero;stroke:none"
         id="path30" /><path
         d="m 2156.86,1406.7 c 28.8,8.37 64.5,13.45 93.62,20 0,51.28 0,98.85 0,149.13 -147.5,0 -295.25,0 -442.94,0 l -151.52,-179.34 208.64,-8.3 -526.32,-492.46 251.51,383.59 -233.51,6.81 207.4,289.7 c -193.61,0 -387.09,0 -579.748,0 -3.086,-26.02 -5.84,-49.24 -9.082,-76.5 -203.055,0 -403.086,0 -611.355,0 8.133,-17.28 10.84,-29.71 18.254,-37.82 133.359,-145.69 293.855,-244.41 490.593,-277.42 47.657,-8 96.914,-6.36 144.578,-14.25 87.93,-14.55 148.52,-83.14 156.47,-171.578 9.93,-110.614 -47.55,-178.653 -190.208,-223.282 0,-44.921 0,-90.468 0,-139.929 158.938,0 314.518,0 469.498,0 39.04,111.847 79.94,149.679 160.48,149.64 80.45,-0.043 123.98,-40.492 159.07,-147.543 157.48,0 314.73,0 476.48,0 0,32.282 -2.51,58.852 0.52,84.774 5.96,50.867 -9.71,69.988 -65.38,78.18 -135.76,19.98 -242.31,146.027 -249.26,279.168 -8.2,156.84 78.92,285.8 222.21,327.43"
         style="fill:#100f0d;fill-opacity:1;fill-rule:nonzero;stroke:none"
         id="path32" /></g></g></svg>
